<?xml version="1.0" encoding="UTF-8" standalone="no"?>
<svg
   version="1.0"
   viewBox="0 0 915.71949 494.88097"
   preserveAspectRatio="xMidYMid"
   x="0px"
   y="0px"
   id="svg71"
   width="915.71948"
   height="494.88095"
   xmlns:xlink="http://www.w3.org/1999/xlink"
   xmlns="http://www.w3.org/2000/svg"
   xmlns:svg="http://www.w3.org/2000/svg">
  <defs
     id="defs71" />
  <g
     transform="matrix(0.05292799,0,0,-0.04792287,204.53272,562.45221)"
     fill="#000000"
     stroke="none"
     id="g70">
    <path
       d="m 4069,8689 c -8,-24 -13,-84 -14,-134 0,-111 26,-176 91,-234 50,-43 139,-77 160,-60 25,20 47,109 41,161 -9,70 -33,105 -112,165 -39,28 -89,73 -112,99 l -41,47 z"
       id="path1" />
    <path
       d="m 4689,8552 c -20,-67 -16,-149 9,-198 23,-45 87,-107 105,-101 34,11 48,156 21,210 -24,48 -60,93 -93,116 l -29,21 z"
       id="path2" />
    <path
       d="m 5066,8543 c -95,-74 -120,-166 -72,-261 35,-68 51,-80 79,-56 93,77 127,128 127,188 0,35 -56,157 -76,163 -5,2 -32,-13 -58,-34 z"
       id="path3" />
    <path
       d="m 5441,8500 c -36,-19 -87,-55 -114,-80 -59,-55 -81,-117 -66,-195 11,-61 47,-135 64,-135 8,0 42,19 77,43 49,34 69,56 91,98 28,54 28,55 20,180 l -8,125 z"
       id="path4" />
    <path
       d="m 6777,8483 c -15,-15 -64,-53 -109,-83 -45,-30 -91,-67 -102,-83 -25,-33 -34,-138 -16,-191 10,-33 15,-36 49,-36 50,0 134,43 171,88 55,66 76,200 47,295 l -12,38 z"
       id="path5" />
    <path
       d="m 6377,8471 c -136,-69 -206,-200 -177,-328 6,-30 17,-53 24,-53 16,0 83,48 113,81 47,52 88,190 81,277 l -3,43 z"
       id="path6" />
    <path
       d="m 3520,8340 c 0,-22 59,-107 102,-145 66,-60 130,-85 222,-85 h 78 l -6,28 c -14,54 -60,114 -111,143 -83,46 -285,88 -285,59 z"
       id="path7" />
    <path
       d="m 5816,8235 c -28,-111 -19,-150 46,-211 29,-28 87,-64 102,-64 3,0 16,19 28,43 15,29 22,60 22,102 1,80 -24,115 -114,160 l -68,34 z"
       id="path8" />
    <path
       d="m 4516,8225 c -22,-8 -51,-22 -65,-33 -29,-21 -66,-82 -77,-126 l -7,-29 62,5 c 47,3 71,11 104,34 44,30 87,100 87,141 0,19 -5,23 -32,23 -18,-1 -51,-7 -72,-15 z"
       id="path9" />
    <path
       d="m 4222,8033 c 31,-259 101,-485 205,-662 65,-110 87,-135 333,-386 244,-248 319,-345 379,-489 51,-123 72,-218 78,-356 6,-161 -10,-271 -84,-547 -55,-207 -57,-212 -70,-182 -24,57 -85,152 -155,242 l -69,88 27,132 c 21,103 27,163 28,272 1,163 -9,214 -66,335 -35,72 -56,100 -147,191 -102,102 -163,149 -491,375 -150,103 -258,206 -300,286 -18,34 -50,118 -70,187 -62,208 -107,306 -192,418 -47,62 -128,144 -128,130 0,-4 20,-35 45,-71 90,-128 124,-218 184,-484 17,-74 41,-158 55,-187 l 24,-52 -57,-7 c -119,-13 -520,-28 -603,-23 -49,3 -88,2 -88,-2 0,-10 100,-55 160,-72 54,-15 264,-17 482,-5 l 157,9 88,-89 c 99,-100 186,-172 353,-294 361,-262 424,-323 472,-458 34,-97 14,-274 -51,-445 l -11,-28 -47,39 c -139,116 -321,204 -778,377 -126,48 -335,132 -464,187 -128,54 -235,98 -236,96 -6,-6 163,-128 263,-191 143,-90 311,-174 558,-280 386,-166 508,-236 642,-369 145,-144 252,-339 303,-556 18,-76 51,-303 45,-309 -1,-2 -37,38 -80,87 -272,317 -685,521 -1131,560 -66,6 -190,14 -275,20 -179,10 -235,26 -346,96 -145,90 -225,213 -293,454 -46,161 -80,240 -139,327 -65,96 -73,90 -21,-14 57,-112 89,-228 89,-319 0,-111 20,-263 45,-335 45,-134 136,-254 257,-339 54,-38 64,-49 51,-55 -10,-3 -92,-9 -183,-12 -132,-4 -179,-2 -234,11 -152,36 -282,134 -439,331 -44,55 -81,102 -84,105 -13,14 42,-101 77,-159 111,-190 243,-309 405,-362 69,-23 78,-23 535,-24 440,-1 472,-2 589,-24 362,-67 616,-192 838,-412 160,-160 283,-368 348,-589 9,-30 10,-39 2,-26 -86,139 -239,294 -364,368 -279,166 -581,198 -958,102 -137,-34 -308,-43 -391,-19 -83,24 -158,69 -225,136 -56,56 -120,142 -153,207 -25,48 -28,35 -10,-39 46,-184 165,-335 329,-418 49,-25 56,-31 40,-37 -11,-4 -42,-16 -70,-27 -212,-83 -462,-153 -650,-183 -60,-10 -114,-21 -118,-24 -4,-4 36,-10 91,-13 178,-12 405,20 625,88 549,171 546,170 782,169 153,0 192,-4 260,-22 360,-99 618,-383 685,-754 46,-250 16,-921 -60,-1363 -76,-440 -253,-718 -567,-887 l -88,-48 h 52 c 77,0 272,27 389,55 275.7847,1.6158 250.1517,-70.2631 737,-17 22,-11 41,-17 44,-14 l 643,-24 60.5013,5.1734 -62.6841,62.7957 C 5730.8172,1635.9691 5605,1875 5521,2261 c -55,254 -91,660 -98,1094 -6,380 1,465 57,637 61,190 150,330 304,475 244,230 567,329 847,258 35,-9 109,-38 164,-65 94,-46 139,-78 364,-256 85,-68 144,-103 201,-119 22,-7 21,-5 -10,26 -19,19 -68,75 -108,124 -364,449 -908,587 -1382,350 -41,-20 -88,-47 -105,-59 -16,-12 -48,-35 -69,-52 l -40,-29 20,34 c 30,53 161,188 228,236 167,118 359,175 590,175 62,0 199,-9 306,-20 426,-45 591,-24 745,93 68,52 102,94 238,297 54,80 129,190 167,245 38,55 70,104 70,110 0,16 -133,-120 -282,-288 -167,-188 -254,-268 -328,-305 -52,-26 -62,-27 -190,-26 -95,1 -184,9 -300,28 -224,37 -502,46 -648,22 -56,-10 -141,-30 -189,-47 l -88,-29 40,35 c 111,98 314,243 860,615 379,259 557,393 721,543 97,89 154,150 122,131 -8,-5 -136,-84 -284,-176 -994,-618 -1039,-645 -1042,-624 -1,12 -14,90 -28,174 -33,191 -30,271 10,360 39,85 121,159 277,251 144,85 199,120 199,125 0,2 -33,-9 -74,-24 -264,-102 -416,-212 -483,-349 l -28,-56 v -292 -292 l -150,-98 c -395,-261 -653,-530 -815,-849 -46,-93 -48,-94 -54,-62 -17,97 -27,287 -22,410 24,491 176,855 480,1145 129,124 279,221 536,347 243,119 358,198 447,305 62,74 134,216 157,307 22,84 32,226 18,250 -11,18 -11,18 -12,1 0,-34 -61,-161 -114,-241 -73,-110 -198,-229 -331,-315 -60,-40 -222,-129 -360,-198 -137,-69 -280,-145 -317,-169 l -67,-43 -10,37 c -82,305 -70,595 33,834 76,176 161,299 379,548 75,85 134,156 132,158 -4,5 -138,-92 -220,-159 -99,-81 -235,-221 -305,-314 -238,-316 -292,-720 -158,-1183 l 12,-42 -46,-46 -45,-46 -13,68 c -63,340 -188,525 -584,857 -362,304 -411,374 -552,792 -37,110 -70,203 -74,208 -3,4 -3,-23 2,-60 z"
       id="path10" />
    <path
       d="m 6880,8054 c -86,-58 -143,-141 -143,-210 0,-48 40,-127 88,-174 l 32,-31 52,63 c 68,83 86,122 85,183 0,48 -29,119 -67,168 -17,21 -17,21 -47,1 z"
       id="path11" />
    <path
       d="m 3135,8035 c -27,-7 -83,-14 -122,-14 -40,-1 -73,-4 -73,-7 0,-19 81,-122 123,-155 92,-73 197,-85 294,-34 90,47 90,46 56,107 -17,29 -47,66 -67,82 -31,25 -47,30 -99,32 -34,2 -84,-3 -112,-11 z"
       id="path12" />
    <path
       d="m 3875,7898 c 13,-63 46,-118 88,-147 46,-30 127,-61 164,-61 20,0 22,3 16,33 -19,99 -97,175 -198,192 -22,4 -48,9 -59,12 -16,4 -17,1 -11,-29 z"
       id="path13" />
    <path
       d="m 5374,7884 c -55,-132 -51,-214 13,-285 46,-51 120,-102 137,-96 20,8 65,109 73,162 12,90 -39,165 -157,229 l -50,27 z"
       id="path14" />
    <path
       d="m 7315,7904 c -77,-28 -134,-110 -150,-215 l -7,-46 54,-7 c 53,-7 143,5 176,23 44,24 83,81 116,169 l 34,92 -92,-1 c -53,0 -108,-6 -131,-15 z"
       id="path15" />
    <path
       d="m 4641,7762 c -59,-129 -36,-229 74,-330 31,-29 61,-52 66,-52 6,0 28,38 51,85 72,151 52,241 -73,324 -34,23 -67,41 -74,41 -6,0 -26,-31 -44,-68 z"
       id="path16" />
    <path
       d="m 2990,7638 c 0,-106 57,-197 147,-235 62,-26 66,-22 61,61 -7,112 -62,188 -161,225 -45,17 -47,15 -47,-51 z"
       id="path17" />
    <path
       d="m 6245,7686 c -123,-30 -189,-96 -209,-208 -8,-44 -6,-44 72,-24 122,33 199,107 227,219 6,24 4,27 -16,26 -13,0 -46,-6 -74,-13 z"
       id="path18" />
    <path
       d="m 3368,7668 c -32,-12 -58,-25 -58,-28 0,-21 100,-146 130,-162 40,-21 114,-24 172,-6 37,11 38,13 32,42 -32,148 -137,207 -276,154 z"
       id="path19" />
    <path
       d="m 2603,7523 c -18,-2 -33,-8 -33,-13 0,-4 11,-41 25,-82 42,-126 139,-191 260,-172 69,10 71,13 52,90 -31,125 -86,173 -204,179 -38,1 -83,1 -100,-2 z"
       id="path20" />
    <path
       d="m 5134,7444 c -77,-46 -99,-68 -125,-121 -16,-33 -20,-57 -17,-93 5,-52 62,-180 79,-180 17,0 109,82 145,129 45,58 57,106 44,168 -12,52 -47,133 -59,133 -4,0 -34,-16 -67,-36 z"
       id="path21" />
    <path
       d="m 6468,7385 c -87,-57 -123,-109 -122,-179 1,-51 31,-144 59,-180 14,-18 15,-18 59,8 103,60 151,137 143,226 -4,53 -50,171 -65,170 -4,-1 -37,-21 -74,-45 z"
       id="path22" />
    <path
       d="m 7247,7320 c -80,-24 -133,-103 -144,-213 -7,-81 -1,-86 101,-68 135,22 209,100 223,234 l 6,57 -79,-1 c -43,0 -92,-5 -107,-9 z"
       id="path23" />
    <path
       d="m 7702,7281 c -57,-20 -87,-43 -107,-81 -17,-34 -27,-112 -19,-145 6,-25 10,-26 43,-20 57,10 124,48 149,85 18,27 22,47 22,106 0,85 -1,85 -88,55 z"
       id="path24" />
    <path
       d="m 6010,7046 c -92,-32 -123,-50 -158,-90 -53,-61 -63,-139 -30,-247 6,-22 15,-39 19,-39 28,0 122,46 158,76 56,48 67,74 75,174 4,47 9,100 13,118 6,37 7,37 -77,8 z"
       id="path25" />
    <path
       d="m 3253,6983 c -4,-21 -8,-81 -8,-133 0,-73 4,-103 19,-130 24,-45 64,-88 99,-106 27,-15 28,-14 45,23 28,62 22,166 -12,232 -27,52 -110,151 -127,151 -4,0 -12,-17 -16,-37 z"
       id="path26" />
    <path
       d="m 2386,6984 c -13,-34 -5,-154 14,-217 26,-85 83,-145 165,-176 82,-31 106,-26 121,24 20,65 17,127 -9,175 -19,37 -37,52 -111,92 -49,26 -108,64 -131,83 -35,28 -44,32 -49,19 z"
       id="path27" />
    <path
       d="m 2810,6990 c 0,-3 9,-45 20,-94 30,-135 70,-181 185,-211 101,-26 105,-23 105,93 0,98 -40,159 -126,193 -31,12 -184,28 -184,19 z"
       id="path28" />
    <path
       d="m 7950,6930 c -142,-29 -204,-74 -229,-165 -12,-43 -15,-134 -5,-159 15,-39 164,-2 223,56 46,45 60,77 81,186 10,53 17,98 17,98 -1,1 -40,-6 -87,-16 z"
       id="path29" />
    <path
       d="m 3780,6861 c -123,-38 -218,-148 -236,-273 l -6,-47 38,6 c 56,8 131,51 165,94 37,47 75,132 84,187 7,45 4,48 -45,33 z"
       id="path30" />
    <path
       d="m 7483,6791 c -122,-97 -172,-244 -122,-354 l 12,-26 37,19 c 48,25 95,81 116,139 19,54 30,206 17,239 -9,23 -9,23 -60,-17 z"
       id="path31" />
    <path
       d="m 3947,6656 c -42,-109 -48,-143 -32,-188 19,-55 62,-114 108,-148 47,-34 54,-31 94,37 79,135 59,228 -70,328 -31,25 -60,45 -65,45 -4,0 -20,-33 -35,-74 z"
       id="path32" />
    <path
       d="m 7035,6612 c -78,-50 -152,-132 -166,-185 -6,-23 -9,-64 -5,-91 6,-55 50,-154 72,-163 19,-7 98,53 128,96 13,20 29,52 34,71 11,34 12,310 2,310 -3,0 -32,-17 -65,-38 z"
       id="path33" />
    <path
       d="m 8044,6586 c -43,-19 -97,-68 -119,-110 l -19,-35 28,-30 c 16,-16 51,-39 79,-51 65,-28 160,-24 227,10 43,22 160,125 160,141 0,5 -19,13 -42,19 -24,6 -78,24 -121,40 -84,32 -144,37 -193,16 z"
       id="path34" />
    <path
       d="m 2275,6559 c -22,-5 -68,-19 -103,-29 -35,-11 -82,-20 -103,-20 -21,0 -39,-3 -39,-6 0,-17 77,-105 120,-138 109,-83 238,-89 353,-16 l 48,30 -27,51 c -31,56 -87,105 -142,125 -43,15 -53,15 -107,3 z"
       id="path35" />
    <path
       d="m 4432,6433 c -18,-62 -25,-120 -18,-158 13,-68 118,-154 217,-178 25,-6 26,-5 33,46 18,151 3,208 -68,262 -31,24 -123,65 -145,65 -4,0 -13,-17 -19,-37 z"
       id="path36" />
    <path
       d="m 3112,6297 c -52,-40 -99,-106 -108,-154 -8,-42 0,-129 15,-166 13,-33 29,-28 82,25 52,52 71,107 77,225 6,119 3,122 -66,70 z"
       id="path37" />
    <path
       d="m 6586,6222 c -47,-35 -93,-103 -102,-149 -13,-68 19,-189 53,-200 14,-5 76,81 97,136 25,64 23,241 -3,241 -4,0 -24,-13 -45,-28 z"
       id="path38" />
    <path
       d="m 2505,6133 c -50,-9 -145,-36 -145,-41 0,-9 51,-94 77,-129 38,-49 103,-77 168,-70 29,3 66,12 83,21 29,15 30,17 20,53 -30,112 -116,182 -203,166 z"
       id="path39" />
    <path
       d="m 7654,6084 c -45,-102 -33,-175 41,-248 61,-61 70,-62 99,-14 44,75 58,119 51,156 -8,41 -67,108 -124,140 l -41,24 z"
       id="path40" />
    <path
       d="m 1630,6108 c 0,-31 72,-161 112,-200 65,-65 108,-83 203,-83 58,0 93,5 124,19 41,19 42,21 36,55 -16,83 -81,161 -152,180 -21,6 -72,11 -114,11 -73,0 -154,11 -191,25 -12,5 -18,2 -18,-7 z"
       id="path41" />
    <path
       d="m 8551,6109 c -14,-5 -68,-12 -120,-15 -164,-9 -179,-12 -223,-52 -41,-36 -88,-120 -88,-155 0,-30 83,-61 165,-61 88,0 145,25 209,94 43,46 106,158 106,188 0,14 -15,15 -49,1 z"
       id="path42" />
    <path
       d="m 3297,5948 c -37,-113 -36,-163 6,-224 29,-43 115,-114 138,-114 13,0 59,77 76,127 32,92 -4,171 -110,247 -36,25 -69,46 -74,46 -5,0 -21,-37 -36,-82 z"
       id="path43" />
    <path
       d="m 7340,5891 c 0,-16 15,-58 33,-92 37,-72 92,-114 166,-125 l 43,-7 -7,44 c -17,104 -89,175 -207,203 -26,6 -28,4 -28,-23 z"
       id="path44" />
    <path
       d="m 3923,5870 c -104,-21 -181,-96 -207,-202 -6,-24 -3,-28 17,-28 46,0 143,32 190,62 53,34 104,100 113,148 6,29 6,30 -32,29 -22,-1 -58,-5 -81,-9 z"
       id="path45" />
    <path
       d="m 6036,5827 c -22,-18 -61,-53 -88,-78 -46,-44 -48,-49 -48,-100 0,-54 34,-148 59,-163 31,-20 156,100 167,159 7,41 -8,121 -34,177 l -17,36 z"
       id="path46" />
    <path
       d="m 5540,5765 c 0,-33 35,-104 68,-138 36,-37 107,-67 160,-67 21,0 23,3 17,33 -12,57 -57,119 -105,144 -57,29 -140,46 -140,28 z"
       id="path47" />
    <path
       d="m 2546,5724 c -3,-9 -6,-46 -6,-82 0,-55 5,-74 25,-104 26,-38 124,-94 148,-85 18,7 40,111 33,153 -10,50 -50,90 -112,113 -66,25 -80,26 -88,5 z"
       id="path48" />
    <path
       d="m 1756,5699 c -49,-12 -159,-64 -175,-83 -10,-12 -2,-18 56,-35 120,-36 186,-51 220,-51 45,0 132,34 173,69 l 35,29 -50,31 c -79,50 -161,63 -259,40 z"
       id="path49" />
    <path
       d="m 8279,5696 c -42,-16 -109,-58 -109,-68 0,-26 143,-98 194,-98 20,0 233,49 285,66 20,6 -24,38 -105,76 -55,26 -83,32 -149,35 -51,2 -93,-2 -116,-11 z"
       id="path50" />
    <path
       d="m 4256,5667 c 25,-118 80,-197 152,-217 51,-14 115,-13 136,3 16,12 17,19 7,72 -22,119 -84,167 -219,171 l -83,2 z"
       id="path51" />
    <path
       d="m 7105,5654 c -72,-173 -56,-261 62,-348 64,-48 81,-44 116,26 62,126 42,201 -78,300 -38,31 -73,57 -77,58 -4,0 -15,-16 -23,-36 z"
       id="path52" />
    <path
       d="m 1981,5381 c 55,-158 122,-211 266,-211 101,0 108,5 100,68 -10,82 -51,147 -112,180 -22,12 -61,16 -151,16 l -121,1 z"
       id="path53" />
    <path
       d="m 8020,5429 c -67,-27 -119,-115 -123,-211 l -2,-43 67,-3 c 37,-2 86,2 108,8 76,20 142,100 174,208 l 15,52 -107,-1 c -59,0 -118,-5 -132,-10 z"
       id="path54" />
    <path
       d="m 1550,5364 c 30,-77 151,-209 230,-249 56,-28 160,-36 160,-12 0,47 -35,123 -75,162 -67,68 -199,125 -287,125 -36,0 -37,-1 -28,-26 z"
       id="path55" />
    <path
       d="m 8540,5371 c -148,-48 -229,-127 -255,-250 l -7,-34 58,5 c 77,6 124,29 201,101 57,54 143,166 143,188 0,15 -81,9 -140,-10 z"
       id="path56" />
    <path
       d="m 1992,5021 c -29,-18 26,-22 191,-15 98,4 163,10 155,15 -17,11 -329,11 -346,0 z"
       id="path57" />
    <path
       d="m 3233,5017 c -40,-6 -73,-15 -73,-21 1,-20 39,-97 71,-141 40,-55 98,-85 165,-85 61,0 153,26 160,45 7,18 -40,122 -69,154 -52,57 -111,68 -254,48 z"
       id="path58" />
    <path
       d="m 7885,5021 c -12,-5 46,-11 146,-16 164,-7 227,-2 198,16 -17,11 -317,11 -344,0 z"
       id="path59" />
    <path
       d="m 2421,4924 c -107,-29 -157,-83 -180,-192 -16,-76 -16,-75 27,-68 134,24 192,67 222,163 36,118 32,124 -69,97 z"
       id="path60" />
    <path
       d="m 7731,4887 c 5,-31 13,-67 18,-80 18,-46 70,-95 119,-111 53,-17 115,-24 121,-13 8,15 -9,99 -28,135 -36,69 -92,105 -188,118 l -50,6 z"
       id="path61" />
    <path
       d="m 8128,4930 c -36,-22 -11,-160 38,-214 15,-15 66,-46 113,-68 47,-22 109,-57 138,-79 29,-21 55,-39 58,-39 10,0 4,126 -9,175 -26,100 -73,163 -148,201 -55,28 -162,41 -190,24 z"
       id="path62" />
    <path
       d="m 1947,4916 c -121,-44 -197,-171 -197,-334 v -64 l 40,34 c 40,35 96,66 202,112 72,31 105,78 120,169 14,86 6,97 -71,97 -31,-1 -73,-7 -94,-14 z"
       id="path63" />
    <path
       d="m 7190,4766 c 0,-30 30,-109 53,-139 34,-45 114,-86 173,-89 49,-3 49,-3 46,26 -7,67 -68,143 -137,171 -16,7 -54,20 -82,28 -42,13 -53,13 -53,3 z"
       id="path64" />
    <path
       d="m 2643,4656 c -29,-14 -68,-36 -88,-49 l -36,-24 46,-51 c 61,-67 139,-106 200,-100 44,5 128,42 174,77 l 23,18 -44,54 c -82,100 -169,124 -275,75 z"
       id="path65" />
    <path
       d="m 7665,4568 c -40,-22 -78,-64 -101,-113 -34,-71 -32,-81 20,-94 116,-29 184,-2 257,102 27,38 49,73 49,77 0,12 -113,40 -161,40 -24,0 -53,-6 -64,-12 z"
       id="path66" />
    <path
       d="m 6900,4307 c 0,-48 42,-129 86,-165 38,-31 149,-82 180,-82 14,0 15,7 10,41 -16,100 -82,170 -200,212 l -76,26 z"
       id="path67" />
    <path
       d="m 3275,4245 c -72,-29 -116,-76 -145,-152 -28,-74 -26,-83 13,-83 44,0 125,40 166,81 37,37 81,121 81,157 0,30 -36,29 -115,-3 z"
       id="path68" />
    <path
       d="m 7565,4211 c -37,-10 -104,-41 -110,-52 -7,-11 20,-76 51,-120 38,-56 84,-76 195,-83 53,-3 123,-15 155,-26 32,-10 60,-18 61,-16 5,4 -28,109 -44,140 -23,45 -93,116 -136,138 -44,22 -126,31 -172,19 z"
       id="path69" />
    <path
       d="m 2520,4105 c -72,-23 -160,-109 -160,-156 0,-8 31,-10 108,-8 97,4 115,7 167,34 62,32 134,110 117,127 -17,17 -183,19 -232,3 z"
       id="path70" />
  </g>
  <rect
     style="fill:none;stroke-width:1.2783"
     id="rect3"
     width="749.56293"
     height="741.94489"
     x="114.38706"
     y="41.344273"
     rx="1.1053064"
     ry="0.27368867" />
  <text
     xml:space="preserve"
     id="text1"
     style="font-style:normal;font-variant:normal;font-weight:normal;font-stretch:normal;font-size:117.88px;line-height:4.65;font-family:'Domestic Manners';-inkscape-font-specification:'Domestic Manners';letter-spacing:0px;word-spacing:0px;white-space:pre;shape-padding:0;fill:#000000;fill-opacity:1;stroke:none"
     transform="matrix(1.3388166,0,0,1.2637767,-190.44255,-606.61787)"><textPath
       xlink:href="#path73"
       startOffset="50%"
       id="textPath74"
       style="font-style:normal;font-variant:normal;font-weight:bold;font-stretch:normal;font-size:117.88px;line-height:4.65;font-family:'Dancing Script OT';-inkscape-font-specification:'Dancing Script OT Bold';text-align:center;text-anchor:middle;fill:#000000">La Ramure des mots</textPath></text>
  <path
     style="fill:none;stroke-width:2.34653"
     id="path73"
     d="M 1042.517,-489.36688 A 245.27299,263.50226 0 0 1 798.71013,-225.86933 245.27299,263.50226 0 0 1 551.98849,-486.21666 245.27299,263.50226 0 0 1 792.84565,-752.82677 245.27299,263.50226 0 0 1 1042.4468,-495.66689"
     transform="rotate(90)" />
</svg>
