<?xml version="1.0" encoding="UTF-8" standalone="no"?>
<svg
   viewBox="0 0 250000 250000"
   version="1.1"
   id="svg491"
   sodipodi:docname="tree_life (Copie).svg"
   inkscape:export-filename="tree_life_wroots.svg"
   inkscape:export-xdpi="350"
   inkscape:export-ydpi="350"
   width="250000"
   height="250000"
   xmlns:inkscape="http://www.inkscape.org/namespaces/inkscape"
   xmlns:sodipodi="http://sodipodi.sourceforge.net/DTD/sodipodi-0.dtd"
   xmlns="http://www.w3.org/2000/svg"
   xmlns:svg="http://www.w3.org/2000/svg">
  <defs
     id="defs491" />
  <sodipodi:namedview
     id="namedview491"
     pagecolor="#ffffff"
     bordercolor="#999999"
     borderopacity="1"
     inkscape:showpageshadow="2"
     inkscape:pageopacity="0"
     inkscape:pagecheckerboard="0"
     inkscape:deskcolor="#d1d1d1" />
  <style
     id="style1"><![CDATA[.B{fill:#263238}.C{fill:#b7e0a3}]]></style>
  <g
     class="B"
     id="g6">
    <path
       d="m 326.17,187.76 -5.7,2.94 c -1.28,0.55 -11.23,-2.94 -11.23,-2.94 v 3 l 10.67,2.31 c 1.28,0.39 7.55,-4 7.55,-4 z M 173.36,140 l -0.39,-4.5 -2.29,-5.43 1.79,-0.87 4.07,5.8 c 0,0.25 2,4.55 2,4.55 z m 103.36,67.82 7.57,42.72 -21.76,49.51 6.89,22.54 -44.64,9.32 c 0,0 2.56,-26.93 4.81,-35.24 2.25,-8.31 10.85,-22.95 10.85,-22.95 l 12.56,-27.15 -10.51,-10.1 3.14,-26.59 24.28,-9.88"
       id="path1" />
    <path
       d="m 259.52,216.4 c 0,0 -13.06,-20.72 -16.18,-24.4 -3.12,-3.68 -6,-6.52 -6,-6.52 0,0 -2.27,-7.38 -6.24,-11.92 -3.97,-4.54 -20.43,-6 -23.27,-9.93 -2.84,-3.93 -1.42,-5.11 -4.25,-10.79 -2.83,-5.68 -4.54,-6.24 -2.27,-9.36 2.27,-3.12 7.37,-4.54 7.94,-11.07 l 0.85,-9.64 c 0,0 0.29,-9.08 -0.56,-12.49 -0.85,-3.41 -4.54,-5.68 -4.54,-5.68 l -4.72,2.77 c 0,0 2.6,0.1 3,6.09 a 34.94,34.94 0 0 1 -1.39,12.13 15.5,15.5 0 0 0 -8.79,-5.1 c -5.39,-0.85 -19.58,-1.14 -24.12,-2.56 -4.54,-1.42 -10.22,-11.35 -10.22,-11.35 l -1.13,2.56 c 0,0 4.54,9.08 9.36,11.35 4.82,2.27 17.88,-0.29 25,3.4 7.12,3.69 8.23,3.12 6.53,8.23 0,0 -1.7,3.69 -3.41,4.82 -1.71,1.13 -2.27,6.53 -2.27,6.53 l 0.57,4.82 c 0,0 -5.39,-5.67 -10.21,-7.94 a 54.39,54.39 0 0 0 -6.81,-2.84 c 0,0 -6.81,4.26 -11.64,4.83 -4.83,0.57 -15,-0.29 -15,-0.29 l -1.42,4 6.81,1.71 c 0,0 13.34,-1.42 17.6,-0.85 4.26,0.57 13.26,7.34 13.26,7.34 l 3.41,8.52 c 0,0 1.13,6.24 4.82,8.79 3.69,2.55 16.74,4.26 19.87,7.38 3.13,3.12 9.08,13.05 9.36,13.9 0.28,0.85 0.85,9.94 3.12,12.49 2.27,2.55 17,24.49 17,24.49 z"
       id="path2" />
    <path
       d="m 346.35,185.18 c 0,0 -6.81,-12.48 -16.46,-13.33 -9.65,-0.85 -17.31,-2.56 -23.27,-6 -5.96,-3.44 -15.32,-8.8 -19.29,-9.65 -3.97,-0.85 -8.52,-1.42 -11.07,1.7 -2.55,3.12 -3.12,8.7 -7.38,12.44 -4.26,3.74 -6.24,7.43 -6.53,11.4 -0.29,3.97 2,17.85 2,17.85 L 253,217.81 242.5,203.63 c 0,0 4,-25.26 9.65,-33.49 5.65,-8.23 24.12,-31.21 38.59,-25.53 l 6,2.27 c 0,0 8.57,0 5.7,-6.81 -2.87,-6.81 -3.15,-13.06 -8,-18.16 -4.85,-5.1 -10.5,-10.22 -10.78,-14.76 -0.17129,-2.77164 0.41646,-5.53752 1.7,-8 h 4.82 c -2.48168,2.05175 -2.85995,5.71435 -0.85,8.23 3.41,4.83 11.35,13.62 15,18.73 3.65,5.11 4.54,15 2.84,19.58 -1.11453,2.77976 -3.26607,5.01736 -6,6.24 0,0 7.09,10.79 24.4,8 0,0 7.95,-8.23 12.49,-9.93 4.54,-1.7 19,-6 20.43,-9.65 1.43,-3.65 -0.57,-6.53 1.7,-8.8 2.27,-2.27 6.24,-3.4 6.81,-7.37 l 1.7,-11.07 2.56,2.27 c 0,0 0.28,8.51 -2.56,11.92 -2.84,3.41 -7.37,3.4 -7.37,10.21 0,6.81 1.41,8.8 -4.26,11.64 -5.67,2.84 -15.61,4 -18.73,7.09 -1.6709,1.51969 -3.02956,3.35049 -4,5.39 l -2.84,5.58 c 0,0 10.22,4.35 15,11.45 4.78,7.1 12.77,16.45 17.31,20.43 4.54,3.98 14.19,5.39 14.19,5.39 v 2.84 c 0,0 -7.38,1.7 -13.34,-2.84 C 358.7,199.94 348.9,186.6 348.9,186.6 v 10.74 l 7.09,13.1 -2,0.56 -8.23,-15.6 z m -79.11,132.98 c 0,0 7.49,18.84 23.45,22.84 15.96,4 38.77,-4.85 42.76,-3.14 3.99,1.71 20.55,10.86 20.55,10.86 l 7.41,5.15 c -0.86,0.31 5.7,5.7 6.56,5.7 0.86,0 2.20913,6.4291 3.01913,6.4291 L 366.26,363.84 l -13.68,-9.4 c 0,0 -11.69,-6.56 -19.67,-7.41 -7.98,-0.85 -7.13,1.71 -7.13,1.71 L 348,369.53 h 15.67 l 0.57,2.56 -14,1.71 6.84,8.84 -10.01,-5.16 -7.7,-8.56 c 0,0 -12.25,-12.54 -19.09,-13.68 -6.84,-1.14 -17.11,0.29 -17.11,0.29 l 7.7,10.54 19.67,3.71 -0.57,2 -16.25,-2.28 3.78207,12.07467 -0.89207,1.86533 -14,-16.53 -30.21,-11.69 c 0,0 2.28,12.26 13.68,16.82 6.78651,2.69624 13.20424,6.24111 19.1,10.55 l 0.9029,9.7417 -0.8152,2.02202 c 0,0 -1.76773,-4.02372 -4.04773,-6.87372 -2.28,-2.85 -13.12,-5.41 -13.12,-5.41 l -7.1,-0.86 -8.55,-8.21 -6.13,5.34 c 0.07,-2 -1.28,1.13 -1.28,1.13 0,0 -6.56,8.57 -16,11.13 0,0 11.69,-7.42 14.25,-16.83 2.56,-9.41 -1,-15.68 -7.49,-16.53 -6.49,-0.85 -11.07,5.49 -11.07,5.49 h -0.16 l 0.93,-42 z"
       id="path3"
       sodipodi:nodetypes="csssssscccsccssccccscccssscccssscccssccscccccccssccscccsccccccccscccccccccccccsccccccsscccc" />
    <path
       d="m 229.06,315 c 0,0 -3.32,20.66 -29.74,26 -16.13,3.27 -38.77,-4.85 -42.76,-3.14 -3.99,1.71 -20.56,10.86 -20.56,10.86 l -7.42,5.15 c 0.85,0.31 -5.7,5.7 -6.55,5.7 -0.85,0 -4.08377,5.31581 -4.89377,5.31581 L 123.74,363.84 l 13.68,-9.4 c 0,0 11.69,-6.56 19.67,-7.41 7.98,-0.85 7.13,1.71 7.13,1.71 L 142,369.53 h -15.66 l -0.57,2.56 14,1.71 1.18,11.62 2,-8 7.69,-8.56 c 0,0 12.26,-12.54 19.1,-13.68 6.84,-1.14 17.11,0.29 17.11,0.29 l -7.7,10.54 -19.67,3.71 0.57,2 16.25,-2.28 -12.54,21.94 4.24,2.09 c 4.45935,-10.2643 12.27843,-18.09784 19.42,-26.53 l 30.21,-11.69 c 0,0 -2.28,12.26 -13.68,16.82 -6.78651,2.69624 -13.20424,6.24111 -19.1,10.55 l -6.18907,10.291 10.15907,-5.431 c 2.28,-2.85 13.11,-5.41 13.11,-5.41 l 7.07,-0.86 8.55,-8.26 6.14,5.39 c -0.07,-2 1.28,1.13 1.28,1.13 0,0 8.51,9.31 17.92,11.87 0,0 -13.64,-8.16 -16.21,-17.57 -2.57,-9.41 1,-15.68 7.5,-16.53 6.5,-0.85 10.42,5.51 10.42,5.51 l 0.16,-0.11 4.31,-42.77 z m 38.68,-94.41 c 0.17,-0.8 13.65,-14.86 16.8,-22 3.15,-7.14 8.37,-13.8 19.11,-8.75 1.43,0.67 10.39,8.91 12,10.77 1.61,1.86 11.8,7 12.34,7.65 0.54,0.65 9.53,1.74 9.53,1.74 l -0.82,-3.18 c 0,0 -9.17,-1.84 -10.91,-3.49 -1.74,-1.65 -12,-10.19 -12,-10.19 0,0 -6.88,-10.74 -9.38,-11.62 -2.5,-0.88 -8.83,-6 -14.4,-4.7 -5.57,1.3 -15.78,10.26 -15.78,10.26 l -14,12.22 z m -0.44,8.11 c -1.45,-1.26 -11.44,5 -36.66,-10.91 -7.47,-4.72 -18.83,-8.89 -24,-8.21 -5.17,0.68 -9,2.63 -13.68,1.48 -4.68,-1.15 -8.54,-9.19 -10,-12.88 -1.46,-3.69 -3.33,-5.56 -4.95,-7.66 -1.62,-2.1 -14.25,-18.66 -17.64,-18.91 -3.39,-0.25 -15.37,2.27 -15.37,2.27 l -20.14,5.51 0.45,1.29 c 0,0 18.18,-1.32 23,-1.24 4.82,0.08 7.15,-3.13 11.12,-0.47 3.97,2.66 14.37,14.26 16.09,17.72 1.72,3.46 3.24,14.72 6.38,17.56 3.14,2.84 13.82,8 13.82,8 0,0 17.53,2.25 20.85,1.59 3.32,-0.66 7.1,3.61 11.1,8.18 4,4.57 12.07,6.94 16.32,7.49 4.25,0.55 23.68,9 23.68,9 z"
       id="path4"
       sodipodi:nodetypes="ccsccscccsccccccccscccccccccccccccccccsscccccscssccscsscccccssssscccsssscssscc" />
    <path
       d="m 192.77,216.67 c 0,0 -13.12,14.33 -15.65,13.63 -2.53,-0.7 -14.9,-3.07 -16.09,-4.14 -1.19,-1.07 -9.64,-12.1 -10.74,-13.9 -1.1,-1.8 -2.74,-6.17 -7.37,-9.55 -4.63,-3.38 -21.4,-9.64 -21.4,-9.64 l -15.65,2.48 c -0.78,0.27 -10.46,6.63 -10.46,6.63 l 1,1.32 11.61,-6 c 0.61,-0.49 11.16,-1 11.94,-1.27 0.78,-0.27 17.41,8.77 17.41,8.77 0,0 5,0.09 6.24,3.79 1.24,3.7 6.63,12.44 6.63,12.44 0,0 -8.7,-3.54 -12.57,-2.54 -3.87,1 -13.09,8.79 -13.09,8.79 0,0 -11.13,-0.68 -13.11,0.18 -1.98,0.86 -8,-1.77 -8,-1.77 L 92.59,220.38 79.36,223 c 0,0 1.85,4.54 2.88,3.74 1.03,-0.8 8.29,-3.42 11.46,-1.9 3.17,1.52 9.06,9.58 12.32,10.37 3.26,0.79 10.56,-2.2 11.51,-2.26 0.95,-0.06 9.1,1.91 9.1,1.91 a 37.8,37.8 0 0 1 9.13,-7 c 4.79,-2.38 18,1 18.9,1.3 0.9,0.3 23.24,11.21 23.24,11.21 0,0 10.36,-5 17.36,-7.12 7,-2.12 22.86,-9.35 22.86,-9.35 z m 67.82,-47.15 c 0,0 -16.46,-10.31 -16.23,-12.93 0.23,-2.62 0.33,-15.2 1.17,-16.57 0.84,-1.37 10.15,-11.67 11.73,-13.07 1.58,-1.4 5.57,-3.81 8.06,-9 2.49,-5.19 5.62,-22.79 5.62,-22.79 l -5.27,-14.92 c -0.41,-0.76 -8.4,-9.09 -8.4,-9.09 l -1.12,1.25 8,10.33 c 0.6,0.52 3,10.8 3.41,11.52 0.41,0.72 -5.49,18.68 -5.49,18.68 0,0 0.82,5 -2.61,6.82 -3.43,1.82 -11,8.77 -11,8.77 0,0 1.91,-9.2 0.23,-12.82 -1.68,-3.62 -11,-11.29 -11,-11.29 0,0 -1.34,-11.07 -2.55,-12.86 -1.21,-1.79 0.3,-8.19 0.3,-8.19 l 3.45,-11.7 -5,-12.54 c 0,0 -4.13,2.63 -3.15,3.51 0.98,0.88 4.86,7.53 3.93,10.93 -0.93,3.4 -7.78,10.63 -8,14 -0.22,3.37 4.07,10 4.31,10.91 0.24,0.91 -0.24,9.3 -0.24,9.3 a 37.5,37.5 0 0 1 8.58,7.71 c 3.21,4.28 2.27,17.89 2.14,18.82 -0.13,0.93 -6.83,24.88 -6.83,24.88 0,0 6.82,9.29 10.14,15.79 3.32,6.5 13.32,20.8 13.32,20.8 z m 145.34,-16.47 c -0.74,0.74 -6.9,3.94 -7.88,3.94 -0.98,0 -11.08,-1.48 -14,0 -2.92,1.48 -3.41,3.2 -5.89,3.2 -2.48,0 -19.47,-4.68 -19.47,-4.68 l -25.35,4.68 -2.71,7 c 0,0 20.18,-6.4 25.6,-7.08 5.42,-0.68 19.24,5.48 21.93,3.75 l 8.1,-5.37 h 11.54 z m -27.8,51.43 10.6,-0.64 19.63,9.57 10.36,2.69 -0.4,1.71 c 0,0 -11.75,-1.81 -13.05,-2.61 -1.3,-0.8 -17,-8.37 -17,-8.37 l -12.65,0.78 z m -227.69,-62.37 -6.75,-0.99 -8.89,-4.31 -5.83,-9.13 -14.75,-2.91 v 1.82 l 12.57,2.73 4.18,7.49 h -9.65 v 1.98 l 13.11,0.91 8.93,5.28 5.96,1.3 z m 133.18,-35.35 -0.39,-15.4 -1.24,-5.15 -8.11,-10.12 1.25,-1.25 7.79,8.41 3.58,7.09 0.78,7.09 10.13,-4.21 9.97,-10.59 1.56,1.09 -8.88,11.53 -9.97,6.7 -1.21,4.81 z m 18.76,21.96 11.03,-16.18 h 19.27 l 9.48,-7.94 V 94.53 h 2.52 v 13.59 l -8.84,7.27 12.95,2.21 -1.58,2.52 -13.27,-2.21 -6.32,-1.89 -6.95,-0.95 -6.31,0.63 -5.42,12.01 -6.56,7.82 z M 203.9,110.33 185.2,101.54 174.91,100.85 170,97 l 1.21,-0.86 c 0,0 3.53,3.82 4.88,3.82 1.35,0 6.74,-0.78 6.74,-0.78 l -3.54,-8.74 h 1.15 l 4.8,8.74 9,1.65 10.76,3.77 z"
       id="path5" />
    <path
       d="m 207.23,108.24 2.87,-5.56 -1.43,-4.9 3.85,-9 4.13,-5.48 -0.51,-0.37 -4.74,5.07 -2.21,-3.51 -0.6,0.2 1.31,3.15 c 0,0 -4.33,9.22 -4.33,9.73 l 1.09,4.45 -2,3.26 z m -46.06,63.93 -9.5,-6.48 -0.69,-6.81 -8,-4.39 v 1.17 l 7,4 c 0,0 -0.9,6 -1.24,7.21 -0.34,1.21 6.44,7.6 6.44,7.6 z m 72.85,-28.46 -5.41,-3.51 -11.72,-4.41 1.16,3.33 11.65,5.33 4.96,14.71 6.34,-8.89 z"
       id="path6"
       sodipodi:nodetypes="ccccccccccccccccccccscccccccccc" />
  </g>
  <g
     fill="#455a64"
     id="g8">
    <path
       d="m 252.55,300.05 a 3.79,3.79 0 0 1 -0.27,0.65 l -0.8,1.88 a 54.14,54.14 0 0 0 -2.17,7.18 85.43,85.43 0 0 1 -3,10.76 25.48,25.48 0 0 1 -3.1,5.86 17.59,17.59 0 0 1 -5.26,4.8 c -2.09,1.28 -4.27,2.24 -6.27,3.31 a 21.35,21.35 0 0 0 -5.3,3.74 27.77,27.77 0 0 0 -5.92,9.26 c -1.21,2.93 -1.95,5.39 -2.48,7.09 l -0.59,1.95 a 5.39,5.39 0 0 1 -0.24,0.67 3.74,3.74 0 0 1 0.13,-0.7 l 0.51,-2 a 65,65 0 0 1 2.33,-7.17 27.66,27.66 0 0 1 5.92,-9.46 21.68,21.68 0 0 1 5.4,-3.85 l 6.24,-3.3 a 17.26,17.26 0 0 0 5.12,-4.66 25.76,25.76 0 0 0 3.07,-5.74 94.53,94.53 0 0 0 3.1,-10.67 47.59,47.59 0 0 1 2.33,-7.17 l 0.89,-1.84 a 4.31,4.31 0 0 1 0.36,-0.59 z m 19,-21.05 a 4.87,4.87 0 0 1 -0.36,0.65 15.86,15.86 0 0 1 -1.22,1.75 25.48,25.48 0 0 1 -5.83,5.22 57.39,57.39 0 0 1 -10.37,5.23 122.11,122.11 0 0 0 -13,5.68 c -4.37,2.4 -8.15,5.57 -10.27,9.34 a 18.08,18.08 0 0 0 -2,5.75 c -0.35,1.9 -0.56,3.7 -0.88,5.33 a 15.07,15.07 0 0 1 -3.09,7.16 9.81,9.81 0 0 1 -1.57,1.45 c -0.2,0.14 -0.37,0.23 -0.47,0.29 -0.1,0.06 -0.17,0.1 -0.17,0.09 a 13.42,13.42 0 0 0 2,-2 15.17,15.17 0 0 0 2.88,-7.1 c 0.3,-1.61 0.49,-3.41 0.83,-5.33 a 18.33,18.33 0 0 1 2,-5.92 c 2.16,-3.89 6,-7.12 10.43,-9.56 a 120.94,120.94 0 0 1 13,-5.67 58.61,58.61 0 0 0 10.34,-5.09 26.4,26.4 0 0 0 5.88,-5 18.48,18.48 0 0 0 1.29,-1.68 3.35,3.35 0 0 1 0.58,-0.59 z m 6.76,-75.59 -1.91,1.51 a 27.15,27.15 0 0 0 -4.55,4.76 28,28 0 0 0 -4.43,8.66 25.74,25.74 0 0 0 -1.1,5.64 43.18,43.18 0 0 0 0.08,6.21 26.88,26.88 0 0 1 -0.18,6.29 14.39,14.39 0 0 1 -2.25,5.43 c -2.1,3.12 -4.57,5.41 -6.36,7.55 a 20.94,20.94 0 0 0 -3.63,5.47 l -0.38,1 -0.21,0.74 a 4,4 0 0 1 -0.2,0.59 2.28,2.28 0 0 1 0.1,-0.62 c 0,-0.22 0.1,-0.47 0.16,-0.75 0.06,-0.28 0.21,-0.62 0.34,-1 a 19.91,19.91 0 0 1 3.54,-5.64 c 1.77,-2.18 4.21,-4.51 6.24,-7.57 a 14.12,14.12 0 0 0 2.15,-5.26 26.94,26.94 0 0 0 0.16,-6.18 42.48,42.48 0 0 1 -0.07,-6.27 26.16,26.16 0 0 1 1.15,-5.75 27.7,27.7 0 0 1 4.59,-8.74 25.19,25.19 0 0 1 4.73,-4.69 16.22,16.22 0 0 1 1.48,-1 2.4,2.4 0 0 1 0.55,-0.38 z m -25.96,39.17 a 2.56,2.56 0 0 1 -0.17,-0.48 13,13 0 0 1 -0.35,-1.43 19.47,19.47 0 0 1 -0.17,-5.4 41.31,41.31 0 0 1 1.68,-7.84 l 2.75,-9.36 a 28,28 0 0 0 0.69,-5 c 0.09,-1.61 -0.07,-3.18 -0.1,-4.69 a 14.67,14.67 0 0 1 0.39,-4.3 11.09,11.09 0 0 1 5.71,-6.93 8.67,8.67 0 0 1 1.37,-0.54 3.27,3.27 0 0 1 0.5,-0.12 c 0,0.06 -0.67,0.24 -1.77,0.84 a 11.37,11.37 0 0 0 -3.89,3.55 10.83,10.83 0 0 0 -1.5,3.31 14.39,14.39 0 0 0 -0.33,4.17 l 0.13,4.73 a 29,29 0 0 1 -0.69,5.06 c -0.78,3.4 -1.91,6.52 -2.8,9.38 a 42.11,42.11 0 0 0 -1.77,7.74 21.19,21.19 0 0 0 0,5.33 z m 3.86,-36.87 a 5.23,5.23 0 0 0 -0.56,-2.5 6.9,6.9 0 0 0 -1.82,-2.1 c -0.82,-0.68 -1.82,-1.34 -2.84,-2.07 l -5.19,-3.79 a 14,14 0 0 1 -2.06,-1.7 13.27,13.27 0 0 1 2.26,1.45 l 5.28,3.66 2.85,2.13 a 7,7 0 0 1 1.84,2.31 4.12,4.12 0 0 1 0.4,2 c -0.02,0.38 -0.13,0.62 -0.16,0.61 z m -5.63,31.69 a 14.61,14.61 0 0 1 -2.25,-2 55.81,55.81 0 0 1 -4.76,-5.54 54.76,54.76 0 0 1 -4,-6.12 13.81,13.81 0 0 1 -1.32,-2.72 23,23 0 0 1 1.64,2.53 l 4.09,6 4.62,5.59 a 21.89,21.89 0 0 1 1.98,2.26 z m 15.27,78.6 a 5.09,5.09 0 0 1 -0.26,0.59 14.53,14.53 0 0 0 -0.77,1.68 27.34,27.34 0 0 0 -1.66,6.56 c -0.44,2.83 -0.63,6.26 -1.33,10 a 22.58,22.58 0 0 1 -1.82,5.74 10.58,10.58 0 0 1 -0.77,1.39 10.82,10.82 0 0 1 -0.9,1.34 17.06,17.06 0 0 1 -2.27,2.39 c -3.41,2.92 -7.44,4.46 -11,5.72 -3.56,1.26 -6.88,2.26 -9.48,3.46 a 25,25 0 0 0 -5.77,3.52 c -1.22,1 -1.79,1.73 -1.83,1.69 a 2.37,2.37 0 0 1 0.4,-0.51 12.59,12.59 0 0 1 1.3,-1.33 23.32,23.32 0 0 1 5.74,-3.7 93.29,93.29 0 0 1 9.48,-3.59 c 3.55,-1.27 7.52,-2.81 10.83,-5.65 a 16.62,16.62 0 0 0 2.2,-2.32 10.05,10.05 0 0 0 0.87,-1.29 10.51,10.51 0 0 0 0.75,-1.35 22.29,22.29 0 0 0 1.81,-5.6 c 0.72,-3.72 0.94,-7.15 1.44,-10 a 25.77,25.77 0 0 1 1.83,-6.58 12.3,12.3 0 0 1 0.86,-1.65 2.41,2.41 0 0 1 0.35,-0.51 z M 264,326.56 a 1.86,1.86 0 0 1 0.3,0.47 l 0.77,1.41 2.72,5.21 c 1.13,2.15 2.32,5 4.4,7.44 a 9.31,9.31 0 0 0 4.13,2.74 18.8,18.8 0 0 0 5.38,0.77 c 3.74,0.08 7.48,-0.16 10.65,1 a 20,20 0 0 1 7.22,4.94 47,47 0 0 1 3.8,4.5 46.95,46.95 0 0 1 0.94,1.3 2.69,2.69 0 0 1 0.3,0.47 2.77,2.77 0 0 1 -0.38,-0.41 l -1,-1.23 a 55.3,55.3 0 0 0 -3.9,-4.37 20,20 0 0 0 -7.12,-4.75 c -3.06,-1.14 -6.72,-0.9 -10.51,-1 a 18.78,18.78 0 0 1 -5.53,-0.81 9.82,9.82 0 0 1 -4.32,-2.9 c -2.15,-2.6 -3.22,-5.4 -4.37,-7.59 -1.15,-2.19 -1.94,-4 -2.58,-5.3 l -0.67,-1.44 A 3.73,3.73 0 0 1 264,326.56 Z"
       id="path7" />
    <path
       d="m 255.92,345.12 a 8.14,8.14 0 0 0 0.93,2.84 8.35,8.35 0 0 0 2.17,2.39 16.71,16.71 0 0 0 3.49,1.94 l 6.82,2.84 a 17.36,17.36 0 0 1 2.77,1.31 17.42,17.42 0 0 1 -2.91,-1 l -6.89,-2.7 a 15.66,15.66 0 0 1 -3.58,-2 8.14,8.14 0 0 1 -2.19,-2.58 5.77,5.77 0 0 1 -0.66,-2.18 1.82,1.82 0 0 1 0.05,-0.86 z M 223.2,327.26 a 1.58,1.58 0 0 1 -0.14,0.49 11.75,11.75 0 0 1 -0.51,1.37 22.45,22.45 0 0 1 -2.67,4.67 25.22,25.22 0 0 1 -5.69,5.59 24.57,24.57 0 0 1 -8.92,4 c -3.38,0.76 -6.66,1.16 -9.35,2.4 a 17,17 0 0 0 -6,4.9 47.06,47.06 0 0 0 -3.08,4.36 l -0.79,1.22 c -0.19,0.28 -0.29,0.42 -0.31,0.41 a 2.23,2.23 0 0 1 0.22,-0.47 l 0.71,-1.27 a 40.24,40.24 0 0 1 3,-4.48 16.86,16.86 0 0 1 6.12,-5.1 c 2.77,-1.31 6.1,-1.73 9.44,-2.48 a 24.41,24.41 0 0 0 8.75,-3.85 25.57,25.57 0 0 0 5.68,-5.41 25,25 0 0 0 2.77,-4.53 z M 261,279.71 a 2.6,2.6 0 0 1 -0.36,0.16 l -1.05,0.46 -4,1.82 a 11.85,11.85 0 0 1 -3.12,0.8 7.58,7.58 0 0 1 -3.8,-0.53 5.27,5.27 0 0 1 -1.75,-1.28 5.65,5.65 0 0 1 -1.11,-2 7.89,7.89 0 0 1 0.2,-4.93 15.22,15.22 0 0 1 2.82,-4.65 c 1.23,-1.45 2.64,-2.8 4.06,-4.24 l 9.14,-9.13 4.94,-4.94 a 9.11,9.11 0 0 1 3.05,-2.09 3.1,3.1 0 0 1 3.6,0.92 6.26,6.26 0 0 1 1,3.71 l -0.07,1.92 -0.24,1.91 a 23.13,23.13 0 0 1 -2.65,7.37 23.87,23.87 0 0 1 -11.27,10.23 22.38,22.38 0 0 1 -3.54,1.15 6.29,6.29 0 0 1 -1.89,0.08 3,3 0 0 1 -1.75,-0.76 2.57,2.57 0 0 1 -0.8,-1.75 4.8,4.8 0 0 1 0.3,-1.82 19,19 0 0 1 1.6,-3.11 33.33,33.33 0 0 1 8.76,-9.5 l 2.51,-1.65 a 4.43,4.43 0 0 1 2.83,-0.85 1.41,1.41 0 0 1 1.17,1 2.45,2.45 0 0 1 -0.08,1.45 23.14,23.14 0 0 1 -1,2.47 22.25,22.25 0 0 1 -2.62,4.19 l -1.5,1.7 a 5.61,5.61 0 0 1 -1.71,1.33 2.32,2.32 0 0 1 -1,0.23 1.17,1.17 0 0 1 -0.92,-0.52 1.23,1.23 0 0 1 -0.16,-1 2.43,2.43 0 0 1 0.38,-0.85 c 0.71,-1 1.46,-1.71 2.09,-2.45 l 2.95,-3.31 0.77,-0.85 0.28,-0.28 a 1.67,1.67 0 0 1 -0.24,0.32 l -0.73,0.88 -2.88,3.37 c -0.6,0.74 -1.38,1.53 -2,2.45 a 1.45,1.45 0 0 0 -0.21,1.57 c 0.32,0.51 1,0.46 1.62,0.18 a 5.2,5.2 0 0 0 1.6,-1.28 18.9,18.9 0 0 0 1.47,-1.7 22.36,22.36 0 0 0 2.55,-4.13 22.78,22.78 0 0 0 1,-2.43 2.15,2.15 0 0 0 0.08,-1.22 1,1 0 0 0 -0.86,-0.7 4,4 0 0 0 -2.55,0.81 c -0.84,0.49 -1.65,1.05 -2.47,1.64 a 32.86,32.86 0 0 0 -8.61,9.4 18.72,18.72 0 0 0 -1.55,3 4.38,4.38 0 0 0 -0.26,1.63 2,2 0 0 0 0.64,1.41 3.73,3.73 0 0 0 3.21,0.56 14,14 0 0 0 1.73,-0.49 13.44,13.44 0 0 0 1.7,-0.64 23.41,23.41 0 0 0 11,-10 22.58,22.58 0 0 0 2.59,-7.19 l 0.24,-1.88 c 0.07,-0.63 0.06,-1.25 0.07,-1.87 a 5.8,5.8 0 0 0 -0.92,-3.39 2.57,2.57 0 0 0 -3,-0.76 8.54,8.54 0 0 0 -2.86,2 l -5,4.93 -9.16,9.1 -4.06,4.19 a 14.55,14.55 0 0 0 -2.78,4.51 7.61,7.61 0 0 0 -0.23,4.72 4.9,4.9 0 0 0 2.66,3.14 7.43,7.43 0 0 0 3.66,0.54 11.42,11.42 0 0 0 3.07,-0.74 l 4.07,-1.73 1.08,-0.41 z m 15.72,-41.52 c 0,0 0.23,0.13 0.59,0.43 a 11,11 0 0 1 1.36,1.44 13.91,13.91 0 0 1 1.59,2.47 15.08,15.08 0 0 1 1.62,7 14.36,14.36 0 0 1 -0.33,2.93 10.88,10.88 0 0 1 -0.59,1.88 c -0.18,0.43 -0.3,0.66 -0.34,0.65 -0.04,-0.01 0.29,-1 0.57,-2.6 a 16.28,16.28 0 0 0 -2.81,-12.08 z m -26.67,51.67 a 9.58,9.58 0 0 1 -2.4,0.16 15.81,15.81 0 0 1 -5.73,-0.93 8.15,8.15 0 0 1 -4.34,-3.86 5.09,5.09 0 0 1 -0.49,-1.71 1.41,1.41 0 0 1 0,-0.66 11.28,11.28 0 0 0 0.8,2.2 8.3,8.3 0 0 0 4.2,3.54 18.09,18.09 0 0 0 5.56,1 12.76,12.76 0 0 1 2.4,0.26 z"
       id="path8" />
  </g>
  <path
     d="m 174.91,228.19 c 0,0 4.14,-12 -9.93,-18.16 0.02,-0.03 -0.62,13.12 9.93,18.16 z"
     class="C"
     id="path9" />
  <g
     class="B"
     id="g11">
    <path
       d="m 168.28,214.55 a 8.64,8.64 0 0 1 1.34,1.79 41.09,41.09 0 0 1 2.62,4.71 39.53,39.53 0 0 1 2,5 7.77,7.77 0 0 1 0.53,2.17 c -0.15,0 -1.19,-3.19 -3,-7 z"
       id="path10" />
    <path
       d="m 168.46,218.82 a 13.64,13.64 0 0 1 4.44,4.33 30.29,30.29 0 0 1 -4.44,-4.33 z"
       id="path11" />
  </g>
  <path
     d="m 188.56,203.75 c 0,0 8.41,-10.23 -3.12,-21.37 0,0 -5.36,12.62 3.12,21.37 z"
     class="C"
     id="path12" />
  <path
     d="m 187,188 a 9.68,9.68 0 0 1 0.66,2.24 42.23,42.23 0 0 1 0.85,5.55 43.06,43.06 0 0 1 0.13,5.62 9.56,9.56 0 0 1 -0.26,2.32 c -0.16,0 0,-3.55 -0.39,-7.89 z"
     class="B"
     id="path13" />
  <path
     d="m 192.19,204.19 c 0,0 9.9,-2.26 8.14,-14.43 0,0 -9.17,5.13 -8.14,14.43 z"
     class="C"
     id="path14" />
  <path
     d="m 198.65,193.91 a 26.74,26.74 0 0 1 -6.55,10.19 c -0.12,-0.1 1.62,-2.19 3.42,-5 z"
     class="B"
     id="path15" />
  <path
     d="m 215.94,184.55 c 0,0 -9.28,-10.28 -22.59,-0.07 0,0 12.22,7.52 22.59,0.07 z"
     class="C"
     id="path16" />
  <path
     d="m 199.41,183.71 a 10,10 0 0 1 2.41,-0.33 45.44,45.44 0 0 1 5.88,0 43.92,43.92 0 0 1 5.84,0.73 9.48,9.48 0 0 1 2.36,0.62 13.93,13.93 0 0 1 -2.42,-0.26 l -5.81,-0.57 -5.83,-0.14 a 12.45,12.45 0 0 1 -2.43,-0.05 z"
     class="B"
     id="path17" />
  <path
     d="m 130.46,177 c 0,0 -0.94,-11 -14.31,-10.93 0,0.02 4.15,10.66 14.31,10.93 z"
     class="C"
     id="path18" />
  <path
     d="m 120.37,168.52 a 7.52,7.52 0 0 1 2,1.19 39.12,39.12 0 0 1 4.15,3.62 l 3.74,4 a 9.66,9.66 0 0 1 1.37,1.83 c -0.12,0.1 -2.45,-2.48 -5.47,-5.5 l -4,-3.7 a 16.42,16.42 0 0 1 -1.79,-1.44 z"
     class="B"
     id="path19" />
  <path
     d="m 124.73,182.51 c 0,0 -10.45,-3.51 -15.73,8.72 0,0 11.39,0.47 15.73,-8.72 z"
     class="C"
     id="path20" />
  <path
     d="m 112.9,188.35 a 5.91,5.91 0 0 1 1.53,-1.2 35.19,35.19 0 0 1 8.44,-4.06 6.71,6.71 0 0 1 1.89,-0.45 c 0,0.15 -2.75,1.09 -6,2.67 z"
     class="B"
     id="path21" />
  <path
     d="m 123.31,179.07 c 0,0 -6.26,-9.9 -18.81,-3.31 0,0 9.1,8 18.81,3.31 z"
     class="C"
     id="path22" />
  <path
     d="m 109.66,176 a 7,7 0 0 1 2.06,0 35.34,35.34 0 0 1 4.91,0.82 34.82,34.82 0 0 1 4.75,1.46 6.6,6.6 0 0 1 1.86,0.88 c 0,0.14 -3,-1 -6.73,-1.84 z"
     class="B"
     id="path23" />
  <path
     d="m 134.34,143.52 c 0,0 -9.25,-4.45 -15.51,6.29 0,0 10.48,1.71 15.51,-6.29 z"
     class="C"
     id="path24" />
  <path
     d="m 122.77,147.58 a 20.33,20.33 0 0 1 5.57,-2.63 20,20 0 0 1 6,-1.31 c 0,0.15 -2.66,0.71 -5.85,1.8 z"
     class="B"
     id="path25" />
  <path
     d="m 135.22,135.14 c 0,0 10.25,0.57 11.93,-11.75 0,0 -10.34,2.43 -11.93,11.75 z"
     class="C"
     id="path26" />
  <path
     d="m 144.36,127 a 19.76,19.76 0 0 1 -4.14,4.56 20,20 0 0 1 -5.06,3.51 c -0.08,-0.13 2.19,-1.67 4.72,-3.9 z"
     class="B"
     id="path27" />
  <path
     d="m 132,112.57 c 0,0 -8.3,-10.25 3.27,-21.26 -0.03,0 5.21,12.6 -3.27,21.26 z"
     class="C"
     id="path28" />
  <path
     d="m 133.62,96.9 c 0.16,0 -0.64,3.48 -1,7.8 l -0.45,7.85 a 9.64,9.64 0 0 1 -0.24,-2.31 41.81,41.81 0 0 1 0.17,-5.59 42.75,42.75 0 0 1 0.89,-5.53 9,9 0 0 1 0.63,-2.22 z"
     class="B"
     id="path29" />
  <path
     d="m 165.49,113.51 c 0,0 6.51,-7.95 -2.49,-16.51 0,0 -4.11,9.74 2.49,16.51 z"
     class="C"
     id="path30" />
  <path
     d="m 164.26,101.31 a 20.28,20.28 0 0 1 1.24,6 19.55,19.55 0 0 1 -0.14,6.15 c -0.15,0 -0.06,-2.75 -0.37,-6.11 z"
     class="B"
     id="path31" />
  <path
     d="m 207.09,89.16 c 0,0 1,-9.2 -10,-11.33 0.03,0 1.69,9.43 10,11.33 z"
     class="C"
     id="path32" />
  <path
     d="m 200.19,80.52 a 17,17 0 0 1 3.91,3.94 17.41,17.41 0 0 1 2.9,4.75 c -0.14,0.08 -1.42,-2 -3.3,-4.43 z"
     class="B"
     id="path33" />
  <path
     d="m 191.78,83.59 c 0,0 5.3,-7.59 -3.35,-14.72 0,0 -3.04,9.13 3.35,14.72 z"
     class="C"
     id="path34" />
  <path
     d="m 189.84,72.7 a 16.86,16.86 0 0 1 1.56,5.3 17.14,17.14 0 0 1 0.27,5.55 c -0.16,0 -0.27,-2.47 -0.78,-5.47 z"
     class="B"
     id="path35" />
  <path
     d="m 174.18,78.35 c 0,0 5.29,-7.59 -3.35,-14.72 0,0 -3.04,9.08 3.35,14.72 z"
     class="C"
     id="path36" />
  <path
     d="m 172.24,67.46 a 17.17,17.17 0 0 1 1.56,5.34 17,17 0 0 1 0.26,5.55 c -0.15,0 -0.27,-2.47 -0.78,-5.47 z"
     class="B"
     id="path37" />
  <path
     d="m 210,100.39 c 0,0 0,-11.39 13.75,-12.46 0,0 -3.32,11.28 -13.75,12.46 z"
     class="C"
     id="path38" />
  <path
     d="m 219.64,90.8 c 0.09,0.12 -2.29,2 -4.9,4.67 l -4.58,5 a 6.31,6.31 0 0 1 1.07,-1.69 33.94,33.94 0 0 1 3.14,-3.66 34.68,34.68 0 0 1 3.63,-3.22 6.29,6.29 0 0 1 1.64,-1.1 z"
     class="B"
     id="path39" />
  <path
     d="m 181.07,89.58 c 0,0 6.47,-8 -2.52,-16.55 0,-0.03 -4.1,9.8 2.52,16.55 z"
     class="C"
     id="path40" />
  <path
     d="m 179.8,77.38 a 20.06,20.06 0 0 1 1.27,6 20.41,20.41 0 0 1 -0.12,6.16 c -0.16,0 -0.08,-2.75 -0.4,-6.11 z"
     class="B"
     id="path41" />
  <path
     d="m 155.41,111.91 c 0,0 -5.21,-7.08 -14.25,-1.48 0,0 7.23,5.5 14.25,1.48 z"
     class="C"
     id="path42" />
  <path
     d="m 145,110.33 a 16,16 0 0 1 5.27,0.21 15.65,15.65 0 0 1 5.07,1.47 c -0.05,0.14 -2.3,-0.5 -5.15,-1 z"
     class="B"
     id="path43" />
  <path
     d="m 161.39,85.39 c 0,0 -9,-8.36 -20,1.71 0.02,0 11.41,5.67 20,-1.71 z"
     class="C"
     id="path44" />
  <path
     d="m 146.71,86 a 7.72,7.72 0 0 1 2.1,-0.5 40.1,40.1 0 0 1 10.42,-0.3 7.84,7.84 0 0 1 2.13,0.39 c 0,0.15 -3.29,-0.18 -7.33,-0.06 z"
     class="B"
     id="path45" />
  <path
     d="m 170,94.1 c 0,0 -5.21,-7.08 -14.25,-1.48 -0.04,0 7.25,5.5 14.25,1.48 z"
     class="C"
     id="path46" />
  <path
     d="m 159.58,92.52 a 21.82,21.82 0 0 1 10.34,1.68 c 0,0.14 -2.3,-0.5 -5.15,-1 z"
     class="B"
     id="path47" />
  <path
     d="m 174.26,102.46 c 0,0 -6,6.43 1.18,14.28 0,0 4.07,-8.13 -1.18,-14.28 z"
     class="C"
     id="path48" />
  <path
     d="m 174.63,113 a 15.77,15.77 0 0 1 -0.77,-5.22 15.83,15.83 0 0 1 0.5,-5.25 c 0.16,0 -0.06,2.36 0,5.24 z"
     class="B"
     id="path49" />
  <path
     d="m 180.48,103 c 0,0 -3.59,8 5.73,13.14 0,0.04 1.23,-8.97 -5.73,-13.14 z"
     class="C"
     id="path50" />
  <path
     d="m 184.22,112.85 a 15.57,15.57 0 0 1 -2.41,-4.69 15.87,15.87 0 0 1 -1.22,-5.13 c 0.15,0 0.7,2.25 1.71,5 z"
     class="B"
     id="path51" />
  <path
     d="m 112.81,168.3 c 0,0 -5.56,-7.55 -15.2,-1.58 0,0 7.71,5.87 15.2,1.58 z"
     class="C"
     id="path52" />
  <path
     d="m 101.74,166.61 a 17.51,17.51 0 0 1 5.62,0.25 17.67,17.67 0 0 1 5.41,1.54 c 0,0.15 -2.46,-0.54 -5.5,-1 z"
     class="B"
     id="path53" />
  <path
     d="m 131.19,169.1 c 0,0 4.45,-10.69 -8,-17.09 -0.02,-0.01 -1.31,11.91 8,17.09 z"
     class="C"
     id="path54" />
  <path
     d="m 125.91,156.31 a 6.81,6.81 0 0 1 1.14,1.69 35.18,35.18 0 0 1 2.13,4.43 36,36 0 0 1 1.53,4.68 6.69,6.69 0 0 1 0.34,2 c -0.15,0 -0.93,-3 -2.35,-6.49 z"
     class="B"
     id="path55" />
  <path
     d="m 190.32,141.55 c 0,0 1.86,-8.47 -8.18,-11.54 0,-0.01 0.62,8.99 8.18,11.54 z"
     class="C"
     id="path56" />
  <path
     d="m 184.73,132.82 a 15.53,15.53 0 0 1 3.28,4.05 15.29,15.29 0 0 1 2.21,4.72 c -0.14,0.06 -1.14,-2 -2.65,-4.44 z"
     class="B"
     id="path57" />
  <path
     d="m 163.06,120 c 0,0 -6.74,-2.11 -9.95,5.82 0,0.02 7.31,0.18 9.95,-5.82 z"
     class="C"
     id="path58" />
  <path
     d="m 155.58,123.93 a 4.44,4.44 0 0 1 1.35,-1.05 32.35,32.35 0 0 1 3.65,-1.88 21.53,21.53 0 0 1 5.47,-1.92 c 0,0.13 -2.35,1.08 -5.26,2.39 l -3.68,1.74 a 8.28,8.28 0 0 1 -1.53,0.72 z"
     class="B"
     id="path59" />
  <path
     d="m 144.81,141.27 c 0,0 -0.88,-5.59 5.78,-7.2 0,0 -0.76,5.81 -5.78,7.2 z"
     class="C"
     id="path60" />
  <path
     d="m 148.79,135.8 c 0.08,0.08 -1.17,1.71 -2.52,3.87 a 32.11,32.11 0 0 1 -2.56,3.86 15.37,15.37 0 0 1 2.12,-4.14 c 1.36,-2.18 2.84,-3.72 2.96,-3.59 z"
     class="B"
     id="path61" />
  <path
     d="m 169.59,122.17 c 0,0 -6.67,-0.17 -7.53,7.86 0,-0.03 6.67,-1.77 7.53,-7.86 z"
     class="C"
     id="path62" />
  <path
     d="m 163.8,127.66 a 15.85,15.85 0 0 1 3.36,-3.87 15.4,15.4 0 0 1 4.11,-3.08 c 0.07,0.11 -1.7,1.53 -3.75,3.46 z"
     class="B"
     id="path63" />
  <path
     d="m 157.43,142.69 c 0,0 3.65,-8.25 -6,-13.46 0.05,0 -1.17,9.25 6,13.46 z"
     class="C"
     id="path64" />
  <path
     d="m 153.55,132.63 c 0.14,-0.08 1.7,2.63 3,6.23 1.3,3.6 2,6.65 1.81,6.67 a 9.91,9.91 0 0 1 -0.69,-1.9 l -1.61,-4.59 -1.8,-4.52 a 9.61,9.61 0 0 1 -0.71,-1.89 z"
     class="B"
     id="path65" />
  <path
     d="m 188.64,105.9 c 0,0 -0.89,6.8 7.24,8.54 0,0 -1.1,-7.02 -7.24,-8.54 z"
     class="C"
     id="path66" />
  <path
     d="m 193.64,112.4 a 10.56,10.56 0 0 1 -2.9,-2.94 10.77,10.77 0 0 1 -2,-3.6 38.88,38.88 0 0 1 2.44,3.29 36.45,36.45 0 0 1 2.46,3.25 z"
     class="B"
     id="path67" />
  <path
     d="m 192,137.59 c 0,0 5.27,-2.29 3,-8.87 0,0 -4.53,3.81 -3,8.87 z"
     class="C"
     id="path68" />
  <path
     d="m 194.53,131.2 a 8,8 0 0 1 -0.82,3.37 7.93,7.93 0 0 1 -1.76,3 20.57,20.57 0 0 1 1.28,-3.18 21.36,21.36 0 0 1 1.3,-3.19 z"
     class="B"
     id="path69" />
  <path
     d="m 187.77,98 c 0,0 5.9,-3.51 2.23,-11 0,0 -4.83,5.24 -2.23,11 z"
     class="C"
     id="path70" />
  <path
     d="m 189.79,90.05 a 10.79,10.79 0 0 1 -0.51,4.1 10.8,10.8 0 0 1 -1.58,3.85 35.06,35.06 0 0 1 1.07,-4 37.15,37.15 0 0 1 1.02,-3.95 z"
     class="B"
     id="path71" />
  <path
     d="m 183.9,71.09 c 0,0 5.9,-3.51 2.23,-11 0,0.03 -4.83,5.24 -2.23,11 z"
     class="C"
     id="path72" />
  <path
     d="m 185.92,63.14 a 10.79,10.79 0 0 1 -0.51,4.1 10.59,10.59 0 0 1 -1.58,3.81 35.52,35.52 0 0 1 1.07,-4 36.55,36.55 0 0 1 1.02,-3.91 z"
     class="B"
     id="path73" />
  <path
     d="m 204.21,95.68 c 0,0 0.21,-6.86 -8,-7.79 -0.04,0 1.79,6.88 8,7.79 z"
     class="C"
     id="path74" />
  <path
     d="m 198.59,89.7 a 10.57,10.57 0 0 1 3.18,2.64 10.41,10.41 0 0 1 2.36,3.38 36,36 0 0 1 -2.74,-3 38.11,38.11 0 0 1 -2.8,-3.02 z"
     class="B"
     id="path75" />
  <path
     d="m 202.64,101.91 c 0,0 0.15,-4.79 -5.62,-5.44 -0.02,0 1.25,4.8 5.62,5.44 z"
     class="C"
     id="path76" />
  <path
     d="m 198.72,97.73 a 9,9 0 0 1 3.87,4.21 c -0.12,0.09 -0.92,-0.92 -2,-2.06 -1.08,-1.14 -1.97,-2.03 -1.87,-2.15 z"
     class="B"
     id="path77" />
  <path
     d="m 211.88,85.65 c 0,0 8.17,-8.33 -1.09,-19 0,0 -5.68,10.66 1.09,19 z"
     class="C"
     id="path78" />
  <path
     d="m 211.75,71.71 a 7.51,7.51 0 0 1 0.43,2 37.77,37.77 0 0 1 0.32,4.94 36.16,36.16 0 0 1 -0.33,5 6.77,6.77 0 0 1 -0.43,2 c -0.15,0 0.25,-3.12 0.24,-7 z"
     class="B"
     id="path79" />
  <path
     d="m 215.06,62.36 c 0,0 -4.06,-8.36 -14.65,-4.27 0,0 6.53,7.15 14.65,4.27 z"
     class="C"
     id="path80" />
  <path
     d="M 204.48,58.73 A 17.33,17.33 0 0 1 210,60 a 17.73,17.73 0 0 1 5,2.48 c -0.07,0.14 -2.32,-1 -5.21,-2 z"
     class="B"
     id="path81" />
  <path
     d="m 159,116.08 c 0,0 -6.29,-2.74 -10.21,4.58 0.04,0 7.08,0.89 10.21,-4.58 z"
     class="C"
     id="path82" />
  <path
     d="m 151.41,119.08 a 10.53,10.53 0 0 1 3.62,-2 10.76,10.76 0 0 1 4,-0.94 37.76,37.76 0 0 1 -3.83,1.43 36.69,36.69 0 0 1 -3.79,1.51 z"
     class="B"
     id="path83" />
  <path
     d="m 142.57,146.88 c 0,0 -8.28,-0.66 -9.88,9.27 0,0 8.41,-1.76 9.88,-9.27 z"
     class="C"
     id="path84" />
  <path
     d="m 135,153.32 a 20.05,20.05 0 0 1 7.6,-6.35 c 0.08,0.13 -1.78,1.35 -3.86,3.1 z"
     class="B"
     id="path85" />
  <path
     d="m 233.77,117.68 c 0,0 -1.38,-6.72 -9.62,-5.71 0,0.03 3.32,6.27 9.62,5.71 z"
     class="C"
     id="path86" />
  <path
     d="m 226.93,113.17 a 15.45,15.45 0 0 1 6.78,4.57 37.54,37.54 0 0 1 -3.38,-2.31 38,38 0 0 1 -3.4,-2.26 z"
     class="B"
     id="path87" />
  <path
     d="m 150.74,157.33 c 0,0 1.92,-6.59 -5.84,-9.55 0,0 0.01,7.1 5.84,9.55 z"
     class="C"
     id="path88" />
  <path
     d="m 146.8,150.13 a 11,11 0 0 1 2.41,3.35 10.65,10.65 0 0 1 1.45,3.87 36.2,36.2 0 0 1 -1.91,-3.62 34,34 0 0 1 -1.95,-3.6 z"
     class="B"
     id="path89" />
  <path
     d="m 148.51,160.74 c 0,0 -4.92,-6.8 -13.61,-1.53 0,0 6.87,5.32 13.61,1.53 z"
     class="C"
     id="path90" />
  <path
     d="m 138.61,159.15 a 14.31,14.31 0 0 1 5,0.23 14.68,14.68 0 0 1 4.83,1.45 c -0.05,0.15 -2.2,-0.48 -4.92,-0.94 z"
     class="B"
     id="path91" />
  <path
     d="m 157,168.08 c 0,0 -6.17,-8.57 3.58,-16.86 0.02,0 3.65,10.32 -3.58,16.86 z"
     class="C"
     id="path92" />
  <path
     d="m 159.05,155.62 c 0.15,0 -0.62,2.77 -1.13,6.2 l -0.77,6.25 a 20.94,20.94 0 0 1 0.25,-6.33 21.31,21.31 0 0 1 1.65,-6.12 z"
     class="B"
     id="path93" />
  <path
     d="m 119.54,139.66 c 0,0 -6.29,-2.74 -10.21,4.58 0,0 7.04,0.89 10.21,-4.58 z"
     class="C"
     id="path94" />
  <path
     d="m 111.91,142.66 a 10.66,10.66 0 0 1 3.62,-2 10.76,10.76 0 0 1 4,-0.94 37.76,37.76 0 0 1 -3.83,1.43 36.69,36.69 0 0 1 -3.79,1.51 z"
     class="B"
     id="path95" />
  <path
     d="m 126.09,125.67 c 0,0 3.83,-9.52 -7.29,-15.07 0,0 -1.02,10.57 7.29,15.07 z"
     class="C"
     id="path96" />
  <path
     d="m 121.28,114.39 a 19.71,19.71 0 0 1 3,5.38 20.27,20.27 0 0 1 1.7,5.92 c -0.15,0 -0.89,-2.61 -2.18,-5.72 z"
     class="B"
     id="path97" />
  <path
     d="m 119.92,124.71 c 0,0 0,-8.7 -10.47,-9.57 0,0 2.55,8.64 10.47,9.57 z"
     class="C"
     id="path98" />
  <path
     d="m 112.59,117.34 a 21.81,21.81 0 0 1 7.24,7.43 c -0.13,0.09 -1.55,-1.75 -3.55,-3.79 z"
     class="B"
     id="path99" />
  <path
     d="m 132.71,131.33 c 0,0 7.33,-4.69 2.39,-14 0,0.01 -5.91,6.8 -2.39,14 z"
     class="C"
     id="path100" />
  <path
     d="m 134.94,121.18 a 15.22,15.22 0 0 1 -0.55,5.19 15,15 0 0 1 -1.78,4.91 c -0.14,-0.05 0.64,-2.24 1.28,-5 z"
     class="B"
     id="path101" />
  <path
     d="m 113.24,125.82 c 0,0 -5.35,-6.86 -14.15,-1.08 0,0 7.31,5.26 14.15,1.08 z"
     class="C"
     id="path102" />
  <path
     d="m 102.92,124.54 a 15.51,15.51 0 0 1 5.23,0.07 15.41,15.41 0 0 1 5,1.31 c 0,0.15 -2.29,-0.43 -5.12,-0.8 z"
     class="B"
     id="path103" />
  <path
     d="m 122.77,133.05 c 0,0 -6.22,-6.09 -14.16,0.82 0,0 7.94,4.23 14.16,-0.82 z"
     class="C"
     id="path104" />
  <path
     d="m 112.38,133.16 a 15.21,15.21 0 0 1 5.18,-0.64 15.52,15.52 0 0 1 5.19,0.63 c 0,0.15 -2.34,-0.11 -5.19,-0.11 z"
     class="B"
     id="path105" />
  <path
     d="m 187.92,162.59 c 0,0 -9.23,0.66 -9.34,11.87 0,0 8.98,-3.35 9.34,-11.87 z"
     class="C"
     id="path106" />
  <path
     d="m 180.67,171 a 17.28,17.28 0 0 1 3.17,-4.57 17,17 0 0 1 4.15,-3.69 c 0.1,0.11 -1.75,1.76 -3.76,4 z"
     class="B"
     id="path107" />
  <path
     d="m 204.49,147.58 c 0,0 8,1.39 10.48,-8.16 0.03,0 -8.37,0.96 -10.48,8.16 z"
     class="C"
     id="path108" />
  <path
     d="m 212.44,142 a 19.61,19.61 0 0 1 -8,5.51 c -0.07,-0.14 1.84,-1.16 4,-2.68 z"
     class="B"
     id="path109" />
  <path
     d="m 210.64,120.8 c 0,0 1.26,-8.82 12,-8.15 0.02,0 -3.8,8.35 -12,8.15 z"
     class="C"
     id="path110" />
  <path
     d="m 219.15,114.42 c 0.08,0.13 -2,1.35 -4.28,3.13 l -4.15,3.32 a 22.5,22.5 0 0 1 8.43,-6.45 z"
     class="B"
     id="path111" />
  <path
     d="m 236.57,141.27 c 0,0 -9.32,-5.79 -3.23,-17.6 0,0 7.56,8.47 3.23,17.6 z"
     class="C"
     id="path112" />
  <path
     d="m 233.59,128.5 c 0.16,0 0.49,2.9 1.35,6.4 l 1.75,6.31 a 22.62,22.62 0 0 1 -2.25,-6.18 22.12,22.12 0 0 1 -0.85,-6.53 z"
     class="B"
     id="path113" />
  <path
     d="m 229.76,76.28 c 0,0 3.39,-13.87 -13,-19.31 -0.02,0.03 0.66,14.76 13,19.31 z"
     class="C"
     id="path114" />
  <path
     d="m 220.9,61.7 a 10.09,10.09 0 0 1 1.68,1.87 46.32,46.32 0 0 1 3.41,5 47.33,47.33 0 0 1 2.76,5.4 10.22,10.22 0 0 1 0.84,2.36 14.72,14.72 0 0 1 -1.17,-2.21 l -2.88,-5.28 -3.26,-5.05 A 15.44,15.44 0 0 1 220.9,61.7 Z"
     class="B"
     id="path115" />
  <path
     d="m 238.41,171.63 c 0,0 -6.63,1.56 -9.16,-6.28 0,0 7.03,0.38 9.16,6.28 z"
     class="C"
     id="path116" />
  <path
     d="m 231.49,167.35 a 37.74,37.74 0 0 1 3.45,2.12 34.65,34.65 0 0 1 3.49,2.08 10.5,10.5 0 0 1 -3.75,-1.63 10.19,10.19 0 0 1 -3.19,-2.57 z"
     class="B"
     id="path117" />
  <path
     d="m 239.08,125.51 c 0,0 3.49,-6.91 -4.51,-11.79 0,0 -1.45,7.87 4.51,11.79 z"
     class="C"
     id="path118" />
  <path
     d="m 236.19,116.72 a 12.92,12.92 0 0 1 2,4.22 13,13 0 0 1 0.84,4.58 c -0.15,0 -0.56,-2 -1.33,-4.42 z"
     class="B"
     id="path119" />
  <path
     d="m 229.7,60 c 0,0 3.49,-6.91 -4.51,-11.79 0,-0.01 -1.45,7.86 4.51,11.79 z"
     class="C"
     id="path120" />
  <path
     d="m 226.81,51.2 a 12.92,12.92 0 0 1 2,4.22 13,13 0 0 1 0.84,4.57 c -0.16,0 -0.56,-2 -1.34,-4.41 z"
     class="B"
     id="path121" />
  <path
     d="m 205.54,77.76 c 0,0 2.93,-13 -12.51,-17.83 -0.03,0 0.89,13.79 12.51,17.83 z"
     class="C"
     id="path122" />
  <path
     d="m 197,64.28 a 8.62,8.62 0 0 1 1.61,1.72 44.69,44.69 0 0 1 5.95,9.62 9.34,9.34 0 0 1 0.82,2.21 12.4,12.4 0 0 1 -1.15,-2 l -2.78,-4.88 -3.13,-4.67 a 12.75,12.75 0 0 1 -1.32,-2 z"
     class="B"
     id="path123" />
  <path
     d="m 209.76,108.51 c 0,0 5.68,-10.46 18.85,-4.62 0,0 -8.69,8.72 -18.85,4.62 z"
     class="C"
     id="path124" />
  <path
     d="m 223.39,104.47 c 0,0.16 -3.11,0.69 -6.85,1.85 l -6.71,2.31 a 7.45,7.45 0 0 1 1.84,-1 38.08,38.08 0 0 1 9.64,-3 7.48,7.48 0 0 1 2.08,-0.16 z"
     class="B"
     id="path125" />
  <path
     d="m 196.68,176 c 0,0 -7.1,-4 -12.59,4.21 0,0.04 8.21,1.91 12.59,-4.21 z"
     class="C"
     id="path126" />
  <path
     d="m 187.32,178.68 a 14,14 0 0 1 4.52,-1.86 13.62,13.62 0 0 1 4.84,-0.68 c 0,0.15 -2.13,0.48 -4.7,1.18 z"
     class="B"
     id="path127" />
  <path
     d="m 212.14,164.79 c 0,0 5.51,-9.45 17.45,-3.72 0,0 -8.23,7.77 -17.45,3.72 z"
     class="C"
     id="path128" />
  <path
     d="m 224.78,161.46 c 0,0.16 -2.88,0.57 -6.34,1.53 l -6.23,1.92 a 21.81,21.81 0 0 1 6.09,-2.42 22.27,22.27 0 0 1 6.48,-1.03 z"
     class="B"
     id="path129" />
  <path
     d="m 225.78,144.78 c 0,0 5.71,5.81 -0.75,13.25 -0.03,-0.03 -3.97,-7.43 0.75,-13.25 z"
     class="C"
     id="path130" />
  <path
     d="m 225.69,154.5 c -0.15,0 0.09,-2.18 0.09,-4.85 l -0.09,-4.85 a 14.07,14.07 0 0 1 0.61,4.85 13.79,13.79 0 0 1 -0.61,4.85 z"
     class="B"
     id="path131" />
  <path
     d="m 134.06,175.76 c 0,0 -3.71,-5.47 2.53,-10.47 0,0 2.08,6.51 -2.53,10.47 z"
     class="C"
     id="path132" />
  <path
     d="m 135.54,168 a 30.65,30.65 0 0 1 -0.72,3.87 33.39,33.39 0 0 1 -0.68,3.88 9.93,9.93 0 0 1 0.17,-4 10.16,10.16 0 0 1 1.23,-3.75 z"
     class="B"
     id="path133" />
  <path
     d="m 149.5,170.68 c 0,0 -5.71,3.33 -10.28,-3.24 0,0 6.64,-1.64 10.28,3.24 z"
     class="C"
     id="path134" />
  <path
     d="m 141.87,168.67 a 33.43,33.43 0 0 1 3.81,1 33.64,33.64 0 0 1 3.82,0.95 10.26,10.26 0 0 1 -3.95,-0.44 10.08,10.08 0 0 1 -3.68,-1.51 z"
     class="B"
     id="path135" />
  <path
     d="m 105.4,190.82 c 0,0 3.86,-6.3 -3.37,-11.56 -0.03,0 -2.03,7.37 3.37,11.56 z"
     class="C"
     id="path136" />
  <path
     d="m 103.34,182.24 a 17.28,17.28 0 0 1 2,8.58 c -0.15,0 -0.39,-1.95 -0.93,-4.31 z"
     class="B"
     id="path137" />
  <path
     d="m 152.26,189.61 c 0,0 -1.12,-7.72 -10.55,-7.11 0,0 3.37,7.34 10.55,7.11 z"
     class="C"
     id="path138" />
  <path
     d="m 144.79,184 a 5.59,5.59 0 0 1 1.75,0.9 42.42,42.42 0 0 1 3.81,2.8 c 2.88,2.33 5,4.52 4.83,4.63 a 8.22,8.22 0 0 1 -1.54,-1.21 l -3.62,-3 -3.69,-2.91 A 9.9,9.9 0 0 1 144.79,184 Z"
     class="B"
     id="path139" />
  <path
     d="m 161,189.43 c 0,0 -0.89,-6.09 -8.32,-5.61 -0.01,0 2.65,5.79 8.32,5.61 z"
     class="C"
     id="path140" />
  <path
     d="m 155.1,185 a 4.66,4.66 0 0 1 1.68,0.93 44.53,44.53 0 0 1 3.59,2.9 29.86,29.86 0 0 1 4.63,4.67 c -0.1,0.09 -2.25,-1.87 -4.95,-4.24 l -3.48,-3 A 15,15 0 0 1 155.1,185 Z"
     class="B"
     id="path141" />
  <path
     d="m 178.12,188.92 c 0,0 5.06,-3.5 1.33,-9.95 0,0.03 -4,4.95 -1.33,9.95 z"
     class="C"
     id="path142" />
  <path
     d="m 179.44,181.69 a 4.79,4.79 0 0 1 -0.09,1.92 c -0.18,1.17 -0.54,2.77 -1,4.51 a 29.76,29.76 0 0 1 -2.1,6.18 c -0.12,-0.05 0.67,-2.84 1.6,-6.32 l 1.14,-4.44 a 14.66,14.66 0 0 1 0.45,-1.85 z"
     class="B"
     id="path143" />
  <path
     d="m 171.33,149.13 c 0,0 -5.84,2 -4.06,9.18 0,0 5.23,-3.63 4.06,-9.18 z"
     class="C"
     id="path144" />
  <path
     d="m 168,155.71 a 4.61,4.61 0 0 1 0.63,-1.82 45.17,45.17 0 0 1 2.22,-4 29.83,29.83 0 0 1 3.74,-5.35 c 0.11,0.08 -1.44,2.54 -3.3,5.62 l -2.34,3.95 a 15.18,15.18 0 0 1 -0.95,1.6 z"
     class="B"
     id="path145" />
  <path
     d="m 172.23,139 c 0,0 -1.9,-5.85 -9.15,-4.12 0,-0.05 3.6,5.2 9.15,4.12 z"
     class="C"
     id="path146" />
  <path
     d="m 165.68,135.62 a 4.54,4.54 0 0 1 1.81,0.63 c 1.07,0.51 2.5,1.31 4,2.25 3.07,1.89 5.41,3.66 5.31,3.79 -0.1,0.13 -2.52,-1.46 -5.58,-3.34 l -3.94,-2.37 a 15.16,15.16 0 0 1 -1.6,-0.96 z"
     class="B"
     id="path147" />
  <path
     d="m 182.46,123.09 c 0,0 -5.87,-1.85 -8.67,5 0,0.05 6.36,0.17 8.67,-5 z"
     class="C"
     id="path148" />
  <path
     d="m 175.94,126.49 a 4.59,4.59 0 0 1 1.57,-1.11 45,45 0 0 1 4.18,-2 29.69,29.69 0 0 1 6.17,-2.13 c 0,0.12 -2.66,1.21 -6,2.61 l -4.21,1.83 a 18.12,18.12 0 0 1 -1.71,0.8 z"
     class="B"
     id="path149" />
  <path
     d="m 145.2,190.44 c 0,0 -4.91,-6.06 -12.71,-0.71 0,0 6.65,4.58 12.71,0.71 z"
     class="C"
     id="path150" />
  <path
     d="m 135.93,189.48 a 13,13 0 0 1 4.69,-0.06 13.32,13.32 0 0 1 4.55,1.11 c 0,0.15 -2.07,-0.31 -4.61,-0.59 z"
     class="B"
     id="path151" />
  <path
     d="m 152,194.37 c 0,0 -7.32,-2.7 -11.29,5.88 0.02,0 8.08,0.54 11.29,-5.88 z"
     class="C"
     id="path152" />
  <path
     d="m 143.55,198.28 a 13.47,13.47 0 0 1 4,-2.45 13.28,13.28 0 0 1 4.49,-1.37 c 0,0.15 -1.94,0.79 -4.27,1.85 z"
     class="B"
     id="path153" />
  <path
     d="m 218,188.14 c 0,0 -8.86,2 -7.35,12.84 -0.01,0.02 8.21,-4.53 7.35,-12.84 z"
     class="C"
     id="path154" />
  <path
     d="m 212.17,197.28 a 16.36,16.36 0 0 1 2.4,-4.88 16.55,16.55 0 0 1 3.5,-4.18 c 0.11,0.1 -1.44,2 -3.06,4.47 z"
     class="B"
     id="path155" />
  <path
     d="m 164.94,236.89 c 0,0 -11.62,-4 -17.55,9.65 0,0 12.69,0.57 17.55,-9.65 z"
     class="C"
     id="path156" />
  <path
     d="m 151.76,243.34 a 7.61,7.61 0 0 1 1.72,-1.31 39.71,39.71 0 0 1 9.39,-4.48 A 7.74,7.74 0 0 1 165,237 c 0,0.15 -3.08,1.17 -6.73,2.91 z"
     class="B"
     id="path157" />
  <path
     d="m 168.21,240.14 c 0,0 -7.12,3.63 -3.44,12.58 0,0 6.02,-5.72 3.44,-12.58 z"
     class="C"
     id="path158" />
  <path
     d="m 165.26,249.22 a 19.24,19.24 0 0 1 3,-9 c 0.13,0.07 -0.77,2 -1.6,4.49 z"
     class="B"
     id="path159" />
  <path
     d="m 185.81,160.63 c 0,0 -7.39,-7.36 -17,0.84 0,0 9.49,5.16 17,-0.84 z"
     class="C"
     id="path160" />
  <path
     d="m 173.34,160.65 a 9.45,9.45 0 0 1 2.65,-0.37 63.21,63.21 0 0 1 6.45,0 l 6.43,0.54 a 10.72,10.72 0 0 1 2.63,0.51 19.94,19.94 0 0 1 -2.67,-0.14 l -6.41,-0.39 -6.42,-0.17 a 23.28,23.28 0 0 1 -2.66,0.02 z"
     class="B"
     id="path161" />
  <path
     d="m 207.84,160.48 c 0,0 -2.16,-12.39 12.58,-16.2 0,0 -1.42,12.92 -12.58,16.2 z"
     class="C"
     id="path162" />
  <path
     d="m 216.48,148.18 c 0.06,0.06 -0.73,1 -1.88,2.61 l -4.28,6.44 -4,6.61 a 28.61,28.61 0 0 1 -1.67,2.74 14.23,14.23 0 0 1 1.35,-2.92 l 3.91,-6.71 4.43,-6.38 a 12.34,12.34 0 0 1 2.14,-2.39 z"
     class="B"
     id="path163" />
  <path
     d="m 211.51,129.21 c 0,0 4.17,-11.86 18.89,-8 0,0.02 -7.6,10.58 -18.89,8 z"
     class="C"
     id="path164" />
  <path
     d="m 225.05,122.71 c 0,0.08 -1.12,0.5 -2.9,1.36 l -6.89,3.52 -6.75,3.79 a 26.52,26.52 0 0 1 -2.8,1.58 16.17,16.17 0 0 1 2.61,-1.89 l 6.69,-3.94 7,-3.4 a 13,13 0 0 1 3.04,-1.02 z"
     class="B"
     id="path165" />
  <path
     d="m 157.28,107.07 c 0,0 -1.59,-13.47 -18,-12.85 0.01,0 5.52,12.9 18,12.85 z"
     class="C"
     id="path166" />
  <path
     d="m 144.56,97 a 9.32,9.32 0 0 1 2.12,1.1 44.68,44.68 0 0 1 8.94,7.2 9.45,9.45 0 0 1 1.53,1.83 13.7,13.7 0 0 1 -1.79,-1.57 l -4.31,-3.74 -4.57,-3.41 A 13.4,13.4 0 0 1 144.56,97 Z"
     class="B"
     id="path167" />
  <path
     d="m 177.59,96.39 c 0,0 3,-12.27 -11.6,-17 0.01,-0.04 0.66,13 11.6,17 z"
     class="C"
     id="path168" />
  <path
     d="m 169.7,83.52 a 7.94,7.94 0 0 1 1.5,1.63 42,42 0 0 1 5.51,9.19 8,8 0 0 1 0.73,2.1 c -0.14,0.06 -1.49,-3 -3.63,-6.6 z"
     class="B"
     id="path169" />
  <path
     d="m 195.35,207.72 c 0,0 8.2,1.65 11,-8.09 -0.01,0 -8.63,0.76 -11,8.09 z"
     class="C"
     id="path170" />
  <path
     d="m 203.67,202.18 a 14.4,14.4 0 0 1 -3.84,3.24 14.24,14.24 0 0 1 -4.51,2.2 c -0.07,-0.14 1.93,-1.14 4.23,-2.64 z"
     class="B"
     id="path171" />
  <path
     d="m 121.87,236.44 c 0,0 -6,5.82 0.44,13.63 0,0 4.26,-7.53 -0.44,-13.63 z"
     class="C"
     id="path172" />
  <path
     d="m 121.72,246.43 a 14.27,14.27 0 0 1 -0.49,-5 14.42,14.42 0 0 1 0.74,-5 c 0.15,0 -0.16,2.23 -0.22,5 z"
     class="B"
     id="path173" />
  <path
     d="m 136,233.33 c 0,0 5.12,6.6 13.59,1.06 -0.05,0 -7.07,-5.06 -13.59,-1.06 z"
     class="C"
     id="path174" />
  <path
     d="m 145.86,234.58 a 14.73,14.73 0 0 1 -5,-0.06 14.54,14.54 0 0 1 -4.86,-1.28 c 0,-0.15 2.21,0.4 4.93,0.76 z"
     class="B"
     id="path175" />
  <path
     d="m 131.82,234.2 c 0,0 -3.31,12.89 11.92,18.13 0,0 -0.47,-13.76 -11.92,-18.13 z"
     class="C"
     id="path176" />
  <path
     d="m 139.91,247.89 a 9.7,9.7 0 0 1 -1.55,-1.76 44.73,44.73 0 0 1 -3.13,-4.7 44,44 0 0 1 -2.51,-5.06 8.31,8.31 0 0 1 -0.74,-2.22 12.6,12.6 0 0 1 1.08,2.07 l 2.62,4.95 3,4.75 a 11.6,11.6 0 0 1 1.23,1.97 z"
     class="B"
     id="path177" />
  <path
     d="m 98,198.29 c 0,0 -6.26,-5.54 -13.55,1.47 -0.05,0 7.77,3.68 13.55,-1.47 z"
     class="C"
     id="path178" />
  <path
     d="m 88,198.89 a 14.54,14.54 0 0 1 4.94,-0.86 14.6,14.6 0 0 1 5,0.36 c 0,0.16 -2.24,0 -5,0.16 z"
     class="B"
     id="path179" />
  <path
     d="m 117.35,236.19 c 0,0 -9.89,-2.27 -14,10.32 -0.03,0 10.55,-0.84 14,-10.32 z"
     class="C"
     id="path180" />
  <path
     d="m 106.77,243.24 a 21.23,21.23 0 0 1 4.92,-4.05 21,21 0 0 1 5.7,-2.87 c 0.06,0.14 -2.49,1.39 -5.41,3.31 z"
     class="B"
     id="path181" />
  <path
     d="m 107.8,226.07 c 0,0 3.29,-10.61 -7.79,-13.57 a 13.7,13.7 0 0 0 7.79,13.57 z"
     class="C"
     id="path182" />
  <path
     d="m 102,214.74 a 21.43,21.43 0 0 1 3.46,5.36 21,21 0 0 1 2.19,6 c -0.15,0 -1.09,-2.63 -2.66,-5.76 z"
     class="B"
     id="path183" />
  <path
     d="m 100.75,158.57 c 0,0 -9.32,-11.29 -20.59,-1.23 a 18,18 0 0 0 20.59,1.23 z"
     class="C"
     id="path184" />
  <path
     d="m 84.08,156.75 a 10,10 0 0 1 2.46,-0.18 47.56,47.56 0 0 1 5.94,0.33 45,45 0 0 1 5.85,1.1 9.64,9.64 0 0 1 2.35,0.76 15,15 0 0 1 -2.43,-0.4 l -5.83,-0.91 -5.89,-0.48 a 13.63,13.63 0 0 1 -2.45,-0.22 z"
     class="B"
     id="path185" />
  <path
     d="m 96.68,184.8 c 0,0 3.67,-8.89 -5.64,-12.3 a 11.84,11.84 0 0 0 5.64,12.3 z"
     class="C"
     id="path186" />
  <path
     d="m 92.59,174.58 a 23.72,23.72 0 0 1 4,10.22 c -0.15,0 -0.77,-2.34 -1.87,-5.15 z"
     class="B"
     id="path187" />
  <path
     d="m 93.47,231 c 0,0 -14.47,-6.82 -20.92,8.41 A 19.73,19.73 0 0 0 93.47,231 Z"
     class="C"
     id="path188" />
  <path
     d="m 76.14,237 a 12,12 0 0 1 2.35,-1.32 52.13,52.13 0 0 1 6,-2.45 50.13,50.13 0 0 1 6.28,-1.7 12.43,12.43 0 0 1 2.67,-0.37 17.46,17.46 0 0 1 -2.59,0.73 l -6.2,1.83 -6,2.29 A 16.59,16.59 0 0 1 76.14,237 Z"
     class="B"
     id="path189" />
  <path
     d="m 77.63,223.42 c 0,0 -12.5,-3.28 -15.38,9.73 a 15.92,15.92 0 0 0 15.38,-9.73 z"
     class="C"
     id="path190" />
  <path
     d="m 64.75,230.71 a 7.64,7.64 0 0 1 1.66,-1.42 41.38,41.38 0 0 1 4.42,-2.83 39.45,39.45 0 0 1 4.75,-2.24 7.82,7.82 0 0 1 2.08,-0.65 c 0,0.15 -3,1.36 -6.58,3.35 z"
     class="B"
     id="path191" />
  <path
     d="m 89,180.23 c 0,0 -9.24,-8.94 -18.09,1 a 15.86,15.86 0 0 0 18.09,-1 z"
     class="C"
     id="path192" />
  <path
     d="m 74.25,180.27 a 8.06,8.06 0 0 1 2.12,-0.42 41,41 0 0 1 5.22,-0.3 39.08,39.08 0 0 1 5.21,0.37 8.19,8.19 0 0 1 2.12,0.45 c 0,0.16 -3.29,-0.29 -7.33,-0.3 -4.04,-0.01 -7.32,0.36 -7.34,0.2 z"
     class="B"
     id="path193" />
  <path
     d="m 85.8,219.62 c 0,0 -4.41,-14.08 -18.74,-9 a 18.16,18.16 0 0 0 18.74,9 z"
     class="C"
     id="path194" />
  <path
     d="m 70.94,211.59 a 9.65,9.65 0 0 1 2.36,0.76 47.65,47.65 0 0 1 5.42,2.57 46.39,46.39 0 0 1 5,3.22 9.74,9.74 0 0 1 1.9,1.6 15.06,15.06 0 0 1 -2.11,-1.3 l -5.1,-3.07 -5.3,-2.68 a 13.48,13.48 0 0 1 -2.17,-1.1 z"
     class="B"
     id="path195" />
  <path
     d="m 101.24,234.72 c 0,0 -7.3,2.87 -4,10.27 a 9.66,9.66 0 0 0 4,-10.27 z"
     class="C"
     id="path196" />
  <path
     d="m 97.54,242.9 a 12.61,12.61 0 0 1 1.36,-4.3 12.2,12.2 0 0 1 2.41,-3.82 c 0.12,0.09 -0.91,1.81 -1.93,4 z"
     class="B"
     id="path197" />
  <path
     d="m 111.59,201 c 0,0 -7.45,-2.43 -9.66,5.35 a 9.67,9.67 0 0 0 9.66,-5.35 z"
     class="C"
     id="path198" />
  <path
     d="m 103.53,204.91 a 12.46,12.46 0 0 1 3.79,-2.45 11.9,11.9 0 0 1 4.28,-1.41 c 0,0.14 -1.84,0.81 -4.06,1.88 a 43.34,43.34 0 0 1 -4.01,1.98 z"
     class="B"
     id="path199" />
  <path
     d="m 165.93,173.12 c 0,0 -4,-5.25 1.55,-9.2 a 8.16,8.16 0 0 1 -1.55,9.2 z"
     class="C"
     id="path200" />
  <path
     d="m 166.82,165.59 a 26.79,26.79 0 0 1 -0.41,3.76 29,29 0 0 1 -0.4,3.76 9.36,9.36 0 0 1 -0.12,-3.82 9.52,9.52 0 0 1 0.93,-3.7 z"
     class="B"
     id="path201" />
  <path
     d="m 170.1,180.05 c 0,0 -3.91,-8.7 5.21,-12.38 a 11.74,11.74 0 0 1 -5.21,12.38 z"
     class="C"
     id="path202" />
  <path
     d="m 173.84,169.78 c 0.13,0.08 -0.94,2.27 -1.93,5.1 l -1.7,5.17 a 23.42,23.42 0 0 1 3.63,-10.27 z"
     class="B"
     id="path203" />
  <path
     d="m 135.82,182.79 c 0,0 -7.45,-2.43 -9.66,5.35 a 9.67,9.67 0 0 0 9.66,-5.35 z"
     class="C"
     id="path204" />
  <path
     d="m 127.76,186.75 a 17.84,17.84 0 0 1 8.07,-3.87 c 0,0.15 -1.84,0.82 -4.06,1.89 z"
     class="B"
     id="path205" />
  <path
     d="m 121.18,226 c 0,0 7.19,-3.12 3.68,-10.4 a 9.64,9.64 0 0 0 -3.68,10.4 z"
     class="C"
     id="path206" />
  <path
     d="m 124.58,217.66 a 12.17,12.17 0 0 1 -1.2,4.34 12,12 0 0 1 -2.27,3.9 c -0.13,-0.08 0.84,-1.83 1.79,-4.1 z"
     class="B"
     id="path207" />
  <path
     d="m 86.57,190.78 c 0,0 -9.6,-7 -16.47,3.15 a 14.68,14.68 0 0 0 16.47,-3.15 z"
     class="C"
     id="path208" />
  <path
     d="M 73.07,192.68 A 6.69,6.69 0 0 1 75,192 a 36.79,36.79 0 0 1 4.75,-0.94 33.87,33.87 0 0 1 4.83,-0.31 6.71,6.71 0 0 1 2,0.16 c 0,0.16 -3.05,0.17 -6.76,0.67 z"
     class="B"
     id="path209" />
  <path
     d="m 98.3,152 c 0,0 -10.4,-2.64 -7.25,-13.26 A 13.2,13.2 0 0 1 98.3,152 Z"
     class="C"
     id="path210" />
  <path
     d="m 91.88,141.48 c 0.14,-0.06 1.32,2.43 3.11,5.28 l 3.4,5.11 A 20,20 0 0 1 94.55,147 20.53,20.53 0 0 1 91.88,141.48 Z"
     class="B"
     id="path211" />
  <path
     d="m 110.77,138.09 c 0,0 -6.52,-4.34 -10.73,2.56 a 9.64,9.64 0 0 0 10.73,-2.56 z"
     class="C"
     id="path212" />
  <path
     d="m 102,139.74 a 12.2,12.2 0 0 1 4.3,-1.34 12.08,12.08 0 0 1 4.5,-0.22 c 0,0.15 -2,0.29 -4.41,0.73 z"
     class="B"
     id="path213" />
  <path
     d="m 107.35,130.77 c 0,0 -6.53,-4.34 -10.73,2.57 a 9.65,9.65 0 0 0 10.73,-2.57 z"
     class="C"
     id="path214" />
  <path
     d="m 98.53,132.43 a 12.42,12.42 0 0 1 4.3,-1.35 12.39,12.39 0 0 1 4.51,-0.22 c 0,0.15 -2,0.3 -4.41,0.73 z"
     class="B"
     id="path215" />
  <path
     d="m 127.72,112.62 c 0,0 -0.53,-7.82 -8.57,-7 a 9.66,9.66 0 0 0 8.57,7 z"
     class="C"
     id="path216" />
  <path
     d="m 121,106.63 a 17.61,17.61 0 0 1 6.6,6 c -0.11,0.1 -1.44,-1.4 -3.26,-3 z"
     class="B"
     id="path217" />
  <path
     d="m 149.5,117 c 0,0 -6.52,-4.34 -10.73,2.57 A 9.65,9.65 0 0 0 149.5,117 Z"
     class="C"
     id="path218" />
  <path
     d="m 140.69,118.66 a 17.69,17.69 0 0 1 8.8,-1.57 42.52,42.52 0 0 1 -4.41,0.73 z"
     class="B"
     id="path219" />
  <path
     d="m 163.74,83.36 c 0,0 -8.77,-5.23 -3,-14 a 12.57,12.57 0 0 1 3,14 z"
     class="C"
     id="path220" />
  <path
     d="m 160.72,72.07 c 0.15,0 0.56,2.56 1.42,5.65 l 1.7,5.57 a 18.5,18.5 0 0 1 -2.2,-5.43 18.85,18.85 0 0 1 -0.92,-5.79 z"
     class="B"
     id="path221" />
  <path
     d="m 80.1,208.42 c 0,0 -6.26,-4.71 -1.15,-11 a 9.66,9.66 0 0 1 1.15,11 z"
     class="C"
     id="path222" />
  <path
     d="m 78.72,199.55 c 0.15,0 0.28,2 0.68,4.42 l 0.78,4.41 a 17.91,17.91 0 0 1 -1.46,-8.83 z"
     class="B"
     id="path223" />
  <path
     d="m 72.71,208.23 c 0,0 2.09,-7.25 -5.47,-9.11 a 9.3,9.3 0 0 0 5.47,9.11 z"
     class="C"
     id="path224" />
  <path
     d="m 68.64,200.61 a 12,12 0 0 1 2.49,3.56 11.58,11.58 0 0 1 1.49,4.07 c -0.14,0 -0.85,-1.74 -2,-3.83 a 37.4,37.4 0 0 1 -1.98,-3.8 z"
     class="B"
     id="path225" />
  <path
     d="m 95,167.48 c 0,0 -8.24,-7.33 -15.47,1.46 A 13.59,13.59 0 0 0 95,167.48 Z"
     class="C"
     id="path226" />
  <path
     d="m 82.4,168.05 a 21.22,21.22 0 0 1 6.27,-0.92 20.82,20.82 0 0 1 6.32,0.48 c 0,0.15 -2.84,-0.09 -6.31,0 z"
     class="B"
     id="path227" />
  <path
     d="m 118.31,198.05 c 0,0 -7.65,1.66 -5.63,9.49 a 9.66,9.66 0 0 0 5.63,-9.49 z"
     class="C"
     id="path228" />
  <path
     d="m 113.36,205.53 a 17.66,17.66 0 0 1 5,-7.41 c 0.11,0.1 -1.18,1.63 -2.55,3.68 z"
     class="B"
     id="path229" />
  <path
     d="m 134.29,206.38 c 0,0 -1.27,7.74 6.75,8.73 a 9.66,9.66 0 0 0 -6.75,-8.73 z"
     class="C"
     id="path230" />
  <path
     d="m 139.42,213.74 a 12.48,12.48 0 0 1 -3,-3.37 12.15,12.15 0 0 1 -2.05,-4 c 0.13,-0.07 1.08,1.69 2.48,3.72 z"
     class="B"
     id="path231" />
  <path
     d="m 124.36,200.39 c 0,0 -5,11.53 7.09,16.21 a 15.5,15.5 0 0 0 -7.09,-16.21 z"
     class="C"
     id="path232" />
  <path
     d="m 129.46,213.84 a 8,8 0 0 1 -1.12,-1.8 40.2,40.2 0 0 1 -3.53,-9.56 7.84,7.84 0 0 1 -0.31,-2.1 c 0.16,0 0.88,3.11 2.26,6.81 z"
     class="B"
     id="path233" />
  <path
     d="m 97.86,220.76 c 0,0 1.76,-11.85 -13.44,-15.57 0,0 1.97,12.38 13.44,15.57 z"
     class="C"
     id="path234" />
  <path
     d="m 88.59,209 a 8.42,8.42 0 0 1 1.67,1.45 41.64,41.64 0 0 1 6.49,8.43 8.08,8.08 0 0 1 1,2 c -0.14,0.08 -1.83,-2.82 -4.36,-6.09 z"
     class="B"
     id="path235" />
  <path
     d="m 162.43,221.4 c 0,0 2.64,-9.1 -8.08,-13.17 0,0 0.03,9.77 8.08,13.17 z"
     class="C"
     id="path236" />
  <path
     d="m 157,211.48 a 24.34,24.34 0 0 1 5.35,10 c -0.15,0 -1.07,-2.31 -2.55,-5 z"
     class="B"
     id="path237" />
  <path
     d="m 168.14,199.55 c 0,0 -8,-5 -14.88,4.18 0,0 9.44,2.64 14.88,-4.18 z"
     class="C"
     id="path238" />
  <path
     d="m 157.1,202.09 a 17.49,17.49 0 0 1 5.38,-1.86 17.68,17.68 0 0 1 5.65,-0.57 c 0,0.16 -2.51,0.4 -5.54,1.08 z"
     class="B"
     id="path239" />
  <path
     d="m 113.4,225.33 c 0,0 -5.39,-10.26 6.47,-17.76 0,0 2.35,11.76 -6.47,17.76 z"
     class="C"
     id="path240" />
  <path
     d="m 117.51,212.11 c 0.15,0.06 -1.12,2.9 -2.2,6.55 l -1.77,6.68 a 7.57,7.57 0 0 1 0.17,-2 35.25,35.25 0 0 1 1.1,-4.79 34.85,34.85 0 0 1 1.72,-4.61 7.1,7.1 0 0 1 0.98,-1.83 z"
     class="B"
     id="path241" />
  <path
     d="m 102.67,196.07 c 0,0 -1.3,-11.58 -15.39,-11.14 0,0 4.66,11.07 15.39,11.14 z"
     class="C"
     id="path242" />
  <path
     d="m 91.8,187.38 a 7.14,7.14 0 0 1 1.82,0.93 38,38 0 0 1 4,2.87 36.1,36.1 0 0 1 3.62,3.37 7.16,7.16 0 0 1 1.28,1.6 c -0.11,0.11 -2.25,-2.15 -5.23,-4.57 z"
     class="B"
     id="path243" />
  <path
     d="m 118.25,162.43 c 0,0 -1.5,-12.88 -17.18,-12.32 0,0 5.24,12.35 17.18,12.32 z"
     class="C"
     id="path244" />
  <path
     d="m 106.1,152.82 a 8.56,8.56 0 0 1 2,1 42.66,42.66 0 0 1 4.5,3.18 41.94,41.94 0 0 1 4.05,3.73 8.47,8.47 0 0 1 1.45,1.76 c -0.12,0.1 -2.51,-2.41 -5.83,-5.09 z m 71.58,47.8 -13.97,-8.54 -18.03,-0.97 v 1.28 l 17.08,1.52 11.99,8.27 5.36,6.77 z"
     class="B"
     id="path245" />
  <path
     d="m 323.09,210.13 c 0,0 11.55,5.26 6.32,19.71 0,0 -9.93,-8.59 -6.32,-19.71 z"
     class="C"
     id="path246" />
  <g
     class="B"
     id="g248">
    <path
       d="m 328.4,224.33 c -0.15,0 -0.95,-3.26 -2.46,-7.15 l -3,-7 a 7.86,7.86 0 0 1 1.2,1.88 38.27,38.27 0 0 1 2.26,4.89 39.26,39.26 0 0 1 1.61,5.14 8,8 0 0 1 0.39,2.24 z"
       id="path247" />
    <path
       d="m 325.44,221.26 a 11.33,11.33 0 0 1 -0.2,-3.1 11.54,11.54 0 0 1 0.12,-3.11 13.57,13.57 0 0 1 0.08,6.21 z"
       id="path248" />
  </g>
  <path
     d="m 317.2,203.69 c 0,0 1,13.21 -14.87,15.65 0,0 2.89,-13.34 14.87,-15.65 z"
     class="C"
     id="path249" />
  <path
     d="m 306.86,215.66 c -0.1,-0.11 2.52,-2.49 5.33,-5.82 l 4.87,-6.22 a 9.18,9.18 0 0 1 -1.12,2 44.64,44.64 0 0 1 -3.35,4.51 42.22,42.22 0 0 1 -3.9,4.05 9.11,9.11 0 0 1 -1.83,1.48 z"
     class="B"
     id="path250" />
  <path
     d="m 281.66,219.32 c 0,0 11.89,-5.83 20.08,8 0,-0.05 -13.5,2.27 -20.08,-8 z"
     class="C"
     id="path251" />
  <path
     d="m 296.63,224.43 c -0.07,0.15 -3.26,-1.4 -7.39,-2.76 l -7.59,-2.19 a 8.45,8.45 0 0 1 2.31,0.28 42.3,42.3 0 0 1 5.44,1.42 42.8,42.8 0 0 1 5.21,2.1 9,9 0 0 1 2.02,1.15 z"
     class="B"
     id="path252" />
  <path
     d="m 285.62,176 c 0,0 2.91,-11.35 16.89,-8.94 0,-0.06 -6.2,10.38 -16.89,8.94 z"
     class="C"
     id="path253" />
  <path
     d="m 297.67,168.83 c 0.06,0.15 -2.81,1.41 -6.1,3.41 l -5.85,3.82 a 7,7 0 0 1 1.5,-1.41 38.68,38.68 0 0 1 4.08,-2.85 36.73,36.73 0 0 1 4.42,-2.29 7.5,7.5 0 0 1 1.95,-0.68 z"
     class="B"
     id="path254" />
  <path
     d="m 363.65,161.65 c 0,0 1.29,11 14.65,10.46 0,0 -4.49,-10.5 -14.65,-10.46 z"
     class="C"
     id="path255" />
  <path
     d="m 374,169.82 a 7.35,7.35 0 0 1 -2,-1.12 39.94,39.94 0 0 1 -4.27,-3.49 l -3.86,-3.92 a 9.46,9.46 0 0 1 -1.43,-1.78 c 0.12,-0.11 2.52,2.4 5.65,5.31 l 4.13,3.58 a 17.3,17.3 0 0 1 1.78,1.42 z"
     class="B"
     id="path256" />
  <path
     d="m 375.11,177.39 c 0,0 10.45,-3.55 15.75,8.72 0,0 -11.41,0.47 -15.75,-8.72 z"
     class="C"
     id="path257" />
  <path
     d="m 386.94,183.22 c -0.09,0.13 -2.57,-1.47 -5.84,-3 l -6,-2.66 a 5.93,5.93 0 0 1 1.9,0.44 34.61,34.61 0 0 1 4.36,1.74 35.06,35.06 0 0 1 4.08,2.31 6.44,6.44 0 0 1 1.5,1.17 z"
     class="B"
     id="path258" />
  <path
     d="m 380.28,172.05 c 0,0 6.26,-9.9 18.81,-3.31 0,0 -9.09,8 -18.81,3.31 z"
     class="C"
     id="path259" />
  <path
     d="m 393.93,169 c 0,0.15 -3.1,0.48 -6.84,1.37 l -6.74,1.83 a 7.17,7.17 0 0 1 1.86,-0.88 37.59,37.59 0 0 1 4.76,-1.46 38.23,38.23 0 0 1 4.9,-0.82 7.2,7.2 0 0 1 2.06,-0.04 z"
     class="B"
     id="path260" />
  <path
     d="m 363,134.51 c 0,0 9.25,-4.44 15.51,6.29 0,0 -10.51,1.72 -15.51,-6.29 z"
     class="C"
     id="path261" />
  <path
     d="m 374.57,138.58 c -0.07,0.13 -2.54,-1.06 -5.74,-2.14 l -5.85,-1.8 a 20,20 0 0 1 6,1.31 19.67,19.67 0 0 1 5.59,2.63 z"
     class="B"
     id="path262" />
  <path
     d="m 364,128.09 c 0,0 -10.18,0.56 -11.84,-11.66 -0.02,0 10.24,2.41 11.84,11.66 z"
     class="C"
     id="path263" />
  <path
     d="m 354.91,120 c 0.12,-0.1 1.93,1.93 4.45,4.14 l 4.68,3.87 a 19.63,19.63 0 0 1 -5,-3.48 19.83,19.83 0 0 1 -4.13,-4.53 z"
     class="B"
     id="path264" />
  <path
     d="m 367.87,107.45 c 0,0 8.29,-10.25 -3.27,-21.26 0,0 -5.25,12.59 3.27,21.26 z"
     class="C"
     id="path265" />
  <path
     d="m 366.22,91.78 a 8.76,8.76 0 0 1 0.67,2.22 42.27,42.27 0 0 1 0.89,5.52 43.72,43.72 0 0 1 0.17,5.6 8.72,8.72 0 0 1 -0.25,2.31 c -0.15,0 0,-3.54 -0.44,-7.86 z"
     class="B"
     id="path266" />
  <path
     d="m 334.35,108.39 c 0,0 -6.49,-8 2.47,-16.56 0,0 4.18,9.78 -2.47,16.56 z"
     class="C"
     id="path267" />
  <path
     d="m 335.58,96.18 c 0.15,0 -0.43,2.72 -0.73,6.08 l -0.38,6.11 a 20.38,20.38 0 0 1 -0.14,-6.16 20.19,20.19 0 0 1 1.25,-6.03 z"
     class="B"
     id="path268" />
  <path
     d="m 291.28,85 c 0,0 -1,-9.2 10,-11.33 -0.03,-0.01 -1.69,9.42 -10,11.33 z"
     class="C"
     id="path269" />
  <path
     d="m 298.18,76.35 c 0.11,0.11 -1.64,1.87 -3.5,4.26 l -3.3,4.43 a 17.11,17.11 0 0 1 2.89,-4.75 17,17 0 0 1 3.91,-3.94 z"
     class="B"
     id="path270" />
  <path
     d="m 308.06,78.47 c 0,0 -5.3,-7.59 3.34,-14.72 0,0 3.05,9.08 -3.34,14.72 z"
     class="C"
     id="path271" />
  <path
     d="m 310,67.58 c 0.15,0 -0.54,2.42 -1,5.42 l -0.78,5.46 a 17.14,17.14 0 0 1 0.27,-5.55 17.2,17.2 0 0 1 1.51,-5.33 z"
     class="B"
     id="path272" />
  <path
     d="m 271.92,107.62 c 0,0 -2.4,-11.1 10.76,-15.08 0,0 -0.85,11.72 -10.76,15.08 z"
     class="C"
     id="path273" />
  <path
     d="m 279.27,96.21 c 0.12,0.1 -1.81,2.45 -3.8,5.61 l -3.41,5.85 a 6.17,6.17 0 0 1 0.68,-1.88 35.44,35.44 0 0 1 2.29,-4.25 36.12,36.12 0 0 1 2.84,-3.9 7.08,7.08 0 0 1 1.4,-1.43 z"
     class="B"
     id="path274" />
  <path
     d="m 317.11,84.48 c 0,0 -6,-8.43 7.48,-21.64 0,0 2.58,11.36 -7.48,21.64 z"
     class="C"
     id="path275" />
  <path
     d="m 321.88,68.68 a 11.92,11.92 0 0 1 -0.73,2.3 l -1.79,5.51 -1.48,5.6 a 12.24,12.24 0 0 1 -0.61,2.33 10.43,10.43 0 0 1 0.25,-2.4 49.22,49.22 0 0 1 1.34,-5.68 52.51,52.51 0 0 1 1.95,-5.5 9.84,9.84 0 0 1 1.07,-2.16 z"
     class="B"
     id="path276" />
  <path
     d="m 344.43,106.78 c 0,0 5.21,-7.07 14.25,-1.48 0,0 -7.23,5.51 -14.25,1.48 z"
     class="C"
     id="path277" />
  <path
     d="m 354.81,105.2 c 0,0.16 -2.35,0.26 -5.19,0.73 l -5.15,0.95 a 22.16,22.16 0 0 1 10.34,-1.68 z"
     class="B"
     id="path278" />
  <path
     d="m 336.74,78.19 c 0,0 9,-8.35 20,1.72 -0.03,0 -11.42,5.66 -20,-1.72 z"
     class="C"
     id="path279" />
  <path
     d="m 351.42,78.75 c 0,0.16 -3.28,-0.36 -7.32,-0.47 -4.04,-0.11 -7.31,0.22 -7.33,0.06 a 7.43,7.43 0 0 1 2.13,-0.34 39.47,39.47 0 0 1 10.41,0.29 7.74,7.74 0 0 1 2.11,0.46 z"
     class="B"
     id="path280" />
  <path
     d="m 329.88,89 c 0,0 5.2,-7.07 14.25,-1.48 0,-0.03 -7.24,5.48 -14.25,1.48 z"
     class="C"
     id="path281" />
  <path
     d="m 340.26,87.39 c 0,0.16 -2.35,0.26 -5.19,0.73 l -5.15,0.95 a 22.1,22.1 0 0 1 10.34,-1.68 z"
     class="B"
     id="path282" />
  <path
     d="m 325.58,97.34 c 0,0 6,6.42 -1.18,14.28 0,0 -4.07,-8.13 1.18,-14.28 z"
     class="C"
     id="path283" />
  <path
     d="m 325.21,107.83 c -0.15,0 0.18,-2.35 0.25,-5.23 v -5.24 a 15.83,15.83 0 0 1 0.5,5.25 15.77,15.77 0 0 1 -0.75,5.22 z"
     class="B"
     id="path284" />
  <path
     d="m 319.36,97.92 c 0,0 3.59,8 -5.74,13.13 0,0 -1.22,-9.05 5.74,-13.13 z"
     class="C"
     id="path285" />
  <path
     d="m 315.62,107.73 c -0.14,-0.08 0.93,-2.17 1.92,-4.88 l 1.71,-4.95 a 15.9,15.9 0 0 1 -1.25,5.1 15.83,15.83 0 0 1 -2.38,4.73 z"
     class="B"
     id="path286" />
  <path
     d="m 387,163.17 c 0,0 5.56,-7.54 15.2,-1.57 0.03,0 -7.69,5.87 -15.2,1.57 z"
     class="C"
     id="path287" />
  <path
     d="m 398.1,161.49 c 0,0.15 -2.5,0.26 -5.54,0.76 l -5.49,1 a 23.86,23.86 0 0 1 11,-1.79 z"
     class="B"
     id="path288" />
  <path
     d="m 371.62,156.55 c 0,0 -0.82,-8.92 9.87,-10.78 0,0 -1.79,9.1 -9.87,10.78 z"
     class="C"
     id="path289" />
  <path
     d="m 378.47,148.32 c 0.1,0.11 -1.62,1.78 -3.47,4.06 l -3.28,4.22 a 22.73,22.73 0 0 1 6.75,-8.28 z"
     class="B"
     id="path290" />
  <path
     d="m 308.81,137.44 c 0,0 -1.81,-8.44 8.19,-11.54 0,0 -0.63,8.95 -8.19,11.54 z"
     class="C"
     id="path291" />
  <path
     d="m 314.4,128.71 c 0.11,0.1 -1.33,1.91 -2.84,4.32 l -2.65,4.44 a 15.57,15.57 0 0 1 2.21,-4.72 15.16,15.16 0 0 1 3.28,-4.04 z"
     class="B"
     id="path292" />
  <path
     d="m 336.78,114.9 c 0,0 6.74,-2.12 10,5.81 -0.05,0 -7.36,0.13 -10,-5.81 z"
     class="C"
     id="path293" />
  <path
     d="m 344.26,118.81 a 8.86,8.86 0 0 1 -1.53,-0.73 l -3.68,-1.73 -5.26,-2.4 a 22,22 0 0 1 5.47,1.92 33.09,33.09 0 0 1 3.65,1.89 c 0.9,0.55 1.39,0.99 1.35,1.05 z"
     class="B"
     id="path294" />
  <path
     d="m 355,136.15 c 0,0 0.88,-5.59 -5.78,-7.21 0.03,0 0.78,5.81 5.78,7.21 z"
     class="C"
     id="path295" />
  <path
     d="m 351.05,130.67 c 0.12,-0.12 1.6,1.41 3,3.6 a 15.07,15.07 0 0 1 2.12,4.14 34.23,34.23 0 0 1 -2.56,-3.86 z"
     class="B"
     id="path296" />
  <path
     d="m 330.25,117 c 0,0 6.67,-0.17 7.53,7.87 0,0.04 -6.68,-1.74 -7.53,-7.87 z"
     class="C"
     id="path297" />
  <path
     d="m 336,122.54 c -0.1,0.08 -1.64,-1.59 -3.71,-3.49 l -3.75,-3.46 a 15.36,15.36 0 0 1 4.1,3.07 c 2.12,1.92 3.52,3.78 3.36,3.88 z"
     class="B"
     id="path298" />
  <path
     d="m 311.77,97.05 c 0,0 0.9,6.81 -7.23,8.54 0,0 1.1,-7.01 7.23,-8.54 z"
     class="C"
     id="path299" />
  <path
     d="m 306.78,103.56 a 34.85,34.85 0 0 1 2.48,-3.25 34.81,34.81 0 0 1 2.44,-3.31 10.77,10.77 0 0 1 -2,3.6 10.89,10.89 0 0 1 -2.92,2.96 z"
     class="B"
     id="path300" />
  <path
     d="m 305.29,122.31 c 0,0 -6.68,-2.9 -3.83,-11.24 0,0 5.79,4.82 3.83,11.24 z"
     class="C"
     id="path301" />
  <path
     d="m 302.1,114.21 c 0.15,0 0.68,1.84 1.59,4 l 1.67,4 a 11.68,11.68 0 0 1 -2.16,-3.8 11.44,11.44 0 0 1 -1.1,-4.2 z"
     class="B"
     id="path302" />
  <path
     d="m 305.19,88.83 c 0,0 5.72,-3.83 10.81,2.75 0,0 -6.74,2.09 -10.81,-2.75 z"
     class="C"
     id="path303" />
  <path
     d="m 313.23,90.46 a 33.64,33.64 0 0 1 -4,-0.8 37.76,37.76 0 0 1 -4,-0.74 10.48,10.48 0 0 1 4.12,0.23 10.87,10.87 0 0 1 3.88,1.31 z"
     class="B"
     id="path304" />
  <path
     d="m 315.94,66 c 0,0 -5.9,-3.52 -2.23,-11 0,0 4.82,5.21 2.23,11 z"
     class="C"
     id="path305" />
  <path
     d="m 313.92,58 a 35.79,35.79 0 0 1 1,4 37.61,37.61 0 0 1 1.07,4 10.69,10.69 0 0 1 -1.58,-3.82 10.73,10.73 0 0 1 -0.49,-4.18 z"
     class="B"
     id="path306" />
  <path
     d="m 295.63,90.56 c 0,0 -0.21,-6.86 8,-7.79 0.04,0 -1.75,6.87 -8,7.79 z"
     class="C"
     id="path307" />
  <path
     d="m 301.24,84.58 a 34.72,34.72 0 0 1 -2.79,3 35,35 0 0 1 -2.75,3 10.72,10.72 0 0 1 2.37,-3.39 10.6,10.6 0 0 1 3.17,-2.61 z"
     class="B"
     id="path308" />
  <path
     d="m 291.78,103.86 c 0,0 2.73,-4.13 8,-1.23 -0.03,0 -3.94,3.29 -8,1.23 z"
     class="C"
     id="path309" />
  <path
     d="m 297.57,102.68 a 14.16,14.16 0 0 1 -2.87,0.66 13.86,13.86 0 0 1 -2.89,0.57 6.27,6.27 0 0 1 2.78,-1.08 6.13,6.13 0 0 1 2.98,-0.15 z"
     class="B"
     id="path310" />
  <path
     d="m 284.63,83.72 c 0,0 -8.17,-8.33 1.09,-19 0,0 5.68,10.66 -1.09,19 z"
     class="C"
     id="path311" />
  <path
     d="m 284.77,69.78 c 0.15,0 -0.24,3.12 -0.24,7 l 0.24,7 a 7.18,7.18 0 0 1 -0.43,-2 37.84,37.84 0 0 1 -0.33,-5 36.12,36.12 0 0 1 0.33,-4.94 7.06,7.06 0 0 1 0.43,-2.06 z"
     class="B"
     id="path312" />
  <path
     d="m 261.73,72 c 0,0 4.12,-8.4 14.66,-4.26 0,-0.03 -6.54,7.12 -14.66,4.26 z"
     class="C"
     id="path313" />
  <path
     d="m 272.31,68.34 c 0,0.15 -2.41,0.7 -5.3,1.74 l -5.21,2 a 17,17 0 0 1 5,-2.48 17.53,17.53 0 0 1 5.51,-1.26 z"
     class="B"
     id="path314" />
  <path
     d="m 340.8,111 c 0,0 6.29,-2.74 10.21,4.59 C 351,115.54 344,116.42 340.8,111 Z"
     class="C"
     id="path315" />
  <path
     d="m 348.43,114 a 36.69,36.69 0 0 1 -3.81,-1.49 35.12,35.12 0 0 1 -3.83,-1.43 15.54,15.54 0 0 1 7.64,2.92 z"
     class="B"
     id="path316" />
  <path
     d="m 363.57,143.53 c 0,0 5.83,-3.76 10.92,2.91 0,0 -6.88,2.03 -10.92,-2.91 z"
     class="C"
     id="path317" />
  <path
     d="m 371.66,145.28 a 40.25,40.25 0 0 1 -4,-0.87 37,37 0 0 1 -4.05,-0.8 11,11 0 0 1 4.16,0.29 10.51,10.51 0 0 1 3.89,1.38 z"
     class="B"
     id="path318" />
  <path
     d="m 267.28,117.67 c 0,0 1.38,-6.72 9.62,-5.71 0,0.04 -3.32,6.27 -9.62,5.71 z"
     class="C"
     id="path319" />
  <path
     d="m 274.13,113.15 a 35.52,35.52 0 0 1 -3.41,2.27 36,36 0 0 1 -3.38,2.31 15.47,15.47 0 0 1 6.79,-4.58 z"
     class="B"
     id="path320" />
  <path
     d="m 342.05,165.81 c 0,0 9.49,-2.57 13.51,8.63 0,0 -10.16,-0.22 -13.51,-8.63 z"
     class="C"
     id="path321" />
  <path
     d="m 352.24,171.65 c -0.09,0.13 -2.21,-1.43 -5,-3 l -5.19,-2.72 a 18.44,18.44 0 0 1 5.44,2.27 18.63,18.63 0 0 1 4.75,3.45 z"
     class="B"
     id="path322" />
  <path
     d="m 348.24,157.3 c 0,0 1.64,-7.16 10.44,-5.89 0,0 -3.68,6.59 -10.44,5.89 z"
     class="C"
     id="path323" />
  <path
     d="m 355.68,152.63 c 0.06,0.13 -1.69,1 -3.71,2.32 a 42.8,42.8 0 0 1 -3.66,2.41 12.1,12.1 0 0 1 3.37,-2.85 11.78,11.78 0 0 1 4,-1.88 z"
     class="B"
     id="path324" />
  <path
     d="m 341.8,145.24 c 0,0 9,-5.49 3.29,-16.92 0,0 -7.37,8.08 -3.29,16.92 z"
     class="C"
     id="path325" />
  <path
     d="m 344.79,133 a 20.73,20.73 0 0 1 -0.86,6.28 21.25,21.25 0 0 1 -2.25,5.93 c -0.14,-0.06 0.89,-2.7 1.74,-6.06 z"
     class="B"
     id="path326" />
  <path
     d="m 379.72,133.13 c 0,0 8.63,1 8.24,11.53 0.04,0 -8.27,-3.53 -8.24,-11.53 z"
     class="C"
     id="path327" />
  <path
     d="m 386.15,141.28 c -0.13,0.08 -1.37,-1.88 -3.16,-4.1 l -3.34,-4 a 21.64,21.64 0 0 1 6.5,8.07 z"
     class="B"
     id="path328" />
  <path
     d="m 373.75,120.54 c 0,0 -3.83,-9.54 7.25,-15.07 0,0 1.06,10.53 -7.25,15.07 z"
     class="C"
     id="path329" />
  <path
     d="m 378.56,109.26 c 0.13,0.08 -1.22,2.47 -2.51,5.59 l -2.18,5.72 a 19.82,19.82 0 0 1 1.7,-5.92 19.88,19.88 0 0 1 2.99,-5.39 z"
     class="B"
     id="path330" />
  <path
     d="m 379.92,119.59 c 0,0 0,-8.7 10.47,-9.57 0,-0.02 -2.51,8.64 -10.47,9.57 z"
     class="C"
     id="path331" />
  <path
     d="m 387.25,112.22 c 0.09,0.12 -1.71,1.59 -3.7,3.63 l -3.54,3.79 a 15.77,15.77 0 0 1 3.17,-4.15 15.6,15.6 0 0 1 4.07,-3.27 z"
     class="B"
     id="path332" />
  <path
     d="m 364.29,120.15 c 0,0 -7.33,-4.69 -2.38,-14 0,0.01 5.91,6.85 2.38,14 z"
     class="C"
     id="path333" />
  <path
     d="m 362.06,110 c 0.15,0 0.41,2.3 1.06,5.08 l 1.27,5 a 15.7,15.7 0 0 1 -1.78,-4.91 15.26,15.26 0 0 1 -0.55,-5.17 z"
     class="B"
     id="path334" />
  <path
     d="m 385.51,121 c 0,0 5.35,-6.87 14.15,-1.08 0,0 -7.31,5.25 -14.15,1.08 z"
     class="C"
     id="path335" />
  <path
     d="m 395.83,119.72 c 0,0.15 -2.33,0.19 -5.15,0.58 l -5.13,0.8 a 21.49,21.49 0 0 1 10.28,-1.38 z"
     class="B"
     id="path336" />
  <path
     d="m 369.65,128 c 0,0 6.22,-6.09 14.16,0.82 0,0.03 -7.94,4.26 -14.16,-0.82 z"
     class="C"
     id="path337" />
  <path
     d="m 380,128.14 c 0,0.15 -2.33,-0.12 -5.18,-0.11 l -5.19,0.1 a 15.83,15.83 0 0 1 5.19,-0.63 15.51,15.51 0 0 1 5.18,0.64 z"
     class="B"
     id="path338" />
  <path
     d="m 309.36,154.81 c 0,0 7.35,-5.63 14.86,2.69 0,0 -8.94,3.5 -14.86,-2.69 z"
     class="C"
     id="path339" />
  <path
     d="m 320.33,156.26 c 0,0.15 -2.45,-0.44 -5.46,-0.8 l -5.5,-0.53 a 16.73,16.73 0 0 1 5.56,0 17.1,17.1 0 0 1 5.4,1.33 z"
     class="B"
     id="path340" />
  <path
     d="m 299.44,138.81 c 0,0 -4.16,-7 -13,-2.65 -0.01,0 6.17,5.73 13,2.65 z"
     class="C"
     id="path341" />
  <path
     d="m 290,136.42 a 19.63,19.63 0 0 1 9.39,2.48 c -0.06,0.14 -2.09,-0.65 -4.67,-1.33 z"
     class="B"
     id="path342" />
  <path
     d="m 290.54,118.77 c 0,0 -4.62,-6.19 -12.53,-1.22 -0.01,0 6.39,4.79 12.53,1.22 z"
     class="C"
     id="path343" />
  <path
     d="m 281.41,117.44 a 12.68,12.68 0 0 1 4.64,0.12 13.32,13.32 0 0 1 4.46,1.29 c -0.05,0.15 -2,-0.39 -4.54,-0.77 z"
     class="B"
     id="path344" />
  <path
     d="m 257.11,146.66 c 0,0 5,-5.88 -1.58,-12.5 0,0 -3.27,7.3 1.58,12.5 z"
     class="C"
     id="path345" />
  <path
     d="m 256.39,137.46 a 12.83,12.83 0 0 1 0.9,4.55 13,13 0 0 1 -0.27,4.63 c -0.15,0 -0.07,-2.07 -0.25,-4.6 z"
     class="B"
     id="path346" />
  <path
     d="m 256.16,129.42 c 0,0 9,6.22 17.43,-4.07 0,0 -10.78,-3.55 -17.43,4.07 z"
     class="C"
     id="path347" />
  <path
     d="m 269.06,127 a 21.89,21.89 0 0 1 -6.32,1.84 22.29,22.29 0 0 1 -6.57,0.4 c 0,-0.15 2.93,-0.29 6.48,-0.91 z"
     class="B"
     id="path348" />
  <path
     d="m 240.82,106.86 c 0,0 -1.52,-10.86 11.45,-13.75 0,0 -1.67,11.23 -11.45,13.75 z"
     class="C"
     id="path349" />
  <path
     d="m 248.72,96.4 a 13.46,13.46 0 0 1 -1.35,1.73 l -3.26,4.15 -3,4.32 a 11.17,11.17 0 0 1 -1.26,1.8 7.75,7.75 0 0 1 0.94,-2 48.17,48.17 0 0 1 6.31,-8.53 7.45,7.45 0 0 1 1.62,-1.47 z"
     class="B"
     id="path350" />
  <path
     d="m 258.51,68.17 c 0,0 -3.38,-13.87 13,-19.3 0.02,0 -0.66,14.75 -13,19.3 z"
     class="C"
     id="path351" />
  <path
     d="M 267.37,53.59 A 14.72,14.72 0 0 1 266,55.68 l -3.26,5 -2.88,5.28 a 14.72,14.72 0 0 1 -1.17,2.21 10.22,10.22 0 0 1 0.84,-2.36 47.33,47.33 0 0 1 2.76,-5.4 46.77,46.77 0 0 1 3.42,-5 10.31,10.31 0 0 1 1.66,-1.82 z"
     class="B"
     id="path352" />
  <path
     d="m 259,118.39 c 0,0 -7.07,-3.15 -3.95,-12 0.01,0.01 6.1,5.21 3.95,12 z"
     class="C"
     id="path353" />
  <path
     d="m 255.7,109.76 c 0.15,0 0.69,2 1.63,4.31 l 1.75,4.27 a 13.19,13.19 0 0 1 -2.24,-4.08 12.71,12.71 0 0 1 -1.14,-4.5 z"
     class="B"
     id="path354" />
  <path
     d="m 237.08,92.18 c 0,0 1.52,-7.59 10.83,-6.48 0,0 -3.73,7.09 -10.83,6.48 z"
     class="C"
     id="path355" />
  <path
     d="m 244.78,87.06 a 8.59,8.59 0 0 1 -1.53,1 l -3.69,2.43 -3.62,2.55 a 8.24,8.24 0 0 1 -1.52,1 c -0.12,-0.12 2,-2.07 4.85,-4 2.85,-1.93 5.44,-3.13 5.51,-2.98 z"
     class="B"
     id="path356" />
  <path
     d="m 258.07,78.56 c 0,0 -8.07,-8.65 -19.29,0.24 0,0 10.53,6.2 19.29,-0.24 z"
     class="C"
     id="path357" />
  <path
     d="m 243.94,78.07 a 10,10 0 0 1 2.74,-0.31 61.55,61.55 0 0 1 6.65,0.17 l 6.6,0.78 a 12.59,12.59 0 0 1 2.69,0.61 16.94,16.94 0 0 1 -2.74,-0.25 l -6.59,-0.62 -6.6,-0.32 C 245,78.11 244,78.14 243.94,78.07 Z"
     class="B"
     id="path358" />
  <path
     d="m 254.76,59.83 c 0,0 -4.88,-6 1.89,-12.48 0,0 3.09,7.39 -1.89,12.48 z"
     class="C"
     id="path359" />
  <path
     d="m 255.71,50.63 c 0.15,0 -0.27,2.06 -0.5,4.59 l -0.36,4.6 a 13.17,13.17 0 0 1 -0.16,-4.65 12.91,12.91 0 0 1 1.02,-4.54 z"
     class="B"
     id="path360" />
  <path
     d="m 292.51,72 c 0,0 -2.94,-13 12.49,-17.8 0,0 -0.88,13.8 -12.49,17.8 z"
     class="C"
     id="path361" />
  <path
     d="m 301,58.55 a 13.69,13.69 0 0 1 -1.32,1.93 l -3.13,4.67 -2.78,4.89 a 11.48,11.48 0 0 1 -1.15,2 9.55,9.55 0 0 1 0.82,-2.2 43.63,43.63 0 0 1 2.67,-5 42.4,42.4 0 0 1 3.28,-4.62 8.62,8.62 0 0 1 1.61,-1.67 z"
     class="B"
     id="path362" />
  <path
     d="m 264.41,103.82 c 0,0 3.81,-14.33 -13.11,-20.32 0,0 0.39,15.33 13.11,20.32 z"
     class="C"
     id="path363" />
  <path
     d="m 255.52,88.49 a 14.59,14.59 0 0 1 2,2.53 c 1.16,1.63 2.65,4 4.16,6.62 a 77.09,77.09 0 0 1 3.54,7 14.65,14.65 0 0 1 1.12,3 29.77,29.77 0 0 1 -1.45,-2.89 l -3.66,-6.88 -4,-6.68 a 30.34,30.34 0 0 1 -1.71,-2.7 z"
     class="B"
     id="path364" />
  <path
     d="m 250.91,69.61 c 0,0 3.39,-14.44 -13.7,-19.93 0,0 0.85,15.32 13.7,19.93 z"
     class="C"
     id="path365" />
  <path
     d="m 241.58,54.54 a 11.38,11.38 0 0 1 1.75,1.94 49.46,49.46 0 0 1 3.59,5.16 50.93,50.93 0 0 1 2.92,5.58 11.23,11.23 0 0 1 0.9,2.45 16.27,16.27 0 0 1 -1.24,-2.29 l -3,-5.47 C 245.26,59.82 244,58 243,56.7 a 15.62,15.62 0 0 1 -1.42,-2.16 z"
     class="B"
     id="path366" />
  <path
     d="m 299.91,177.9 c 0,0 3.21,-7.48 12.55,-4.34 0,0 -5.37,6.49 -12.55,4.34 z"
     class="C"
     id="path367" />
  <path
     d="m 309,174.29 c 0,0.15 -2.06,0.74 -4.52,1.76 l -4.46,1.93 a 14.06,14.06 0 0 1 4.26,-2.41 13.89,13.89 0 0 1 4.72,-1.28 z"
     class="B"
     id="path368" />
  <path
     d="m 268.36,186.56 c 0,0 -3.36,-15.37 14.85,-20.91 0,0 -1.15,16.23 -14.85,20.91 z"
     class="C"
     id="path369" />
  <path
     d="m 278.5,170.74 a 17.8,17.8 0 0 1 -1.59,2.25 l -3.73,5.47 -3.3,5.75 a 19,19 0 0 1 -1.34,2.41 12,12 0 0 1 1,-2.58 52.85,52.85 0 0 1 7.07,-11.27 12.51,12.51 0 0 1 1.89,-2.03 z"
     class="B"
     id="path370" />
  <path
     d="m 260.41,154.63 c 0,0 -2.81,-12 11.36,-16.54 0,0 -0.7,12.71 -11.36,16.54 z"
     class="C"
     id="path371" />
  <path
     d="m 268.15,142.13 c 0.12,0.1 -1.93,2.67 -4,6.14 l -3.58,6.41 a 7.86,7.86 0 0 1 0.72,-2.05 41.54,41.54 0 0 1 2.41,-4.63 38.8,38.8 0 0 1 3,-4.28 8.28,8.28 0 0 1 1.45,-1.59 z"
     class="B"
     id="path372" />
  <path
     d="m 353.75,160.29 c 0,0 0.77,6.56 8.77,6.26 0,0 -2.69,-6.29 -8.77,-6.26 z"
     class="C"
     id="path373" />
  <path
     d="m 360,165.18 a 10,10 0 0 1 -3.41,-2.05 10.11,10.11 0 0 1 -2.73,-2.89 32.79,32.79 0 0 1 3.06,2.48 33,33 0 0 1 3.08,2.46 z"
     class="B"
     id="path374" />
  <path
     d="m 394.44,185.69 c 0,0 -3.86,-6.3 3.37,-11.56 0,0 1.98,7.38 -3.37,11.56 z"
     class="C"
     id="path375" />
  <path
     d="m 396.5,177.11 c 0.14,0.06 -0.5,1.92 -1,4.28 l -0.93,4.3 a 12,12 0 0 1 0.42,-4.42 12.16,12.16 0 0 1 1.51,-4.16 z"
     class="B"
     id="path376" />
  <path
     d="m 350.24,180.74 c 0,0 5.05,-6 12.72,-0.44 0.04,0 -6.74,4.44 -12.72,0.44 z"
     class="C"
     id="path377" />
  <path
     d="m 359.54,180 a 12.47,12.47 0 0 1 -2,0.2 l -4.67,0.51 -4.67,0.63 a 9.52,9.52 0 0 1 -1.94,0.22 c 0,-0.16 2.87,-0.92 6.54,-1.37 a 40.77,40.77 0 0 1 4.73,-0.36 5.59,5.59 0 0 1 2.01,0.17 z"
     class="B"
     id="path378" />
  <path
     d="m 322.92,196.53 c 0,0 0.89,-6.09 8.32,-5.6 0,0 -2.66,5.78 -8.32,5.6 z"
     class="C"
     id="path379" />
  <path
     d="m 328.81,192.14 a 12.35,12.35 0 0 1 -1.46,1.23 l -3.47,3 -4.95,4.24 a 29.49,29.49 0 0 1 4.6,-4.63 l 3.6,-2.9 a 4.77,4.77 0 0 1 1.68,-0.94 z"
     class="B"
     id="path380" />
  <path
     d="m 322,187.92 c 0,0 4,-2.77 1,-7.87 0,0 -3.15,3.95 -1,7.87 z"
     class="C"
     id="path381" />
  <path
     d="m 323,182.2 a 3.22,3.22 0 0 1 0,1.52 34.39,34.39 0 0 1 -0.78,3.58 19.77,19.77 0 0 1 -1.71,4.87 36.83,36.83 0 0 1 1.21,-5 l 0.92,-3.51 A 7.27,7.27 0 0 1 323,182.2 Z"
     class="B"
     id="path382" />
  <path
     d="m 270.31,90.38 c 0,0 -1.35,-6 5.76,-8.22 0,0 -0.41,6.35 -5.76,8.22 z"
     class="C"
     id="path383" />
  <path
     d="m 274.24,84.16 a 14.92,14.92 0 0 1 -0.93,1.67 l -2.17,4 a 61.69,61.69 0 0 1 -3.14,5.77 30.42,30.42 0 0 1 2.64,-6 l 2.32,-4 a 4.77,4.77 0 0 1 1.28,-1.44 z"
     class="B"
     id="path384" />
  <path
     d="m 277.34,145 c 0,0 -1.41,-6 5.68,-8.26 -0.02,0.04 -0.35,6.39 -5.68,8.26 z"
     class="C"
     id="path385" />
  <path
     d="m 281.2,138.8 a 14.09,14.09 0 0 1 -0.9,1.67 l -2.13,4.07 -3.05,5.75 a 30.34,30.34 0 0 1 2.58,-6 l 2.28,-4 c 0.65,-1 1.17,-1.54 1.22,-1.49 z"
     class="B"
     id="path386" />
  <path
     d="m 317.38,118 c 0,0 5.87,-1.84 8.67,5.06 0,-0.06 -6.37,0.08 -8.67,-5.06 z"
     class="C"
     id="path387" />
  <path
     d="m 323.9,121.36 a 12.78,12.78 0 0 1 -1.74,-0.78 l -4.21,-1.83 a 62.77,62.77 0 0 1 -6,-2.61 30.11,30.11 0 0 1 6.17,2.14 l 4.18,2 a 4.94,4.94 0 0 1 1.6,1.08 z"
     class="B"
     id="path388" />
  <path
     d="m 356.63,190.55 c 0,0 7.09,-8.56 18.1,-0.83 0,0 -9.54,6.42 -18.1,0.83 z"
     class="C"
     id="path389" />
  <path
     d="m 369.85,189.31 c 0,0.16 -3,0.09 -6.61,0.47 l -6.57,0.9 a 6.44,6.44 0 0 1 1.86,-0.62 36.65,36.65 0 0 1 4.65,-0.8 37.36,37.36 0 0 1 4.72,-0.17 6.56,6.56 0 0 1 1.95,0.22 z"
     class="B"
     id="path390" />
  <path
     d="m 346.75,200.55 c 0,0 -7.31,2.74 -4.7,11.82 0,0 6.45,-4.85 4.7,-11.82 z"
     class="C"
     id="path391" />
  <path
     d="m 342.9,209 a 12.87,12.87 0 0 1 1.42,-4.47 13.43,13.43 0 0 1 2.5,-4 c 0.13,0.09 -0.95,1.87 -2,4.19 z"
     class="B"
     id="path392" />
  <path
     d="m 281.93,211.24 c 0,0 4.95,-7.61 14.61,-2.38 0,0 -7.13,6.14 -14.61,2.38 z"
     class="C"
     id="path393" />
  <path
     d="m 292.54,209 c 0,0.16 -2.4,0.4 -5.31,1 l -5.25,1.3 a 22.82,22.82 0 0 1 10.56,-2.3 z"
     class="B"
     id="path394" />
  <path
     d="m 325.4,177.84 c 0,0 11.62,-4 17.56,9.65 0.04,0 -12.7,0.57 -17.56,-9.65 z"
     class="C"
     id="path395" />
  <path
     d="m 338.58,184.29 c -0.08,0.14 -2.84,-1.65 -6.49,-3.38 l -6.73,-2.92 a 8.23,8.23 0 0 1 2.11,0.51 40.77,40.77 0 0 1 9.39,4.48 8,8 0 0 1 1.72,1.31 z"
     class="B"
     id="path396" />
  <path
     d="m 309.7,183.28 c 0,0 2,-7.73 11.55,-6.05 0,0 -4.25,7.09 -11.55,6.05 z"
     class="C"
     id="path397" />
  <path
     d="m 317.94,178.45 c 0.06,0.14 -1.88,1 -4.12,2.38 l -4.05,2.52 a 19.39,19.39 0 0 1 8.17,-4.9 z"
     class="B"
     id="path398" />
  <path
     d="m 307.4,151.21 c 0,0 3.48,-9.84 15.69,-6.6 0,0 -6.33,8.75 -15.69,6.6 z"
     class="C"
     id="path399" />
  <path
     d="m 318.65,145.83 a 22.08,22.08 0 0 1 -2.4,1.15 l -5.71,2.93 -5.62,3.12 a 17.8,17.8 0 0 1 -2.34,1.28 10.76,10.76 0 0 1 2.15,-1.59 c 1.38,-0.91 3.34,-2.07 5.56,-3.27 a 63.37,63.37 0 0 1 5.81,-2.81 9.42,9.42 0 0 1 2.55,-0.81 z"
     class="B"
     id="path400" />
  <path
     d="m 255.92,163.43 c 0,0 5.51,-11.3 -7.59,-19.05 0,0 -2.18,12.83 7.59,19.05 z"
     class="C"
     id="path401" />
  <path
     d="m 251,149.23 a 12.48,12.48 0 0 1 1.42,2.89 c 0.76,1.84 1.63,4.45 2.49,7.36 l 1.9,7.53 a 15.5,15.5 0 0 1 0.48,3.18 29.26,29.26 0 0 1 -0.84,-3.1 l -2,-7.46 -2.33,-7.38 z"
     class="B"
     id="path402" />
  <path
     d="m 298,131.23 c 0,0 -4.16,-11.86 -18.88,-8 -0.05,0.01 7.55,10.57 18.88,8 z"
     class="C"
     id="path403" />
  <path
     d="m 284.41,124.73 a 12,12 0 0 1 3.06,1 c 1.84,0.76 4.31,2 7,3.41 l 6.7,3.93 a 15.65,15.65 0 0 1 2.61,1.9 27.64,27.64 0 0 1 -2.8,-1.58 l -6.75,-3.79 -6.89,-3.53 z"
     class="B"
     id="path404" />
  <path
     d="m 347.77,99.71 c 0,0 -1.66,-11.93 12.57,-15.1 0,0 -1.83,12.33 -12.57,15.1 z"
     class="C"
     id="path405" />
  <path
     d="m 356.45,88.23 c 0.11,0.11 -2.13,2.43 -4.48,5.62 l -4.06,5.92 a 7.28,7.28 0 0 1 0.88,-1.93 38.7,38.7 0 0 1 2.76,-4.3 38.22,38.22 0 0 1 3.31,-3.91 7.39,7.39 0 0 1 1.59,-1.4 z"
     class="B"
     id="path406" />
  <path
     d="m 321.75,92.66 c 0,0 -3,-12.27 11.6,-17 0,-0.04 -0.66,13.01 -11.6,17 z"
     class="C"
     id="path407" />
  <path
     d="m 329.64,79.79 c 0.12,0.1 -2,2.75 -4.11,6.32 l -3.63,6.6 a 7.71,7.71 0 0 1 0.73,-2.1 40.93,40.93 0 0 1 2.46,-4.77 39.16,39.16 0 0 1 3.05,-4.41 7.86,7.86 0 0 1 1.5,-1.64 z"
     class="B"
     id="path408" />
  <path
     d="m 289.21,196.2 c 0,0 9.79,-8.28 20.79,2.8 0,0 -12.19,5.32 -20.79,-2.8 z"
     class="C"
     id="path409" />
  <path
     d="m 304.5,197.5 c 0,0.16 -3.4,-0.55 -7.61,-0.86 l -7.65,-0.29 a 8.63,8.63 0 0 1 2.24,-0.28 42.35,42.35 0 0 1 10.85,0.82 9,9 0 0 1 2.17,0.61 z"
     class="B"
     id="path410" />
  <path
     d="m 374.56,213.78 c 0,0 6,5.82 -0.44,13.62 0,0 -4.25,-7.52 0.44,-13.62 z"
     class="C"
     id="path411" />
  <path
     d="m 374.72,223.77 c -0.16,0 0,-2.25 0,-5 l -0.22,-5 a 20.52,20.52 0 0 1 0.25,10 z"
     class="B"
     id="path412" />
  <path
     d="m 350.55,208.5 c 0,0 5.79,6 -0.93,13.6 0,0 -3.98,-7.68 0.93,-13.6 z"
     class="C"
     id="path413" />
  <path
     d="m 350.34,218.49 c -0.15,0 0.13,-2.25 0.15,-5 v -5 a 14.56,14.56 0 0 1 0.56,5 14.27,14.27 0 0 1 -0.71,5 z"
     class="B"
     id="path414" />
  <path
     d="m 356.7,213.27 c 0,0 13.21,1.56 12.61,17.66 0,0 -12.66,-5.41 -12.61,-17.66 z"
     class="C"
     id="path415" />
  <path
     d="m 366.54,225.76 a 13.89,13.89 0 0 1 -1.38,-1.88 l -3.35,-4.49 -3.67,-4.24 a 11.89,11.89 0 0 1 -1.54,-1.75 9,9 0 0 1 1.8,1.5 42.09,42.09 0 0 1 3.81,4.16 42.9,42.9 0 0 1 3.26,4.62 8.69,8.69 0 0 1 1.07,2.08 z"
     class="B"
     id="path416" />
  <path
     d="m 401.89,193.17 c 0,0 6.25,-5.55 13.55,1.46 0,0 -7.82,3.68 -13.55,-1.46 z"
     class="C"
     id="path417" />
  <path
     d="m 411.86,193.77 c 0,0.15 -2.23,-0.22 -5,-0.35 -2.77,-0.13 -5,0 -5,-0.15 a 14.41,14.41 0 0 1 5,-0.37 14.7,14.7 0 0 1 5,0.87 z"
     class="B"
     id="path418" />
  <path
     d="m 383.86,223.87 c 0,0 9.89,-2.28 14,10.31 0.03,0 -10.55,-0.84 -14,-10.31 z"
     class="C"
     id="path419" />
  <path
     d="m 394.45,230.92 c -0.11,0.11 -2.29,-1.72 -5.22,-3.62 l -5.41,-3.31 a 28.76,28.76 0 0 1 10.63,6.93 z"
     class="B"
     id="path420" />
  <path
     d="m 393.15,203.18 c 0,0 3.75,-8.71 12.57,-4.49 a 11.67,11.67 0 0 1 -12.57,4.49 z"
     class="C"
     id="path421" />
  <path
     d="m 403.18,199 c 0,0.15 -2.28,0.84 -5,2 l -4.93,2.23 a 16.6,16.6 0 0 1 4.72,-2.71 16.77,16.77 0 0 1 5.21,-1.52 z"
     class="B"
     id="path422" />
  <path
     d="m 399.09,153.45 c 0,0 9.32,-11.3 20.58,-1.23 a 18,18 0 0 1 -20.58,1.23 z"
     class="C"
     id="path423" />
  <path
     d="m 415.76,151.62 a 13.83,13.83 0 0 1 -2.46,0.19 l -5.88,0.48 -5.83,0.91 a 12.65,12.65 0 0 1 -2.43,0.4 10.21,10.21 0 0 1 2.35,-0.76 48.72,48.72 0 0 1 5.85,-1.07 47.47,47.47 0 0 1 5.94,-0.33 10.64,10.64 0 0 1 2.46,0.18 z"
     class="B"
     id="path424" />
  <path
     d="m 403.16,179.67 c 0,0 -3.67,-8.88 5.64,-12.3 a 11.83,11.83 0 0 1 -5.64,12.3 z"
     class="C"
     id="path425" />
  <path
     d="m 407.25,169.46 c 0.13,0.07 -1,2.25 -2.11,5.06 l -1.87,5.16 a 16.8,16.8 0 0 1 1.39,-5.35 17,17 0 0 1 2.59,-4.87 z"
     class="B"
     id="path426" />
  <path
     d="m 409.58,218.7 c 0,0 15.79,2.68 12.38,18.85 A 19.73,19.73 0 0 1 409.58,218.7 Z"
     class="C"
     id="path427" />
  <path
     d="m 420.39,233.51 a 17.37,17.37 0 0 1 -1.5,-2.23 l -3.66,-5.33 -4.05,-5 a 16.54,16.54 0 0 1 -1.71,-2.07 10.84,10.84 0 0 1 2,1.82 52.33,52.33 0 0 1 4.2,5 53.13,53.13 0 0 1 3.56,5.45 11.31,11.31 0 0 1 1.16,2.36 z"
     class="B"
     id="path428" />
  <path
     d="m 420.32,219.07 c 0,0 12.5,-3.28 15.37,9.73 a 15.91,15.91 0 0 1 -15.37,-9.73 z"
     class="C"
     id="path429" />
  <path
     d="m 433.19,226.36 c -0.09,0.13 -2.76,-1.83 -6.32,-3.79 l -6.58,-3.35 a 7.82,7.82 0 0 1 2.08,0.65 39.45,39.45 0 0 1 4.75,2.24 42.43,42.43 0 0 1 4.42,2.83 7.73,7.73 0 0 1 1.65,1.42 z"
     class="B"
     id="path430" />
  <path
     d="m 410.87,175.1 c 0,0 9.24,-8.94 18.08,1 a 15.83,15.83 0 0 1 -18.08,-1 z"
     class="C"
     id="path431" />
  <path
     d="m 425.59,175.15 c 0,0.15 -3.29,-0.24 -7.34,-0.21 l -7.33,0.31 a 7.45,7.45 0 0 1 2.12,-0.46 40.85,40.85 0 0 1 5.21,-0.37 39,39 0 0 1 5.22,0.31 7.7,7.7 0 0 1 2.12,0.42 z"
     class="B"
     id="path432" />
  <path
     d="m 414,214.49 c 0,0 4.4,-14.08 18.74,-9 a 18.18,18.18 0 0 1 -18.74,9 z"
     class="C"
     id="path433" />
  <path
     d="m 428.9,206.46 a 14,14 0 0 1 -2.22,1.1 l -5.31,2.69 -5.09,3.07 a 14.29,14.29 0 0 1 -2.11,1.29 9.56,9.56 0 0 1 1.9,-1.59 46.27,46.27 0 0 1 5.05,-3.23 47.35,47.35 0 0 1 5.42,-2.56 9.87,9.87 0 0 1 2.36,-0.77 z"
     class="B"
     id="path434" />
  <path
     d="m 401,217.85 c 0,0 7.29,2.87 4,10.27 a 9.64,9.64 0 0 1 -4,-10.27 z"
     class="C"
     id="path435" />
  <path
     d="m 404.65,226 a 44.11,44.11 0 0 1 -1.83,-4.08 l -1.93,-4 a 12.36,12.36 0 0 1 2.4,3.81 12.61,12.61 0 0 1 1.36,4.27 z"
     class="B"
     id="path436" />
  <path
     d="m 384.06,191.24 c 0,0 7.45,-2.42 9.65,5.35 a 9.65,9.65 0 0 1 -9.65,-5.35 z"
     class="C"
     id="path437" />
  <path
     d="m 392.11,195.2 c -0.08,0.13 -1.79,-0.92 -4,-2 l -4.05,-1.88 a 12,12 0 0 1 4.28,1.41 12.33,12.33 0 0 1 3.77,2.47 z"
     class="B"
     id="path438" />
  <path
     d="m 336.5,147.06 c 0,0 4,-5.26 -1.55,-9.2 a 8.15,8.15 0 0 0 1.55,9.2 z"
     class="C"
     id="path439" />
  <path
     d="m 335.61,139.52 a 9.59,9.59 0 0 1 0.93,3.7 9.36,9.36 0 0 1 -0.12,3.82 29,29 0 0 1 -0.4,-3.76 26.79,26.79 0 0 1 -0.41,-3.76 z"
     class="B"
     id="path440" />
  <path
     d="m 329.08,153.52 c 0,0 7.19,-6.27 0.44,-13.43 a 11.76,11.76 0 0 0 -0.44,13.43 z"
     class="C"
     id="path441" />
  <path
     d="m 330,142.63 a 17.15,17.15 0 0 1 0.14,5.48 16.65,16.65 0 0 1 -1.14,5.36 c -0.15,0 0.36,-2.42 0.62,-5.41 z"
     class="B"
     id="path442" />
  <path
     d="m 362.24,171 c 0,0 10.28,1.37 8.46,11.92 A 12.8,12.8 0 0 1 362.24,171 Z"
     class="C"
     id="path443" />
  <path
     d="m 369.59,180.29 c -0.14,0.08 -1.55,-2.17 -3.59,-4.72 l -3.83,-4.52 a 19.13,19.13 0 0 1 4.24,4.2 19.78,19.78 0 0 1 3.18,5.04 z"
     class="B"
     id="path444" />
  <path
     d="m 383.78,209.74 c 0,0 5.6,5.48 -0.27,11 a 9.65,9.65 0 0 1 0.27,-11 z"
     class="C"
     id="path445" />
  <path
     d="m 384,218.71 c -0.15,0 0,-2 -0.1,-4.48 l -0.2,-4.46 a 17.82,17.82 0 0 1 0.3,8.94 z"
     class="B"
     id="path446" />
  <path
     d="m 413.27,185.66 c 0,0 9.6,-7 16.47,3.15 a 14.68,14.68 0 0 1 -16.47,-3.15 z"
     class="C"
     id="path447" />
  <path
     d="m 426.77,187.55 c 0,0.15 -3,-0.61 -6.71,-1.09 l -6.76,-0.66 a 6.41,6.41 0 0 1 2,-0.17 37.49,37.49 0 0 1 9.58,1.26 6.91,6.91 0 0 1 1.89,0.66 z"
     class="B"
     id="path448" />
  <path
     d="m 401.53,146.84 c 0,0 10.41,-2.65 7.26,-13.27 a 13.24,13.24 0 0 0 -7.26,13.27 z"
     class="C"
     id="path449" />
  <path
     d="m 408,136.36 a 20.55,20.55 0 0 1 -2.67,5.55 20,20 0 0 1 -3.84,4.83 c -0.12,-0.1 1.61,-2.23 3.4,-5.1 z"
     class="B"
     id="path450" />
  <path
     d="m 388,133.79 c 0,0 6.53,-4.33 10.74,2.57 A 9.67,9.67 0 0 1 388,133.79 Z"
     class="C"
     id="path451" />
  <path
     d="m 396.86,135.45 c -0.05,0.14 -2,-0.41 -4.39,-0.83 l -4.42,-0.73 a 12.24,12.24 0 0 1 4.51,0.21 12.42,12.42 0 0 1 4.3,1.35 z"
     class="B"
     id="path452" />
  <path
     d="m 388,126.49 c 0,0 6.53,-4.34 10.74,2.57 A 9.67,9.67 0 0 1 388,126.49 Z"
     class="C"
     id="path453" />
  <path
     d="m 396.86,128.14 a 42.78,42.78 0 0 1 -4.39,-0.83 l -4.42,-0.73 a 12.13,12.13 0 0 1 4.51,0.22 12.54,12.54 0 0 1 4.3,1.34 z"
     class="B"
     id="path454" />
  <path
     d="m 372.11,107.49 c 0,0 0.54,-7.82 8.58,-6.95 a 9.65,9.65 0 0 1 -8.58,6.95 z"
     class="C"
     id="path455" />
  <path
     d="m 378.8,101.5 c 0.08,0.13 -1.53,1.32 -3.34,3 l -3.27,3.06 a 12.23,12.23 0 0 1 2.92,-3.44 12.73,12.73 0 0 1 3.69,-2.62 z"
     class="B"
     id="path456" />
  <path
     d="m 317,136.59 c 0,0 5.65,-12.28 18.08,-6 a 16.67,16.67 0 0 1 -18.08,6 z"
     class="C"
     id="path457" />
  <path
     d="m 331.45,131 c 0,0.15 -3.32,1 -7.27,2.58 l -7.07,3.1 a 8.42,8.42 0 0 1 1.9,-1.24 43.13,43.13 0 0 1 10.2,-4 9,9 0 0 1 2.24,-0.44 z"
     class="B"
     id="path458" />
  <path
     d="m 277.59,65 c 0,0 8.76,-5.22 3,-14.05 a 12.56,12.56 0 0 0 -3,14.05 z"
     class="C"
     id="path459" />
  <path
     d="m 280.61,53.75 a 19.19,19.19 0 0 1 -0.92,5.79 18.49,18.49 0 0 1 -2.21,5.46 c -0.14,-0.07 0.86,-2.48 1.71,-5.58 z"
     class="B"
     id="path460" />
  <path
     d="m 419.74,203.29 c 0,0 6.26,-4.71 1.15,-11 a 9.64,9.64 0 0 0 -1.15,11 z"
     class="C"
     id="path461" />
  <path
     d="m 421.12,194.43 a 12.65,12.65 0 0 1 -0.17,4.5 12.41,12.41 0 0 1 -1.29,4.32 43.43,43.43 0 0 1 0.78,-4.4 41.46,41.46 0 0 1 0.68,-4.42 z"
     class="B"
     id="path462" />
  <path
     d="m 427.13,203.1 c 0,0 -2.13,-7.25 5.47,-9.1 a 9.3,9.3 0 0 1 -5.47,9.1 z"
     class="C"
     id="path463" />
  <path
     d="m 431.2,195.49 a 37.93,37.93 0 0 1 -2,3.79 l -1.95,3.84 a 11.6,11.6 0 0 1 1.49,-4.08 11.74,11.74 0 0 1 2.46,-3.55 z"
     class="B"
     id="path464" />
  <path
     d="m 404.82,162.36 c 0,0 8.24,-7.34 15.47,1.46 a 13.59,13.59 0 0 1 -15.47,-1.46 z"
     class="C"
     id="path465" />
  <path
     d="m 417.44,162.92 c 0,0.16 -2.82,-0.28 -6.29,-0.4 -3.47,-0.12 -6.28,0.12 -6.3,0 a 28.67,28.67 0 0 1 12.59,0.44 z"
     class="B"
     id="path466" />
  <path
     d="m 362.23,205.79 c 0,0 7.66,1.66 5.63,9.49 a 9.65,9.65 0 0 1 -5.63,-9.49 z"
     class="C"
     id="path467" />
  <path
     d="m 367.19,213.27 a 44.3,44.3 0 0 1 -2.47,-3.73 l -2.55,-3.68 a 12.27,12.27 0 0 1 3,3.39 12.57,12.57 0 0 1 2.02,4.02 z"
     class="B"
     id="path468" />
  <path
     d="m 353.82,194.72 c 0,0 5.37,3.78 1.26,9.17 a 8.09,8.09 0 0 1 -1.26,-9.17 z"
     class="C"
     id="path469" />
  <path
     d="m 355.21,202.11 a 26.16,26.16 0 0 1 -0.73,-3.68 28.75,28.75 0 0 1 -0.73,-3.67 9.14,9.14 0 0 1 1.24,3.57 9.55,9.55 0 0 1 0.22,3.78 z"
     class="B"
     id="path470" />
  <path
     d="m 367.12,200.91 c 0,0 5.52,-11.28 16.93,-5.13 a 15.48,15.48 0 0 1 -16.93,5.13 z"
     class="C"
     id="path471" />
  <path
     d="m 380.66,196.06 c 0,0.16 -3.1,0.89 -6.81,2.26 l -6.64,2.71 a 7.31,7.31 0 0 1 1.79,-1.13 39.61,39.61 0 0 1 9.56,-3.52 8.17,8.17 0 0 1 2.1,-0.32 z"
     class="B"
     id="path472" />
  <path
     d="m 405.42,210.73 c 0,0 -1.43,-9.65 10.95,-12.68 0,0 -1.61,10.08 -10.95,12.68 z"
     class="C"
     id="path473" />
  <path
     d="m 413,201.11 c 0.11,0.11 -1.81,2.06 -3.85,4.73 l -3.59,4.93 a 20,20 0 0 1 3.17,-5.25 20.21,20.21 0 0 1 4.27,-4.41 z"
     class="B"
     id="path474" />
  <path
     d="m 330.8,213.06 c 0,0 9,-3 13.47,7.58 0,0 -9.8,0.36 -13.47,-7.58 z"
     class="C"
     id="path475" />
  <path
     d="m 340.92,218.14 c -0.09,0.12 -2.22,-1.25 -5,-2.61 l -5.14,-2.35 a 24.19,24.19 0 0 1 10.15,5 z"
     class="B"
     id="path476" />
  <path
     d="m 327.94,202.18 c 0,0 4,-8.59 14.75,-4.58 0,0 -6.48,7.4 -14.75,4.58 z"
     class="C"
     id="path477" />
  <path
     d="m 338.58,198.31 c 0,0.15 -2.43,0.75 -5.34,1.85 l -5.24,2.11 a 24.45,24.45 0 0 1 10.58,-4 z"
     class="B"
     id="path478" />
  <path
     d="m 388.86,209.13 c 0,0 -3.48,11.05 9.52,16.32 0,0 0.23,-11.98 -9.52,-16.32 z"
     class="C"
     id="path479" />
  <path
     d="m 395.26,221.41 a 6.91,6.91 0 0 1 -1.29,-1.59 35.81,35.81 0 0 1 -2.51,-4.23 36.73,36.73 0 0 1 -1.94,-4.52 6.63,6.63 0 0 1 -0.52,-2 c 0.14,0 1.19,2.87 2.92,6.26 z"
     class="B"
     id="path480" />
  <path
     d="m 397.17,190.94 c 0,0 1.29,-11.57 15.39,-11.14 0,0 -4.66,11.12 -15.39,11.14 z"
     class="C"
     id="path481" />
  <path
     d="m 408,182.25 c 0.08,0.14 -2.56,1.78 -5.52,4.21 l -5.24,4.57 a 7.17,7.17 0 0 1 1.29,-1.6 36.1,36.1 0 0 1 3.62,-3.37 35.71,35.71 0 0 1 4,-2.87 7.44,7.44 0 0 1 1.85,-0.94 z"
     class="B"
     id="path482" />
  <path
     d="m 381.59,157.3 c 0,0 1.5,-12.88 17.18,-12.31 0,0.01 -5.25,12.34 -17.18,12.31 z"
     class="C"
     id="path483" />
  <path
     d="m 393.74,147.69 c 0.08,0.14 -2.89,1.94 -6.2,4.63 l -5.83,5.08 a 8.78,8.78 0 0 1 1.45,-1.76 44.67,44.67 0 0 1 4,-3.73 42.37,42.37 0 0 1 4.5,-3.17 8.21,8.21 0 0 1 2.08,-1.05 z"
     class="B"
     id="path484" />
  <path
     d="m 339.84,227.71 c 0,0 11.59,2.42 9.8,16.64 0,0 -10.8,-5.78 -9.8,-16.64 z"
     class="C"
     id="path485" />
  <path
     d="m 347.59,239.55 c -0.14,0.07 -1.55,-2.77 -3.72,-6 l -4.13,-5.73 a 6.89,6.89 0 0 1 1.49,1.45 38.34,38.34 0 0 1 3.07,4 37.17,37.17 0 0 1 2.51,4.35 7.53,7.53 0 0 1 0.78,1.93 z"
     class="B"
     id="path486" />
  <path
     d="m 214.44,238.21 c 0,0 3.2,7.72 -5.81,12.33 0,0 -0.92,-8.6 5.81,-12.33 z"
     class="C"
     id="path487" />
  <path
     d="m 210.62,247.44 c -0.14,-0.08 0.93,-2.05 1.94,-4.59 l 1.78,-4.66 a 20.58,20.58 0 0 1 -3.72,9.25 z"
     class="B"
     id="path488" />
  <path
     d="m 225.53,209.78 c 0,0 -8.08,2.13 -11.44,-7.41 0,0 8.64,0.24 11.44,7.41 z"
     class="C"
     id="path489" />
  <path
     d="m 216.9,204.75 c 0.09,-0.12 1.89,1.2 4.28,2.55 l 4.38,2.38 c -1.6469,-0.36934 -3.21698,-1.02241 -4.64,-1.93 -1.50618,-0.75552 -2.86708,-1.77112 -4.02,-3 z m 77.37,129.54 C 0,0 0,0 294.27,334.29 Z"
     class="B"
     id="path490"
     sodipodi:nodetypes="ccccccccc" />
  <path
     d="m 256.52,364 c -5.66,-3.44 -10.14,2.44 -11,3.72 -0.89,-1.28 -5.37,-7.16 -11,-3.72 -6.33,3.85 -1.78,13.22 -0.08,15.12 2,2.27 6.34,6.38 11,7.7 a 25.28,25.28 0 0 0 11.24,-7.7 c 1.48,-2 6.16,-11.25 -0.16,-15.12 z"
     class="C"
     id="path491" />
</svg>
