<svg xmlns="http://www.w3.org/2000/svg" viewBox="0 0 500 500" xmlns:v="https://vecta.io/nano"><style><![CDATA[.B{fill:#263238}.C{fill:#b7e0a3}]]></style><g class="B"><path d="M326.17 187.76l-5.7 2.94c-1.28.55-11.23-2.94-11.23-2.94v3l10.67 2.31c1.28.39 7.55-4 7.55-4zM173.36 140l-.39-4.5-2.29-5.43 1.79-.87 4.07 5.8c0 .25 2 4.55 2 4.55zm103.36 67.82l7.57 42.72-21.76 49.51 6.89 22.54-44.64 9.32s2.56-26.93 4.81-35.24 10.85-22.95 10.85-22.95L253 246.57l-10.51-10.1 3.14-26.59 24.28-9.88"/><path d="M259.52 216.4s-13.06-20.72-16.18-24.4-6-6.52-6-6.52-2.27-7.38-6.24-11.92-20.43-6-23.27-9.93-1.42-5.11-4.25-10.79-4.54-6.24-2.27-9.36 7.37-4.54 7.94-11.07l.85-9.64s.29-9.08-.56-12.49-4.54-5.68-4.54-5.68l-4.72 2.77s2.6.1 3 6.09a34.94 34.94 0 0 1-1.39 12.13 15.5 15.5 0 0 0-8.79-5.1c-5.39-.85-19.58-1.14-24.12-2.56s-10.22-11.35-10.22-11.35l-1.13 2.56s4.54 9.08 9.36 11.35 17.88-.29 25 3.4 8.23 3.12 6.53 8.23c0 0-1.7 3.69-3.41 4.82s-2.27 6.53-2.27 6.53l.57 4.82s-5.39-5.67-10.21-7.94a54.39 54.39 0 0 0-6.81-2.84s-6.81 4.26-11.64 4.83-15-.29-15-.29l-1.42 4 6.81 1.71s13.34-1.42 17.6-.85 13.26 7.34 13.26 7.34l3.41 8.52s1.13 6.24 4.82 8.79 16.74 4.26 19.87 7.38 9.08 13.05 9.36 13.9.85 9.94 3.12 12.49 17 24.49 17 24.49z"/><path d="M346.35 185.18s-6.81-12.48-16.46-13.33-17.31-2.56-23.27-6-15.32-8.8-19.29-9.65-8.52-1.42-11.07 1.7-3.12 8.7-7.38 12.44-6.24 7.43-6.53 11.4 2 17.85 2 17.85L253 217.81l-10.5-14.18s4-25.26 9.65-33.49 24.12-31.21 38.59-25.53l6 2.27s8.57 0 5.7-6.81-3.15-13.06-8-18.16-10.5-10.22-10.78-14.76a15.27 15.27 0 0 1 1.7-8h4.82a5.9 5.9 0 0 0-.85 8.23c3.41 4.83 11.35 13.62 15 18.73s4.54 15 2.84 19.58a11.54 11.54 0 0 1-6 6.24s7.09 10.79 24.4 8c0 0 7.95-8.23 12.49-9.93s19-6 20.43-9.65-.57-6.53 1.7-8.8 6.24-3.4 6.81-7.37l1.7-11.07 2.56 2.27s.28 8.51-2.56 11.92-7.37 3.4-7.37 10.21 1.41 8.8-4.26 11.64-15.61 4-18.73 7.09a17.38 17.38 0 0 0-4 5.39l-2.84 5.58s10.22 4.35 15 11.45 12.77 16.45 17.31 20.43 14.19 5.39 14.19 5.39v2.84s-7.38 1.7-13.34-2.84-15.76-17.88-15.76-17.88v10.74l7.09 13.1-2 .56-8.23-15.6zm-79.11 132.98S274.73 337 290.69 341s38.77-4.85 42.76-3.14S354 348.72 354 348.72l31.07-8.84c1.71 0 31.07 10.55 31.07 10.55l-1.42 1.71-28.79-8.27-24.52 10c-.86.31 5.7 5.7 6.56 5.7s18 3.42 18.81 3.42 8.55 6.56 8.55 6.56l-8.83-3.14-20.24-2.57-13.68-9.4s-11.69-6.56-19.67-7.41-7.13 1.71-7.13 1.71L348 369.53h15.67l28.79 4.56-.57 1.42-27.65-3.42-14 1.71 6.84 8.84 10.26 3.42 13.68 14-3.13 1.71-13.4-11.41-12-3.42-2.28 17.68-2-1.14.86-18-2-8-7.7-8.56s-12.25-12.54-19.09-13.68-17.11.29-17.11.29l7.7 10.54 19.67 3.71-.57 2-16.25-2.28 12.54 21.94 18 17.11h-2.85l-19.38-15.11-5.42-10-14-16.53-30.21-11.69s2.28 12.26 13.68 16.82a86.49 86.49 0 0 1 19.1 10.55l8.83 18L329 413.71l2 2.29-20.09-11.37 2.28 9.69 5.7 8.83v11.65l-2.85-11.11-7.7-9.7-2.56-14.82s-2.28-8.84-4.56-11.69-13.12-5.41-13.12-5.41l2 16.82s8.27 8.55 9.12 13.68a63.89 63.89 0 0 1 .57 11.4h-1.42l-1.71-11.69L285.84 400 281 381.21l-8.55-8.21s-3.14 18.52-1.71 23.37S281 424 281 424l-1.43 1.43S267 407.72 266.46 396c-.37-7.54-.26-14-.14-17.66.07-2-1.28 1.13-1.28 1.13s-6.56 8.57-16 11.13c0 0 11.69-7.42 14.25-16.83s-1-15.68-7.49-16.53-11.07 5.49-11.07 5.49h-.16l.93-42z"/><path d="M229.06 315s-3.32 20.66-29.74 26c-16.13 3.27-38.77-4.85-42.76-3.14S136 348.72 136 348.72l-31.07-8.84c-1.71 0-31.08 10.55-31.08 10.55l1.43 1.71 28.79-8.27 24.51 10c.85.31-5.7 5.7-6.55 5.7s-18 3.42-18.81 3.42-8.56 6.56-8.56 6.56l8.84-3.14 20.24-2.57 13.68-9.4s11.69-6.56 19.67-7.41 7.13 1.71 7.13 1.71L142 369.53h-15.66l-28.79 4.56.57 1.42 27.65-3.42 14 1.71-6.84 8.84-10.26 3.42L109 400l3.13 1.71 13.4-11.41 12-3.42 2.28 17.68 2-1.14-.86-18 2-8 7.69-8.56s12.26-12.54 19.1-13.68 17.11.29 17.11.29l-7.7 10.54-19.67 3.71.57 2 16.25-2.28-12.54 21.94-18 17.11h2.85L168 393.47l5.42-10 14-16.53 30.21-11.69s-2.28 12.26-13.68 16.82a86.49 86.49 0 0 0-19.1 10.55l-8.84 18-14.89 13.11L159 416l20.1-11.37-2.28 9.69-5.7 8.83v11.65l2.88-11.11 7.69-9.7 2.57-14.82s2.28-8.84 4.56-11.69 13.11-5.41 13.11-5.41l-2 16.82s-8.27 8.55-9.12 13.68a63.89 63.89 0 0 0-.57 11.4h1.42l1.71-11.69L204.16 400l4.84-18.79 8.55-8.26s3.14 18.52 1.71 23.37S209 424 209 424l1.42 1.43S223 407.72 223.55 396c.37-7.54.26-14 .14-17.66-.07-2 1.28 1.13 1.28 1.13s8.51 9.31 17.92 11.87c0 0-13.64-8.16-16.21-17.57s1-15.68 7.5-16.53 10.42 5.51 10.42 5.51l.16-.11 4.31-42.77zm38.68-94.41c.17-.8 13.65-14.86 16.8-22s8.37-13.8 19.11-8.75c1.43.67 10.39 8.91 12 10.77s11.8 7 12.34 7.65 9.53 1.74 9.53 1.74l-.82-3.18s-9.17-1.84-10.91-3.49-12-10.19-12-10.19-6.88-10.74-9.38-11.62-8.83-6-14.4-4.7-15.78 10.26-15.78 10.26l-14 12.22zm-.44 8.11c-1.45-1.26-11.44 5-36.66-10.91-7.47-4.72-18.83-8.89-24-8.21s-9 2.63-13.68 1.48-8.54-9.19-10-12.88-3.33-5.56-4.95-7.66-14.25-18.66-17.64-18.91-15.37 2.27-15.37 2.27l-20.14 5.51.45 1.29s18.18-1.32 23-1.24 7.15-3.13 11.12-.47 14.37 14.26 16.09 17.72 3.24 14.72 6.38 17.56 13.82 8 13.82 8 17.53 2.25 20.85 1.59 7.1 3.61 11.1 8.18 12.07 6.94 16.32 7.49 23.68 9 23.68 9z"/><path d="M192.77 216.67S179.65 231 177.12 230.3s-14.9-3.07-16.09-4.14-9.64-12.1-10.74-13.9-2.74-6.17-7.37-9.55-21.4-9.64-21.4-9.64l-15.65 2.48c-.78.27-10.46 6.63-10.46 6.63l1 1.32 11.61-6c.61-.49 11.16-1 11.94-1.27s17.41 8.77 17.41 8.77 5 .09 6.24 3.79 6.63 12.44 6.63 12.44-8.7-3.54-12.57-2.54-13.09 8.79-13.09 8.79-11.13-.68-13.11.18-8-1.77-8-1.77l-10.88-5.51L79.36 223s1.85 4.54 2.88 3.74 8.29-3.42 11.46-1.9 9.06 9.58 12.32 10.37 10.56-2.2 11.51-2.26 9.1 1.91 9.1 1.91a37.8 37.8 0 0 1 9.13-7c4.79-2.38 18 1 18.9 1.3s23.24 11.21 23.24 11.21 10.36-5 17.36-7.12 22.86-9.35 22.86-9.35zm67.82-47.15s-16.46-10.31-16.23-12.93.33-15.2 1.17-16.57 10.15-11.67 11.73-13.07 5.57-3.81 8.06-9 5.62-22.79 5.62-22.79l-5.27-14.92c-.41-.76-8.4-9.09-8.4-9.09l-1.12 1.25 8 10.33c.6.52 3 10.8 3.41 11.52s-5.49 18.68-5.49 18.68.82 5-2.61 6.82-11 8.77-11 8.77 1.91-9.2.23-12.82-11-11.29-11-11.29-1.34-11.07-2.55-12.86.3-8.19.3-8.19l3.45-11.7-5-12.54s-4.13 2.63-3.15 3.51 4.86 7.53 3.93 10.93-7.78 10.63-8 14 4.07 10 4.31 10.91-.24 9.3-.24 9.3a37.5 37.5 0 0 1 8.58 7.71c3.21 4.28 2.27 17.89 2.14 18.82s-6.83 24.88-6.83 24.88 6.82 9.29 10.14 15.79 13.32 20.8 13.32 20.8zm145.34-16.47c-.74.74-6.9 3.94-7.88 3.94s-11.08-1.48-14 0-3.41 3.2-5.89 3.2-19.47-4.68-19.47-4.68l-25.35 4.68-2.71 7s20.18-6.4 25.6-7.08 19.24 5.48 21.93 3.75l8.1-5.37h11.54zm-27.8 51.43l10.6-.64 19.63 9.57 10.36 2.69-.4 1.71s-11.75-1.81-13.05-2.61-17-8.37-17-8.37l-12.65.78zm-227.69-62.37l-6.75-.99-8.89-4.31-5.83-9.13-14.75-2.91v1.82l12.57 2.73 4.18 7.49h-9.65v1.98l13.11.91 8.93 5.28 5.96 1.3 1.12-4.17zm133.18-35.35l-.39-15.4-1.24-5.15-8.11-10.12 1.25-1.25 7.79 8.41 3.58 7.09.78 7.09 10.13-4.21 9.97-10.59 1.56 1.09-8.88 11.53-9.97 6.7-1.21 4.81h-5.26zm18.76 21.96l11.03-16.18h19.27l9.48-7.94V94.53h2.52v13.59l-8.84 7.27 12.95 2.21-1.58 2.52-13.27-2.21-6.32-1.89-6.95-.95-6.31.63-5.42 12.01-6.56 7.82v-6.81zm-98.48-18.39l-18.7-8.79-10.29-.69L170 97l1.21-.86s3.53 3.82 4.88 3.82 6.74-.78 6.74-.78l-3.54-8.74h1.15l4.8 8.74 9 1.65L205 104.6z"/><path d="M207.23 108.24l2.87-5.56-1.43-4.9 3.85-9 4.13-5.48-.51-.37L211.4 88l-2.21-3.51-.6.2 1.31 3.15s-4.33 9.22-4.33 9.73l1.09 4.45-2 3.26zm-46.06 63.93l-9.5-6.48-.69-6.81-8-4.39v1.17l7 4s-.9 6-1.24 7.21 6.44 7.6 6.44 7.6zm72.85-28.46l-5.41-3.51-11.72-4.41 1.16 3.33 11.65 5.33 4.96 14.71 6.34-8.89-6.98-6.56zm11.45 275.65c-.14 0-.26-5.49-.26-12.27s.12-12.27.26-12.27.27 5.5.27 12.27-.12 12.27-.27 12.27zM233 408.11a39.54 39.54 0 0 1 2.45-6.08 40 40 0 0 1 2.94-5.88 41.43 41.43 0 0 1-2.46 6.09 42 42 0 0 1-2.93 5.87zm24.93 0c-.15.05-1.23-2.66-2.89-5.84l-3.1-5.73a24.35 24.35 0 0 1 3.57 5.49 23.94 23.94 0 0 1 2.42 6.08zm4.6-11.59a7 7 0 0 1-2.22-1.51c-1.12-.94-2-1.79-1.87-1.9a7 7 0 0 1 2.21 1.5c1.13.94 1.97 1.8 1.88 1.91zm-33.42-.16c-.08-.13.76-.84 1.73-1.77s1.73-1.73 1.85-1.64-.48 1.05-1.49 2a4.72 4.72 0 0 1-2.09 1.41zM231 414.6c-.13-.06 0-.65.33-1.32s.68-1.16.81-1.09 0 .65-.33 1.31-.68 1.16-.81 1.1zm30.15-.52c-.13.05-.47-.52-.75-1.27s-.4-1.41-.27-1.46.47.52.76 1.28.4 1.37.26 1.45z"/></g><g fill="#455a64"><path d="M252.55 300.05a3.79 3.79 0 0 1-.27.65l-.8 1.88a54.14 54.14 0 0 0-2.17 7.18 85.43 85.43 0 0 1-3 10.76 25.48 25.48 0 0 1-3.1 5.86 17.59 17.59 0 0 1-5.26 4.8c-2.09 1.28-4.27 2.24-6.27 3.31a21.35 21.35 0 0 0-5.3 3.74 27.77 27.77 0 0 0-5.92 9.26c-1.21 2.93-1.95 5.39-2.48 7.09l-.59 1.95a5.39 5.39 0 0 1-.24.67 3.74 3.74 0 0 1 .13-.7l.51-2a65 65 0 0 1 2.33-7.17 27.66 27.66 0 0 1 5.92-9.46 21.68 21.68 0 0 1 5.4-3.85l6.24-3.3a17.26 17.26 0 0 0 5.12-4.66 25.76 25.76 0 0 0 3.07-5.74 94.53 94.53 0 0 0 3.1-10.67 47.59 47.59 0 0 1 2.33-7.17l.89-1.84a4.31 4.31 0 0 1 .36-.59zm19-21.05a4.87 4.87 0 0 1-.36.65 15.86 15.86 0 0 1-1.22 1.75 25.48 25.48 0 0 1-5.83 5.22 57.39 57.39 0 0 1-10.37 5.23 122.11 122.11 0 0 0-13 5.68c-4.37 2.4-8.15 5.57-10.27 9.34a18.08 18.08 0 0 0-2 5.75c-.35 1.9-.56 3.7-.88 5.33a15.07 15.07 0 0 1-3.09 7.16 9.81 9.81 0 0 1-1.57 1.45c-.2.14-.37.23-.47.29s-.17.1-.17.09a13.42 13.42 0 0 0 2-2 15.17 15.17 0 0 0 2.88-7.1c.3-1.61.49-3.41.83-5.33a18.33 18.33 0 0 1 2-5.92c2.16-3.89 6-7.12 10.43-9.56a120.94 120.94 0 0 1 13-5.67 58.61 58.61 0 0 0 10.34-5.09 26.4 26.4 0 0 0 5.88-5 18.48 18.48 0 0 0 1.29-1.68 3.35 3.35 0 0 1 .58-.59zm6.76-75.59l-1.91 1.51a27.15 27.15 0 0 0-4.55 4.76 28 28 0 0 0-4.43 8.66 25.74 25.74 0 0 0-1.1 5.64 43.18 43.18 0 0 0 .08 6.21 26.88 26.88 0 0 1-.18 6.29 14.39 14.39 0 0 1-2.25 5.43c-2.1 3.12-4.57 5.41-6.36 7.55a20.94 20.94 0 0 0-3.63 5.47l-.38 1-.21.74a4 4 0 0 1-.2.59 2.28 2.28 0 0 1 .1-.62c0-.22.1-.47.16-.75s.21-.62.34-1a19.91 19.91 0 0 1 3.54-5.64c1.77-2.18 4.21-4.51 6.24-7.57a14.12 14.12 0 0 0 2.15-5.26 26.94 26.94 0 0 0 .16-6.18 42.48 42.48 0 0 1-.07-6.27 26.16 26.16 0 0 1 1.15-5.75 27.7 27.7 0 0 1 4.59-8.74 25.19 25.19 0 0 1 4.73-4.69 16.22 16.22 0 0 1 1.48-1 2.4 2.4 0 0 1 .55-.38zm-25.96 39.17a2.56 2.56 0 0 1-.17-.48 13 13 0 0 1-.35-1.43 19.47 19.47 0 0 1-.17-5.4 41.31 41.31 0 0 1 1.68-7.84l2.75-9.36a28 28 0 0 0 .69-5c.09-1.61-.07-3.18-.1-4.69a14.67 14.67 0 0 1 .39-4.3 11.09 11.09 0 0 1 5.71-6.93 8.67 8.67 0 0 1 1.37-.54 3.27 3.27 0 0 1 .5-.12c0 .06-.67.24-1.77.84a11.37 11.37 0 0 0-3.89 3.55 10.83 10.83 0 0 0-1.5 3.31 14.39 14.39 0 0 0-.33 4.17l.13 4.73a29 29 0 0 1-.69 5.06c-.78 3.4-1.91 6.52-2.8 9.38a42.11 42.11 0 0 0-1.77 7.74 21.19 21.19 0 0 0 0 5.33l.32 1.98zm3.86-36.87a5.23 5.23 0 0 0-.56-2.5 6.9 6.9 0 0 0-1.82-2.1c-.82-.68-1.82-1.34-2.84-2.07l-5.19-3.79a14 14 0 0 1-2.06-1.7A13.27 13.27 0 0 1 246 195l5.28 3.66 2.85 2.13a7 7 0 0 1 1.84 2.31 4.12 4.12 0 0 1 .4 2c-.02.38-.13.62-.16.61zm-5.63 31.69a14.61 14.61 0 0 1-2.25-2 55.81 55.81 0 0 1-4.76-5.54 54.76 54.76 0 0 1-4-6.12 13.81 13.81 0 0 1-1.32-2.72 23 23 0 0 1 1.64 2.53l4.09 6 4.62 5.59a21.89 21.89 0 0 1 1.98 2.26zm15.27 78.6a5.09 5.09 0 0 1-.26.59 14.53 14.53 0 0 0-.77 1.68 27.34 27.34 0 0 0-1.66 6.56c-.44 2.83-.63 6.26-1.33 10a22.58 22.58 0 0 1-1.82 5.74 10.58 10.58 0 0 1-.77 1.39 10.82 10.82 0 0 1-.9 1.34 17.06 17.06 0 0 1-2.27 2.39c-3.41 2.92-7.44 4.46-11 5.72s-6.88 2.26-9.48 3.46a25 25 0 0 0-5.77 3.52c-1.22 1-1.79 1.73-1.83 1.69a2.37 2.37 0 0 1 .4-.51 12.59 12.59 0 0 1 1.3-1.33 23.32 23.32 0 0 1 5.74-3.7 93.29 93.29 0 0 1 9.48-3.59c3.55-1.27 7.52-2.81 10.83-5.65a16.62 16.62 0 0 0 2.2-2.32 10.05 10.05 0 0 0 .87-1.29 10.51 10.51 0 0 0 .75-1.35 22.29 22.29 0 0 0 1.81-5.6c.72-3.72.94-7.15 1.44-10a25.77 25.77 0 0 1 1.83-6.58 12.3 12.3 0 0 1 .86-1.65 2.41 2.41 0 0 1 .35-.51zM264 326.56a1.86 1.86 0 0 1 .3.47l.77 1.41 2.72 5.21c1.13 2.15 2.32 5 4.4 7.44a9.31 9.31 0 0 0 4.13 2.74 18.8 18.8 0 0 0 5.38.77c3.74.08 7.48-.16 10.65 1a20 20 0 0 1 7.22 4.94 47 47 0 0 1 3.8 4.5 46.95 46.95 0 0 1 .94 1.3 2.69 2.69 0 0 1 .3.47 2.77 2.77 0 0 1-.38-.41l-1-1.23a55.3 55.3 0 0 0-3.9-4.37 20 20 0 0 0-7.12-4.75c-3.06-1.14-6.72-.9-10.51-1a18.78 18.78 0 0 1-5.53-.81 9.82 9.82 0 0 1-4.32-2.9c-2.15-2.6-3.22-5.4-4.37-7.59s-1.94-4-2.58-5.3l-.67-1.44a3.73 3.73 0 0 1-.23-.45z"/><path d="M255.92 345.12a8.14 8.14 0 0 0 .93 2.84 8.35 8.35 0 0 0 2.17 2.39 16.71 16.71 0 0 0 3.49 1.94l6.82 2.84a17.36 17.36 0 0 1 2.77 1.31 17.42 17.42 0 0 1-2.91-1l-6.89-2.7a15.66 15.66 0 0 1-3.58-2 8.14 8.14 0 0 1-2.19-2.58 5.77 5.77 0 0 1-.66-2.18 1.82 1.82 0 0 1 .05-.86zm-32.72-17.86a1.58 1.58 0 0 1-.14.49 11.75 11.75 0 0 1-.51 1.37 22.45 22.45 0 0 1-2.67 4.67 25.22 25.22 0 0 1-5.69 5.59 24.57 24.57 0 0 1-8.92 4c-3.38.76-6.66 1.16-9.35 2.4a17 17 0 0 0-6 4.9 47.06 47.06 0 0 0-3.08 4.36l-.79 1.22c-.19.28-.29.42-.31.41a2.23 2.23 0 0 1 .22-.47l.71-1.27a40.24 40.24 0 0 1 3-4.48 16.86 16.86 0 0 1 6.12-5.1c2.77-1.31 6.1-1.73 9.44-2.48a24.41 24.41 0 0 0 8.75-3.85 25.57 25.57 0 0 0 5.68-5.41 25 25 0 0 0 2.77-4.53l.77-1.82zm37.8-47.55a2.6 2.6 0 0 1-.36.16l-1.05.46-4 1.82a11.85 11.85 0 0 1-3.12.8 7.58 7.58 0 0 1-3.8-.53 5.27 5.27 0 0 1-1.75-1.28 5.65 5.65 0 0 1-1.11-2 7.89 7.89 0 0 1 .2-4.93 15.22 15.22 0 0 1 2.82-4.65c1.23-1.45 2.64-2.8 4.06-4.24l9.14-9.13 4.94-4.94a9.11 9.11 0 0 1 3.05-2.09 3.1 3.1 0 0 1 3.6.92 6.26 6.26 0 0 1 1 3.71l-.07 1.92-.24 1.91a23.13 23.13 0 0 1-2.65 7.37 23.87 23.87 0 0 1-11.27 10.23 22.38 22.38 0 0 1-3.54 1.15 6.29 6.29 0 0 1-1.89.08 3 3 0 0 1-1.75-.76 2.57 2.57 0 0 1-.8-1.75 4.8 4.8 0 0 1 .3-1.82 19 19 0 0 1 1.6-3.11 33.33 33.33 0 0 1 8.76-9.5l2.51-1.65a4.43 4.43 0 0 1 2.83-.85 1.41 1.41 0 0 1 1.17 1 2.45 2.45 0 0 1-.08 1.45 23.14 23.14 0 0 1-1 2.47 22.25 22.25 0 0 1-2.62 4.19l-1.5 1.7a5.61 5.61 0 0 1-1.71 1.33 2.32 2.32 0 0 1-1 .23 1.17 1.17 0 0 1-.92-.52 1.23 1.23 0 0 1-.16-1 2.43 2.43 0 0 1 .38-.85c.71-1 1.46-1.71 2.09-2.45l2.95-3.31.77-.85.28-.28a1.67 1.67 0 0 1-.24.32l-.73.88-2.88 3.37c-.6.74-1.38 1.53-2 2.45a1.45 1.45 0 0 0-.21 1.57c.32.51 1 .46 1.62.18a5.2 5.2 0 0 0 1.6-1.28 18.9 18.9 0 0 0 1.47-1.7 22.36 22.36 0 0 0 2.55-4.13 22.78 22.78 0 0 0 1-2.43 2.15 2.15 0 0 0 .08-1.22 1 1 0 0 0-.86-.7 4 4 0 0 0-2.55.81c-.84.49-1.65 1.05-2.47 1.64a32.86 32.86 0 0 0-8.61 9.4 18.72 18.72 0 0 0-1.55 3 4.38 4.38 0 0 0-.26 1.63 2 2 0 0 0 .64 1.41 3.73 3.73 0 0 0 3.21.56 14 14 0 0 0 1.73-.49 13.44 13.44 0 0 0 1.7-.64 23.41 23.41 0 0 0 11-10 22.58 22.58 0 0 0 2.59-7.19l.24-1.88c.07-.63.06-1.25.07-1.87a5.8 5.8 0 0 0-.92-3.39 2.57 2.57 0 0 0-3-.76 8.54 8.54 0 0 0-2.86 2l-5 4.93-9.16 9.1-4.06 4.19a14.55 14.55 0 0 0-2.78 4.51 7.61 7.61 0 0 0-.23 4.72 4.9 4.9 0 0 0 2.66 3.14 7.43 7.43 0 0 0 3.66.54 11.42 11.42 0 0 0 3.07-.74l4.07-1.73 1.08-.41zm15.72-41.52s.23.13.59.43a11 11 0 0 1 1.36 1.44 13.91 13.91 0 0 1 1.59 2.47 15.08 15.08 0 0 1 1.62 7 14.36 14.36 0 0 1-.33 2.93 10.88 10.88 0 0 1-.59 1.88c-.18.43-.3.66-.34.65s.29-1 .57-2.6a16.28 16.28 0 0 0-2.81-12.08l-1.66-2.12zm-26.67 51.67a9.58 9.58 0 0 1-2.4.16 15.81 15.81 0 0 1-5.73-.93 8.15 8.15 0 0 1-4.34-3.86 5.09 5.09 0 0 1-.49-1.71 1.41 1.41 0 0 1 0-.66 11.28 11.28 0 0 0 .8 2.2 8.3 8.3 0 0 0 4.2 3.54 18.09 18.09 0 0 0 5.56 1 12.76 12.76 0 0 1 2.4.26z"/></g><path d="M174.91 228.19s4.14-12-9.93-18.16c.02-.03-.62 13.12 9.93 18.16z" class="C"/><g class="B"><path d="M168.28 214.55a8.64 8.64 0 0 1 1.34 1.79 41.09 41.09 0 0 1 2.62 4.71 39.53 39.53 0 0 1 2 5 7.77 7.77 0 0 1 .53 2.17c-.15 0-1.19-3.19-3-7l-3.49-6.67z"/><path d="M168.46,218.82a13.64,13.64,0,0,1,4.44,4.33,30.29,30.29,0,0,1-4.44-4.33Z"/></g><path d="M188.56 203.75s8.41-10.23-3.12-21.37c0 0-5.36 12.62 3.12 21.37z" class="C"/><path d="M187 188a9.68 9.68 0 0 1 .66 2.24 42.23 42.23 0 0 1 .85 5.55 43.06 43.06 0 0 1 .13 5.62 9.56 9.56 0 0 1-.26 2.32c-.16 0 0-3.55-.39-7.89L187 188z" class="B"/><path d="M192.19 204.19s9.9-2.26 8.14-14.43c0 0-9.17 5.13-8.14 14.43z" class="C"/><path d="M198.65 193.91a26.74 26.74 0 0 1-6.55 10.19c-.12-.1 1.62-2.19 3.42-5l3.13-5.19z" class="B"/><path d="M215.94 184.55s-9.28-10.28-22.59-.07c0 0 12.22 7.52 22.59.07z" class="C"/><path d="M199.41 183.71a10 10 0 0 1 2.41-.33 45.44 45.44 0 0 1 5.88 0 43.92 43.92 0 0 1 5.84.73 9.48 9.48 0 0 1 2.36.62 13.93 13.93 0 0 1-2.42-.26l-5.81-.57-5.83-.14a12.45 12.45 0 0 1-2.43-.05z" class="B"/><path d="M130.46 177s-.94-11-14.31-10.93c0 .02 4.15 10.66 14.31 10.93z" class="C"/><path d="M120.37 168.52a7.52 7.52 0 0 1 2 1.19 39.12 39.12 0 0 1 4.15 3.62l3.74 4a9.66 9.66 0 0 1 1.37 1.83c-.12.1-2.45-2.48-5.47-5.5l-4-3.7a16.42 16.42 0 0 1-1.79-1.44z" class="B"/><path d="M124.73 182.51S114.28 179 109 191.23c0 0 11.39.47 15.73-8.72z" class="C"/><path d="M112.9 188.35a5.91 5.91 0 0 1 1.53-1.2 35.19 35.19 0 0 1 8.44-4.06 6.71 6.71 0 0 1 1.89-.45c0 .15-2.75 1.09-6 2.67l-5.86 3.04z" class="B"/><path d="M123.31 179.07s-6.26-9.9-18.81-3.31c0 0 9.1 8 18.81 3.31z" class="C"/><path d="M109.66 176a7 7 0 0 1 2.06 0 35.34 35.34 0 0 1 4.91.82 34.82 34.82 0 0 1 4.75 1.46 6.6 6.6 0 0 1 1.86.88c0 .14-3-1-6.73-1.84l-6.85-1.32z" class="B"/><path d="M134.34 143.52s-9.25-4.45-15.51 6.29c0 0 10.48 1.71 15.51-6.29z" class="C"/><path d="M122.77 147.58a20.33 20.33 0 0 1 5.57-2.63 20 20 0 0 1 6-1.31c0 .15-2.66.71-5.85 1.8l-5.72 2.14z" class="B"/><path d="M135.22 135.14s10.25.57 11.93-11.75c0 0-10.34 2.43-11.93 11.75z" class="C"/><path d="M144.36 127a19.76 19.76 0 0 1-4.14 4.56 20 20 0 0 1-5.06 3.51c-.08-.13 2.19-1.67 4.72-3.9l4.48-4.17z" class="B"/><path d="M132 112.57s-8.3-10.25 3.27-21.26c-.03 0 5.21 12.6-3.27 21.26z" class="C"/><path d="M133.62 96.9c.16 0-.64 3.48-1 7.8l-.45 7.85a9.64 9.64 0 0 1-.24-2.31 41.81 41.81 0 0 1 .17-5.59 42.75 42.75 0 0 1 .89-5.53 9 9 0 0 1 .63-2.22z" class="B"/><path d="M165.49 113.51S172 105.56 163 97c0 0-4.11 9.74 2.49 16.51z" class="C"/><path d="M164.26 101.31a20.28 20.28 0 0 1 1.24 6 19.55 19.55 0 0 1-.14 6.15c-.15 0-.06-2.75-.37-6.11l-.73-6.04z" class="B"/><path d="M207.09 89.16s1-9.2-10-11.33c.03 0 1.69 9.43 10 11.33z" class="C"/><path d="M200.19 80.52a17 17 0 0 1 3.91 3.94 17.41 17.41 0 0 1 2.9 4.75c-.14.08-1.42-2-3.3-4.43l-3.51-4.26z" class="B"/><path d="M191.78 83.59s5.3-7.59-3.35-14.72c0 0-3.04 9.13 3.35 14.72z" class="C"/><path d="M189.84 72.7a16.86 16.86 0 0 1 1.56 5.3 17.14 17.14 0 0 1 .27 5.55c-.16 0-.27-2.47-.78-5.47l-1.05-5.38z" class="B"/><path d="M174.18 78.35s5.29-7.59-3.35-14.72c0 0-3.04 9.08 3.35 14.72z" class="C"/><path d="M172.24 67.46a17.17 17.17 0 0 1 1.56 5.34 17 17 0 0 1 .26 5.55c-.15 0-.27-2.47-.78-5.47l-1.04-5.42z" class="B"/><path d="M210 100.39s0-11.39 13.75-12.46c0 0-3.32 11.28-13.75 12.46z" class="C"/><path d="M219.64 90.8c.09.12-2.29 2-4.9 4.67l-4.58 5a6.31 6.31 0 0 1 1.07-1.69 33.94 33.94 0 0 1 3.14-3.66A34.68 34.68 0 0 1 218 91.9a6.29 6.29 0 0 1 1.64-1.1z" class="B"/><path d="M181.07 89.58s6.47-8-2.52-16.55c0-.03-4.1 9.8 2.52 16.55z" class="C"/><path d="M179.8 77.38a20.06 20.06 0 0 1 1.27 6 20.41 20.41 0 0 1-.12 6.16c-.16 0-.08-2.75-.4-6.11l-.75-6.05z" class="B"/><path d="M155.41 111.91s-5.21-7.08-14.25-1.48c0 0 7.23 5.5 14.25 1.48z" class="C"/><path d="M145 110.33a16 16 0 0 1 5.27.21 15.65 15.65 0 0 1 5.07 1.47c-.05.14-2.3-.5-5.15-1l-5.19-.68z" class="B"/><path d="M161.39 85.39s-9-8.36-20 1.71c.02 0 11.41 5.67 20-1.71z" class="C"/><path d="M146.71 86a7.72 7.72 0 0 1 2.1-.5 40.1 40.1 0 0 1 10.42-.3 7.84 7.84 0 0 1 2.13.39c0 .15-3.29-.18-7.33-.06l-7.32.47z" class="B"/><path d="M170 94.1s-5.21-7.08-14.25-1.48c-.04 0 7.25 5.5 14.25 1.48z" class="C"/><path d="M159.58 92.52a21.82 21.82 0 0 1 10.34 1.68c0 .14-2.3-.5-5.15-1l-5.19-.68z" class="B"/><path d="M174.26 102.46s-6 6.43 1.18 14.28c0 0 4.07-8.13-1.18-14.28z" class="C"/><path d="M174.63 113a15.77 15.77 0 0 1-.77-5.22 15.83 15.83 0 0 1 .5-5.25c.16 0-.06 2.36 0 5.24l.27 5.23z" class="B"/><path d="M180.48 103s-3.59 8 5.73 13.14c0 .04 1.23-8.97-5.73-13.14z" class="C"/><path d="M184.22 112.85a15.57 15.57 0 0 1-2.41-4.69 15.87 15.87 0 0 1-1.22-5.13c.15 0 .7 2.25 1.71 5l1.92 4.82z" class="B"/><path d="M112.81 168.3s-5.56-7.55-15.2-1.58c0 0 7.71 5.87 15.2 1.58z" class="C"/><path d="M101.74 166.61a17.51 17.51 0 0 1 5.62.25 17.67 17.67 0 0 1 5.41 1.54c0 .15-2.46-.54-5.5-1l-5.53-.79z" class="B"/><path d="M131.19 169.1s4.45-10.69-8-17.09c-.02-.01-1.31 11.91 8 17.09z" class="C"/><path d="M125.91 156.31a6.81 6.81 0 0 1 1.14 1.69 35.18 35.18 0 0 1 2.13 4.43 36 36 0 0 1 1.53 4.68 6.69 6.69 0 0 1 .34 2c-.15 0-.93-3-2.35-6.49l-2.79-6.31z" class="B"/><path d="M190.32 141.55s1.86-8.47-8.18-11.54c0-.01.62 8.99 8.18 11.54z" class="C"/><path d="M184.73 132.82a15.53 15.53 0 0 1 3.28 4.05 15.29 15.29 0 0 1 2.21 4.72c-.14.06-1.14-2-2.65-4.44l-2.84-4.33z" class="B"/><path d="M163.06 120s-6.74-2.11-9.95 5.82c0 .02 7.31.18 9.95-5.82z" class="C"/><path d="M155.58 123.93a4.44 4.44 0 0 1 1.35-1.05 32.35 32.35 0 0 1 3.65-1.88 21.53 21.53 0 0 1 5.47-1.92c0 .13-2.35 1.08-5.26 2.39l-3.68 1.74a8.28 8.28 0 0 1-1.53.72z" class="B"/><path d="M144.81 141.27s-.88-5.59 5.78-7.2c0 0-.76 5.81-5.78 7.2z" class="C"/><path d="M148.79 135.8c.08.08-1.17 1.71-2.52 3.87a32.11 32.11 0 0 1-2.56 3.86 15.37 15.37 0 0 1 2.12-4.14c1.36-2.18 2.84-3.72 2.96-3.59z" class="B"/><path d="M169.59 122.17s-6.67-.17-7.53 7.86c0-.03 6.67-1.77 7.53-7.86z" class="C"/><path d="M163.8 127.66a15.85 15.85 0 0 1 3.36-3.87 15.4 15.4 0 0 1 4.11-3.08c.07.11-1.7 1.53-3.75 3.46l-3.72 3.49z" class="B"/><path d="M157.43 142.69s3.65-8.25-6-13.46c.05 0-1.17 9.25 6 13.46z" class="C"/><path d="M153.55 132.63c.14-.08 1.7 2.63 3 6.23s2 6.65 1.81 6.67a9.91 9.91 0 0 1-.69-1.9l-1.61-4.59-1.8-4.52a9.61 9.61 0 0 1-.71-1.89z" class="B"/><path d="M188.64 105.9s-.89 6.8 7.24 8.54c0 0-1.1-7.02-7.24-8.54z" class="C"/><path d="M193.64 112.4a10.56 10.56 0 0 1-2.9-2.94 10.77 10.77 0 0 1-2-3.6 38.88 38.88 0 0 1 2.44 3.29 36.45 36.45 0 0 1 2.46 3.25z" class="B"/><path d="M192 137.59s5.27-2.29 3-8.87c0 0-4.53 3.81-3 8.87z" class="C"/><path d="M194.53 131.2a8 8 0 0 1-.82 3.37 7.93 7.93 0 0 1-1.76 3 20.57 20.57 0 0 1 1.28-3.18 21.36 21.36 0 0 1 1.3-3.19z" class="B"/><path d="M187.77 98s5.9-3.51 2.23-11c0 0-4.83 5.24-2.23 11z" class="C"/><path d="M189.79 90.05a10.79 10.79 0 0 1-.51 4.1A10.8 10.8 0 0 1 187.7 98a35.06 35.06 0 0 1 1.07-4 37.15 37.15 0 0 1 1.02-3.95z" class="B"/><path d="M183.9 71.09s5.9-3.51 2.23-11c0 .03-4.83 5.24-2.23 11z" class="C"/><path d="M185.92 63.14a10.79 10.79 0 0 1-.51 4.1 10.59 10.59 0 0 1-1.58 3.81 35.52 35.52 0 0 1 1.07-4 36.55 36.55 0 0 1 1.02-3.91z" class="B"/><path d="M204.21 95.68s.21-6.86-8-7.79c-.04 0 1.79 6.88 8 7.79z" class="C"/><path d="M198.59 89.7a10.57 10.57 0 0 1 3.18 2.64 10.41 10.41 0 0 1 2.36 3.38 36 36 0 0 1-2.74-3 38.11 38.11 0 0 1-2.8-3.02z" class="B"/><path d="M202.64 101.91s.15-4.79-5.62-5.44c-.02 0 1.25 4.8 5.62 5.44z" class="C"/><path d="M198.72 97.73a9 9 0 0 1 3.87 4.21c-.12.09-.92-.92-2-2.06s-1.97-2.03-1.87-2.15z" class="B"/><path d="M211.88 85.65s8.17-8.33-1.09-19c0 0-5.68 10.66 1.09 19z" class="C"/><path d="M211.75 71.71a7.51 7.51 0 0 1 .43 2 37.77 37.77 0 0 1 .32 4.94 36.16 36.16 0 0 1-.33 5 6.77 6.77 0 0 1-.43 2c-.15 0 .25-3.12.24-7l-.23-6.94z" class="B"/><path d="M215.06 62.36S211 54 200.41 58.09c0 0 6.53 7.15 14.65 4.27z" class="C"/><path d="M204.48 58.73A17.33 17.33 0 0 1 210 60a17.73 17.73 0 0 1 5 2.48c-.07.14-2.32-1-5.21-2l-5.31-1.75z" class="B"/><path d="M159 116.08s-6.29-2.74-10.21 4.58c.04 0 7.08.89 10.21-4.58z" class="C"/><path d="M151.41 119.08a10.53 10.53 0 0 1 3.62-2 10.76 10.76 0 0 1 4-.94 37.76 37.76 0 0 1-3.83 1.43 36.69 36.69 0 0 1-3.79 1.51z" class="B"/><path d="M142.57 146.88s-8.28-.66-9.88 9.27c0 0 8.41-1.76 9.88-9.27z" class="C"/><path d="M135 153.32a20.05 20.05 0 0 1 7.6-6.35c.08.13-1.78 1.35-3.86 3.1l-3.74 3.25z" class="B"/><path d="M233.77 117.68s-1.38-6.72-9.62-5.71c0 .03 3.32 6.27 9.62 5.71z" class="C"/><path d="M226.93 113.17a15.45 15.45 0 0 1 6.78 4.57 37.54 37.54 0 0 1-3.38-2.31 38 38 0 0 1-3.4-2.26z" class="B"/><path d="M150.74 157.33s1.92-6.59-5.84-9.55c0 0 .01 7.1 5.84 9.55z" class="C"/><path d="M146.8 150.13a11 11 0 0 1 2.41 3.35 10.65 10.65 0 0 1 1.45 3.87 36.2 36.2 0 0 1-1.91-3.62 34 34 0 0 1-1.95-3.6z" class="B"/><path d="M148.51 160.74s-4.92-6.8-13.61-1.53c0 0 6.87 5.32 13.61 1.53z" class="C"/><path d="M138.61 159.15a14.31 14.31 0 0 1 5 .23 14.68 14.68 0 0 1 4.83 1.45c-.05.15-2.2-.48-4.92-.94l-4.91-.74z" class="B"/><path d="M157 168.08s-6.17-8.57 3.58-16.86c.02 0 3.65 10.32-3.58 16.86z" class="C"/><path d="M159.05 155.62c.15 0-.62 2.77-1.13 6.2l-.77 6.25a20.94 20.94 0 0 1 .25-6.33 21.31 21.31 0 0 1 1.65-6.12z" class="B"/><path d="M119.54 139.66s-6.29-2.74-10.21 4.58c0 0 7.04.89 10.21-4.58z" class="C"/><path d="M111.91 142.66a10.66 10.66 0 0 1 3.62-2 10.76 10.76 0 0 1 4-.94 37.76 37.76 0 0 1-3.83 1.43 36.69 36.69 0 0 1-3.79 1.51z" class="B"/><path d="M126.09 125.67s3.83-9.52-7.29-15.07c0 0-1.02 10.57 7.29 15.07z" class="C"/><path d="M121.28 114.39a19.71 19.71 0 0 1 3 5.38 20.27 20.27 0 0 1 1.7 5.92c-.15 0-.89-2.61-2.18-5.72l-2.52-5.58z" class="B"/><path d="M119.92 124.71s0-8.7-10.47-9.57c0 0 2.55 8.64 10.47 9.57z" class="C"/><path d="M112.59 117.34a21.81 21.81 0 0 1 7.24 7.43c-.13.09-1.55-1.75-3.55-3.79l-3.69-3.64z" class="B"/><path d="M132.71 131.33s7.33-4.69 2.39-14c0 .01-5.91 6.8-2.39 14z" class="C"/><path d="M134.94 121.18a15.22 15.22 0 0 1-.55 5.19 15 15 0 0 1-1.78 4.91c-.14-.05.64-2.24 1.28-5l1.05-5.1z" class="B"/><path d="M113.24 125.82s-5.35-6.86-14.15-1.08c0 0 7.31 5.26 14.15 1.08z" class="C"/><path d="M102.92 124.54a15.51 15.51 0 0 1 5.23.07 15.41 15.41 0 0 1 5 1.31c0 .15-2.29-.43-5.12-.8l-5.11-.58z" class="B"/><path d="M122.77 133.05s-6.22-6.09-14.16.82c0 0 7.94 4.23 14.16-.82z" class="C"/><path d="M112.38 133.16a15.21 15.21 0 0 1 5.18-.64 15.52 15.52 0 0 1 5.19.63c0 .15-2.34-.11-5.19-.11l-5.18.12z" class="B"/><path d="M187.92 162.59s-9.23.66-9.34 11.87c0 0 8.98-3.35 9.34-11.87z" class="C"/><path d="M180.67 171a17.28 17.28 0 0 1 3.17-4.57 17 17 0 0 1 4.15-3.69c.1.11-1.75 1.76-3.76 4l-3.56 4.26z" class="B"/><path d="M204.49 147.58s8 1.39 10.48-8.16c.03 0-8.37.96-10.48 8.16z" class="C"/><path d="M212.44 142a19.61 19.61 0 0 1-8 5.51c-.07-.14 1.84-1.16 4-2.68l4-2.83z" class="B"/><path d="M210.64 120.8s1.26-8.82 12-8.15c.02 0-3.8 8.35-12 8.15z" class="C"/><path d="M219.15 114.42c.08.13-2 1.35-4.28 3.13l-4.15 3.32a22.5 22.5 0 0 1 8.43-6.45z" class="B"/><path d="M236.57 141.27s-9.32-5.79-3.23-17.6c0 0 7.56 8.47 3.23 17.6z" class="C"/><path d="M233.59 128.5c.16 0 .49 2.9 1.35 6.4l1.75 6.31a22.62 22.62 0 0 1-2.25-6.18 22.12 22.12 0 0 1-.85-6.53z" class="B"/><path d="M229.76 76.28s3.39-13.87-13-19.31c-.02.03.66 14.76 13 19.31z" class="C"/><path d="M220.9 61.7a10.09 10.09 0 0 1 1.68 1.87 46.32 46.32 0 0 1 3.41 5 47.33 47.33 0 0 1 2.76 5.4 10.22 10.22 0 0 1 .84 2.36 14.72 14.72 0 0 1-1.17-2.21l-2.88-5.28-3.26-5.05a15.44 15.44 0 0 1-1.38-2.09z" class="B"/><path d="M238.41 171.63s-6.63 1.56-9.16-6.28c0 0 7.03.38 9.16 6.28z" class="C"/><path d="M231.49 167.35a37.74 37.74 0 0 1 3.45 2.12 34.65 34.65 0 0 1 3.49 2.08 10.5 10.5 0 0 1-3.75-1.63 10.19 10.19 0 0 1-3.19-2.57z" class="B"/><path d="M239.08 125.51s3.49-6.91-4.51-11.79c0 0-1.45 7.87 4.51 11.79z" class="C"/><path d="M236.19 116.72a12.92 12.92 0 0 1 2 4.22 13 13 0 0 1 .84 4.58c-.15 0-.56-2-1.33-4.42l-1.51-4.38z" class="B"/><path d="M229.7 60s3.49-6.91-4.51-11.79c0-.01-1.45 7.86 4.51 11.79z" class="C"/><path d="M226.81 51.2a12.92 12.92 0 0 1 2 4.22 13 13 0 0 1 .84 4.57c-.16 0-.56-2-1.34-4.41l-1.5-4.38z" class="B"/><path d="M205.54 77.76s2.93-13-12.51-17.83c-.03 0 .89 13.79 12.51 17.83z" class="C"/><path d="M197 64.28a8.62 8.62 0 0 1 1.61 1.72 44.69 44.69 0 0 1 5.95 9.62 9.34 9.34 0 0 1 .82 2.21 12.4 12.4 0 0 1-1.15-2l-2.78-4.88-3.13-4.67a12.75 12.75 0 0 1-1.32-2z" class="B"/><path d="M209.76 108.51s5.68-10.46 18.85-4.62c0 0-8.69 8.72-18.85 4.62z" class="C"/><path d="M223.39 104.47c0 .16-3.11.69-6.85 1.85l-6.71 2.31a7.45 7.45 0 0 1 1.84-1 38.08 38.08 0 0 1 9.64-3 7.48 7.48 0 0 1 2.08-.16z" class="B"/><path d="M196.68 176s-7.1-4-12.59 4.21c0 .04 8.21 1.91 12.59-4.21z" class="C"/><path d="M187.32 178.68a14 14 0 0 1 4.52-1.86 13.62 13.62 0 0 1 4.84-.68c0 .15-2.13.48-4.7 1.18l-4.66 1.36z" class="B"/><path d="M212.14 164.79s5.51-9.45 17.45-3.72c0 0-8.23 7.77-17.45 3.72z" class="C"/><path d="M224.78 161.46c0 .16-2.88.57-6.34 1.53l-6.23 1.92a21.81 21.81 0 0 1 6.09-2.42 22.27 22.27 0 0 1 6.48-1.03z" class="B"/><path d="M225.78 144.78s5.71 5.81-.75 13.25c-.03-.03-3.97-7.43.75-13.25z" class="C"/><path d="M225.69 154.5c-.15 0 .09-2.18.09-4.85l-.09-4.85a14.07 14.07 0 0 1 .61 4.85 13.79 13.79 0 0 1-.61 4.85z" class="B"/><path d="M134.06 175.76s-3.71-5.47 2.53-10.47c0 0 2.08 6.51-2.53 10.47z" class="C"/><path d="M135.54 168a30.65 30.65 0 0 1-.72 3.87 33.39 33.39 0 0 1-.68 3.88 9.93 9.93 0 0 1 .17-4 10.16 10.16 0 0 1 1.23-3.75z" class="B"/><path d="M149.5 170.68s-5.71 3.33-10.28-3.24c0 0 6.64-1.64 10.28 3.24z" class="C"/><path d="M141.87 168.67a33.43 33.43 0 0 1 3.81 1 33.64 33.64 0 0 1 3.82.95 10.26 10.26 0 0 1-3.95-.44 10.08 10.08 0 0 1-3.68-1.51z" class="B"/><path d="M105.4 190.82s3.86-6.3-3.37-11.56c-.03 0-2.03 7.37 3.37 11.56z" class="C"/><path d="M103.34 182.24a17.28 17.28 0 0 1 2 8.58c-.15 0-.39-1.95-.93-4.31l-1.07-4.27z" class="B"/><path d="M152.26 189.61s-1.12-7.72-10.55-7.11c0 0 3.37 7.34 10.55 7.11z" class="C"/><path d="M144.79 184a5.59 5.59 0 0 1 1.75.9 42.42 42.42 0 0 1 3.81 2.8c2.88 2.33 5 4.52 4.83 4.63a8.22 8.22 0 0 1-1.54-1.21l-3.62-3-3.69-2.91a9.9 9.9 0 0 1-1.54-1.21z" class="B"/><path d="M161 189.43s-.89-6.09-8.32-5.61c-.01 0 2.65 5.79 8.32 5.61z" class="C"/><path d="M155.1 185a4.66 4.66 0 0 1 1.68.93 44.53 44.53 0 0 1 3.59 2.9 29.86 29.86 0 0 1 4.63 4.67c-.1.09-2.25-1.87-4.95-4.24l-3.48-3a15 15 0 0 1-1.47-1.26z" class="B"/><path d="M178.12 188.92s5.06-3.5 1.33-9.95c0 .03-4 4.95-1.33 9.95z" class="C"/><path d="M179.44 181.69a4.79 4.79 0 0 1-.09 1.92c-.18 1.17-.54 2.77-1 4.51a29.76 29.76 0 0 1-2.1 6.18c-.12-.05.67-2.84 1.6-6.32l1.14-4.44a14.66 14.66 0 0 1 .45-1.85z" class="B"/><path d="M171.33 149.13s-5.84 2-4.06 9.18c0 0 5.23-3.63 4.06-9.18z" class="C"/><path d="M168 155.71a4.61 4.61 0 0 1 .63-1.82 45.17 45.17 0 0 1 2.22-4 29.83 29.83 0 0 1 3.74-5.35c.11.08-1.44 2.54-3.3 5.62l-2.34 3.95a15.18 15.18 0 0 1-.95 1.6z" class="B"/><path d="M172.23 139s-1.9-5.85-9.15-4.12c0-.05 3.6 5.2 9.15 4.12z" class="C"/><path d="M165.68 135.62a4.54 4.54 0 0 1 1.81.63c1.07.51 2.5 1.31 4 2.25 3.07 1.89 5.41 3.66 5.31 3.79s-2.52-1.46-5.58-3.34l-3.94-2.37a15.16 15.16 0 0 1-1.6-.96z" class="B"/><path d="M182.46 123.09s-5.87-1.85-8.67 5c0 .05 6.36.17 8.67-5z" class="C"/><path d="M175.94 126.49a4.59 4.59 0 0 1 1.57-1.11 45 45 0 0 1 4.18-2 29.69 29.69 0 0 1 6.17-2.13c0 .12-2.66 1.21-6 2.61l-4.21 1.83a18.12 18.12 0 0 1-1.71.8z" class="B"/><path d="M145.2 190.44s-4.91-6.06-12.71-.71c0 0 6.65 4.58 12.71.71z" class="C"/><path d="M135.93 189.48a13 13 0 0 1 4.69-.06 13.32 13.32 0 0 1 4.55 1.11c0 .15-2.07-.31-4.61-.59l-4.63-.46z" class="B"/><path d="M152 194.37s-7.32-2.7-11.29 5.88c.02 0 8.08.54 11.29-5.88z" class="C"/><path d="M143.55 198.28a13.47 13.47 0 0 1 4-2.45 13.28 13.28 0 0 1 4.49-1.37c0 .15-1.94.79-4.27 1.85l-4.22 1.97z" class="B"/><path d="M218 188.14s-8.86 2-7.35 12.84c-.01.02 8.21-4.53 7.35-12.84z" class="C"/><path d="M212.17 197.28a16.36 16.36 0 0 1 2.4-4.88 16.55 16.55 0 0 1 3.5-4.18c.11.1-1.44 2-3.06 4.47l-2.84 4.59z" class="B"/><path d="M164.94 236.89s-11.62-4-17.55 9.65c0 0 12.69.57 17.55-9.65z" class="C"/><path d="M151.76 243.34a7.61 7.61 0 0 1 1.72-1.31 39.71 39.71 0 0 1 9.39-4.48A7.74 7.74 0 0 1 165 237c0 .15-3.08 1.17-6.73 2.91l-6.51 3.43z" class="B"/><path d="M168.21 240.14s-7.12 3.63-3.44 12.58c0 0 6.02-5.72 3.44-12.58z" class="C"/><path d="M165.26 249.22a19.24 19.24 0 0 1 3-9c.13.07-.77 2-1.6 4.49l-1.4 4.51z" class="B"/><path d="M185.81 160.63s-7.39-7.36-17 .84c0 0 9.49 5.16 17-.84z" class="C"/><path d="M173.34 160.65a9.45 9.45 0 0 1 2.65-.37 63.21 63.21 0 0 1 6.45 0l6.43.54a10.72 10.72 0 0 1 2.63.51 19.94 19.94 0 0 1-2.67-.14l-6.41-.39-6.42-.17a23.28 23.28 0 0 1-2.66.02z" class="B"/><path d="M207.84 160.48s-2.16-12.39 12.58-16.2c0 0-1.42 12.92-12.58 16.2z" class="C"/><path d="M216.48 148.18c.06.06-.73 1-1.88 2.61l-4.28 6.44-4 6.61a28.61 28.61 0 0 1-1.67 2.74 14.23 14.23 0 0 1 1.35-2.92l3.91-6.71 4.43-6.38a12.34 12.34 0 0 1 2.14-2.39z" class="B"/><path d="M211.51 129.21s4.17-11.86 18.89-8c0 .02-7.6 10.58-18.89 8z" class="C"/><path d="M225.05 122.71c0 .08-1.12.5-2.9 1.36l-6.89 3.52-6.75 3.79a26.52 26.52 0 0 1-2.8 1.58 16.17 16.17 0 0 1 2.61-1.89l6.69-3.94 7-3.4a13 13 0 0 1 3.04-1.02z" class="B"/><path d="M157.28 107.07s-1.59-13.47-18-12.85c.01 0 5.52 12.9 18 12.85z" class="C"/><path d="M144.56 97a9.32 9.32 0 0 1 2.12 1.1 44.68 44.68 0 0 1 8.94 7.2 9.45 9.45 0 0 1 1.53 1.83 13.7 13.7 0 0 1-1.79-1.57l-4.31-3.74-4.57-3.41a13.4 13.4 0 0 1-1.92-1.41z" class="B"/><path d="M177.59 96.39s3-12.27-11.6-17c.01-.04.66 13 11.6 17z" class="C"/><path d="M169.7 83.52a7.94 7.94 0 0 1 1.5 1.63 42 42 0 0 1 5.51 9.19 8 8 0 0 1 .73 2.1c-.14.06-1.49-3-3.63-6.6l-4.11-6.32z" class="B"/><path d="M195.35 207.72s8.2 1.65 11-8.09c-.01 0-8.63.76-11 8.09z" class="C"/><path d="M203.67 202.18a14.4 14.4 0 0 1-3.84 3.24 14.24 14.24 0 0 1-4.51 2.2c-.07-.14 1.93-1.14 4.23-2.64l4.12-2.8z" class="B"/><path d="M121.87 236.44s-6 5.82.44 13.63c0 0 4.26-7.53-.44-13.63z" class="C"/><path d="M121.72 246.43a14.27 14.27 0 0 1-.49-5 14.42 14.42 0 0 1 .74-5c.15 0-.16 2.23-.22 5l-.03 5z" class="B"/><path d="M136 233.33s5.12 6.6 13.59 1.06c-.05 0-7.07-5.06-13.59-1.06z" class="C"/><path d="M145.86 234.58a14.73 14.73 0 0 1-5-.06 14.54 14.54 0 0 1-4.86-1.28c0-.15 2.21.4 4.93.76l4.93.58z" class="B"/><path d="M131.82 234.2s-3.31 12.89 11.92 18.13c0 0-.47-13.76-11.92-18.13z" class="C"/><path d="M139.91 247.89a9.7 9.7 0 0 1-1.55-1.76 44.73 44.73 0 0 1-3.13-4.7 44 44 0 0 1-2.51-5.06 8.31 8.31 0 0 1-.74-2.22 12.6 12.6 0 0 1 1.08 2.07l2.62 4.95 3 4.75a11.6 11.6 0 0 1 1.23 1.97z" class="B"/><path d="M98 198.29s-6.26-5.54-13.55 1.47c-.05 0 7.77 3.68 13.55-1.47z" class="C"/><path d="M88 198.89a14.54 14.54 0 0 1 4.94-.86 14.6 14.6 0 0 1 5 .36c0 .16-2.24 0-5 .16l-4.94.34z" class="B"/><path d="M117.35 236.19s-9.89-2.27-14 10.32c-.03 0 10.55-.84 14-10.32z" class="C"/><path d="M106.77 243.24a21.23 21.23 0 0 1 4.92-4.05 21 21 0 0 1 5.7-2.87c.06.14-2.49 1.39-5.41 3.31l-5.21 3.61z" class="B"/><path d="M107.8 226.07s3.29-10.61-7.79-13.57a13.7 13.7 0 0 0 7.79 13.57z" class="C"/><path d="M102 214.74a21.43 21.43 0 0 1 3.46 5.36 21 21 0 0 1 2.19 6c-.15 0-1.09-2.63-2.66-5.76l-2.99-5.6z" class="B"/><path d="M100.75 158.57s-9.32-11.29-20.59-1.23a18 18 0 0 0 20.59 1.23z" class="C"/><path d="M84.08 156.75a10 10 0 0 1 2.46-.18 47.56 47.56 0 0 1 5.94.33 45 45 0 0 1 5.85 1.1 9.64 9.64 0 0 1 2.35.76 15 15 0 0 1-2.43-.4l-5.83-.91-5.89-.48a13.63 13.63 0 0 1-2.45-.22z" class="B"/><path d="M96.68 184.8s3.67-8.89-5.64-12.3a11.84 11.84 0 0 0 5.64 12.3z" class="C"/><path d="M92.59 174.58a23.72 23.72 0 0 1 4 10.22c-.15 0-.77-2.34-1.87-5.15l-2.13-5.07z" class="B"/><path d="M93.47,231S79,224.18,72.55,239.41A19.73,19.73,0,0,0,93.47,231Z" class="C"/><path d="M76.14 237a12 12 0 0 1 2.35-1.32 52.13 52.13 0 0 1 6-2.45 50.13 50.13 0 0 1 6.28-1.7 12.43 12.43 0 0 1 2.67-.37 17.46 17.46 0 0 1-2.59.73l-6.2 1.83-6 2.29a16.59 16.59 0 0 1-2.51.99z" class="B"/><path d="M77.63 223.42s-12.5-3.28-15.38 9.73a15.92 15.92 0 0 0 15.38-9.73z" class="C"/><path d="M64.75 230.71a7.64 7.64 0 0 1 1.66-1.42 41.38 41.38 0 0 1 4.42-2.83 39.45 39.45 0 0 1 4.75-2.24 7.82 7.82 0 0 1 2.08-.65c0 .15-3 1.36-6.58 3.35l-6.33 3.79z" class="B"/><path d="M89 180.23s-9.24-8.94-18.09 1a15.86 15.86 0 0 0 18.09-1z" class="C"/><path d="M74.25 180.27a8.06 8.06 0 0 1 2.12-.42 41 41 0 0 1 5.22-.3 39.08 39.08 0 0 1 5.21.37 8.19 8.19 0 0 1 2.12.45c0 .16-3.29-.29-7.33-.3s-7.32.36-7.34.2z" class="B"/><path d="M85.8 219.62s-4.41-14.08-18.74-9a18.16 18.16 0 0 0 18.74 9z" class="C"/><path d="M70.94 211.59a9.65 9.65 0 0 1 2.36.76 47.65 47.65 0 0 1 5.42 2.57 46.39 46.39 0 0 1 5 3.22 9.74 9.74 0 0 1 1.9 1.6 15.06 15.06 0 0 1-2.11-1.3l-5.1-3.07-5.3-2.68a13.48 13.48 0 0 1-2.17-1.1z" class="B"/><path d="M101.24 234.72s-7.3 2.87-4 10.27a9.66 9.66 0 0 0 4-10.27z" class="C"/><path d="M97.54 242.9a12.61 12.61 0 0 1 1.36-4.3 12.2 12.2 0 0 1 2.41-3.82c.12.09-.91 1.81-1.93 4l-1.84 4.12z" class="B"/><path d="M111.59 201s-7.45-2.43-9.66 5.35a9.67 9.67 0 0 0 9.66-5.35z" class="C"/><path d="M103.53 204.91a12.46 12.46 0 0 1 3.79-2.45 11.9 11.9 0 0 1 4.28-1.41c0 .14-1.84.81-4.06 1.88a43.34 43.34 0 0 1-4.01 1.98z" class="B"/><path d="M165.93 173.12s-4-5.25 1.55-9.2a8.16 8.16 0 0 1-1.55 9.2z" class="C"/><path d="M166.82 165.59a26.79 26.79 0 0 1-.41 3.76 29 29 0 0 1-.4 3.76 9.36 9.36 0 0 1-.12-3.82 9.52 9.52 0 0 1 .93-3.7z" class="B"/><path d="M170.1 180.05s-3.91-8.7 5.21-12.38a11.74 11.74 0 0 1-5.21 12.38z" class="C"/><path d="M173.84 169.78c.13.08-.94 2.27-1.93 5.1l-1.7 5.17a23.42 23.42 0 0 1 3.63-10.27z" class="B"/><path d="M135.82 182.79s-7.45-2.43-9.66 5.35a9.67 9.67 0 0 0 9.66-5.35z" class="C"/><path d="M127.76 186.75a17.84 17.84 0 0 1 8.07-3.87c0 .15-1.84.82-4.06 1.89l-4.01 1.98z" class="B"/><path d="M121.18 226s7.19-3.12 3.68-10.4a9.64 9.64 0 0 0-3.68 10.4z" class="C"/><path d="M124.58 217.66a12.17 12.17 0 0 1-1.2 4.34 12 12 0 0 1-2.27 3.9c-.13-.08.84-1.83 1.79-4.1l1.68-4.14z" class="B"/><path d="M86.57 190.78s-9.6-7-16.47 3.15a14.68 14.68 0 0 0 16.47-3.15z" class="C"/><path d="M73.07 192.68A6.69 6.69 0 0 1 75 192a36.79 36.79 0 0 1 4.75-.94 33.87 33.87 0 0 1 4.83-.31 6.71 6.71 0 0 1 2 .16c0 .16-3.05.17-6.76.67l-6.75 1.1z" class="B"/><path d="M98.3,152s-10.4-2.64-7.25-13.26A13.2,13.2,0,0,1,98.3,152Z" class="C"/><path d="M91.88 141.48c.14-.06 1.32 2.43 3.11 5.28l3.4 5.11a20 20 0 0 1-3.84-4.87 20.53 20.53 0 0 1-2.67-5.52z" class="B"/><path d="M110.77 138.09s-6.52-4.34-10.73 2.56a9.64 9.64 0 0 0 10.73-2.56z" class="C"/><path d="M102 139.74a12.2 12.2 0 0 1 4.3-1.34 12.08 12.08 0 0 1 4.5-.22c0 .15-2 .29-4.41.73l-4.39.83z" class="B"/><path d="M107.35 130.77s-6.53-4.34-10.73 2.57a9.65 9.65 0 0 0 10.73-2.57z" class="C"/><path d="M98.53 132.43a12.42 12.42 0 0 1 4.3-1.35 12.39 12.39 0 0 1 4.51-.22c0 .15-2 .3-4.41.73l-4.4.84z" class="B"/><path d="M127.72 112.62s-.53-7.82-8.57-7a9.66 9.66 0 0 0 8.57 7z" class="C"/><path d="M121 106.63a17.61 17.61 0 0 1 6.6 6c-.11.1-1.44-1.4-3.26-3l-3.34-3z" class="B"/><path d="M149.5,117s-6.52-4.34-10.73,2.57A9.65,9.65,0,0,0,149.5,117Z" class="C"/><path d="M140.69 118.66a17.69 17.69 0 0 1 8.8-1.57 42.52 42.52 0 0 1-4.41.73l-4.39.84z" class="B"/><path d="M163.74 83.36s-8.77-5.23-3-14a12.57 12.57 0 0 1 3 14z" class="C"/><path d="M160.72 72.07c.15 0 .56 2.56 1.42 5.65l1.7 5.57a18.5 18.5 0 0 1-2.2-5.43 18.85 18.85 0 0 1-.92-5.79z" class="B"/><path d="M80.1 208.42s-6.26-4.71-1.15-11a9.66 9.66 0 0 1 1.15 11z" class="C"/><path d="M78.72 199.55c.15 0 .28 2 .68 4.42l.78 4.41a17.91 17.91 0 0 1-1.46-8.83z" class="B"/><path d="M72.71 208.23s2.09-7.25-5.47-9.11a9.3 9.3 0 0 0 5.47 9.11z" class="C"/><path d="M68.64 200.61a12 12 0 0 1 2.49 3.56 11.58 11.58 0 0 1 1.49 4.07c-.14 0-.85-1.74-2-3.83a37.4 37.4 0 0 1-1.98-3.8z" class="B"/><path d="M95,167.48s-8.24-7.33-15.47,1.46A13.59,13.59,0,0,0,95,167.48Z" class="C"/><path d="M82.4 168.05a21.22 21.22 0 0 1 6.27-.92 20.82 20.82 0 0 1 6.32.48c0 .15-2.84-.09-6.31 0l-6.28.44z" class="B"/><path d="M118.31 198.05s-7.65 1.66-5.63 9.49a9.66 9.66 0 0 0 5.63-9.49z" class="C"/><path d="M113.36 205.53a17.66 17.66 0 0 1 5-7.41c.11.1-1.18 1.63-2.55 3.68l-2.45 3.73z" class="B"/><path d="M134.29 206.38s-1.27 7.74 6.75 8.73a9.66 9.66 0 0 0-6.75-8.73z" class="C"/><path d="M139.42 213.74a12.48 12.48 0 0 1-3-3.37 12.15 12.15 0 0 1-2.05-4c.13-.07 1.08 1.69 2.48 3.72l2.57 3.65z" class="B"/><path d="M124.36 200.39s-5 11.53 7.09 16.21a15.5 15.5 0 0 0-7.09-16.21z" class="C"/><path d="M129.46 213.84a8 8 0 0 1-1.12-1.8 40.2 40.2 0 0 1-3.53-9.56 7.84 7.84 0 0 1-.31-2.1c.16 0 .88 3.11 2.26 6.81l2.7 6.65z" class="B"/><path d="M97.86 220.76s1.76-11.85-13.44-15.57c0 0 1.97 12.38 13.44 15.57z" class="C"/><path d="M88.59 209a8.42 8.42 0 0 1 1.67 1.45 41.64 41.64 0 0 1 6.49 8.43 8.08 8.08 0 0 1 1 2c-.14.08-1.83-2.82-4.36-6.09l-4.8-5.79z" class="B"/><path d="M162.43 221.4s2.64-9.1-8.08-13.17c0 0 .03 9.77 8.08 13.17z" class="C"/><path d="M157 211.48a24.34 24.34 0 0 1 5.35 10c-.15 0-1.07-2.31-2.55-5l-2.8-5z" class="B"/><path d="M168.14 199.55s-8-5-14.88 4.18c0 0 9.44 2.64 14.88-4.18z" class="C"/><path d="M157.1 202.09a17.49 17.49 0 0 1 5.38-1.86 17.68 17.68 0 0 1 5.65-.57c0 .16-2.51.4-5.54 1.08l-5.49 1.35z" class="B"/><path d="M113.4 225.33s-5.39-10.26 6.47-17.76c0 0 2.35 11.76-6.47 17.76z" class="C"/><path d="M117.51 212.11c.15.06-1.12 2.9-2.2 6.55l-1.77 6.68a7.57 7.57 0 0 1 .17-2 35.25 35.25 0 0 1 1.1-4.79 34.85 34.85 0 0 1 1.72-4.61 7.1 7.1 0 0 1 .98-1.83z" class="B"/><path d="M102.67 196.07s-1.3-11.58-15.39-11.14c0 0 4.66 11.07 15.39 11.14z" class="C"/><path d="M91.8 187.38a7.14 7.14 0 0 1 1.82.93 38 38 0 0 1 4 2.87 36.1 36.1 0 0 1 3.62 3.37 7.16 7.16 0 0 1 1.28 1.6c-.11.11-2.25-2.15-5.23-4.57l-5.49-4.2z" class="B"/><path d="M118.25 162.43s-1.5-12.88-17.18-12.32c0 0 5.24 12.35 17.18 12.32z" class="C"/><path d="M106.1 152.82a8.56 8.56 0 0 1 2 1 42.66 42.66 0 0 1 4.5 3.18 41.94 41.94 0 0 1 4.05 3.73 8.47 8.47 0 0 1 1.45 1.76c-.12.1-2.51-2.41-5.83-5.09l-6.17-4.58zm71.58 47.8l-13.97-8.54-18.03-.97v1.28l17.08 1.52 11.99 8.27 5.36 6.77-2.43-8.33z" class="B"/><path d="M323.09 210.13s11.55 5.26 6.32 19.71c0 0-9.93-8.59-6.32-19.71z" class="C"/><g class="B"><path d="M328.4 224.33c-.15 0-.95-3.26-2.46-7.15l-3-7a7.86 7.86 0 0 1 1.2 1.88 38.27 38.27 0 0 1 2.26 4.89 39.26 39.26 0 0 1 1.61 5.14 8 8 0 0 1 .39 2.24z"/><path d="M325.44,221.26a11.33,11.33,0,0,1-.2-3.1,11.54,11.54,0,0,1,.12-3.11,13.57,13.57,0,0,1,.08,6.21Z"/></g><path d="M317.2 203.69s1 13.21-14.87 15.65c0 0 2.89-13.34 14.87-15.65z" class="C"/><path d="M306.86 215.66c-.1-.11 2.52-2.49 5.33-5.82l4.87-6.22a9.18 9.18 0 0 1-1.12 2 44.64 44.64 0 0 1-3.35 4.51 42.22 42.22 0 0 1-3.9 4.05 9.11 9.11 0 0 1-1.83 1.48z" class="B"/><path d="M281.66 219.32s11.89-5.83 20.08 8c0-.05-13.5 2.27-20.08-8z" class="C"/><path d="M296.63 224.43c-.07.15-3.26-1.4-7.39-2.76l-7.59-2.19a8.45 8.45 0 0 1 2.31.28 42.3 42.3 0 0 1 5.44 1.42 42.8 42.8 0 0 1 5.21 2.1 9 9 0 0 1 2.02 1.15z" class="B"/><path d="M285.62 176s2.91-11.35 16.89-8.94c0-.06-6.2 10.38-16.89 8.94z" class="C"/><path d="M297.67 168.83c.06.15-2.81 1.41-6.1 3.41l-5.85 3.82a7 7 0 0 1 1.5-1.41 38.68 38.68 0 0 1 4.08-2.85 36.73 36.73 0 0 1 4.42-2.29 7.5 7.5 0 0 1 1.95-.68z" class="B"/><path d="M363.65 161.65s1.29 11 14.65 10.46c0 0-4.49-10.5-14.65-10.46z" class="C"/><path d="M374 169.82a7.35 7.35 0 0 1-2-1.12 39.94 39.94 0 0 1-4.27-3.49l-3.86-3.92a9.46 9.46 0 0 1-1.43-1.78c.12-.11 2.52 2.4 5.65 5.31l4.13 3.58a17.3 17.3 0 0 1 1.78 1.42z" class="B"/><path d="M375.11 177.39s10.45-3.55 15.75 8.72c0 0-11.41.47-15.75-8.72z" class="C"/><path d="M386.94 183.22c-.09.13-2.57-1.47-5.84-3l-6-2.66a5.93 5.93 0 0 1 1.9.44 34.61 34.61 0 0 1 4.36 1.74 35.06 35.06 0 0 1 4.08 2.31 6.44 6.44 0 0 1 1.5 1.17z" class="B"/><path d="M380.28 172.05s6.26-9.9 18.81-3.31c0 0-9.09 8-18.81 3.31z" class="C"/><path d="M393.93 169c0 .15-3.1.48-6.84 1.37l-6.74 1.83a7.17 7.17 0 0 1 1.86-.88 37.59 37.59 0 0 1 4.76-1.46 38.23 38.23 0 0 1 4.9-.82 7.2 7.2 0 0 1 2.06-.04z" class="B"/><path d="M363 134.51s9.25-4.44 15.51 6.29c0 0-10.51 1.72-15.51-6.29z" class="C"/><path d="M374.57 138.58c-.07.13-2.54-1.06-5.74-2.14l-5.85-1.8a20 20 0 0 1 6 1.31 19.67 19.67 0 0 1 5.59 2.63z" class="B"/><path d="M364 128.09s-10.18.56-11.84-11.66c-.02 0 10.24 2.41 11.84 11.66z" class="C"/><path d="M354.91 120c.12-.1 1.93 1.93 4.45 4.14l4.68 3.87a19.63 19.63 0 0 1-5-3.48 19.83 19.83 0 0 1-4.13-4.53z" class="B"/><path d="M367.87 107.45s8.29-10.25-3.27-21.26c0 0-5.25 12.59 3.27 21.26z" class="C"/><path d="M366.22 91.78a8.76 8.76 0 0 1 .67 2.22 42.27 42.27 0 0 1 .89 5.52 43.72 43.72 0 0 1 .17 5.6 8.72 8.72 0 0 1-.25 2.31c-.15 0 0-3.54-.44-7.86l-1.04-7.79z" class="B"/><path d="M334.35 108.39s-6.49-8 2.47-16.56c0 0 4.18 9.78-2.47 16.56z" class="C"/><path d="M335.58 96.18c.15 0-.43 2.72-.73 6.08l-.38 6.11a20.38 20.38 0 0 1-.14-6.16 20.19 20.19 0 0 1 1.25-6.03z" class="B"/><path d="M291.28 85s-1-9.2 10-11.33c-.03-.01-1.69 9.42-10 11.33z" class="C"/><path d="M298.18 76.35c.11.11-1.64 1.87-3.5 4.26l-3.3 4.43a17.11 17.11 0 0 1 2.89-4.75 17 17 0 0 1 3.91-3.94z" class="B"/><path d="M308.06 78.47s-5.3-7.59 3.34-14.72c0 0 3.05 9.08-3.34 14.72z" class="C"/><path d="M310 67.58c.15 0-.54 2.42-1 5.42l-.78 5.46a17.14 17.14 0 0 1 .27-5.55 17.2 17.2 0 0 1 1.51-5.33z" class="B"/><path d="M271.92 107.62s-2.4-11.1 10.76-15.08c0 0-.85 11.72-10.76 15.08z" class="C"/><path d="M279.27 96.21c.12.1-1.81 2.45-3.8 5.61l-3.41 5.85a6.17 6.17 0 0 1 .68-1.88 35.44 35.44 0 0 1 2.29-4.25 36.12 36.12 0 0 1 2.84-3.9 7.08 7.08 0 0 1 1.4-1.43z" class="B"/><path d="M317.11 84.48s-6-8.43 7.48-21.64c0 0 2.58 11.36-7.48 21.64z" class="C"/><path d="M321.88 68.68a11.92 11.92 0 0 1-.73 2.3l-1.79 5.51-1.48 5.6a12.24 12.24 0 0 1-.61 2.33 10.43 10.43 0 0 1 .25-2.4 49.22 49.22 0 0 1 1.34-5.68 52.51 52.51 0 0 1 1.95-5.5 9.84 9.84 0 0 1 1.07-2.16z" class="B"/><path d="M344.43 106.78s5.21-7.07 14.25-1.48c0 0-7.23 5.51-14.25 1.48z" class="C"/><path d="M354.81 105.2c0 .16-2.35.26-5.19.73l-5.15.95a22.16 22.16 0 0 1 10.34-1.68z" class="B"/><path d="M336.74 78.19s9-8.35 20 1.72c-.03 0-11.42 5.66-20-1.72z" class="C"/><path d="M351.42 78.75c0 .16-3.28-.36-7.32-.47s-7.31.22-7.33.06a7.43 7.43 0 0 1 2.13-.34 39.47 39.47 0 0 1 10.41.29 7.74 7.74 0 0 1 2.11.46z" class="B"/><path d="M329.88 89s5.2-7.07 14.25-1.48c0-.03-7.24 5.48-14.25 1.48z" class="C"/><path d="M340.26 87.39c0 .16-2.35.26-5.19.73l-5.15.95a22.1 22.1 0 0 1 10.34-1.68z" class="B"/><path d="M325.58 97.34s6 6.42-1.18 14.28c0 0-4.07-8.13 1.18-14.28z" class="C"/><path d="M325.21 107.83c-.15 0 .18-2.35.25-5.23v-5.24a15.83 15.83 0 0 1 .5 5.25 15.77 15.77 0 0 1-.75 5.22z" class="B"/><path d="M319.36 97.92s3.59 8-5.74 13.13c0 0-1.22-9.05 5.74-13.13z" class="C"/><path d="M315.62 107.73c-.14-.08.93-2.17 1.92-4.88l1.71-4.95A15.9 15.9 0 0 1 318 103a15.83 15.83 0 0 1-2.38 4.73z" class="B"/><path d="M387 163.17s5.56-7.54 15.2-1.57c.03 0-7.69 5.87-15.2 1.57z" class="C"/><path d="M398.1 161.49c0 .15-2.5.26-5.54.76l-5.49 1a23.86 23.86 0 0 1 11-1.79z" class="B"/><path d="M371.62 156.55s-.82-8.92 9.87-10.78c0 0-1.79 9.1-9.87 10.78z" class="C"/><path d="M378.47 148.32c.1.11-1.62 1.78-3.47 4.06l-3.28 4.22a22.73 22.73 0 0 1 6.75-8.28z" class="B"/><path d="M308.81 137.44S307 129 317 125.9c0 0-.63 8.95-8.19 11.54z" class="C"/><path d="M314.4 128.71c.11.1-1.33 1.91-2.84 4.32l-2.65 4.44a15.57 15.57 0 0 1 2.21-4.72 15.16 15.16 0 0 1 3.28-4.04z" class="B"/><path d="M336.78 114.9s6.74-2.12 10 5.81c-.05 0-7.36.13-10-5.81z" class="C"/><path d="M344.26 118.81a8.86 8.86 0 0 1-1.53-.73l-3.68-1.73-5.26-2.4a22 22 0 0 1 5.47 1.92 33.09 33.09 0 0 1 3.65 1.89c.9.55 1.39.99 1.35 1.05z" class="B"/><path d="M355 136.15s.88-5.59-5.78-7.21c.03 0 .78 5.81 5.78 7.21z" class="C"/><path d="M351.05 130.67c.12-.12 1.6 1.41 3 3.6a15.07 15.07 0 0 1 2.12 4.14 34.23 34.23 0 0 1-2.56-3.86l-2.56-3.88z" class="B"/><path d="M330.25 117s6.67-.17 7.53 7.87c0 .04-6.68-1.74-7.53-7.87z" class="C"/><path d="M336 122.54c-.1.08-1.64-1.59-3.71-3.49l-3.75-3.46a15.36 15.36 0 0 1 4.1 3.07c2.12 1.92 3.52 3.78 3.36 3.88z" class="B"/><path d="M311.77 97.05s.9 6.81-7.23 8.54c0 0 1.1-7.01 7.23-8.54z" class="C"/><path d="M306.78 103.56a34.85 34.85 0 0 1 2.48-3.25A34.81 34.81 0 0 1 311.7 97a10.77 10.77 0 0 1-2 3.6 10.89 10.89 0 0 1-2.92 2.96z" class="B"/><path d="M305.29 122.31s-6.68-2.9-3.83-11.24c0 0 5.79 4.82 3.83 11.24z" class="C"/><path d="M302.1 114.21c.15 0 .68 1.84 1.59 4l1.67 4a11.68 11.68 0 0 1-2.16-3.8 11.44 11.44 0 0 1-1.1-4.2z" class="B"/><path d="M305.19 88.83S310.91 85 316 91.58c0 0-6.74 2.09-10.81-2.75z" class="C"/><path d="M313.23 90.46a33.64 33.64 0 0 1-4-.8 37.76 37.76 0 0 1-4-.74 10.48 10.48 0 0 1 4.12.23 10.87 10.87 0 0 1 3.88 1.31z" class="B"/><path d="M315.94 66s-5.9-3.52-2.23-11c0 0 4.82 5.21 2.23 11z" class="C"/><path d="M313.92 58a35.79 35.79 0 0 1 1 4 37.61 37.61 0 0 1 1.07 4 10.69 10.69 0 0 1-1.58-3.82 10.73 10.73 0 0 1-.49-4.18z" class="B"/><path d="M295.63 90.56s-.21-6.86 8-7.79c.04 0-1.75 6.87-8 7.79z" class="C"/><path d="M301.24 84.58a34.72 34.72 0 0 1-2.79 3 35 35 0 0 1-2.75 3 10.72 10.72 0 0 1 2.37-3.39 10.6 10.6 0 0 1 3.17-2.61z" class="B"/><path d="M291.78 103.86s2.73-4.13 8-1.23c-.03 0-3.94 3.29-8 1.23z" class="C"/><path d="M297.57 102.68a14.16 14.16 0 0 1-2.87.66 13.86 13.86 0 0 1-2.89.57 6.27 6.27 0 0 1 2.78-1.08 6.13 6.13 0 0 1 2.98-.15z" class="B"/><path d="M284.63 83.72s-8.17-8.33 1.09-19c0 0 5.68 10.66-1.09 19z" class="C"/><path d="M284.77 69.78c.15 0-.24 3.12-.24 7l.24 7a7.18 7.18 0 0 1-.43-2 37.84 37.84 0 0 1-.33-5 36.12 36.12 0 0 1 .33-4.94 7.06 7.06 0 0 1 .43-2.06z" class="B"/><path d="M261.73 72s4.12-8.4 14.66-4.26c0-.03-6.54 7.12-14.66 4.26z" class="C"/><path d="M272.31 68.34c0 .15-2.41.7-5.3 1.74l-5.21 2a17 17 0 0 1 5-2.48 17.53 17.53 0 0 1 5.51-1.26z" class="B"/><path d="M340.8 111s6.29-2.74 10.21 4.59c-.01-.05-7.01.83-10.21-4.59z" class="C"/><path d="M348.43,114a36.69,36.69,0,0,1-3.81-1.49,35.12,35.12,0,0,1-3.83-1.43,15.54,15.54,0,0,1,7.64,2.92Z" class="B"/><path d="M363.57 143.53s5.83-3.76 10.92 2.91c0 0-6.88 2.03-10.92-2.91z" class="C"/><path d="M371.66 145.28a40.25 40.25 0 0 1-4-.87 37 37 0 0 1-4.05-.8 11 11 0 0 1 4.16.29 10.51 10.51 0 0 1 3.89 1.38z" class="B"/><path d="M267.28 117.67s1.38-6.72 9.62-5.71c0 .04-3.32 6.27-9.62 5.71z" class="C"/><path d="M274.13,113.15a35.52,35.52,0,0,1-3.41,2.27,36,36,0,0,1-3.38,2.31,15.47,15.47,0,0,1,6.79-4.58Z" class="B"/><path d="M342.05 165.81s9.49-2.57 13.51 8.63c0 0-10.16-.22-13.51-8.63z" class="C"/><path d="M352.24 171.65c-.09.13-2.21-1.43-5-3l-5.19-2.72a18.44 18.44 0 0 1 5.44 2.27 18.63 18.63 0 0 1 4.75 3.45z" class="B"/><path d="M348.24 157.3s1.64-7.16 10.44-5.89c0 0-3.68 6.59-10.44 5.89z" class="C"/><path d="M355.68 152.63c.06.13-1.69 1-3.71 2.32a42.8 42.8 0 0 1-3.66 2.41 12.1 12.1 0 0 1 3.37-2.85 11.78 11.78 0 0 1 4-1.88z" class="B"/><path d="M341.8 145.24s9-5.49 3.29-16.92c0 0-7.37 8.08-3.29 16.92z" class="C"/><path d="M344.79 133a20.73 20.73 0 0 1-.86 6.28 21.25 21.25 0 0 1-2.25 5.93c-.14-.06.89-2.7 1.74-6.06l1.37-6.15z" class="B"/><path d="M379.72 133.13s8.63 1 8.24 11.53c.04 0-8.27-3.53-8.24-11.53z" class="C"/><path d="M386.15 141.28c-.13.08-1.37-1.88-3.16-4.1l-3.34-4a21.64 21.64 0 0 1 6.5 8.07z" class="B"/><path d="M373.75 120.54s-3.83-9.54 7.25-15.07c0 0 1.06 10.53-7.25 15.07z" class="C"/><path d="M378.56 109.26c.13.08-1.22 2.47-2.51 5.59l-2.18 5.72a19.82 19.82 0 0 1 1.7-5.92 19.88 19.88 0 0 1 2.99-5.39z" class="B"/><path d="M379.92 119.59s0-8.7 10.47-9.57c0-.02-2.51 8.64-10.47 9.57z" class="C"/><path d="M387.25 112.22c.09.12-1.71 1.59-3.7 3.63l-3.54 3.79a15.77 15.77 0 0 1 3.17-4.15 15.6 15.6 0 0 1 4.07-3.27z" class="B"/><path d="M364.29 120.15s-7.33-4.69-2.38-14c0 .01 5.91 6.85 2.38 14z" class="C"/><path d="M362.06 110c.15 0 .41 2.3 1.06 5.08l1.27 5a15.7 15.7 0 0 1-1.78-4.91 15.26 15.26 0 0 1-.55-5.17z" class="B"/><path d="M385.51 121s5.35-6.87 14.15-1.08c0 0-7.31 5.25-14.15 1.08z" class="C"/><path d="M395.83 119.72c0 .15-2.33.19-5.15.58l-5.13.8a21.49 21.49 0 0 1 10.28-1.38z" class="B"/><path d="M369.65 128s6.22-6.09 14.16.82c0 .03-7.94 4.26-14.16-.82z" class="C"/><path d="M380 128.14c0 .15-2.33-.12-5.18-.11l-5.19.1a15.83 15.83 0 0 1 5.19-.63 15.51 15.51 0 0 1 5.18.64z" class="B"/><path d="M309.36 154.81s7.35-5.63 14.86 2.69c0 0-8.94 3.5-14.86-2.69z" class="C"/><path d="M320.33 156.26c0 .15-2.45-.44-5.46-.8l-5.5-.53a16.73 16.73 0 0 1 5.56 0 17.1 17.1 0 0 1 5.4 1.33z" class="B"/><path d="M299.44 138.81s-4.16-7-13-2.65c-.01 0 6.17 5.73 13 2.65z" class="C"/><path d="M290 136.42a19.63 19.63 0 0 1 9.39 2.48c-.06.14-2.09-.65-4.67-1.33l-4.72-1.15z" class="B"/><path d="M290.54 118.77s-4.62-6.19-12.53-1.22c-.01 0 6.39 4.79 12.53 1.22z" class="C"/><path d="M281.41 117.44a12.68 12.68 0 0 1 4.64.12 13.32 13.32 0 0 1 4.46 1.29c-.05.15-2-.39-4.54-.77l-4.56-.64z" class="B"/><path d="M257.11 146.66s5-5.88-1.58-12.5c0 0-3.27 7.3 1.58 12.5z" class="C"/><path d="M256.39 137.46a12.83 12.83 0 0 1 .9 4.55 13 13 0 0 1-.27 4.63c-.15 0-.07-2.07-.25-4.6l-.38-4.58z" class="B"/><path d="M256.16 129.42s9 6.22 17.43-4.07c0 0-10.78-3.55-17.43 4.07z" class="C"/><path d="M269.06 127a21.89 21.89 0 0 1-6.32 1.84 22.29 22.29 0 0 1-6.57.4c0-.15 2.93-.29 6.48-.91l6.41-1.33z" class="B"/><path d="M240.82 106.86S239.3 96 252.27 93.11c0 0-1.67 11.23-11.45 13.75z" class="C"/><path d="M248.72 96.4a13.46 13.46 0 0 1-1.35 1.73l-3.26 4.15-3 4.32a11.17 11.17 0 0 1-1.26 1.8 7.75 7.75 0 0 1 .94-2 48.17 48.17 0 0 1 6.31-8.53 7.45 7.45 0 0 1 1.62-1.47z" class="B"/><path d="M258.51 68.17s-3.38-13.87 13-19.3c.02 0-.66 14.75-13 19.3z" class="C"/><path d="M267.37 53.59a14.72 14.72 0 0 1-1.37 2.09l-3.26 5-2.88 5.28a14.72 14.72 0 0 1-1.17 2.21 10.22 10.22 0 0 1 .84-2.36 47.33 47.33 0 0 1 2.76-5.4 46.77 46.77 0 0 1 3.42-5 10.31 10.31 0 0 1 1.66-1.82z" class="B"/><path d="M259 118.39s-7.07-3.15-3.95-12c.01.01 6.1 5.21 3.95 12z" class="C"/><path d="M255.7 109.76c.15 0 .69 2 1.63 4.31l1.75 4.27a13.19 13.19 0 0 1-2.24-4.08 12.71 12.71 0 0 1-1.14-4.5z" class="B"/><path d="M237.08 92.18s1.52-7.59 10.83-6.48c0 0-3.73 7.09-10.83 6.48z" class="C"/><path d="M244.78 87.06a8.59 8.59 0 0 1-1.53 1l-3.69 2.43-3.62 2.55a8.24 8.24 0 0 1-1.52 1c-.12-.12 2-2.07 4.85-4s5.44-3.13 5.51-2.98z" class="B"/><path d="M258.07 78.56s-8.07-8.65-19.29.24c0 0 10.53 6.2 19.29-.24z" class="C"/><path d="M243.94 78.07a10 10 0 0 1 2.74-.31 61.55 61.55 0 0 1 6.65.17l6.6.78a12.59 12.59 0 0 1 2.69.61 16.94 16.94 0 0 1-2.74-.25l-6.59-.62-6.6-.32c-1.69-.02-2.69.01-2.75-.06z" class="B"/><path d="M254.76 59.83s-4.88-6 1.89-12.48c0 0 3.09 7.39-1.89 12.48z" class="C"/><path d="M255.71 50.63c.15 0-.27 2.06-.5 4.59l-.36 4.6a13.17 13.17 0 0 1-.16-4.65 12.91 12.91 0 0 1 1.02-4.54z" class="B"/><path d="M292.51 72S289.57 59 305 54.2c0 0-.88 13.8-12.49 17.8z" class="C"/><path d="M301 58.55a13.69 13.69 0 0 1-1.32 1.93l-3.13 4.67-2.78 4.89a11.48 11.48 0 0 1-1.15 2 9.55 9.55 0 0 1 .82-2.2 43.63 43.63 0 0 1 2.67-5 42.4 42.4 0 0 1 3.28-4.62 8.62 8.62 0 0 1 1.61-1.67z" class="B"/><path d="M264.41 103.82s3.81-14.33-13.11-20.32c0 0 .39 15.33 13.11 20.32z" class="C"/><path d="M255.52 88.49a14.59 14.59 0 0 1 2 2.53c1.16 1.63 2.65 4 4.16 6.62a77.09 77.09 0 0 1 3.54 7 14.65 14.65 0 0 1 1.12 3 29.77 29.77 0 0 1-1.45-2.89l-3.66-6.88-4-6.68a30.34 30.34 0 0 1-1.71-2.7z" class="B"/><path d="M250.91 69.61s3.39-14.44-13.7-19.93c0 0 .85 15.32 13.7 19.93z" class="C"/><path d="M241.58 54.54a11.38 11.38 0 0 1 1.75 1.94 49.46 49.46 0 0 1 3.59 5.16 50.93 50.93 0 0 1 2.92 5.58 11.23 11.23 0 0 1 .9 2.45 16.27 16.27 0 0 1-1.24-2.29l-3-5.47c-1.24-2.09-2.5-3.91-3.5-5.21a15.62 15.62 0 0 1-1.42-2.16z" class="B"/><path d="M299.91 177.9s3.21-7.48 12.55-4.34c0 0-5.37 6.49-12.55 4.34z" class="C"/><path d="M309 174.29c0 .15-2.06.74-4.52 1.76l-4.46 1.93a14.06 14.06 0 0 1 4.26-2.41 13.89 13.89 0 0 1 4.72-1.28z" class="B"/><path d="M268.36 186.56s-3.36-15.37 14.85-20.91c0 0-1.15 16.23-14.85 20.91z" class="C"/><path d="M278.5 170.74a17.8 17.8 0 0 1-1.59 2.25l-3.73 5.47-3.3 5.75a19 19 0 0 1-1.34 2.41 12 12 0 0 1 1-2.58 52.85 52.85 0 0 1 7.07-11.27 12.51 12.51 0 0 1 1.89-2.03z" class="B"/><path d="M260.41 154.63s-2.81-12 11.36-16.54c0 0-.7 12.71-11.36 16.54z" class="C"/><path d="M268.15 142.13c.12.1-1.93 2.67-4 6.14l-3.58 6.41a7.86 7.86 0 0 1 .72-2.05 41.54 41.54 0 0 1 2.41-4.63 38.8 38.8 0 0 1 3-4.28 8.28 8.28 0 0 1 1.45-1.59z" class="B"/><path d="M353.75 160.29s.77 6.56 8.77 6.26c0 0-2.69-6.29-8.77-6.26z" class="C"/><path d="M360 165.18a10 10 0 0 1-3.41-2.05 10.11 10.11 0 0 1-2.73-2.89 32.79 32.79 0 0 1 3.06 2.48 33 33 0 0 1 3.08 2.46z" class="B"/><path d="M394.44 185.69s-3.86-6.3 3.37-11.56c0 0 1.98 7.38-3.37 11.56z" class="C"/><path d="M396.5 177.11c.14.06-.5 1.92-1 4.28l-.93 4.3a12 12 0 0 1 .42-4.42 12.16 12.16 0 0 1 1.51-4.16z" class="B"/><path d="M350.24 180.74s5.05-6 12.72-.44c.04 0-6.74 4.44-12.72.44z" class="C"/><path d="M359.54 180a12.47 12.47 0 0 1-2 .2l-4.67.51-4.67.63a9.52 9.52 0 0 1-1.94.22c0-.16 2.87-.92 6.54-1.37a40.77 40.77 0 0 1 4.73-.36 5.59 5.59 0 0 1 2.01.17z" class="B"/><path d="M322.92 196.53s.89-6.09 8.32-5.6c0 0-2.66 5.78-8.32 5.6z" class="C"/><path d="M328.81 192.14a12.35 12.35 0 0 1-1.46 1.23l-3.47 3-4.95 4.24a29.49 29.49 0 0 1 4.6-4.63l3.6-2.9a4.77 4.77 0 0 1 1.68-.94z" class="B"/><path d="M322 187.92s4-2.77 1-7.87c0 0-3.15 3.95-1 7.87z" class="C"/><path d="M323 182.2a3.22 3.22 0 0 1 0 1.52 34.39 34.39 0 0 1-.78 3.58 19.77 19.77 0 0 1-1.71 4.87 36.83 36.83 0 0 1 1.21-5l.92-3.51a7.27 7.27 0 0 1 .36-1.46z" class="B"/><path d="M270.31 90.38s-1.35-6 5.76-8.22c0 0-.41 6.35-5.76 8.22z" class="C"/><path d="M274.24 84.16a14.92 14.92 0 0 1-.93 1.67l-2.17 4A61.69 61.69 0 0 1 268 95.6a30.42 30.42 0 0 1 2.64-6l2.32-4a4.77 4.77 0 0 1 1.28-1.44z" class="B"/><path d="M277.34 145s-1.41-6 5.68-8.26c-.02.04-.35 6.39-5.68 8.26z" class="C"/><path d="M281.2 138.8a14.09 14.09 0 0 1-.9 1.67l-2.13 4.07-3.05 5.75a30.34 30.34 0 0 1 2.58-6l2.28-4c.65-1 1.17-1.54 1.22-1.49z" class="B"/><path d="M317.38 118s5.87-1.84 8.67 5.06c0-.06-6.37.08-8.67-5.06z" class="C"/><path d="M323.9 121.36a12.78 12.78 0 0 1-1.74-.78l-4.21-1.83a62.77 62.77 0 0 1-6-2.61 30.11 30.11 0 0 1 6.17 2.14l4.18 2a4.94 4.94 0 0 1 1.6 1.08z" class="B"/><path d="M356.63 190.55s7.09-8.56 18.1-.83c0 0-9.54 6.42-18.1.83z" class="C"/><path d="M369.85 189.31c0 .16-3 .09-6.61.47l-6.57.9a6.44 6.44 0 0 1 1.86-.62 36.65 36.65 0 0 1 4.65-.8 37.36 37.36 0 0 1 4.72-.17 6.56 6.56 0 0 1 1.95.22z" class="B"/><path d="M346.75 200.55s-7.31 2.74-4.7 11.82c0 0 6.45-4.85 4.7-11.82z" class="C"/><path d="M342.9 209a12.87 12.87 0 0 1 1.42-4.47 13.43 13.43 0 0 1 2.5-4c.13.09-.95 1.87-2 4.19L342.9 209z" class="B"/><path d="M281.93 211.24s4.95-7.61 14.61-2.38c0 0-7.13 6.14-14.61 2.38z" class="C"/><path d="M292.54 209c0 .16-2.4.4-5.31 1l-5.25 1.3a22.82 22.82 0 0 1 10.56-2.3z" class="B"/><path d="M325.4 177.84s11.62-4 17.56 9.65c.04 0-12.7.57-17.56-9.65z" class="C"/><path d="M338.58 184.29c-.08.14-2.84-1.65-6.49-3.38l-6.73-2.92a8.23 8.23 0 0 1 2.11.51 40.77 40.77 0 0 1 9.39 4.48 8 8 0 0 1 1.72 1.31z" class="B"/><path d="M309.7 183.28s2-7.73 11.55-6.05c0 0-4.25 7.09-11.55 6.05z" class="C"/><path d="M317.94 178.45c.06.14-1.88 1-4.12 2.38l-4.05 2.52a19.39 19.39 0 0 1 8.17-4.9z" class="B"/><path d="M307.4 151.21s3.48-9.84 15.69-6.6c0 0-6.33 8.75-15.69 6.6z" class="C"/><path d="M318.65 145.83a22.08 22.08 0 0 1-2.4 1.15l-5.71 2.93-5.62 3.12a17.8 17.8 0 0 1-2.34 1.28 10.76 10.76 0 0 1 2.15-1.59c1.38-.91 3.34-2.07 5.56-3.27a63.37 63.37 0 0 1 5.81-2.81 9.42 9.42 0 0 1 2.55-.81z" class="B"/><path d="M255.92 163.43s5.51-11.3-7.59-19.05c0 0-2.18 12.83 7.59 19.05z" class="C"/><path d="M251 149.23a12.48 12.48 0 0 1 1.42 2.89c.76 1.84 1.63 4.45 2.49 7.36l1.9 7.53a15.5 15.5 0 0 1 .48 3.18 29.26 29.26 0 0 1-.84-3.1l-2-7.46-2.33-7.38-1.12-3.02z" class="B"/><path d="M298 131.23s-4.16-11.86-18.88-8c-.05.01 7.55 10.57 18.88 8z" class="C"/><path d="M284.41 124.73a12 12 0 0 1 3.06 1c1.84.76 4.31 2 7 3.41l6.7 3.93a15.65 15.65 0 0 1 2.61 1.9 27.64 27.64 0 0 1-2.8-1.58l-6.75-3.79-6.89-3.53-2.93-1.34z" class="B"/><path d="M347.77 99.71s-1.66-11.93 12.57-15.1c0 0-1.83 12.33-12.57 15.1z" class="C"/><path d="M356.45 88.23c.11.11-2.13 2.43-4.48 5.62l-4.06 5.92a7.28 7.28 0 0 1 .88-1.93 38.7 38.7 0 0 1 2.76-4.3 38.22 38.22 0 0 1 3.31-3.91 7.39 7.39 0 0 1 1.59-1.4z" class="B"/><path d="M321.75 92.66s-3-12.27 11.6-17c0-.04-.66 13.01-11.6 17z" class="C"/><path d="M329.64 79.79c.12.1-2 2.75-4.11 6.32l-3.63 6.6a7.71 7.71 0 0 1 .73-2.1 40.93 40.93 0 0 1 2.46-4.77 39.16 39.16 0 0 1 3.05-4.41 7.86 7.86 0 0 1 1.5-1.64z" class="B"/><path d="M289.21 196.2S299 187.92 310 199c0 0-12.19 5.32-20.79-2.8z" class="C"/><path d="M304.5 197.5c0 .16-3.4-.55-7.61-.86l-7.65-.29a8.63 8.63 0 0 1 2.24-.28 42.35 42.35 0 0 1 10.85.82 9 9 0 0 1 2.17.61z" class="B"/><path d="M374.56 213.78s6 5.82-.44 13.62c0 0-4.25-7.52.44-13.62z" class="C"/><path d="M374.72 223.77c-.16 0 0-2.25 0-5l-.22-5a20.52 20.52 0 0 1 .25 10z" class="B"/><path d="M350.55 208.5s5.79 6-.93 13.6c0 0-3.98-7.68.93-13.6z" class="C"/><path d="M350.34 218.49c-.15 0 .13-2.25.15-5v-5a14.56 14.56 0 0 1 .56 5 14.27 14.27 0 0 1-.71 5z" class="B"/><path d="M356.7 213.27s13.21 1.56 12.61 17.66c0 0-12.66-5.41-12.61-17.66z" class="C"/><path d="M366.54 225.76a13.89 13.89 0 0 1-1.38-1.88l-3.35-4.49-3.67-4.24a11.89 11.89 0 0 1-1.54-1.75 9 9 0 0 1 1.8 1.5 42.09 42.09 0 0 1 3.81 4.16 42.9 42.9 0 0 1 3.26 4.62 8.69 8.69 0 0 1 1.07 2.08z" class="B"/><path d="M401.89 193.17s6.25-5.55 13.55 1.46c0 0-7.82 3.68-13.55-1.46z" class="C"/><path d="M411.86 193.77c0 .15-2.23-.22-5-.35s-5 0-5-.15a14.41 14.41 0 0 1 5-.37 14.7 14.7 0 0 1 5 .87z" class="B"/><path d="M383.86 223.87s9.89-2.28 14 10.31c.03 0-10.55-.84-14-10.31z" class="C"/><path d="M394.45 230.92c-.11.11-2.29-1.72-5.22-3.62l-5.41-3.31a28.76 28.76 0 0 1 10.63 6.93z" class="B"/><path d="M393.15 203.18s3.75-8.71 12.57-4.49a11.67 11.67 0 0 1-12.57 4.49z" class="C"/><path d="M403.18 199c0 .15-2.28.84-5 2l-4.93 2.23a16.6 16.6 0 0 1 4.72-2.71 16.77 16.77 0 0 1 5.21-1.52z" class="B"/><path d="M399.09 153.45s9.32-11.3 20.58-1.23a18 18 0 0 1-20.58 1.23z" class="C"/><path d="M415.76 151.62a13.83 13.83 0 0 1-2.46.19l-5.88.48-5.83.91a12.65 12.65 0 0 1-2.43.4 10.21 10.21 0 0 1 2.35-.76 48.72 48.72 0 0 1 5.85-1.07 47.47 47.47 0 0 1 5.94-.33 10.64 10.64 0 0 1 2.46.18z" class="B"/><path d="M403.16 179.67s-3.67-8.88 5.64-12.3a11.83 11.83 0 0 1-5.64 12.3z" class="C"/><path d="M407.25 169.46c.13.07-1 2.25-2.11 5.06l-1.87 5.16a16.8 16.8 0 0 1 1.39-5.35 17 17 0 0 1 2.59-4.87z" class="B"/><path d="M409.58 218.7s15.79 2.68 12.38 18.85a19.73 19.73 0 0 1-12.38-18.85z" class="C"/><path d="M420.39 233.51a17.37 17.37 0 0 1-1.5-2.23l-3.66-5.33-4.05-5a16.54 16.54 0 0 1-1.71-2.07 10.84 10.84 0 0 1 2 1.82 52.33 52.33 0 0 1 4.2 5 53.13 53.13 0 0 1 3.56 5.45 11.31 11.31 0 0 1 1.16 2.36z" class="B"/><path d="M420.32 219.07s12.5-3.28 15.37 9.73a15.91 15.91 0 0 1-15.37-9.73z" class="C"/><path d="M433.19 226.36c-.09.13-2.76-1.83-6.32-3.79l-6.58-3.35a7.82 7.82 0 0 1 2.08.65 39.45 39.45 0 0 1 4.75 2.24 42.43 42.43 0 0 1 4.42 2.83 7.73 7.73 0 0 1 1.65 1.42z" class="B"/><path d="M410.87 175.1s9.24-8.94 18.08 1a15.83 15.83 0 0 1-18.08-1z" class="C"/><path d="M425.59 175.15c0 .15-3.29-.24-7.34-.21l-7.33.31a7.45 7.45 0 0 1 2.12-.46 40.85 40.85 0 0 1 5.21-.37 39 39 0 0 1 5.22.31 7.7 7.7 0 0 1 2.12.42z" class="B"/><path d="M414 214.49s4.4-14.08 18.74-9a18.18 18.18 0 0 1-18.74 9z" class="C"/><path d="M428.9 206.46a14 14 0 0 1-2.22 1.1l-5.31 2.69-5.09 3.07a14.29 14.29 0 0 1-2.11 1.29 9.56 9.56 0 0 1 1.9-1.59 46.27 46.27 0 0 1 5.05-3.23 47.35 47.35 0 0 1 5.42-2.56 9.87 9.87 0 0 1 2.36-.77z" class="B"/><path d="M401 217.85s7.29 2.87 4 10.27a9.64 9.64 0 0 1-4-10.27z" class="C"/><path d="M404.65 226a44.11 44.11 0 0 1-1.83-4.08l-1.93-4a12.36 12.36 0 0 1 2.4 3.81 12.61 12.61 0 0 1 1.36 4.27z" class="B"/><path d="M384.06 191.24s7.45-2.42 9.65 5.35a9.65 9.65 0 0 1-9.65-5.35z" class="C"/><path d="M392.11 195.2c-.08.13-1.79-.92-4-2l-4.05-1.88a12 12 0 0 1 4.28 1.41 12.33 12.33 0 0 1 3.77 2.47z" class="B"/><path d="M336.5 147.06s4-5.26-1.55-9.2a8.15 8.15 0 0 0 1.55 9.2z" class="C"/><path d="M335.61 139.52a9.59 9.59 0 0 1 .93 3.7 9.36 9.36 0 0 1-.12 3.82 29 29 0 0 1-.4-3.76 26.79 26.79 0 0 1-.41-3.76z" class="B"/><path d="M329.08 153.52s7.19-6.27.44-13.43a11.76 11.76 0 0 0-.44 13.43z" class="C"/><path d="M330 142.63a17.15 17.15 0 0 1 .14 5.48 16.65 16.65 0 0 1-1.14 5.36c-.15 0 .36-2.42.62-5.41l.38-5.43z" class="B"/><path d="M362.24,171s10.28,1.37,8.46,11.92A12.8,12.8,0,0,1,362.24,171Z" class="C"/><path d="M369.59 180.29c-.14.08-1.55-2.17-3.59-4.72l-3.83-4.52a19.13 19.13 0 0 1 4.24 4.2 19.78 19.78 0 0 1 3.18 5.04z" class="B"/><path d="M383.78 209.74s5.6 5.48-.27 11a9.65 9.65 0 0 1 .27-11z" class="C"/><path d="M384 218.71c-.15 0 0-2-.1-4.48l-.2-4.46a17.82 17.82 0 0 1 .3 8.94z" class="B"/><path d="M413.27 185.66s9.6-7 16.47 3.15a14.68 14.68 0 0 1-16.47-3.15z" class="C"/><path d="M426.77 187.55c0 .15-3-.61-6.71-1.09l-6.76-.66a6.41 6.41 0 0 1 2-.17 37.49 37.49 0 0 1 9.58 1.26 6.91 6.91 0 0 1 1.89.66z" class="B"/><path d="M401.53 146.84s10.41-2.65 7.26-13.27a13.24 13.24 0 0 0-7.26 13.27z" class="C"/><path d="M408 136.36a20.55 20.55 0 0 1-2.67 5.55 20 20 0 0 1-3.84 4.83c-.12-.1 1.61-2.23 3.4-5.1l3.11-5.28z" class="B"/><path d="M388,133.79s6.53-4.33,10.74,2.57A9.67,9.67,0,0,1,388,133.79Z" class="C"/><path d="M396.86 135.45c-.05.14-2-.41-4.39-.83l-4.42-.73a12.24 12.24 0 0 1 4.51.21 12.42 12.42 0 0 1 4.3 1.35z" class="B"/><path d="M388,126.49s6.53-4.34,10.74,2.57A9.67,9.67,0,0,1,388,126.49Z" class="C"/><path d="M396.86 128.14a42.78 42.78 0 0 1-4.39-.83l-4.42-.73a12.13 12.13 0 0 1 4.51.22 12.54 12.54 0 0 1 4.3 1.34z" class="B"/><path d="M372.11 107.49s.54-7.82 8.58-6.95a9.65 9.65 0 0 1-8.58 6.95z" class="C"/><path d="M378.8 101.5c.08.13-1.53 1.32-3.34 3l-3.27 3.06a12.23 12.23 0 0 1 2.92-3.44 12.73 12.73 0 0 1 3.69-2.62z" class="B"/><path d="M317 136.59s5.65-12.28 18.08-6a16.67 16.67 0 0 1-18.08 6z" class="C"/><path d="M331.45 131c0 .15-3.32 1-7.27 2.58l-7.07 3.1a8.42 8.42 0 0 1 1.9-1.24 43.13 43.13 0 0 1 10.2-4 9 9 0 0 1 2.24-.44z" class="B"/><path d="M277.59 65s8.76-5.22 3-14.05a12.56 12.56 0 0 0-3 14.05z" class="C"/><path d="M280.61 53.75a19.19 19.19 0 0 1-.92 5.79 18.49 18.49 0 0 1-2.21 5.46c-.14-.07.86-2.48 1.71-5.58l1.42-5.67z" class="B"/><path d="M419.74 203.29s6.26-4.71 1.15-11a9.64 9.64 0 0 0-1.15 11z" class="C"/><path d="M421.12 194.43a12.65 12.65 0 0 1-.17 4.5 12.41 12.41 0 0 1-1.29 4.32 43.43 43.43 0 0 1 .78-4.4 41.46 41.46 0 0 1 .68-4.42z" class="B"/><path d="M427.13 203.1s-2.13-7.25 5.47-9.1a9.3 9.3 0 0 1-5.47 9.1z" class="C"/><path d="M431.2 195.49a37.93 37.93 0 0 1-2 3.79l-1.95 3.84a11.6 11.6 0 0 1 1.49-4.08 11.74 11.74 0 0 1 2.46-3.55z" class="B"/><path d="M404.82 162.36s8.24-7.34 15.47 1.46a13.59 13.59 0 0 1-15.47-1.46z" class="C"/><path d="M417.44,162.92c0,.16-2.82-.28-6.29-.4s-6.28.12-6.3,0a28.67,28.67,0,0,1,12.59.44Z" class="B"/><path d="M362.23 205.79s7.66 1.66 5.63 9.49a9.65 9.65 0 0 1-5.63-9.49z" class="C"/><path d="M367.19 213.27a44.3 44.3 0 0 1-2.47-3.73l-2.55-3.68a12.27 12.27 0 0 1 3 3.39 12.57 12.57 0 0 1 2.02 4.02z" class="B"/><path d="M353.82 194.72s5.37 3.78 1.26 9.17a8.09 8.09 0 0 1-1.26-9.17z" class="C"/><path d="M355.21 202.11a26.16 26.16 0 0 1-.73-3.68 28.75 28.75 0 0 1-.73-3.67 9.14 9.14 0 0 1 1.24 3.57 9.55 9.55 0 0 1 .22 3.78z" class="B"/><path d="M367.12 200.91s5.52-11.28 16.93-5.13a15.48 15.48 0 0 1-16.93 5.13z" class="C"/><path d="M380.66 196.06c0 .16-3.1.89-6.81 2.26l-6.64 2.71a7.31 7.31 0 0 1 1.79-1.13 39.61 39.61 0 0 1 9.56-3.52 8.17 8.17 0 0 1 2.1-.32z" class="B"/><path d="M405.42 210.73s-1.43-9.65 10.95-12.68c0 0-1.61 10.08-10.95 12.68z" class="C"/><path d="M413 201.11c.11.11-1.81 2.06-3.85 4.73l-3.59 4.93a20 20 0 0 1 3.17-5.25 20.21 20.21 0 0 1 4.27-4.41z" class="B"/><path d="M330.8 213.06s9-3 13.47 7.58c0 0-9.8.36-13.47-7.58z" class="C"/><path d="M340.92 218.14c-.09.12-2.22-1.25-5-2.61l-5.14-2.35a24.19 24.19 0 0 1 10.15 5z" class="B"/><path d="M327.94 202.18s4-8.59 14.75-4.58c0 0-6.48 7.4-14.75 4.58z" class="C"/><path d="M338.58 198.31c0 .15-2.43.75-5.34 1.85l-5.24 2.11a24.45 24.45 0 0 1 10.58-4z" class="B"/><path d="M388.86 209.13s-3.48 11.05 9.52 16.32c0 0 .23-11.98-9.52-16.32z" class="C"/><path d="M395.26 221.41a6.91 6.91 0 0 1-1.29-1.59 35.81 35.81 0 0 1-2.51-4.23 36.73 36.73 0 0 1-1.94-4.52 6.63 6.63 0 0 1-.52-2c.14 0 1.19 2.87 2.92 6.26l3.34 6.08z" class="B"/><path d="M397.17 190.94s1.29-11.57 15.39-11.14c0 0-4.66 11.12-15.39 11.14z" class="C"/><path d="M408 182.25c.08.14-2.56 1.78-5.52 4.21l-5.24 4.57a7.17 7.17 0 0 1 1.29-1.6 36.1 36.1 0 0 1 3.62-3.37 35.71 35.71 0 0 1 4-2.87 7.44 7.44 0 0 1 1.85-.94z" class="B"/><path d="M381.59 157.3s1.5-12.88 17.18-12.31c0 .01-5.25 12.34-17.18 12.31z" class="C"/><path d="M393.74 147.69c.08.14-2.89 1.94-6.2 4.63l-5.83 5.08a8.78 8.78 0 0 1 1.45-1.76 44.67 44.67 0 0 1 4-3.73 42.37 42.37 0 0 1 4.5-3.17 8.21 8.21 0 0 1 2.08-1.05z" class="B"/><path d="M339.84 227.71s11.59 2.42 9.8 16.64c0 0-10.8-5.78-9.8-16.64z" class="C"/><path d="M347.59 239.55c-.14.07-1.55-2.77-3.72-6l-4.13-5.73a6.89 6.89 0 0 1 1.49 1.45 38.34 38.34 0 0 1 3.07 4 37.17 37.17 0 0 1 2.51 4.35 7.53 7.53 0 0 1 .78 1.93z" class="B"/><path d="M214.44 238.21s3.2 7.72-5.81 12.33c0 0-.92-8.6 5.81-12.33z" class="C"/><path d="M210.62 247.44c-.14-.08.93-2.05 1.94-4.59l1.78-4.66a20.58 20.58 0 0 1-3.72 9.25z" class="B"/><path d="M225.53 209.78s-8.08 2.13-11.44-7.41c0 0 8.64.24 11.44 7.41z" class="C"/><path d="M216.9 204.75c.09-.12 1.89 1.2 4.28 2.55l4.38 2.38a14.55 14.55 0 0 1-4.64-1.93 14.31 14.31 0 0 1-4.02-3zM197.34 306c.09 0 .56 1.46 1.55 3.75a48 48 0 0 0 4.8 8.46 47.41 47.41 0 0 0 6.47 7.27l3 2.68a5.17 5.17 0 0 1-.93-.58 27.26 27.26 0 0 1-2.36-1.83 40.37 40.37 0 0 1-6.64-7.24 41.09 41.09 0 0 1-4.72-8.62 29.72 29.72 0 0 1-1-2.82 4.25 4.25 0 0 1-.17-1.07zm10.76 2.4a83.32 83.32 0 0 1 2.89 8.81 80.6 80.6 0 0 1 2.4 9 82.36 82.36 0 0 1-2.89-8.81 80 80 0 0 1-2.4-9zm-7.81 12.06c.14-.07 1.44 2.37 3.52 5l4 4.66a23.29 23.29 0 0 1-7.51-9.7zm102.35 2.13a9.52 9.52 0 0 1-1.05 2.25 41.43 41.43 0 0 1-3.32 5 40.77 40.77 0 0 1-4 4.45 10.14 10.14 0 0 1-1.91 1.58A13.92 13.92 0 0 1 294 334l3.86-4.51 3.41-4.86a17.43 17.43 0 0 1 1.37-2.04zm1.46 9.32a15.9 15.9 0 0 1-6.12 5.73 36.58 36.58 0 0 1 3.09-2.83 40.61 40.61 0 0 1 3.03-2.9zM134.61 348a12.6 12.6 0 0 1-1.7-2.54 42.69 42.69 0 0 1-3.1-6.7 43.56 43.56 0 0 1-1.9-7.14 13.74 13.74 0 0 1-.31-3.05 27.46 27.46 0 0 1 .68 3 55.14 55.14 0 0 0 4.95 13.74 29.5 29.5 0 0 1 1.38 2.69zm2.25-3.07a5.86 5.86 0 0 1-.9-1.7 25.77 25.77 0 0 1-1.37-4.44 24.88 24.88 0 0 1-.55-4.62 5.77 5.77 0 0 1 .13-1.92c.16 0 .17 2.93.93 6.43s1.9 6.19 1.76 6.25zm3.33-3.62a6.12 6.12 0 0 1 .2-2.47 6 6 0 0 1 .71-2.36 6.07 6.07 0 0 1-.2 2.46 6.14 6.14 0 0 1-.71 2.37z" class="B"/><path d="M256.52 364c-5.66-3.44-10.14 2.44-11 3.72-.89-1.28-5.37-7.16-11-3.72-6.33 3.85-1.78 13.22-.08 15.12 2 2.27 6.34 6.38 11 7.7a25.28 25.28 0 0 0 11.24-7.7c1.48-2 6.16-11.25-.16-15.12z" class="C"/></svg>