<svg xmlns="http://www.w3.org/2000/svg" viewBox="0 0 500 500"><g id="freepik--background-complete--inject-317"><rect y="382.4" width="500" height="0.25" style="fill:#ebebeb"></rect><rect x="416.78" y="398.49" width="33.12" height="0.25" style="fill:#ebebeb"></rect><rect x="322.53" y="401.21" width="8.69" height="0.25" style="fill:#ebebeb"></rect><rect x="396.59" y="389.21" width="19.19" height="0.25" style="fill:#ebebeb"></rect><rect x="52.46" y="390.89" width="43.19" height="0.25" style="fill:#ebebeb"></rect><rect x="104.56" y="390.89" width="6.33" height="0.25" style="fill:#ebebeb"></rect><rect x="131.47" y="395.11" width="93.68" height="0.25" style="fill:#ebebeb"></rect><path d="M237,337.8H43.91a5.71,5.71,0,0,1-5.7-5.71V60.66A5.71,5.71,0,0,1,43.91,55H237a5.71,5.71,0,0,1,5.71,5.71V332.09A5.71,5.71,0,0,1,237,337.8ZM43.91,55.2a5.46,5.46,0,0,0-5.45,5.46V332.09a5.46,5.46,0,0,0,5.45,5.46H237a5.47,5.47,0,0,0,5.46-5.46V60.66A5.47,5.47,0,0,0,237,55.2Z" style="fill:#ebebeb"></path><path d="M453.31,337.8H260.21a5.72,5.72,0,0,1-5.71-5.71V60.66A5.72,5.72,0,0,1,260.21,55h193.1A5.71,5.71,0,0,1,459,60.66V332.09A5.71,5.71,0,0,1,453.31,337.8ZM260.21,55.2a5.47,5.47,0,0,0-5.46,5.46V332.09a5.47,5.47,0,0,0,5.46,5.46h193.1a5.47,5.47,0,0,0,5.46-5.46V60.66a5.47,5.47,0,0,0-5.46-5.46Z" style="fill:#ebebeb"></path><path d="M389.05,101.72S390.22,94,384.59,89s-5.14-7.91-3.53-8.29,3.09,4.57,5.57,5.93c0,0,.08-7.06-2.44-9.66s-3.83-9.3-1.44-9.42,2.64,4,3.14,6.89,3.16,7,3.16,7,.52-6.32,2.15-8.92-2.71-8.54-1-11.14,4.65,2.35,4.4,7.92-4,11.52-3.1,17.34c0,0,1.64-4.08,3.11-4.46s3-3.07,3.95-4.07,2.23,2.46,0,5.68-7.93,11.84-7.06,18.8Z" style="fill:#e6e6e6"></path><path d="M385.68,98.2l-1.84,11.58a5.88,5.88,0,0,0,5.81,6.81h2a5.88,5.88,0,0,0,5.81-6.81L395.59,98.2Z" style="fill:#e6e6e6"></path><rect x="283.15" y="112.32" width="130.44" height="6.7" style="fill:#e0e0e0"></rect><rect x="289.16" y="87.62" width="5.75" height="24.7" style="fill:#ebebeb"></rect><rect x="316.94" y="87.62" width="5.75" height="24.7" style="fill:#ebebeb"></rect><rect x="350.63" y="87.31" width="5.75" height="24.7" transform="translate(-11.79 61.49) rotate(-9.78)" style="fill:#ebebeb"></rect><rect x="296.28" y="90.87" width="5.75" height="21.45" style="fill:#ebebeb"></rect><rect x="309.49" y="90.87" width="5.75" height="21.45" style="fill:#ebebeb"></rect><rect x="342.83" y="90.87" width="5.75" height="21.45" style="fill:#ebebeb"></rect><rect x="326.89" y="90.51" width="5.75" height="21.45" transform="translate(-14.11 73.93) rotate(-12.53)" style="fill:#ebebeb"></rect><rect x="304.12" y="86.39" width="2.87" height="25.93" style="fill:#ebebeb"></rect><rect x="338.3" y="86.39" width="2.87" height="25.93" style="fill:#ebebeb"></rect><rect x="283.15" y="162.35" width="130.44" height="6.7" transform="translate(696.75 331.41) rotate(180)" style="fill:#e0e0e0"></rect><rect x="401.84" y="137.65" width="5.75" height="24.7" transform="translate(809.43 300) rotate(180)" style="fill:#ebebeb"></rect><rect x="374.06" y="137.65" width="5.75" height="24.7" transform="translate(753.86 300) rotate(180)" style="fill:#ebebeb"></rect><rect x="340.37" y="137.34" width="5.75" height="24.7" transform="translate(656.08 355.51) rotate(-170.22)" style="fill:#ebebeb"></rect><rect x="394.72" y="140.9" width="5.75" height="21.45" transform="translate(795.19 303.26) rotate(180)" style="fill:#ebebeb"></rect><rect x="381.51" y="140.9" width="5.75" height="21.45" transform="translate(768.77 303.26) rotate(180)" style="fill:#ebebeb"></rect><rect x="348.17" y="140.9" width="5.75" height="21.45" transform="translate(702.09 303.26) rotate(180)" style="fill:#ebebeb"></rect><rect x="364.11" y="140.54" width="5.75" height="21.45" transform="translate(692.43 378.52) rotate(-167.47)" style="fill:#ebebeb"></rect><rect x="389.75" y="136.42" width="2.87" height="25.93" transform="translate(782.38 298.78) rotate(180)" style="fill:#ebebeb"></rect><rect x="355.57" y="136.42" width="2.87" height="25.93" transform="translate(714.02 298.78) rotate(180)" style="fill:#ebebeb"></rect><rect x="295.67" y="142.8" width="28" height="19.33" transform="translate(619.34 304.93) rotate(180)" style="fill:#ebebeb"></rect><rect x="91.7" y="70.04" width="135.58" height="172.91" transform="translate(318.98 312.99) rotate(180)" style="fill:#e0e0e0"></rect><rect x="87.37" y="70.04" width="140.62" height="172.91" transform="translate(315.36 312.99) rotate(180)" style="fill:#f0f0f0"></rect><rect x="93.32" y="74.82" width="128.95" height="161.24" transform="translate(315.59 310.88) rotate(180)" style="fill:#fff"></rect><rect x="93.32" y="74.82" width="3.73" height="161.24" transform="translate(190.36 310.88) rotate(180)" style="fill:#e0e0e0"></rect><rect x="157.76" y="125.23" width="3.73" height="125.95" transform="translate(-28.58 347.83) rotate(-90)" style="fill:#e0e0e0"></rect><rect x="93.32" y="180.08" width="130.95" height="6.26" transform="translate(317.59 366.43) rotate(180)" style="fill:#f0f0f0"></rect></g><g id="freepik--Diary--inject-317"><path d="M379.63,154.41l70.53-.55a1.88,1.88,0,0,1,1.91,2.12L426.16,416.24h-81Z" style="fill:#B7E0A3"></path><polygon points="416.16 154.41 444.44 152.37 444.15 155.25 447.45 155.37 421.48 416.24 393.21 416.24 416.16 154.41" style="fill:#B7E0A3"></polygon><polygon points="416.16 154.41 444.44 152.37 444.15 155.25 447.45 155.37 421.48 416.24 393.21 416.24 416.16 154.41" style="fill:#fff;opacity:0.5;isolation:isolate"></polygon><path d="M278.83,150.76s-10.43-8.11-19.59,3.86l-26,261.62h19.2s9.86-14.3,22.13-114S278.83,150.76,278.83,150.76Z" style="fill:#B7E0A3"></path><path d="M278.83,150.76s-10.43-8.11-19.59,3.86l-26,261.62h19.2s9.86-14.3,22.13-114S278.83,150.76,278.83,150.76Z" style="fill:#fff;opacity:0.6000000000000001;isolation:isolate"></path><polygon points="413.52 416.24 252.4 416.24 278.83 150.76 439.94 150.76 413.52 416.24" style="fill:#B7E0A3"></polygon><polygon points="413.52 416.24 252.4 416.24 278.83 150.76 439.94 150.76 413.52 416.24" style="fill:#fff;opacity:0.8;isolation:isolate"></polygon><g style="opacity:0.1"><path d="M428.48,180H286.14a.2.2,0,0,1-.2-.23.25.25,0,0,1,.25-.22H428.52a.2.2,0,0,1,.2.22A.25.25,0,0,1,428.48,180Z"></path></g><g style="opacity:0.1"><path d="M426.44,200.43H284.11a.19.19,0,0,1-.2-.22.25.25,0,0,1,.24-.22H426.49a.19.19,0,0,1,.19.22A.25.25,0,0,1,426.44,200.43Z"></path></g><g style="opacity:0.1"><path d="M424.35,221.45H282a.2.2,0,0,1-.2-.22.27.27,0,0,1,.25-.23H424.39a.2.2,0,0,1,.2.23A.25.25,0,0,1,424.35,221.45Z"></path></g><g style="opacity:0.1"><path d="M422.26,242.47H279.92a.2.2,0,0,1-.2-.22A.25.25,0,0,1,280,242H422.3a.2.2,0,0,1,.2.23A.25.25,0,0,1,422.26,242.47Z"></path></g><g style="opacity:0.1"><path d="M420.16,263.49H277.83a.2.2,0,0,1-.2-.23.25.25,0,0,1,.24-.22H420.21a.2.2,0,0,1,.2.22A.25.25,0,0,1,420.16,263.49Z"></path></g><g style="opacity:0.1"><path d="M418.07,284.51H275.74a.19.19,0,0,1-.2-.23.25.25,0,0,1,.24-.22H418.12a.2.2,0,0,1,.2.22A.27.27,0,0,1,418.07,284.51Z"></path></g><g style="opacity:0.1"><path d="M416,305.52H273.64a.2.2,0,0,1-.2-.22.27.27,0,0,1,.25-.22H416a.19.19,0,0,1,.2.22A.25.25,0,0,1,416,305.52Z"></path></g><g style="opacity:0.1"><path d="M413.89,326.54H271.55a.2.2,0,0,1-.2-.22.25.25,0,0,1,.25-.23H413.93a.2.2,0,0,1,.2.23A.25.25,0,0,1,413.89,326.54Z"></path></g><g style="opacity:0.1"><path d="M411.79,347.56H269.46a.2.2,0,0,1-.2-.23.25.25,0,0,1,.24-.22H411.84a.2.2,0,0,1,.2.22A.25.25,0,0,1,411.79,347.56Z"></path></g><g style="opacity:0.1"><path d="M409.7,368.58H267.37a.2.2,0,0,1-.2-.23.25.25,0,0,1,.24-.22H409.75a.2.2,0,0,1,.2.22A.27.27,0,0,1,409.7,368.58Z"></path></g><g style="opacity:0.1"><path d="M407.61,389.59H265.27a.19.19,0,0,1-.19-.22.25.25,0,0,1,.24-.22H407.65a.19.19,0,0,1,.2.22A.25.25,0,0,1,407.61,389.59Z"></path></g><g style="opacity:0.2"><path d="M354.08,332.32a2.09,2.09,0,0,1-.6-.1,1.91,1.91,0,0,1-1.23-1.14c-.87-2.19,1.65-7.14,11.4-24.27,5.52-9.69,13.69-24,14.06-27.91-.89.58-3.1,2.72-7.54,10.53-3.74,6.58-7.94,15.11-11.63,22.64-7.67,15.6-9.85,19.6-11.7,20.14a1.77,1.77,0,0,1-1.44-.18c-1.78-1.07-1.38-3.12,4.8-14.62-4.2,7.73-6.74,11.43-8.66,11.94a2.15,2.15,0,0,1-1.72-.27c-1.13-.75-1.37-2.13-.46-5-3.08,5.25-5.7,8.13-8.18,8a2.57,2.57,0,0,1-2.25-1.3c-1-1.73-.06-5.18,2.62-10.86-4.91,8.84-7.41,11.64-9.67,11.12a2.17,2.17,0,0,1-1.56-1.32c-.31-.75-.81-2,1.75-7.93-6.12,9.18-6.59,9.22-7.32,9.29a1.55,1.55,0,0,1-1.26-.47c-1-1.06-1-1.06,6.42-14.4,5.68-10.24,18.41-33.15,19.6-39.38-3.46,3.37-11.7,17.26-17.89,27.69-14.24,24-17.44,28.36-20.15,27.49a1.94,1.94,0,0,1-1.23-1.22c-.86-2.46,2.84-8.64,16-28.61,5.47-8.28,12.56-19,15.09-24.2-2.62,3.28-6.73,10.09-9.69,15-6.86,11.38-9.88,16-12.17,16.48a2,2,0,0,1-1.64-.38c-2.42-1.87.21-6.73,10.51-22.44l2.51-3.86c-4,4.92-7,7.89-9.75,7.05a2.54,2.54,0,0,1-1.79-1.76,4.38,4.38,0,0,1,.48-3c-2.07,1.83-3.4,3-4,3.35a1.65,1.65,0,0,1-2-.05c-.7-.57-1.29-1.05,1-7.37l-4.38,4.28a1.5,1.5,0,0,1-2.1-2.15l9.36-9.13a1.5,1.5,0,0,1,2.44,1.64c-1.06,2.58-2.17,5.48-2.94,7.71.93-.81,2-1.73,2.93-2.6,8.05-7.16,8.54-7.45,9.33-7.54a1.55,1.55,0,0,1,1.53.82c.54,1,.14,1.48-2.09,4-4.12,4.64-6.36,7.64-6.66,8.94,1.69-.26,6-5.69,7.89-8.09,3.75-4.73,5.48-6.81,7.39-6.32a1.73,1.73,0,0,1,1.18,1c.41,1.07,0,2.36-3.07,7.26,3.18-4.84,5.3-7.3,7-7.68a2.24,2.24,0,0,1,1.74.29,2,2,0,0,1,.86,1.31,6.74,6.74,0,0,1-.86,3.68c2.36-3.22,4.08-4.93,5.37-5.25a2.12,2.12,0,0,1,1.69.24c2.87,1.75.46,8.62-11.7,31.11,6-9.28,12.63-19.7,18-28.23h0a1.5,1.5,0,0,1,2.54,1.6c-12.88,20.49-25.77,43.35-27.1,49.5,3.18-3.34,10.13-17.11,14.9-26.55,11.27-22.3,14.77-28.18,17.93-27.21a2.05,2.05,0,0,1,1.31,1.23c1,2.55-2.41,9-11.71,25.32-5.81,10.23-14.5,25.52-14.12,28.85,3.6-.78,11.79-19.27,16.73-30.42,8.46-19.09,11.73-25.71,15.19-25a2.22,2.22,0,0,1,1.6,1.25c1.33,2.84-2.61,10.74-11.93,28.07-4.06,7.56-9.36,17.43-10.88,21.93,3-4.05,8.57-15,12.82-23.34,10.84-21.31,14-26.57,16.85-25.86a2,2,0,0,1,1.34,1.14,3.74,3.74,0,0,1,0,2.27c2-2.41,3.58-3.5,5.05-3.45a2.33,2.33,0,0,1,2,1.2c.54,1,.44,2.5-.28,4.75,4-7.09,5.58-8.42,7.2-7.93a1.86,1.86,0,0,1,1.18,1.11c.8,2-1.86,7.06-12.09,24.51-5.67,9.68-14,23.87-15,28.34,3.76-3.17,12.69-20.43,18.21-31.07,10.09-19.49,11.5-21.63,13.73-20.82a1.74,1.74,0,0,1,1,1c.73,1.88-1.44,6.53-10.49,24-4.19,8.09-10.08,19.46-12.15,25.05,3.23-4.77,8.85-15.49,13.2-23.8,11.93-22.77,14.46-26.7,16.91-26.35a1.81,1.81,0,0,1,1.37,1,3.38,3.38,0,0,1,0,2.27c1.37-1.84,2.55-3,3.58-3.27a2.38,2.38,0,0,1,2,.2c3.54,2.08-.18,9.79-10.93,29.65-4.28,7.93-10,18.48-10.75,22.13,3-2.76,9-15.92,12.74-24.07,7.12-15.52,8.72-18.49,11.08-17.82a1.87,1.87,0,0,1,1.17,1.05c.73,1.67-.6,4.62-6.15,15.55-3.63,7.17-11.2,22.08-9.63,24.18.21.13.3.1.34.09,1.44-.52,3.18-5.91,4.23-9.13,1.72-5.31,3-9.15,5.69-8.6a2.29,2.29,0,0,1,1.59,1.15c1,1.75,0,4.84-1.7,9.75a56.15,56.15,0,0,0-1.78,5.75,44.67,44.67,0,0,0,2.43-4.08c1.61-2.94,2.58-4.64,3.75-5.23a1.5,1.5,0,1,1,1.35,2.69,22.66,22.66,0,0,0-2.47,4c-2.1,3.83-3.48,6.19-5.33,6.54a2.34,2.34,0,0,1-1.94-.52c-1.43-1.21-1-3.56.23-7.4-1.34,3.88-2.79,7.12-5,7.92a3.29,3.29,0,0,1-3-.41c-1.44-.92-1.75-2.79-1.18-5.56-3.25,5.8-5.59,8.23-7.8,7.55a2.2,2.2,0,0,1-1.42-1.31c-1.14-2.77,2.47-9.93,10.95-25.63,4.7-8.68,11.63-21.49,11.9-25.18-3.25,2.79-11.16,19.38-16,29.54-10.1,21.18-12,24.27-14.48,23.6a1.84,1.84,0,0,1-1.21-1.07c-.94-2.19,2.05-8.33,12.81-28.3,3-5.51,6.56-12.18,9.08-17.28-2.95,5.12-6.65,12.2-9.7,18C376.74,324,373,330.55,370.43,331.17a2,2,0,0,1-1.6-.29c-1.9-1.33-1.15-4.63,5.22-17.53-7.25,13.25-11,18.18-13.86,17.79a2.21,2.21,0,0,1-1.7-1.23,3,3,0,0,1-.26-1.23C356.37,331.38,355.16,332.32,354.08,332.32Zm6.39-4.16Zm-43.89-21c-4.31,6.54-9.07,13.88-11.62,18.51C308,321.46,312.52,314,316.58,307.21Zm48.51,3.15c-2.91,5.12-6,10.65-8,14.62C359.31,321.33,362.22,315.9,365.09,310.36Zm39.77,4.51c-.44,1.19-.87,2.52-1.22,3.6-.16.49-.32,1-.47,1.46.11-.35.24-.7.37-1.07C403.93,317.73,404.45,316.23,404.86,314.87Zm-35.44-33.59c-3,4.61-7.91,14.19-11.72,21.67-2.69,5.3-5,9.73-6.9,13.34,1.58-2.92,3.5-6.41,5.82-10.59C361,297.87,367,286.93,369.42,281.28Zm-15.5-3c-3.14,4.22-8.81,15.44-13.15,24l-2.47,4.87q2.13-3.84,4.72-8.37C347,291.77,352.18,282.67,353.92,278.25Zm8.25-.85c-2.59,3.07-7.49,14.15-11.2,22.51l-1.78,4c.4-.77.83-1.55,1.26-2.36C354.82,293.45,361.17,281.64,362.17,277.4Zm-38.91,7.26-2.4,3.68c-3,4.56-7.44,11.35-9.6,15.54,2.23-3.12,5.34-8.27,7.82-12.39C320.63,288.93,322,286.66,323.26,284.66Z" style="fill:#B7E0A3"></path></g><path d="M345,221.45a6.88,6.88,0,0,1-3.78-.94c-1.12-.75-5.61-.14-9.21.34a53.2,53.2,0,0,1-5.56.58c-1.24,0-1.9-.08-2.12-.56s.11-.85.43-1.22c.43-.52.74-.94.59-1.42-.24-.07-1.08.61-1.63,1.07-1.22,1-2.73,2.25-4.19,2.12a1.2,1.2,0,0,1-1-.56c-.36-.63,0-1.48.44-2.37.2-.43.61-1.32.49-1.5,0,0-.13-.13-.77-.07-3.46.34-9.58,3.84-9.64,3.88a.5.5,0,0,1-.5-.87c.26-.15,6.37-3.65,10-4,.31,0,1.25-.13,1.68.48s0,1.59-.39,2.5c-.19.41-.59,1.27-.48,1.45a.54.54,0,0,0,.25.07c1,.09,2.38-1,3.46-1.9s1.85-1.52,2.54-1.32a1,1,0,0,1,.67.71,2.48,2.48,0,0,1-.78,2.37l-.08.1a7.75,7.75,0,0,0,1,0,51.51,51.51,0,0,0,5.42-.57c5-.67,8.57-1.07,9.91-.19,1.78,1.19,5.19.88,7.62,0a12.46,12.46,0,0,0,2.13-1.14c1.12-.7,2.09-1.3,3-1a2,2,0,0,1,1.23,1.15,11.28,11.28,0,0,1,.46,1c.42,1,.42,1,4,.26,1.4-.3,2.92-.73,4.39-1.15,3.64-1,5.75-1.59,6.7-.87a1.12,1.12,0,0,1,.45.95c0,.45.06.72.18.83s1.18.16,2.46.07c.7-.05,1.54-.11,2.55-.15a63.57,63.57,0,0,0,9.52-1.24.5.5,0,0,1,.44.12.52.52,0,0,1,.17.42l-.1,1,7.53-.28h6.22c1.4-.74,5.49-2.76,6.9-1.92.88.53,6.52.61,9.86.54h0a.49.49,0,0,1,.5.49.5.5,0,0,1-.49.51c-1.49,0-9,.15-10.39-.68-.67-.4-3.65.73-6,2a.46.46,0,0,1-.23.06h-6.33l-8.09.3a.5.5,0,0,1-.38-.15.48.48,0,0,1-.13-.39l.08-.88a66.55,66.55,0,0,1-9,1.12c-1,0-1.82.1-2.52.15-1.76.13-2.64.19-3.21-.34a2,2,0,0,1-.5-1.56c0-.11,0-.14-.05-.16-.61-.45-3.5.38-5.82,1-1.49.43-3,.87-4.47,1.16-4,.83-4.39.92-5.12-.85-.11-.27-.24-.59-.43-1s-.38-.58-.61-.64c-.49-.14-1.33.38-2.21.93a14.29,14.29,0,0,1-2.3,1.23A13.89,13.89,0,0,1,345,221.45Z" style="fill:#263238"></path><path d="M372.53,242.73a11.56,11.56,0,0,1-5.92-1.7c-2.27-1.18-3.83-.68-5.64-.1a13.37,13.37,0,0,1-2.67.66c-1.52.18-2.64.22-3.71.26s-2,.07-3.36.23c-2.68.31-3.32.09-3.83-1.32-.26-.28-2.17-.28-3.21-.28a9.56,9.56,0,0,1-2.75-.21,32,32,0,0,0-4.95.44,147.12,147.12,0,0,1-18,1.37h-2.8c-3.87,0-3.89,0-4-.49s.29-.61.57-.75.71-.33.76-.52-.06-.18-.09-.23c-.81-1.13-4.25.38-6.1,1.19a11.19,11.19,0,0,1-1.8.69c-.42.07-2.61.4-3.91-.58a2.25,2.25,0,0,1-.89-1.61.5.5,0,0,0,0-.16,12.43,12.43,0,0,0-1.39.8c-1.3.8-2.92,1.8-4.52,1.51a1.26,1.26,0,0,1-1.07-.76c-.22-.63.22-1.35.75-2-4.26,1.94-12.68,2.75-13.05,2.78a.49.49,0,0,1-.54-.45.49.49,0,0,1,.45-.54c.09,0,9-.86,13-2.83,1.11-.56,1.66-.8,2-.37s0,.79-.57,1.42c-.3.34-1.2,1.38-1.11,1.67h0s.06.07.3.11c1.22.22,2.66-.66,3.82-1.37s1.79-1.11,2.4-.81a1.07,1.07,0,0,1,.54.92,1.22,1.22,0,0,0,.5.91,4.6,4.6,0,0,0,3.13.39,10.79,10.79,0,0,0,1.57-.62c2.4-1.05,6-2.64,7.31-.85a1.24,1.24,0,0,1,.25,1.06,1.28,1.28,0,0,1-.28.51h4.95a144.69,144.69,0,0,0,17.73-1.36c3.47-.43,4.9-.59,5.44-.38a10.58,10.58,0,0,0,2.38.14c2.34,0,3.83.06,4.15.94s.35,1,2.78.66c1.35-.15,2.36-.19,3.43-.23s2.15-.08,3.64-.25a12.51,12.51,0,0,0,2.48-.62c1.85-.6,3.76-1.22,6.4.16,3.3,1.73,5,2.35,13.2.3a19.1,19.1,0,0,0,7.06-3.26c.92-.64,1.53-1.06,2.21-.9.51.13.92.57,1.41,1.51,1.67,3.22,2.62,3.13,4.35,3s10.15-.32,22.1-.51a.46.46,0,0,1,.5.49.5.5,0,0,1-.49.51c-10.32.16-20.13.33-22,.5-2.07.19-3.43.12-5.31-3.51-.4-.77-.64-1-.77-1s-.78.32-1.4.75a20.25,20.25,0,0,1-7.39,3.41A34.75,34.75,0,0,1,372.53,242.73Z" style="fill:#263238"></path><path d="M283.36,262.73a.54.54,0,0,1-.21-.05,5.49,5.49,0,0,0-4.34,0,.49.49,0,0,1-.65-.27.51.51,0,0,1,.27-.66,6.59,6.59,0,0,1,4.88,0l1.81-1.21a.48.48,0,0,1,.68.12c.75,1,2.58.77,4.07.05q.47-.22.93-.48a7.81,7.81,0,0,1,4.24-1.28.55.55,0,0,1,.36.22.47.47,0,0,1,.07.4L295.1,261a24.84,24.84,0,0,0,5.83-1.68.52.52,0,0,1,.6.16.51.51,0,0,1,0,.62.58.58,0,0,0-.11.47.87.87,0,0,0,.35.55,3,3,0,0,0,1.66.24q9.78-.33,19.56-.72l3.45-.13a.47.47,0,0,1,.17,0,1.14,1.14,0,0,1,.7.63.9.9,0,0,1,.08.23,12.55,12.55,0,0,0,6-3.34.5.5,0,0,1,.83.52,1.84,1.84,0,0,0,.12,1.48,2.37,2.37,0,0,0,1.42,1.14,5.62,5.62,0,0,0,3.87-.73l.21-.1a5,5,0,0,1,1.86-.64,1.88,1.88,0,0,1,1.75.86,4.35,4.35,0,0,1,2.49.51,8,8,0,0,0,1,.38,7.74,7.74,0,0,0,2.27.13l26.45-1.09a.52.52,0,0,1,.52.48.5.5,0,0,1-.48.52l-26.45,1.09a8.32,8.32,0,0,1-2.58-.17,7.79,7.79,0,0,1-1.14-.42,2.87,2.87,0,0,0-2.23-.35.48.48,0,0,1-.45,0,.49.49,0,0,1-.24-.39c0-.35-.47-.56-.86-.52a4,4,0,0,0-1.48.53l-.21.11a6.62,6.62,0,0,1-4.58.8,3.36,3.36,0,0,1-2-1.65,3,3,0,0,1-.31-.9,13.4,13.4,0,0,1-6.2,2.89.5.5,0,0,1-.55-.69.3.3,0,0,0,0-.23l0-.07-3.34.13q-9.78.38-19.55.72a3.87,3.87,0,0,1-2.23-.39,1.87,1.87,0,0,1-.81-1.24s0-.08,0-.12a26.41,26.41,0,0,1-5.91,1.49.51.51,0,0,1-.44-.16.49.49,0,0,1-.11-.45l.4-1.6a8.71,8.71,0,0,0-3.09,1.17l-1,.49c-1.58.76-3.74,1.17-5,0l-1.67,1.12A.47.47,0,0,1,283.36,262.73Z" style="fill:#263238"></path><path d="M424,177.17a38.63,38.63,0,0,1-6.84-.81,32,32,0,0,0-7.6-.75c-.52,0-1.25.15-2,.27-2.63.41-5.62.89-6.76-.52a2,2,0,0,1-.42-1.23c-1.71,1.4-4.27,3-6.17,2.72a.49.49,0,0,1-.21-.08,4.4,4.4,0,0,0-3.53-.79.48.48,0,0,1-.55-.44.5.5,0,0,1,.44-.55,5.35,5.35,0,0,1,4.11.88c1.84.2,4.86-2,6.34-3.47a.5.5,0,0,1,.82.53c-.32.84-.34,1.45-.05,1.8.78,1,3.81.48,5.82.16.79-.12,1.54-.24,2.1-.28a33,33,0,0,1,7.84.77,37.53,37.53,0,0,0,7,.78.48.48,0,0,1,.51.49.49.49,0,0,1-.49.51Z" style="fill:#263238"></path><path d="M342,285.54a.48.48,0,0,1-.28-.08.5.5,0,0,1-.19-.59,6.43,6.43,0,0,0,.37-2.86,17.57,17.57,0,0,0-4.43,2.5.51.51,0,0,1-.53.06.53.53,0,0,1-.28-.46l.07-6.33a13.52,13.52,0,0,0-4,1.82,12.41,12.41,0,0,1-5,2,11.79,11.79,0,0,1-2.67-.12,8.42,8.42,0,0,0-3,0c-.36.08-.75.21-1.14.33-1.32.43-2.81.91-3.75-.11a2.61,2.61,0,0,1-.31-.43,1,1,0,0,0-.29-.36c-.26-.14-.81.06-1.14.18a23.3,23.3,0,0,1-13.92.62.49.49,0,0,1-.34-.61.5.5,0,0,1,.61-.35,22.32,22.32,0,0,0,13.31-.6,2.43,2.43,0,0,1,1.95-.12,1.86,1.86,0,0,1,.67.71,1.87,1.87,0,0,0,.2.29c.5.54,1.62.18,2.7-.17.42-.13.84-.26,1.23-.35a9.14,9.14,0,0,1,3.34,0,11.28,11.28,0,0,0,2.45.12,11.65,11.65,0,0,0,4.58-1.92,12.7,12.7,0,0,1,4.92-2.05.51.51,0,0,1,.39.12.47.47,0,0,1,.16.38l-.06,5.93a19,19,0,0,1,4.47-2.26.49.49,0,0,1,.41,0,.48.48,0,0,1,.24.34,6.89,6.89,0,0,1,.07,2.44,22.93,22.93,0,0,1,6.11-3.38.5.5,0,0,1,.61.21c.54.92,2.1,1.06,3.54,1.09l17,.28a8.08,8.08,0,0,0,3.27-.41,10.3,10.3,0,0,0,.94-.47c1-.55,2.13-1.16,3.17-.64a12.54,12.54,0,0,0,5.9-.12.49.49,0,0,1,.58.68c-.16.36.17.78.56,1a4.87,4.87,0,0,0,1.93.22l9.86-.17c1.09,0,2.27-.39,2.26-.95a.5.5,0,0,1,.63-.49,44.37,44.37,0,0,0,14.5,1.2.5.5,0,0,1,.54.46.49.49,0,0,1-.46.53,45,45,0,0,1-14.33-1.1c-.42.9-1.77,1.33-3.12,1.35l-9.86.17a5.61,5.61,0,0,1-2.37-.31,2,2,0,0,1-1.16-1.43,13.38,13.38,0,0,1-5.74,0,.29.29,0,0,1-.13-.05c-.58-.32-1.41.13-2.28.6a10.93,10.93,0,0,1-1,.52,8.83,8.83,0,0,1-3.69.49l-17-.28c-1.56,0-3.25-.2-4.14-1.23a21.52,21.52,0,0,0-6.63,4.06A.54.54,0,0,1,342,285.54Z" style="fill:#263238"></path><path d="M314.28,303.83a10.38,10.38,0,0,1-4.11-1.16.5.5,0,0,1,.41-.92c1.52.68,3.1,1.37,4.71.95,1.81-.47,3.49-2.46,4.51-5.32a.5.5,0,0,1,.6-.31.49.49,0,0,1,.36.57c-.36,1.91.3,3.53.9,3.76s1.43-.35,2.37-1.08a.51.51,0,0,1,.66,0,2.32,2.32,0,0,0,1.94.74c1.16-.14,2.42-1.18,3.45-2.86a.5.5,0,0,1,.93.28c-.05,1.31.27,2.21.89,2.48a1.83,1.83,0,0,0,1.89-.69c.36-.36.71-.78,1.07-1.2,1.31-1.53,2.66-3.12,4.13-2.45a3.74,3.74,0,0,1,1.1.93c.16.17.32.35.48.49a3.37,3.37,0,0,0,2.25.62l37.11,1.59a3.48,3.48,0,0,0,3.84-2.32.53.53,0,0,1,.4-.28.49.49,0,0,1,.45.19,2.47,2.47,0,0,0,1.66,1.05,2.66,2.66,0,0,0,2-.79.49.49,0,0,1,.53-.08.52.52,0,0,1,.3.45c0,.69.17,1.16.44,1.26s.78-.08,1.26-.63c.13-.14.27-.3.4-.46.79-.92,1.6-1.86,2.47-1.88a1.24,1.24,0,0,1,1,.44.51.51,0,0,1,.13.41,3.47,3.47,0,0,0,.6,2.84,2.24,2.24,0,0,0,1.65.73l13.41-.15a.47.47,0,0,1,.51.5.5.5,0,0,1-.5.5l-13.41.15a3.17,3.17,0,0,1-2.41-1.07,4.24,4.24,0,0,1-.88-3.34h0c-.42,0-1.18.89-1.73,1.53l-.41.48a2.27,2.27,0,0,1-2.36.9,1.65,1.65,0,0,1-1-1.28,3.24,3.24,0,0,1-2,.49,3.12,3.12,0,0,1-1.84-.87,4.41,4.41,0,0,1-4.45,2.24l-37.11-1.59a4.26,4.26,0,0,1-2.86-.86,7.86,7.86,0,0,1-.57-.58,3.14,3.14,0,0,0-.77-.69c-.78-.35-1.94,1-3,2.19-.37.44-.74.87-1.11,1.25a2.79,2.79,0,0,1-3,.91,2.53,2.53,0,0,1-1.39-2,5.33,5.33,0,0,1-3.36,2.16,3.25,3.25,0,0,1-2.44-.72c-.9.68-2,1.38-3,1a3.09,3.09,0,0,1-1.52-2.45,7.44,7.44,0,0,1-4.23,3.79A5.06,5.06,0,0,1,314.28,303.83Z" style="fill:#263238"></path><path d="M373.05,326a8,8,0,0,1-4.79-1.73c-1.72-1.13-2.94-.65-4.35-.08a10,10,0,0,1-2.19.67c-1.23.17-2.13.22-3,.26a23.67,23.67,0,0,0-2.68.23c-2.2.31-2.8.06-3.18-1.36a6.62,6.62,0,0,0-2.45-.24,5.76,5.76,0,0,1-2.27-.23,23.4,23.4,0,0,0-3.87.46,94.77,94.77,0,0,1-14.48,1.37h-2.25c-3.17,0-3.16,0-3.29-.47s.25-.62.47-.75c.68-.39.69-.56.54-.82-.57-1-3.27.43-4.72,1.22a6.5,6.5,0,0,1-1.49.7,4.1,4.1,0,0,1-3.06-.44,2.28,2.28,0,0,1-.88-1.76v0a7.2,7.2,0,0,0-.95.66c-1.09.82-2.44,1.84-3.78,1.53a1.12,1.12,0,0,1-.88-.69,2.38,2.38,0,0,1,.54-2c-3.54,1.86-10,2.63-10.31,2.66a.5.5,0,0,1-.55-.44.5.5,0,0,1,.44-.55c.07,0,7.22-.86,10.42-2.81.82-.5,1.36-.84,1.73-.43s.07.76-.4,1.42c-.71,1-1,1.58-.94,1.76a.48.48,0,0,0,.17.07c.89.2,2-.66,2.95-1.36s1.48-1.11,2-.85a1,1,0,0,1,.52,1,1.27,1.27,0,0,0,.48,1,3.07,3.07,0,0,0,2.25.27,9.41,9.41,0,0,0,1.23-.61c2-1.08,5-2.72,6.06-.82a1.26,1.26,0,0,1-.08,1.52h3.74A95.93,95.93,0,0,0,344.12,323c3-.46,4-.6,4.47-.37a6.75,6.75,0,0,0,1.83.13c1.61,0,3.15,0,3.42,1,.2.77.24.89,2.07.62,1.1-.15,1.95-.19,2.77-.23a28.17,28.17,0,0,0,2.9-.25,8.88,8.88,0,0,0,2-.61c1.46-.58,3.12-1.25,5.27.18,2.68,1.77,3.94,2.28,10.42.28a14.67,14.67,0,0,0,5.68-3.24c.76-.65,1.26-1.09,1.87-.94s.89.73,1.23,1.57c1.24,3.15,2,3.07,3.28,2.93s8.14-.33,17.72-.52h0a.51.51,0,0,1,.5.5.5.5,0,0,1-.49.5c-8.26.17-16.12.34-17.63.51-1.74.19-2.9.05-4.32-3.56-.34-.85-.52-.95-.54-1a4.27,4.27,0,0,0-1,.73,15.74,15.74,0,0,1-6,3.43A23.12,23.12,0,0,1,373.05,326Zm-58-3.16Z" style="fill:#263238"></path><path d="M277,346a.4.4,0,0,1-.15,0,11.37,11.37,0,0,0-6.44,0,.51.51,0,0,1-.62-.34.5.5,0,0,1,.34-.62,12.11,12.11,0,0,1,6.83,0l2.66-1.28a.5.5,0,0,1,.56.08c1.19,1.13,3.95.87,6.15.1l1.31-.47a13.59,13.59,0,0,1,5.78-1.26.47.47,0,0,1,.37.22.51.51,0,0,1,.07.43l-.47,1.49a46.77,46.77,0,0,0,8.58-1.73.51.51,0,0,1,.58.24.5.5,0,0,1-.1.61.32.32,0,0,0-.13.32.93.93,0,0,0,.59.61,6.33,6.33,0,0,0,2.55.27q13.86-.33,27.72-.71l4.9-.13h.12a1.38,1.38,0,0,1,1,.75l.06.16a20.53,20.53,0,0,0,8.79-3.43.5.5,0,0,1,.75.61,1.17,1.17,0,0,0,0,1.06,3.45,3.45,0,0,0,2.41,1.51,11.1,11.1,0,0,0,5.7-.75l.29-.1a8.57,8.57,0,0,1,2.49-.61,2.72,2.72,0,0,1,2.34.89,7.61,7.61,0,0,1,3.57.46c.5.14,1,.29,1.51.39a16,16,0,0,0,3.34.14l37.48-1.09a.5.5,0,0,1,0,1l-37.49,1.09a16.87,16.87,0,0,1-3.55-.16c-.54-.1-1.08-.26-1.6-.41a6,6,0,0,0-3.44-.35.52.52,0,0,1-.42-.06.47.47,0,0,1-.22-.35c0-.28-.73-.58-1.5-.56a7.83,7.83,0,0,0-2.2.56l-.3.11a12,12,0,0,1-6.22.78,4.4,4.4,0,0,1-3.11-2,2.73,2.73,0,0,1-.23-.7,22.06,22.06,0,0,1-8.93,3.07.47.47,0,0,1-.47-.22.49.49,0,0,1,0-.52.34.34,0,0,0-.24-.25l-4.83.13q-13.86.38-27.72.71a7.32,7.32,0,0,1-3-.35,1.91,1.91,0,0,1-1.17-1.37s0-.07,0-.1a48.51,48.51,0,0,1-8.59,1.57.49.49,0,0,1-.52-.65l.49-1.58A15.09,15.09,0,0,0,288,344.3l-1.33.49c-2.29.79-5.23,1.15-6.9-.09l-2.54,1.23A.54.54,0,0,1,277,346Z" style="fill:#263238"></path><path d="M316.33,368.79a.45.45,0,0,1-.31-.11.5.5,0,0,1-.15-.59,5.15,5.15,0,0,0,.37-2.88,23.32,23.32,0,0,0-5.68,2.58.52.52,0,0,1-.5,0,.51.51,0,0,1-.26-.44l-.08-6.37a17.9,17.9,0,0,0-5.09,1.87,17.27,17.27,0,0,1-6.08,2,18.65,18.65,0,0,1-3.27-.12,13.39,13.39,0,0,0-3.79,0c-.46.09-.94.21-1.42.34-1.65.43-3.36.87-4.46-.08a3.24,3.24,0,0,1-.4-.43,1.1,1.1,0,0,0-.41-.38,2.8,2.8,0,0,0-1.57.17,35.24,35.24,0,0,1-17.14.62.5.5,0,1,1,.22-1,34.3,34.3,0,0,0,16.64-.6,3.39,3.39,0,0,1,2.24-.13,2,2,0,0,1,.81.68,1.8,1.8,0,0,0,.26.29c.71.61,2.16.24,3.55-.13.51-.13,1-.26,1.49-.35a14.3,14.3,0,0,1,4.08,0,17.76,17.76,0,0,0,3.09.13,16.37,16.37,0,0,0,5.72-1.94,17.43,17.43,0,0,1,6-2,.51.51,0,0,1,.38.12.5.5,0,0,1,.17.37l.07,6.05a25.3,25.3,0,0,1,5.68-2.39.53.53,0,0,1,.39.05.47.47,0,0,1,.23.3,5.84,5.84,0,0,1,.12,2.63,30.23,30.23,0,0,1,7.74-3.55.51.51,0,0,1,.54.18c.73,1,2.72,1.11,4.57,1.13l21.08.28a12.3,12.3,0,0,0,4.14-.41c.38-.13.78-.31,1.17-.48,1.25-.56,2.54-1.13,3.75-.63a19.48,19.48,0,0,0,7.45-.12.49.49,0,0,1,.5.19.51.51,0,0,1,0,.53.34.34,0,0,0,0,.28,1.32,1.32,0,0,0,.78.63,7.52,7.52,0,0,0,2.49.24l12.24-.17a4.73,4.73,0,0,0,2.79-.71.26.26,0,0,0,.1-.23.52.52,0,0,1,.18-.4.47.47,0,0,1,.42-.11,68.06,68.06,0,0,0,18.11,1.2.51.51,0,0,1,.54.47.5.5,0,0,1-.47.53,68.6,68.6,0,0,1-17.9-1.13,1.78,1.78,0,0,1-.25.36c-.89.93-3.08,1-3.51,1l-12.23.17a8.17,8.17,0,0,1-2.86-.3,2.26,2.26,0,0,1-1.36-1.21,1.17,1.17,0,0,1-.07-.25,20.3,20.3,0,0,1-7.21,0,.2.2,0,0,1-.11,0c-.83-.36-1.89.11-3,.6-.42.19-.84.37-1.25.51a13,13,0,0,1-4.48.47l-21.08-.28c-2,0-4.05-.2-5.12-1.26a28.45,28.45,0,0,0-8.31,4.12A.46.46,0,0,1,316.33,368.79Z" style="fill:#263238"></path><path d="M269.82,387.4a21,21,0,0,1-4.23-.57.49.49,0,0,1-.39-.58.49.49,0,0,1,.59-.39,15.58,15.58,0,0,0,5.14.47,6,6,0,0,0,4.38-2.56.5.5,0,0,1,.91.4,1,1,0,0,0,.13.86,1.45,1.45,0,0,0,1,.65,5.13,5.13,0,0,0,2.64-.54.52.52,0,0,1,.39,0,5.62,5.62,0,0,0,5.77-1,.47.47,0,0,1,.52-.08.5.5,0,0,1,.3.44.9.9,0,0,0,.47.8,3.09,3.09,0,0,0,2.71-.16c.35-.17.69-.38,1-.59,1.24-.74,2.53-1.5,3.92-1.21a4.92,4.92,0,0,1,1.13.44c.18.09.36.18.54.25a7.46,7.46,0,0,0,2.52.34l38.68.78c1.42,0,3,0,4-1.12a.5.5,0,0,1,.63-.1,4.55,4.55,0,0,0,4.09.14.51.51,0,0,1,.45,0,.53.53,0,0,1,.25.37.39.39,0,0,0,.24.35,2.16,2.16,0,0,0,1.75-.24l.39-.23c1-.59,2.11-1.26,3.18-.73a.5.5,0,0,1,.27.54.81.81,0,0,0,.18.71,3.46,3.46,0,0,0,2.42.75l13.94-.07h0a.5.5,0,1,1,0,1l-13.94.07a4.54,4.54,0,0,1-3.18-1.1,1.75,1.75,0,0,1-.43-1.08,3.92,3.92,0,0,0-1.93.77l-.41.23a3.11,3.11,0,0,1-2.69.28,1.52,1.52,0,0,1-.59-.53,5.62,5.62,0,0,1-4.14-.2c-1.17,1.08-2.83,1.21-4.46,1.17l-38.68-.78a8.13,8.13,0,0,1-2.86-.41,5.83,5.83,0,0,1-.62-.28,3.93,3.93,0,0,0-.9-.36c-1-.21-2.07.42-3.2,1.09-.36.22-.73.43-1.09.62a4,4,0,0,1-3.67.13,2,2,0,0,1-.77-.79,6.59,6.59,0,0,1-6,.79,5.74,5.74,0,0,1-3,.52,2.45,2.45,0,0,1-1.63-1.11c-.05-.09-.1-.18-.14-.27a7.46,7.46,0,0,1-4.31,2A10.14,10.14,0,0,1,269.82,387.4Z" style="fill:#263238"></path><g style="opacity:0.5"><path d="M420.33,262.16a.92.92,0,0,0-1.16.44,33.93,33.93,0,0,1-3.93,6c.66-1.32,2.07-3.48,2.92-4.8,2.34-3.59,3.13-4.8,2.21-5.46a1,1,0,0,0-.73-.13c-.42.1-.8.43-1.59,1.52,3.28-4.94,4.46-7.46,3.37-8.5a1.18,1.18,0,0,0-1.07-.3c-1.54.3-3.5,3.35-7.94,10.76-2.3,3.83-5.66,9.44-7.16,10.68.53-2.06,4.79-8.49,7.69-12.87,6.8-10.27,8.34-13,7-14.08a1.17,1.17,0,0,0-1-.22c-.67.15-1.49.9-2.6,2.33a2.67,2.67,0,0,0,.17-2.21,1,1,0,0,0-1-.51c-1.25.1-2.59,2.17-7.24,10.34-2.76,4.84-7.86,13.79-9.45,14.24-.13-1.62,5.13-9.22,8.3-13.81,5.43-7.85,7.61-11.2,7.28-12.72a1.09,1.09,0,0,0-.6-.79,1.25,1.25,0,0,0-.46-.12c-1-.07-2.14,1-4.1,3.83.35-1,.26-1.62-.19-2a1.06,1.06,0,0,0-1-.22c-.81.18-1.76,1.19-3.23,3.34.79-1.44,1-2.31.86-2.87a1,1,0,0,0-.74-.67c-1.26-.27-2.56,1.18-4.71,4.57a2.4,2.4,0,0,0,.3-1.55,1,1,0,0,0-.55-.67,1.47,1.47,0,0,0-1.23,0c-1.43.63-2.7,3.4-3,4.24a.78.78,0,0,0,.43,1.08.89.89,0,0,0,.36,0c-2.31,3.7-3.56,5.86-2.56,6.89a1,1,0,0,0,.94.29,2,2,0,0,0,1-.61c-2.41,3.72-3.44,5.7-3.2,6.76a1,1,0,0,0,.59.76c.78.37,1.63-.12,2.88-1.67-1.34,2.24-1.91,3.58-1.77,4.37a1,1,0,0,0,.5.76,1.18,1.18,0,0,0,.91.09c.6-.19,1.34-.9,2.35-2.28-.8,1.6-1.16,2.78-1,3.55a1.33,1.33,0,0,0,.75,1c.94.43,2-.17,3.44-1.79a1.21,1.21,0,0,0,0,.43.94.94,0,0,0,.54.68c1.39.63,2.92-1.56,8.84-11.22,2.37-3.86,5.74-9.36,7.52-11.42-1,2.3-4.3,7.22-6.8,11-5.71,8.63-8.37,12.89-8,14.66a1.19,1.19,0,0,0,.61.85,1.38,1.38,0,0,0,1.1.07c.81-.26,1.76-1.22,2.93-2.79-.84,1.45-1,2.17-.82,2.69a1,1,0,0,0,.81.6c1.14.11,2.52-1.22,5-4.78a1.43,1.43,0,0,0,0,.22,1.05,1.05,0,0,0,.67.72c1.53.55,3.81-2,6.78-7.66A.79.79,0,0,0,420.33,262.16Zm-7.79-17.88c-.94,2.1-4.22,6.85-6.73,10.47l-1.73,2.51.28-.47C407,252.46,410.71,246.22,412.54,244.28Zm-5.33,2.26c-1.17,2.26-3.83,6.22-5.83,9.18l.64-1.06C403.6,252.05,405.78,248.44,407.21,246.54Zm-3.86-.12c-.85,1.51-2.28,3.67-3.61,5.65C400.76,250.37,402.23,247.92,403.35,246.42Zm-8.41,16.2c1.05-2.06,3.52-5.72,5.3-8.36l1.19-1.78-.85,1.41C398.84,256.75,396.43,260.73,394.94,262.62Zm2.22,2.62c.94-1.66,2.43-3.94,3.88-6.1C399.67,261.4,398.25,263.68,397.16,265.24Zm14.72-12.92c.74-1.28,1.46-2.49,2.09-3.48C413.42,249.85,412.68,251.05,411.88,252.32Zm2,10.19c2.07-3.44,4.8-8,6.17-9.43-.68,2.12-4.67,7.81-7.16,11.37l-1.41,2Q412.56,264.69,413.85,262.51Zm-3.72,8.87c1.06-1.69,2.69-4,4.1-6,.74-1,1.42-2,2-2.95l-.91,1.4C414,265.93,411.75,269.34,410.13,271.38Z" style="fill:#B7E0A3"></path></g><path d="M404.06,270a4.13,4.13,0,0,1-1.79-.39c-5.35-2.49-3.56-11.7-3.49-12.09a.53.53,0,0,1,.29-.36.5.5,0,0,1,.46,0c.08.05,7.71,4.56,16,3.26a.5.5,0,0,1,.47.8C415.71,261.65,409.25,270,404.06,270Zm-4.41-11.6c-.29,2.12-.83,8.5,3,10.3s9.65-4.61,11.75-7.1A27.68,27.68,0,0,1,399.65,258.4Z" style="fill:#263238"></path><path d="M405.34,255.56h0a.49.49,0,0,1-.47-.52c.09-2-.11-3.93-.43-4.19h0c-.42,0-1.9,1.37-2.93,2.61a.5.5,0,1,1-.77-.63c.59-.72,2.58-3,3.83-3s1.42,2.89,1.31,5.22A.5.5,0,0,1,405.34,255.56Z" style="fill:#263238"></path><path d="M410.54,257.41a.41.41,0,0,1-.21-.05.5.5,0,0,1-.24-.66c1.91-4,3.37-5.77,4.33-5.31,1.21.58,1.06,3.48,1,4.36a.49.49,0,0,1-.54.45.5.5,0,0,1-.46-.54c.13-1.51,0-3-.36-3.33-.53.26-1.9,2.4-3.05,4.8A.48.48,0,0,1,410.54,257.41Z" style="fill:#263238"></path><path d="M408.58,263.77a14.48,14.48,0,0,1-10-3.59.5.5,0,0,1,0-.71.49.49,0,0,1,.7,0c.05,0,5.39,5.3,15,2.41a.5.5,0,1,1,.28.95A20.73,20.73,0,0,1,408.58,263.77Z" style="fill:#263238"></path><path d="M403.24,268.32a.51.51,0,0,1-.3-.1c-.62-.46-2.61-2.06-2.42-3.21a1.07,1.07,0,0,1,.8-.85,3.67,3.67,0,0,1,3.33.63,3.78,3.78,0,0,1,3-.18c.71.34,1.07.86,1,1.43-.17,1.06-1.92,1.81-5.35,2.27Zm-.88-3.33a2.09,2.09,0,0,0-.72.12.27.27,0,0,0-.14.07c-.06.26.74,1.23,1.87,2.11,4.05-.57,4.29-1.4,4.29-1.41s-.11-.22-.42-.37a3.16,3.16,0,0,0-2.41.31.5.5,0,0,1-.59-.07A3,3,0,0,0,402.36,265Z" style="fill:#263238"></path><path d="M414.42,259.13a.54.54,0,0,1-.35-.14.5.5,0,0,1,0-.7l1.3-1.38a.5.5,0,0,1,.73.69L414.78,259A.51.51,0,0,1,414.42,259.13Z" style="fill:#263238"></path><path d="M417.2,258.59a.52.52,0,0,1-.44-.26.5.5,0,0,1,.2-.68l1.18-.65a.5.5,0,1,1,.48.87l-1.18.65A.42.42,0,0,1,417.2,258.59Z" style="fill:#263238"></path><path d="M398.18,255.77a.51.51,0,0,1-.42-.23l-1-1.5a.5.5,0,0,1,.15-.69.49.49,0,0,1,.69.15l1,1.5a.49.49,0,0,1-.15.69A.5.5,0,0,1,398.18,255.77Z" style="fill:#263238"></path><path d="M399.65,255.87a.5.5,0,0,1-.48-.36l-.43-1.47a.5.5,0,1,1,.95-.28l.44,1.46a.5.5,0,0,1-.34.62Z" style="fill:#263238"></path><g style="opacity:0.5"><path d="M300,306.73a1,1,0,0,0-1.1.73,34.48,34.48,0,0,1-2.61,7c.36-1.47,1.3-4,1.87-5.47,1.56-4.12,2.08-5.51,1-5.94a1,1,0,0,0-.79.05c-.4.2-.72.62-1.28,1.89,2.2-5.69,2.81-8.48,1.43-9.24a1.27,1.27,0,0,0-1.17,0c-1.53.68-2.83,4.17-5.64,12.59-1.45,4.35-3.58,10.72-4.84,12.32.05-2.16,2.91-9.57,4.86-14.62,4.56-11.82,5.5-14.9,3.87-15.65a1.23,1.23,0,0,0-1.09,0c-.65.31-1.33,1.24-2.13,2.93.15-1.11,0-1.83-.36-2.23a1.09,1.09,0,0,0-1.13-.26c-1.26.4-2.15,2.78-5,12-1.69,5.47-4.81,15.57-6.35,16.41-.53-1.57,3.08-10.39,5.26-15.7,3.73-9.1,5.18-12.95,4.47-14.37a1.14,1.14,0,0,0-.82-.64,1.41,1.41,0,0,0-.5,0c-1,.17-2,1.54-3.33,4.8.12-1.11-.12-1.66-.68-1.93a1.19,1.19,0,0,0-1.07,0c-.8.37-1.54,1.61-2.54,4.09.47-1.62.52-2.54.19-3a1.07,1.07,0,0,0-.93-.48c-1.37,0-2.37,1.79-3.78,5.68a2.4,2.4,0,0,0-.06-1.62,1,1,0,0,0-.74-.52,1.68,1.68,0,0,0-1.27.33c-1.33,1-2,4-2.14,4.94a.8.8,0,0,0,.71,1,1,1,0,0,0,.39,0c-1.51,4.23-2.27,6.67-1,7.45a1.13,1.13,0,0,0,1,.05,2.06,2.06,0,0,0,.91-.85c-1.6,4.28-2.18,6.49-1.69,7.47a1.12,1.12,0,0,0,.81.61c.9.18,1.66-.51,2.58-2.36-.85,2.55-1.11,4-.78,4.76a1.08,1.08,0,0,0,.71.63,1.29,1.29,0,0,0,1-.13c.58-.33,1.17-1.21,1.89-2.83-.45,1.78-.54,3-.18,3.76a1.36,1.36,0,0,0,1,.76c1.08.2,2.08-.66,3.14-2.61a1.16,1.16,0,0,0,.12.42,1,1,0,0,0,.74.55c1.59.27,2.64-2.27,6.44-13.28,1.53-4.4,3.69-10.66,5-13.14-.51,2.54-2.7,8.2-4.38,12.54-3.84,10-5.56,14.81-4.76,16.48a1.2,1.2,0,0,0,.83.69,1.52,1.52,0,0,0,1.16-.2c.78-.45,1.54-1.64,2.36-3.48-.51,1.64-.53,2.4-.19,2.86a1,1,0,0,0,1,.4c1.21-.16,2.31-1.82,4.05-6a2.2,2.2,0,0,0,.09.21,1.12,1.12,0,0,0,.87.55c1.73.17,3.47-2.95,5.19-9.24A.81.81,0,0,0,300,306.73ZM287.6,291c-.46,2.3-2.72,7.8-4.44,12-.42,1-.81,2-1.19,2.92l.18-.54C283.8,300.4,286.17,293.31,287.6,291Zm-5,3.53c-.67,2.52-2.48,7.1-3.83,10.52.13-.39.27-.79.4-1.2C280.2,300.82,281.59,296.71,282.62,294.48Zm-4.05.83c-.52,1.7-1.47,4.19-2.37,6.47C276.85,299.85,277.77,297.07,278.57,295.31Zm-4.79,18.09c.59-2.29,2.26-6.52,3.47-9.57.28-.73.55-1.41.81-2.06l-.55,1.61C276.41,306.63,274.87,311.17,273.78,313.4Zm2.94,2.05c.58-1.87,1.57-4.49,2.55-7C278.39,311,277.47,313.65,276.72,315.45Zm12.15-16.38c.46-1.45.91-2.83,1.33-4C289.86,296.24,289.39,297.62,288.87,299.07Zm4.53,9.6c1.3-3.92,3-9.09,4.11-10.84-.2,2.26-2.95,8.87-4.67,13l-1,2.36Q292.58,311.13,293.4,308.67Zm-1.72,9.69c.7-1.93,1.82-4.63,2.8-7q.76-1.83,1.41-3.42c-.19.48-.39,1-.61,1.61C294.35,312,292.88,315.94,291.68,318.36Z" style="fill:#B7E0A3"></path></g><path d="M293.67,309.31a7.46,7.46,0,0,1-4.22-1.81.46.46,0,0,1-.2-.36.52.52,0,0,1,.14-.39l7.51-7.62a.5.5,0,0,1,.53-.12.48.48,0,0,1,.32.43c0,.31.62,7.72-2.57,9.49A3.08,3.08,0,0,1,293.67,309.31ZM290.51,307c1.79,1.23,3.2,1.57,4.19,1,1.84-1,2.16-5,2.11-7.42Z" style="fill:#263238"></path><path d="M280.61,313.32c-4.55,0-5.72-6.73-5.77-7a.51.51,0,0,1,.15-.44.51.51,0,0,1,.44-.14l11,2a.54.54,0,0,1,.34.23.55.55,0,0,1,.06.4s-1.37,4.76-6,5ZM276,306.84c.41,1.65,1.75,5.59,4.78,5.48a5.62,5.62,0,0,0,4.91-3.72Z" style="fill:#263238"></path><path d="M281,310.92a1.62,1.62,0,0,1-1.11-.45c-1.06-1-1.15-3.27-1.15-3.53a.5.5,0,0,1,.48-.52.52.52,0,0,1,.52.49,4.9,4.9,0,0,0,.83,2.83.65.65,0,0,0,.47.18.6.6,0,0,0,.49-.24,3.24,3.24,0,0,0,.21-2.11.5.5,0,0,1,.4-.59.48.48,0,0,1,.58.39,4.14,4.14,0,0,1-.4,2.92,1.62,1.62,0,0,1-1.23.63Z" style="fill:#263238"></path><path d="M293.69,307.21c-.92,0-1.75-1.58-2.07-2.26a.49.49,0,0,1,.24-.66.5.5,0,0,1,.67.24,5,5,0,0,0,1.12,1.65l0-.08c.46-1-.89-1.82-.95-1.86a.5.5,0,0,1,.5-.86c.76.43,2,1.65,1.36,3.13C294.33,307.12,293.91,307.24,293.69,307.21Z" style="fill:#263238"></path><path d="M284.07,318.14a.53.53,0,0,1-.24-.06.5.5,0,0,1-.2-.68c.11-.21,2.78-5.23,4.89-6.32s6.79,1.23,7.3,1.5a.51.51,0,0,1,.22.68.52.52,0,0,1-.68.21c-1.28-.67-4.94-2.25-6.38-1.51s-3.74,4.53-4.47,5.91A.5.5,0,0,1,284.07,318.14Z" style="fill:#263238"></path><path d="M281.92,303a.54.54,0,0,1-.34-.12.5.5,0,0,1,0-.71c.29-.33.41-.61.34-.82-.16-.49-1.19-.86-1.66-1a.5.5,0,1,1,.2-1c.21,0,2,.46,2.41,1.63a1.79,1.79,0,0,1-.55,1.8A.49.49,0,0,1,281.92,303Z" style="fill:#263238"></path><path d="M284.66,300.3a1.75,1.75,0,0,1-.49-.07c-1.27-.37-1.89-2-1.95-2.21a.49.49,0,0,1,.3-.64.5.5,0,0,1,.64.3c.13.38.63,1.4,1.29,1.59a1.09,1.09,0,0,0,1-.28.5.5,0,1,1,.61.79A2.23,2.23,0,0,1,284.66,300.3Z" style="fill:#263238"></path><path d="M283.1,304.21H283a.51.51,0,0,1-.4-.59,3,3,0,0,1,2.93-2.51c.61,0,.85.38.87.69a.5.5,0,0,1-.47.54.49.49,0,0,1-.45-.23,1.69,1.69,0,0,0-.87.24,2,2,0,0,0-1,1.46A.51.51,0,0,1,283.1,304.21Z" style="fill:#263238"></path><path d="M287.16,308a.43.43,0,0,1-.19,0l-13.47-5.81a.5.5,0,0,1,.4-.92l12.71,5.49-.08-1.07a.5.5,0,0,1,.47-.53.49.49,0,0,1,.53.46l.13,1.88a.49.49,0,0,1-.21.45A.48.48,0,0,1,287.16,308Z" style="fill:#263238"></path><path d="M289.75,307.6h-.06a.49.49,0,0,1-.42-.35l-.63-2a.49.49,0,0,1,.33-.62.48.48,0,0,1,.62.33l.3.94,6.33-10.66a.51.51,0,0,1,.69-.17.5.5,0,0,1,.17.68l-6.91,11.62A.49.49,0,0,1,289.75,307.6Z" style="fill:#263238"></path><g style="opacity:0.5"><path d="M385.43,391.32a1.12,1.12,0,0,1-.44-.09c-.58-.25-.8-.82-.64-1.86-.56.92-.93,1.12-1.41,1.12a.93.93,0,0,1-.77-.4c-.37-.54-.23-1.54.68-4.38-.83,1.58-1.48,2.4-2.16,2.63a1.17,1.17,0,0,1-1.05-.13c-1-.69-.58-2.36,1-6.23-1.33,2.59-2.37,3.94-3.59,3.7a1.19,1.19,0,0,1-.84-.65c-.49-1,.34-3,1.85-6.34a39.11,39.11,0,0,0,1.69-4.12,28.72,28.72,0,0,0-3.23,6.71,1,1,0,0,1-1.14.64.81.81,0,0,1-.53-1.09c1.48-4.18,3.7-9.05,5.9-8.46a1.15,1.15,0,0,1,.78.66c.45,1.05-.37,3-1.86,6.26-.48,1.06-1.17,2.6-1.55,3.69a55.4,55.4,0,0,0,2.59-5.1c1.78-3.82,2.48-5.18,3.41-5.52a1.1,1.1,0,0,1,.94.07c1.12.67.43,2.48-1.74,7.6-.57,1.34-1.37,3.22-1.89,4.69.77-1.52,1.65-3.56,2.24-4.91,1.75-4,2.12-4.77,2.86-5a1,1,0,0,1,.87.2c.52.49.46,1.16-.87,5.16,3.58-8.65,4.35-9.93,5.63-9.59a.91.91,0,0,1,.63.53c.21.49.1,1.25-.55,3,.68-1.39,1.19-2.1,1.7-2.36a1.15,1.15,0,0,1,.87-.08c1.14.38,1,1.81-.35,5.69a1,1,0,0,1,1-.39A.8.8,0,0,1,396,378c-1.38,4.25-3.34,9.47-4.8,10.2a1.18,1.18,0,0,1-1,.06c-1.23-.52-.64-2.38,1.44-8.15.22-.63.47-1.33.73-2.05-.41,1-.82,2-1.18,2.92-2.65,6.63-3.94,9.6-5.21,10.18A1.27,1.27,0,0,1,385.43,391.32Zm4.26-11.17c-.9,2-2.11,4.82-2.88,6.9.89-1.92,1.94-4.54,2.74-6.55C389.6,380.38,389.64,380.26,389.69,380.15Z" style="fill:#B7E0A3"></path></g><g style="opacity:0.5"><path d="M398.29,392.46a.93.93,0,0,1-.7-.29,1,1,0,0,1-.26-.51.94.94,0,0,1-.32-.08.9.9,0,0,1-.5-.62,1.16,1.16,0,0,1,.1-.71h0a.9.9,0,0,1-.76-.44,1.24,1.24,0,0,1,.06-1.28h0a1,1,0,0,1-.59-.19,1,1,0,0,1-.42-.77,2,2,0,0,1,.45-1.17l-.1-.07a.87.87,0,0,1-.07-1.25c3.24-4,4.22-3.2,4.59-2.91a1,1,0,0,1,.37.75,1.44,1.44,0,0,1,.78-.26.92.92,0,0,1,.72.37,1.05,1.05,0,0,1,0,1.19.85.85,0,0,1,.55.41c1.38-1.42,2-1.77,2.66-1.28a.94.94,0,0,1,.32.68,0,0,0,0,1,0,.05,1,1,0,0,1,.62.23c.61.55.33,1.28-.61,2.53a.9.9,0,0,1,0,1.2c-3,3.87-3.79,3.95-4.13,4a.93.93,0,0,1-.79-.27,1,1,0,0,1-.22-.36c-.79.77-1.25,1-1.7,1.07Z" style="fill:#B7E0A3"></path></g><path d="M385.55,390.09a.48.48,0,0,1-.2,0c-.11-.05-11.52-5.07-8.53-12.86.74-2,1.82-3,3.2-3.2,2.45-.32,5.1,2.51,6.31,4,.4-1.54,1.37-4.32,3.3-5.46a3.89,3.89,0,0,1,3.39-.23,4.15,4.15,0,0,1,2.71,3.81c.32,4-3,10-9.94,13.93A.5.5,0,0,1,385.55,390.09ZM380.4,375l-.26,0c-1,.12-1.79,1-2.39,2.56-2.43,6.35,6.26,10.78,7.78,11.49,6.36-3.64,9.49-9.31,9.2-12.85a3.19,3.19,0,0,0-2.05-2.95,2.88,2.88,0,0,0-2.54.15c-2.29,1.35-3.05,5.79-3.06,5.84a.48.48,0,0,1-.38.4.49.49,0,0,1-.52-.2C385.28,378.14,382.56,375,380.4,375Z" style="fill:#263238"></path><path d="M397.1,392a.5.5,0,0,1-.42-.22c-.16-.24-3.85-5.92-.22-9.12a2.41,2.41,0,0,1,2.55-.77c1.16.49,1.64,2.26,1.83,3.47a4.57,4.57,0,0,1,2.87-1.53h0a2.16,2.16,0,0,1,1.73.93,2.76,2.76,0,0,1,.13,3c-1.05,2.1-4.29,4.24-8.47,4.25Zm1.26-9.24a2.21,2.21,0,0,0-1.24.65c-2.61,2.31-.36,6.56.25,7.59,3.61-.11,6.44-2,7.3-3.69a1.81,1.81,0,0,0,0-2,1.16,1.16,0,0,0-.93-.53h0c-1.08,0-2.42,1.44-2.85,2a.5.5,0,0,1-.54.17.49.49,0,0,1-.35-.45c-.07-1.25-.5-3.38-1.35-3.74A.75.75,0,0,0,398.36,382.8Z" style="fill:#263238"></path><path d="M287.83,200.05a.5.5,0,0,1-.48-.67,35.44,35.44,0,0,0,2-7.86l-.69,0a.5.5,0,0,1-.53-.47.51.51,0,0,1,.47-.53l.54,0a.5.5,0,0,1,.85-.5,1.22,1.22,0,0,1,.23.47c3.74-.08,5.69.52,6.05,1.8.76,2.69-6.74,6.89-8.25,7.7A.46.46,0,0,1,287.83,200.05Zm2.53-8.56a28.9,28.9,0,0,1-1.63,7c3.27-1.9,7-4.64,6.62-5.91C295.27,192.27,294.67,191.43,290.36,191.49Z" style="fill:#263238"></path><path d="M294.7,200.65a2,2,0,0,1-.34,0,1.84,1.84,0,0,1-1.39-1.41,2.51,2.51,0,0,1,.73-2.64,2.83,2.83,0,0,1,2.68-.78,1.41,1.41,0,0,1,.93,1.23.84.84,0,0,1-.23.69,1.15,1.15,0,0,1-.27.21.52.52,0,0,1,.34.31,1.32,1.32,0,0,1-.35,1.32A2.91,2.91,0,0,1,294.7,200.65Zm-.67-2.89a1.42,1.42,0,0,0-.1,1.15c.23.74.63.77.91.73a1.92,1.92,0,0,0,1.38-1.07.43.43,0,0,1,0-.44,6.77,6.77,0,0,1-1.75.15A.5.5,0,0,1,294,197.76Zm1.72-1.07a2.13,2.13,0,0,0-1.36.6h0a.31.31,0,0,1,.17,0,4.26,4.26,0,0,0,1.76-.22.41.41,0,0,0-.27-.33A1.19,1.19,0,0,0,295.75,196.69Z" style="fill:#263238"></path><path d="M300.61,200a.43.43,0,0,1-.19,0,.51.51,0,0,1-.27-.65c.52-1.25.82-2.66.61-2.9-.47-.2-1.28.45-1.6.8a.5.5,0,0,1-.74-.68c.15-.16,1.5-1.57,2.74-1s.37,3.12-.08,4.19A.5.5,0,0,1,300.61,200Z" style="fill:#263238"></path><path d="M298.89,200.05a1.63,1.63,0,0,1-.87-.21,1.11,1.11,0,0,1-.51-1,1.32,1.32,0,0,1,.42-1c.84-.79,2.7-.65,2.91-.63a.5.5,0,0,1-.09,1,3.49,3.49,0,0,0-2.13.36.3.3,0,0,0-.11.27c0,.1,0,.12,0,.13a3.47,3.47,0,0,0,2-.38.49.49,0,0,1,.66.26.5.5,0,0,1-.25.66A6.28,6.28,0,0,1,298.89,200.05Z" style="fill:#263238"></path><path d="M301.94,200.45a.53.53,0,0,1-.24-.06.52.52,0,0,1-.21-.68,11,11,0,0,0,1.19-3.59.5.5,0,0,1,.5-.5h0a.51.51,0,0,1,.5.51,11.74,11.74,0,0,1-1.3,4.05A.5.5,0,0,1,301.94,200.45Z" style="fill:#263238"></path><path d="M302.5,197.41a.52.52,0,0,1-.43-.24.51.51,0,0,1,.16-.69c.58-.35,2-1.13,2.78-.72a.93.93,0,0,1,.49.84.49.49,0,0,1-.47.52.5.5,0,0,1-.53-.47,3.76,3.76,0,0,0-1.74.68A.5.5,0,0,1,302.5,197.41Z" style="fill:#263238"></path><path d="M321.5,200.54a.46.46,0,0,1-.19,0,.51.51,0,0,1-.27-.65c.52-1.25.82-2.66.61-2.91-.47-.19-1.28.46-1.6.81a.5.5,0,0,1-.74-.68c.15-.16,1.5-1.57,2.75-1s.36,3.12-.09,4.2A.51.51,0,0,1,321.5,200.54Z" style="fill:#263238"></path><path d="M319.78,200.54a1.54,1.54,0,0,1-.87-.21,1.09,1.09,0,0,1-.51-.94,1.32,1.32,0,0,1,.42-1c.84-.79,2.7-.65,2.91-.63a.5.5,0,0,1-.09,1,3.55,3.55,0,0,0-2.13.35.33.33,0,0,0-.11.28c0,.1,0,.12,0,.13a3.49,3.49,0,0,0,2.05-.38.5.5,0,0,1,.4.91A6,6,0,0,1,319.78,200.54Z" style="fill:#263238"></path><path d="M322.59,200.74a.46.46,0,0,1-.23-.06.49.49,0,0,1-.21-.67,11.1,11.1,0,0,0,1.18-3.6.5.5,0,0,1,.5-.49h0a.49.49,0,0,1,.49.5,11.44,11.44,0,0,1-1.3,4.05A.5.5,0,0,1,322.59,200.74Z" style="fill:#263238"></path><path d="M323.77,197.69a.52.52,0,0,1-.43-.24.51.51,0,0,1,.16-.69c.58-.35,2-1.13,2.78-.72a.94.94,0,0,1,.49.84.49.49,0,0,1-.47.52.48.48,0,0,1-.52-.47,3.86,3.86,0,0,0-1.75.68A.5.5,0,0,1,323.77,197.69Z" style="fill:#263238"></path><path d="M311.8,200.44a.5.5,0,0,1-.47-.69,24.09,24.09,0,0,0,1.39-7.35c-.35.13-.67.28-1,.41a.5.5,0,1,1-.44-.89,11.75,11.75,0,0,1,1.43-.6c0-.28,0-.44,0-.45a.5.5,0,0,1,.5-.5h0a.49.49,0,0,1,.5.49V191a4.55,4.55,0,0,1,3.46.1,2.19,2.19,0,0,1,.89,2.1c-.2,4.13-5.84,7.06-6.08,7.18A.49.49,0,0,1,311.8,200.44Zm1.94-8.39a28.91,28.91,0,0,1-1,6.75c1.58-1,4.26-3.15,4.38-5.65.05-.89-.32-1.13-.44-1.21A4.09,4.09,0,0,0,313.74,192.05Z" style="fill:#263238"></path><path d="M317.47,200.45a.93.93,0,0,1-.77-.36c-.57-.79.26-2.61.81-3.63a.5.5,0,0,1,.88.48,5.81,5.81,0,0,0-.87,2.57.5.5,0,0,1,.59.37.46.46,0,0,1-.39.55A1.14,1.14,0,0,1,317.47,200.45Z" style="fill:#263238"></path><path d="M327.62,200.25a.47.47,0,0,1-.25-.07c-1.55-.91-.58-3.72-.46-4a.49.49,0,0,1,.64-.3.5.5,0,0,1,.3.64c-.28.76-.63,2.44,0,2.83a.51.51,0,0,1,.18.69A.52.52,0,0,1,327.62,200.25Z" style="fill:#263238"></path><path d="M326.8,204.54h-.05a.49.49,0,0,1-.44-.54c.38-3.89,3.39-8.36,3.52-8.55a.5.5,0,0,1,.7-.13.51.51,0,0,1,.13.69c0,.05-3,4.45-3.36,8.08A.49.49,0,0,1,326.8,204.54Z" style="fill:#263238"></path><path d="M318.09,195.26s1.64-1.69,1.54-.65S318.76,195.94,318.09,195.26Z" style="fill:#263238"></path><g style="opacity:0.2"><path d="M323.78,398.88a24.21,24.21,0,0,1-12.81-4,24.25,24.25,0,0,0-10.24-3.25c-6.29-.69-13.4.31-21.13,3-7.22,2.49-12.08,2.89-15.3,1.24-2.85-1.45-4-4.34-4.63-6.38-.89-2.91.37-6.8,1.82-11.31,1.82-5.64,4.08-12.66,2.61-19.63-1-4.7-1.94-10.75-.39-15.82,1.79-5.81,6.2-5,10.09-4.32,2.17.39,4.41.8,6.3.19,1.27-.41,2.54-.9,3.77-1.37a34.86,34.86,0,0,1,9.22-2.56c5.28-.48,9.84,1,14.24,2.49a38.14,38.14,0,0,0,9.31,2.25c3.43.25,7.05-.75,11.24-1.89,4.9-1.34,10.46-2.85,17.26-2.85,5.85,0,10.57,1.53,15.14,3,5.4,1.76,11,3.58,18.69,3,1.81-.14,4.15-.55,6.62-1,8.27-1.45,18.56-3.26,23.79,2,3.78,3.79,1.5,7.67-.51,11.1-1.63,2.77-3.17,5.4-1.88,7.95a10.62,10.62,0,0,1,.92,8.35c-1.47,4.47-5.85,6.69-6,6.79A1,1,0,0,1,401,374c.11,0,3.84-2,5-5.64a8.73,8.73,0,0,0-.82-6.81c-1.78-3.53.2-6.89,1.94-9.87,2.18-3.7,3.38-6.1.83-8.66-4.5-4.51-14.22-2.8-22-1.43-2.52.45-4.9.86-6.81,1-8.1.62-13.87-1.26-19.45-3.08-4.63-1.5-9-2.92-14.53-2.92-6.54,0-11.95,1.47-16.73,2.78-4.37,1.19-8.15,2.21-11.9,2A40,40,0,0,1,306.7,339c-4.21-1.39-8.56-2.83-13.43-2.39a32.21,32.21,0,0,0-8.68,2.44c-1.26.48-2.56,1-3.88,1.4-2.36.77-4.85.32-7.26-.12-4.31-.78-6.62-1-7.82,2.94-1.44,4.68-.45,10.7.42,14.82,1.58,7.49-.77,14.79-2.66,20.65-1.35,4.19-2.51,7.81-1.81,10.12.83,2.73,1.95,4.33,3.63,5.18,2.67,1.36,7.16.92,13.73-1.35,8-2.77,15.42-3.8,22-3.08A26.1,26.1,0,0,1,312,393.15c5.49,3.41,10.9,4.49,16.07,3.19a72.79,72.79,0,0,0,7.49-2.45c4.05-1.48,8.25-3,12.74-3.35,5.44-.39,10.62,1.32,15.62,3a63.74,63.74,0,0,0,9.09,2.53c7,1.2,15.41,1.83,18.84-4.09a1,1,0,0,1,1.73,1c-4.05,7-13.3,6.38-20.91,5.06a65.66,65.66,0,0,1-9.37-2.6c-4.82-1.6-9.81-3.25-14.86-2.88-4.21.3-8.09,1.73-12.19,3.23a75.92,75.92,0,0,1-7.69,2.51A19.6,19.6,0,0,1,323.78,398.88Z" style="fill:#B7E0A3"></path></g></g><g id="freepik--Character--inject-317"><path d="M110.06,191.93s13.53-10.84,21.43,6.21c4.46,9.63.89,30-7.9,36.83s-27.09-8.56-27.09-8.56-4-19.62,2.13-27.87C106.54,188,110.06,191.93,110.06,191.93Z" style="fill:#263238"></path><path d="M129,233.8a.23.23,0,0,1-.11,0,.25.25,0,0,1-.11-.33c.09-.19,9-18.8,4.62-32.69-1.26-4-3.43-6.69-6.47-8.1-5.54-2.58-12.14.09-12.2.12a.25.25,0,0,1-.33-.14.25.25,0,0,1,.13-.32c.07,0,6.87-2.79,12.61-.12,3.17,1.48,5.43,4.3,6.73,8.41,4.46,14.08-4.55,32.87-4.64,33.06A.27.27,0,0,1,129,233.8Z" style="fill:#263238"></path><path d="M152.19,255.24c-6.5,3.49-17.49-5.24-17.49-5.24l3-9.17s8.26,7.42,8.26,6.8c0-3.26-10-18.58-10-18.58l-10.83-.84s-.07-.57-.08-1.43a12.14,12.14,0,0,1,1.07-5.54c.6-1.13,2.43-.92,4.39-.28a35.6,35.6,0,0,1,5.88,2.73C146,230.18,157.54,252.37,152.19,255.24Z" style="fill:#ebb376"></path><path d="M130.48,221c0,2.22-1.16,4.75-5.46,5.82a12.14,12.14,0,0,1,1.07-5.54C126.69,220.11,128.52,220.32,130.48,221Z" style="opacity:0.2;isolation:isolate"></path><path d="M141.31,243.84l-6,8.6-1.26-.65-8-4.16s-2.49-5.38-.91-9.83c.09-.27.19-.52.29-.76,1.59-3.79,3.94-4.57,3.94-4.57C133.4,234.54,141.31,243.84,141.31,243.84Z" style="fill:#B7E0A3"></path><path d="M134.06,251.79l-8-4.16s-2.49-5.38-.91-9.83c.09-.27.19-.52.29-.76C128.86,239.75,134.4,244.92,134.06,251.79Z" style="opacity:0.2;isolation:isolate"></path><polygon points="93.33 329.65 93.69 345.22 95.33 415.65 100.75 415.65 102.38 345.22 102.73 329.65 93.33 329.65" style="fill:#263238"></polygon><polygon points="93.33 329.65 93.69 345.22 95.33 415.65 100.75 415.65 102.38 345.22 102.73 329.65 93.33 329.65" style="fill:#fff;opacity:0.4;isolation:isolate"></polygon><polygon points="93.33 329.65 93.69 345.65 102.38 345.65 102.73 329.65 93.33 329.65" style="opacity:0.2;isolation:isolate"></polygon><polygon points="63.96 415.4 68.95 330.75 77.12 330.75 70.13 415.4 63.96 415.4" style="fill:#263238"></polygon><polygon points="70.14 415.4 63.97 415.4 68.5 338.35 68.95 330.65 77.12 330.65 76.49 338.35 70.14 415.4" style="fill:#fff;opacity:0.4;isolation:isolate"></polygon><polygon points="77.12 330.65 76.49 338.65 68.5 338.65 68.95 330.65 77.12 330.65" style="opacity:0.2;isolation:isolate"></polygon><polygon points="125.95 415.4 118.95 330.75 127.12 330.75 132.12 415.4 125.95 415.4" style="fill:#263238"></polygon><polygon points="125.93 415.4 119.58 338.35 118.95 330.65 127.12 330.65 127.57 338.35 132.11 415.4 125.93 415.4" style="fill:#fff;opacity:0.4;isolation:isolate"></polygon><polygon points="118.95 330.65 119.58 338.65 127.57 338.65 127.12 330.65 118.95 330.65" style="opacity:0.2;isolation:isolate"></polygon><path d="M64.58,322H131.5a0,0,0,0,1,0,0v6.69a5,5,0,0,1-5,5H69.58a5,5,0,0,1-5-5V322a0,0,0,0,1,0,0Z" transform="translate(196.07 655.66) rotate(180)" style="fill:#B7E0A3"></path><rect x="61.37" y="327.83" width="73.33" height="5.84" rx="2.01" transform="translate(196.07 661.5) rotate(180)" style="fill:#263238"></rect><rect x="61.37" y="327.83" width="73.33" height="5.84" rx="2.01" transform="translate(196.07 661.5) rotate(180)" style="fill:#fff;opacity:0.6000000000000001;isolation:isolate"></rect><polygon points="186.33 380.06 179.76 381.65 176.43 372.57 173.41 364.31 180.9 361.12 183.78 371.14 186.33 380.06" style="fill:#ebb376"></polygon><path d="M178.16,381.2c-.16-.73,8.89-2.3,8.89-2.3s6.82,4.25,12.44,4.22,3.42,3.88-2.53,5.32L182.25,392C178,393,179.79,388.76,178.16,381.2Z" style="fill:#B7E0A3"></path><path d="M191.21,380.15a15.94,15.94,0,0,1-2.89-.34l-.08,0h0a.13.13,0,0,1-.07-.06l0,0a.45.45,0,0,1,0-.11c0-.11.26-2.36,1.34-3.15a1.42,1.42,0,0,1,1.16-.25c.46.1.71.3.77.61.09.47-.44,1.1-1.07,1.66a3.68,3.68,0,0,1,2-.26.93.93,0,0,1,.62.48.88.88,0,0,1,0,1A2.38,2.38,0,0,1,191.21,380.15Zm-2.11-.69c1.44.24,3.19.34,3.53-.11,0,0,.12-.15,0-.48a.57.57,0,0,0-.33-.25C191.52,378.4,190,379,189.1,379.46Zm1.21-2.86a.88.88,0,0,0-.55.19,4,4,0,0,0-1.07,2.28c1.2-.82,2.31-1.82,2.23-2.22,0-.13-.25-.2-.38-.23Z" style="fill:#263238"></path><polygon points="183.78 371.14 176.43 372.57 173.41 364.31 180.9 361.12 183.78 371.14" style="opacity:0.2;isolation:isolate"></polygon><path d="M183.12,366.34,174,369.73s-24.33-60.83-29.33-61S88.76,331.88,76,318.9s5.69-44.24,5.69-44.24,30.69-4.38,33,2.55a48.61,48.61,0,0,1,1.3,6.22c.35,2.12.59,3.9.59,3.9h0c1-.24,31.76-8.19,43.9,0C172.83,295.67,183.12,366.34,183.12,366.34Z" style="fill:#263238"></path><polygon points="130.66 406.01 124.11 404.33 125.37 394.93 126.54 386.31 134.64 387.04 132.54 397.08 130.66 406.01" style="fill:#ebb376"></polygon><path d="M122.34,404c0-.75,9.18,0,9.18,0s5.57,5.8,11,7.15,2.36,4.6-3.76,4.53l-15.14-.18C119.3,415.42,122.07,411.74,122.34,404Z" style="fill:#B7E0A3"></path><path d="M136.34,406.37a11.37,11.37,0,0,1-3.81-1.21h0l-.06-.05a.22.22,0,0,1-.05-.08h0a.11.11,0,0,1,0,0h0a.22.22,0,0,1,0-.11c0-.09.83-2.22,2.08-2.72a1.4,1.4,0,0,1,1.18.05c.42.2.62.46.6.77,0,.49-.7,1-1.45,1.35a3.75,3.75,0,0,1,2.05.25,1,1,0,0,1,.49.62.89.89,0,0,1-.24,1A1.23,1.23,0,0,1,136.34,406.37Zm-3-1.35c1.34.59,3,1.11,3.45.76,0,0,.16-.12.07-.48a.48.48,0,0,0-.26-.32C136,404.59,134.4,404.8,133.37,405Zm1.66-2.5a.92.92,0,0,0-.36.07,4,4,0,0,0-1.6,2c1.37-.5,2.68-1.2,2.71-1.61,0-.13-.2-.25-.32-.31A1,1,0,0,0,135,402.52Z" style="fill:#263238"></path><polygon points="132.49 397.29 125.32 395.11 126.52 386.4 134.63 387.08 132.49 397.29" style="opacity:0.2;isolation:isolate"></polygon><polygon points="170.23 366.36 183.51 361.85 184.08 367.29 174.01 370.85 170.23 366.36" style="fill:#B7E0A3"></polygon><path d="M98,322s2.08,0,34.27-1.46c0,0-4.81,40.25-7.44,70.38l9.63,1.64s23-64.52,22.75-74.77-12-13.25-12-13.25S122.31,317.82,98,322Z" style="fill:#263238"></path><path d="M98,322s2.08,0,34.27-1.46c0,0-4.81,40.25-7.44,70.38l9.63,1.64s23-64.52,22.75-74.77-12-13.25-12-13.25S122.31,317.82,98,322Z" style="opacity:0.30000000000000004;isolation:isolate"></path><polygon points="123.46 388.03 136.69 389.53 134.14 394.72 123.43 393.35 123.46 388.03" style="fill:#B7E0A3"></polygon><path d="M116.58,287.33l-18,3.74s9.92-5.48,17.36-7.64C116.34,285.55,116.58,287.33,116.58,287.33Z" style="opacity:0.30000000000000004;isolation:isolate"></path><polygon points="82.43 269.89 81.69 274.67 114.69 277.21 115.56 271.57 82.43 269.89" style="fill:#263238"></polygon><polygon points="82.43 269.89 81.69 274.67 114.69 277.21 115.56 271.57 82.43 269.89" style="opacity:0.2;isolation:isolate"></polygon><rect x="91.63" y="269.47" width="1.64" height="8.35" transform="translate(28.47 -8.02) rotate(5.87)" style="fill:#263238"></rect><rect x="100.43" y="271.33" width="7.24" height="5.49" transform="translate(17.79 -6.11) rotate(3.68)" style="fill:#fff"></rect><rect x="111.89" y="270.37" width="1.64" height="8.35" transform="translate(28.69 -10.09) rotate(5.87)" style="fill:#263238"></rect><path d="M82.43,269.89s4.09-40.84,10.9-44.61a76,76,0,0,1,36,7.19s-3.37,20.29-7.17,24.3-6.6,14.8-6.6,14.8Z" style="fill:#B7E0A3"></path><path d="M84.05,257c1.54-10.56,4.11-24.58,7.51-29.85,1.72,1.65,8.74,8.77,9.37,15.82C101.44,248.61,90.56,254.17,84.05,257Z" style="opacity:0.2;isolation:isolate"></path><polygon points="127.36 253.36 123.39 236.02 125.24 235.37 128.96 251.82 127.36 253.36" style="fill:#263238"></polygon><path d="M86.52,239.7S92.88,264.13,98,267s22.64-12,22.64-12h12.92s-2.43-9.42-5.2-9.25S119,251,119,251s-15.58,9-17.4,8.61-6.92-22.11-6.92-22.11Z" style="fill:#ebb376"></path><path d="M93.33,225.28c-12.79,3.14-6.81,22.35-6.81,22.35l13.32-3.26S99.84,223.69,93.33,225.28Z" style="fill:#B7E0A3"></path><path d="M166.5,252.68s-8.51-2.57-11.18-1.88a7.94,7.94,0,0,0-3.75,1.88s-4.25-2.44-6.57-2.44-11.24,2.3-14.1,1.22l-11.72.72,0,3.3H166.5Z" style="fill:#B7E0A3"></path><path d="M131,251.48c2.94,1,11.72-1.24,14-1.24s6.57,2.44,6.57,2.44a7.94,7.94,0,0,1,3.75-1.88c2.67-.69,11.18,1.88,11.18,1.88v2.8H131Z" style="fill:#fff;opacity:0.6000000000000001;isolation:isolate"></path><path d="M166.5,252.68s-8.51-2.57-11.18-1.88a7.94,7.94,0,0,0-3.75,1.88s-4.25-2.44-6.57-2.44-11.24,2.3-14.1,1.22l-11.72.72,0,3.3H166.5Z" style="fill:#fff;opacity:0.6000000000000001;isolation:isolate"></path><path d="M153.29,255.24a1.52,1.52,0,0,0-1.62-1.38,2.09,2.09,0,0,0-2,1s-30-.32-31.38.63h49.18S170.15,254.58,153.29,255.24Z" style="fill:#B7E0A3"></path><path d="M125.16,230.62c-1.11,2.87-4.75,9.81-14,9.26-10.49-.62-13.64-12.47-14.15-14.71A78,78,0,0,1,125.16,230.62Z" style="fill:#ebb376"></path><path d="M115,228.21c-.13,2,.93,2.54.93,2.54a4,4,0,0,1-4.75,4.16c-6.12-1.24-7.34-8.86-7.34-8.86,4.67-1.34,6.16-6.19,6.64-9.12a15.34,15.34,0,0,0,.23-2.31l7.87,6.11a29.06,29.06,0,0,0-2.23,3.49A10.44,10.44,0,0,0,115,228.21Z" style="fill:#ebb376"></path><path d="M118.57,220.73a29.06,29.06,0,0,0-2.23,3.49,10.44,10.44,0,0,0-1.35,4c-4.72-.58-4.49-11.21-4.49-11.21l0-.07a15.34,15.34,0,0,0,.23-2.31Z" style="opacity:0.2;isolation:isolate"></path><path d="M116.87,195.24c8.51-.38,11.46,4.06,12.47,12.81,1.27,10.93-.81,18.83-11.56,17C103.17,222.47,102.73,195.87,116.87,195.24Z" style="fill:#ebb376"></path><path d="M123.82,207.82a18.2,18.2,0,0,0,2.63,3.42,2.33,2.33,0,0,1-2.2,1.06Z" style="fill:#d58745"></path><path d="M118.57,207.35c.05.7-.29,1.29-.75,1.32s-.89-.5-.93-1.2.29-1.29.75-1.33S118.53,206.65,118.57,207.35Z" style="fill:#263238"></path><path d="M117.45,206.19l1.48-.7S118.26,206.82,117.45,206.19Z" style="fill:#263238"></path><path d="M127.25,206.62c0,.69-.29,1.29-.76,1.32s-.88-.51-.93-1.21.3-1.29.76-1.32S127.2,205.92,127.25,206.62Z" style="fill:#263238"></path><path d="M126.13,205.45l1.48-.7S126.94,206.09,126.13,205.45Z" style="fill:#263238"></path><path d="M114.59,203.29a.38.38,0,0,1-.22-.07.37.37,0,0,1-.07-.51,4.75,4.75,0,0,1,4-1.6.37.37,0,0,1,.33.39.38.38,0,0,1-.39.34,4.06,4.06,0,0,0-3.32,1.3A.35.35,0,0,1,114.59,203.29Z" style="fill:#263238"></path><path d="M127.82,201.75a.41.41,0,0,1-.18-.05,3.62,3.62,0,0,0-3.1-.53.35.35,0,0,1-.47-.19.37.37,0,0,1,.19-.48,4.38,4.38,0,0,1,3.75.58.36.36,0,0,1-.19.67Z" style="fill:#263238"></path><path d="M108.2,210s3.67-7.18,2.83-12.55c0,0,16.57-7.65,18.16,9.45,0,0,1-15.29-13.68-15s-13.64,21.72-5.79,27.77C109.72,219.71,105.93,214.49,108.2,210Z" style="fill:#263238"></path><path d="M109.67,211.74a3.74,3.74,0,0,0-4.17-3.23c-2.63.41-3.64,5.88,3,6.89C109.43,215.54,109.92,214.6,109.67,211.74Z" style="fill:#ebb376"></path><path d="M122.06,216.69a4.63,4.63,0,0,1-3.89-2.39.36.36,0,0,1,.65-.33,3.76,3.76,0,0,0,4.66,1.75.36.36,0,0,1,.22.69A5.43,5.43,0,0,1,122.06,216.69Z" style="fill:#263238"></path><path d="M99.84,222.2a.26.26,0,0,1-.25-.21c0-.2-.73-4.83,6.8-10.25,7.26-5.23,4.36-15.19,4.33-15.29a.25.25,0,0,1,.17-.31.25.25,0,0,1,.31.16c0,.11,3,10.41-4.52,15.84-7.28,5.24-6.6,9.72-6.6,9.76a.24.24,0,0,1-.2.29Z" style="fill:#263238"></path></g><g id="freepik--Table--inject-317"><path d="M193.09,255.48H174.73a3.58,3.58,0,0,1-2.17-.92h22.69A3.57,3.57,0,0,1,193.09,255.48Z" style="fill:#B7E0A3"></path><path d="M190.49,241.9c-.36.09-.71.19-1,.3h-.42a4.39,4.39,0,0,0-3.13-.09,1,1,0,0,1,.22.09h-.45a.92.92,0,0,1,.23-.09,4.27,4.27,0,0,0-3,0,4.32,4.32,0,0,0-3.22.06l-.1,0h0l-.13,0c-.31-.11-.65-.21-1-.3-1.24-.31-1.34.3-1.34.3l0,0a6.21,6.21,0,0,1,.64.73l0,.06c.19.27.32.55.25.72h-1.24a1.76,1.76,0,0,0-1.85,1.62v2.57a1.51,1.51,0,0,0,.55,1.15l2.35,2.07a1.83,1.83,0,0,0,.77.4,6.12,6.12,0,0,0,5.47,3.07h.88c3.33,0,6-2.38,6-5.3v-4.77a3.59,3.59,0,0,1,.34-1.52l.4-.84S191.73,241.59,190.49,241.9Zm-14.19,7c-.63-.56-.66-.53-.66-1.3V245.3a1.12,1.12,0,0,1,1.17-1h.51a.77.77,0,0,1,.82.71c0,1.61.05,5.38.06,5.44Z" style="fill:#B7E0A3"></path><path d="M190.08,226.84a8,8,0,0,1-2.84,4.41,13.42,13.42,0,0,0-3.46,3.88c-.8,1.65-.71,4.07.65,5.07a5.89,5.89,0,0,1-2.49-4.64,6.19,6.19,0,0,1,2-4.95c1.15-1,2.66-1.3,3.61-2.53a5.62,5.62,0,0,0,.85-4.18,24.91,24.91,0,0,0-1.06-3.53C189.07,220.89,190.41,224.76,190.08,226.84Z" style="fill:#B7E0A3"></path><path d="M186.05,221.87a14.6,14.6,0,0,1-1.49-4.57C184.39,215.67,186,213,186,213a7.13,7.13,0,0,0-2.6,4.71,7.9,7.9,0,0,0,1.24,5.42,11.8,11.8,0,0,0,2.45,2.53C187.36,224.34,186.58,223,186.05,221.87Z" style="fill:#B7E0A3"></path><g style="opacity:0.8;isolation:isolate"><path d="M193.09,255.48H174.73a3.58,3.58,0,0,1-2.17-.92h22.69A3.57,3.57,0,0,1,193.09,255.48Z" style="fill:#fff;opacity:0.4"></path></g><path d="M190.49,241.9c-.36.09-.71.19-1,.3h-.42a4.39,4.39,0,0,0-3.13-.09,1,1,0,0,1,.22.09h-.45a.92.92,0,0,1,.23-.09,4.27,4.27,0,0,0-3,0,4.32,4.32,0,0,0-3.22.06l-.1,0h0l-.13,0c-.31-.11-.65-.21-1-.3-1.24-.31-1.34.3-1.34.3l0,0a6.21,6.21,0,0,1,.64.73l0,.06c.19.27.32.55.25.72h-1.24a1.76,1.76,0,0,0-1.85,1.62v2.57a1.51,1.51,0,0,0,.55,1.15l2.35,2.07a1.83,1.83,0,0,0,.77.4,6.12,6.12,0,0,0,5.47,3.07h.88c3.33,0,6-2.38,6-5.3v-4.77a3.59,3.59,0,0,1,.34-1.52l.4-.84S191.73,241.59,190.49,241.9Zm-14.19,7c-.63-.56-.66-.53-.66-1.3V245.3a1.12,1.12,0,0,1,1.17-1h.51a.77.77,0,0,1,.82.71c0,1.61.05,5.38.06,5.44Z" style="fill:#fff;opacity:0.6000000000000001;isolation:isolate"></path><path d="M190.08,226.84a8,8,0,0,1-2.84,4.41,13.42,13.42,0,0,0-3.46,3.88c-.8,1.65-.71,4.07.65,5.07a5.89,5.89,0,0,1-2.49-4.64,6.19,6.19,0,0,1,2-4.95c1.15-1,2.66-1.3,3.61-2.53a5.62,5.62,0,0,0,.85-4.18,24.91,24.91,0,0,0-1.06-3.53C189.07,220.89,190.41,224.76,190.08,226.84Z" style="fill:#fff;opacity:0.8;isolation:isolate"></path><path d="M186.05,221.87a14.6,14.6,0,0,1-1.49-4.57C184.39,215.67,186,213,186,213a7.13,7.13,0,0,0-2.6,4.71,7.9,7.9,0,0,0,1.24,5.42,11.8,11.8,0,0,0,2.45,2.53C187.36,224.34,186.58,223,186.05,221.87Z" style="fill:#fff;opacity:0.8;isolation:isolate"></path><polygon points="179.4 415.65 185.52 415.65 186.52 262.4 178.4 262.4 179.4 415.65" style="fill:#263238"></polygon><polygon points="178.39 262.65 178.55 287.38 179.39 415.65 185.52 415.65 186.36 287.38 186.52 262.65 178.39 262.65" style="fill:#fff;opacity:0.4;isolation:isolate"></polygon><polygon points="178.39 262.65 178.55 287.65 186.36 287.65 186.52 262.65 178.39 262.65" style="opacity:0.2;isolation:isolate"></polygon><polygon points="114.36 415.65 120.48 415.65 131.49 262.4 123.36 262.4 114.36 415.65" style="fill:#263238"></polygon><polygon points="114.35 415.65 120.48 415.65 130.95 270.01 131.49 262.65 123.36 262.65 122.92 270.01 114.35 415.65" style="fill:#fff;opacity:0.5;isolation:isolate"></polygon><polygon points="122.92 269.65 130.95 269.65 131.49 262.65 123.36 262.65 122.92 269.65" style="opacity:0.2;isolation:isolate"></polygon><polygon points="244.44 415.65 250.56 415.65 241.56 262.4 233.43 262.4 244.44 415.65" style="fill:#263238"></polygon><polygon points="233.43 262.65 233.97 270.01 244.44 415.65 250.56 415.65 242 270.01 241.56 262.65 233.43 262.65" style="fill:#fff;opacity:0.5;isolation:isolate"></polygon><polygon points="241.56 262.65 233.43 262.65 233.97 269.65 242 269.65 241.56 262.65" style="opacity:0.2;isolation:isolate"></polygon><path d="M119.08,258.57H245.84a2.16,2.16,0,0,1,2.16,2.16v5.51a0,0,0,0,1,0,0H116.92a0,0,0,0,1,0,0v-5.51A2.16,2.16,0,0,1,119.08,258.57Z" transform="translate(364.92 524.81) rotate(180)" style="fill:#263238"></path><path d="M119.08,258.57H245.84a2.16,2.16,0,0,1,2.16,2.16v5.51a0,0,0,0,1,0,0H116.92a0,0,0,0,1,0,0v-5.51A2.16,2.16,0,0,1,119.08,258.57Z" transform="translate(364.92 524.81) rotate(180)" style="fill:#fff;opacity:0.6000000000000001;isolation:isolate"></path><rect x="116.92" y="258.57" width="131.08" height="3.84" transform="translate(364.92 520.97) rotate(180)" style="opacity:0.2;isolation:isolate"></rect><path d="M113.12,259.57H251.8A2.17,2.17,0,0,0,254,257.4h0a2.16,2.16,0,0,0-2.16-2.16H113.12A2.16,2.16,0,0,0,111,257.4h0A2.17,2.17,0,0,0,113.12,259.57Z" style="fill:#263238"></path><path d="M113.12,259.57H251.8A2.17,2.17,0,0,0,254,257.4h0a2.16,2.16,0,0,0-2.16-2.16H113.12A2.16,2.16,0,0,0,111,257.4h0A2.17,2.17,0,0,0,113.12,259.57Z" style="fill:#fff;opacity:0.6000000000000001;isolation:isolate"></path></g></svg>