<svg xmlns="http://www.w3.org/2000/svg" viewBox="0 0 195.759 131.018" height="495.186" width="739.877" xmlns:v="https://vecta.io/nano"><path d="M3.036 123.273c15.416-9.572 28.181-21.315 38.206-34.127 9.849-12.588 14.223-23.628 25.383-35.905 12.491-13.654 28.99-25.188 43.13-33.329 1.642-.94 2.742-1.882 3.524-3.016 1.654-1.732 3.496-1.687 4.952-1.791 9.01-4.584 18.98-8.953 27.944-10.963 13.447-3.067 30.014-7.339 41.57-.411 2.173 1.39 5.566 4.852 6.492 6.624 2.257 4.563 1.909 8.324-.419 11.806-1.746 3.643-6.165 6.103-9.895 5.216-3.837-1.174-7.679-2.779-9.59-5.854-1.213-1.99-.335-4.925 1.794-7.235 2.449-2.656 5.05-3.501 7.027-2.284 1.311.807 1.634.632 1.949-1.055.192-1.025.106-1.201-.747-1.535-1.486-.581-5.764-.095-8.204.932-4.494 1.892-10.069 6.47-11.694 9.605-1.575 3.834-2.465 8.082-4.557 11.559-4.592 7.632-12.651 12.92-19.987 16.757-15.515 8.114-32.468 16.263-47.185 22.925l-3.704 1.673c-4.753 1.506-8.555 3.871-13.582 5.247-20.133 7.381-34.98 26.59-47.954 39.849-2.031 2.026-3.022 3.202-3.022 3.584 0 .865-2.245 2.351-4.008 2.324-2.388.573-8.49 1.593-10.32 2.894-.604.458-.504.504 1.099.511 9.402-.787 21.725-3.432 29.281-6.345 3.059-1.313 6.711-2.064 9.17-4.065 1.884-1.544 3.847-1.97 4.614-1.001 1.017 1.284 1.252 2.261.68 2.832-1.823 2.048-4.356 3.193-5.998 5.019-1.681 1.685-.884 1.284.882.942 5.006-.97 11.094-1.705 15.478-3.167 2.227-1.113 4.106.083 3.24 2.19-.206.451-.374.968-.374 1.148 0 .798 6.107-1.054 8.396-2.547 2.051-1.742 5.647-.753 4.639 2.057-.559 1.471.231 1.459 6.284-.092 1.676-.565 6.177-1.575 6.434 1.265.649 1.832 1.962 4.311-.913 4.059-1.249-.116-1.892-.597-1.903-1.425-.007-.483-3.036-.109-4.183.516-2.794.679-6.587 1.584-8.724-.633-.937-.992-1.015-1.011-2.412-.574-2.228.89-4.717 1.569-6.097 1.795-2.167.355-3.272-.062-4.916-1.853-1.518-1.782-1.196-1.692-3.293-.995-4.404.855-8.726 2.373-12.989 2.229-3.433-.201-4.106-1.357-4.724-4.422l-2.436.772c-6.372 2.29-12.343 3.189-18.494 4.392-5.921 1.165-8.854 1.44-12.596 1.615-8.757.41-13.911-3.578-7.248-7.715zm18.529-3.872c1.038-1.194 1.334-2.705 2.433-3.93 3.359-3.631 6.467-7.302 6.467-7.636s-.908.236-1.764 1.115c-4.062 3.402-8.512 7.229-11.377 9.325-2.421 1.771-3.021 2.586-1.587 2.155 1.864-.756 4.029-.068 5.829-1.029zM50.22 85.838c3.313-2.411 6.737-5.32 9.613-7.503 1.116-.849 2.028-1.79 2.028-2.09 0-.848 2.016-9.541 2.802-12.084.387-1.251.627-2.351.534-2.444-.195-.195-1.082.862-1.592 1.896-5.636 7.172-9.152 14.397-13.911 21.608-1.422 2.137-1.2 2.397.525.617zm18.147-14.464c.719-.582 1.494-1.121 1.722-1.198.547-.184 3.095-2.122 3.766-2.866.291-.322 1.95-1.681 3.687-3.02s3.637-2.872 4.224-3.408 1.19-.974 1.342-.974.26-.913.241-2.028.219-3.616.528-5.556c.372-3.992 1.368-7.799 2.489-11.058.252-.806.23-.802-.85.16-4.41 5.154-8.187 12.049-10.432 18.292-.865 1.314-3.437 8.979-4.536 8.906-.897-.3-.175-5.488 1.189-8.539.173-.388.704-1.817 1.18-3.175s1.276-3.397 1.778-4.53l.914-2.06-1.29 1.133c-3.368 2.958-5.36 6.1-5.136 8.103-.351 4.483-4.282 10.198-4.497 14.236-.003.566.157.519 1.186-.353l2.495-2.065zm56.994-19.961a516.79 516.79 0 0 1 3.842-1.894c3.554-2.082 3.294-1.505.215-1.084-4.249.455-13.48 2.78-14.817 3.732-4.171 1.499-11.328 2.985-15.268 2.439l-2.215-.361-3.038 2.567-4.488 3.684c-1.391 1.071-2.22 1.761-5.33 4.43-1.946 2.372-6.139 3.298-7.427 6.196-.221.526-.665 1.174-.985 1.44s-.583.6-.583.742c17.495-5.02 35.184-14.253 50.094-21.893zM87.999 55.89l1.973-1.549.228-3.478c.323-4.922 1.204-10.557 2.004-12.807.375-1.056.621-1.982.546-2.057s-.571.148-1.102.496c-.918.602-2.624 3.792-2.624 4.907 0 .288-.152.8-.338 1.136-.413.747-1.662 6.014-1.944 8.197-.113.873-.409 2.738-.659 4.145s-.364 2.558-.255 2.557 1.086-.697 2.171-1.549zm10.609-8.681c1.791-5.243 3.754-11.192 6.387-15.748 1.191-1.886 2.782-5.066 2.535-5.066-.268 0-3.125 1.6-4.327 2.423a97.1 97.1 0 0 1-4.155 2.692c-2.025 1.236-2.668 2.421-4.212 7.761-1.216 2.731-1.195 5.813-1.749 8.467-.288 1.358-.526 2.904-.529 3.436-.006.946.011.953.761.353 1.877-1.309 3.583-3.418 5.289-4.318zm7.209 3.842c5.126-1.044 9.486-2.586 14.694-3.675 5.19-1.454 10.724-2.692 14.862-3.732.947-.238 1.979-.423 2.293-.412 1.299.047 4.227-1.04 4.99-1.853 1.076-1.235 4.223-2.297 4.577-3.706l-14.874 4.955c-5.665 2.372-11.378 2.974-15.818 3.764-.679.121-3.153.197-5.498.168l-4.263-.053c-1.128.79-5.681 4.21-5.761 4.707 0 .535 2.826.439 4.799-.164zm3.111-13.014c.574-2.206 1.057-3.733 1.286-4.057.137-.194.354-.845.482-1.446.233-1.09 2.47-5.688 4.5-9.246.588-1.03 1.003-1.938.924-2.018s-.95.351-1.934.956c-1.777 1.093-1.962 1.351-4.742 6.593-2.773 4.321-5.439 8.911-6.43 13.737l-.221 1.167c1.796-1.494 5.539-3.971 6.136-5.686zm8.142 4.461c4.646.358 10.35-2.747 14.805-3.235.628-.037 11.496-3.411 13.593-4.22 2.522-.384 6.324-3.282 8.389-3.361.6-.005 3.423-3.47 3.095-3.798-.093-.093-1.326.314-2.74.905-11.655 4.579-31.366 7.954-33.834 7.504-.879.466-3.636 2.445-4.543 3.26-.291.262-1.283 1.007-2.205 1.656-1.596 1.125-2.184 2.129-1.235 2.111 1.539-.209 3.043-.601 4.674-.823zm-1.153-8.614l3.232-2.373 1.99-1.411c1.815-1.318 11.095-7.486 12.158-8.081a33.09 33.09 0 0 0 2.185-1.371c.619-.428 2.064-1.307 3.209-1.953 1.791-1.01 2.06-1.293 1.92-2.024-.113-.59.444-1.89 1.824-4.259 1.092-1.875 1.911-3.485 1.819-3.577-.218-.218-6.927 1.967-9.545 3.109-3.805 1.511-7.241 3.258-9.525 4.472-.388.207-1.261.651-1.94.988-1.767.876-4.777 5.414-8.185 12.343l-2.07 4.178c-1.43 2.848-.899 2.841 2.929-.042zm13.676-2.05c.519-.2 4.712-1.117 6.245-1.366 5.312-1.607 12.294-1.832 16.862-4.45.194-.129 1.423-.585 2.73-1.014 2.7-.886 3.592-1.774 3.935-3.917.372-2.328 1.756-4.629 4.439-7.383 1.742-2.56 3.38-2.841.803-2.125-14.823 3.825-28.272 12.738-37.922 20.057-.532.319-.969.679-.97.799-.003.223 2.913-.23 3.878-.602zm55.921-7.404c3.427-2.067 5.61-5.677 5.983-8.97.34-3.004-3.578-8.617-3.426-6.879.372.718.541 2.063.473 3.773-.093 2.356-3.008 3.812-5.744 2.869-3.153-1.182-7.076 3.067-6.076 5.368 1.336 3.072 5.688 5.277 8.79 3.839zM155.7 10.396c1.979-.611 1.346-2.379 2.5-3.506 1.022-.956.84-1.397-.472-1.142-1.722.335-2.707.623-3.792 1.762-.744 1.359-2.016 2.127-3.011 3.395-1.048 1.927-3.566 1.824-2.481-.472.518-1.002 1.139-1.989 1.609-2.555.448-.54.413-.588-.358-.479-.574.082-1.289.762-2.169 2.062-.722 1.067-1.321 2.076-1.332 2.243s-.654 1.1-1.43 2.075c-1.525 1.915-1.78 2.592-.794 2.107 3.61-2.096 8.02-3.696 11.73-5.489zm18.081-4.585c2.25-.414 7.232-.472 7.223-.696-.243-.729-2.859-1.034-9.252-1.078-5.355-.037-6.521.05-7.439.553-8.217 6.301 5.284 1.991 9.468 1.221zM104.195 129.46c-1.199-.166-1.764-.692-1.764-1.644.448-1.553 2.982-1.525 4.233-1.854 3.221-1.13 7.452-.947 10.146-3.048 1.414-1.163 2.588-.765 3.238 1.096.997 2.564-1.245 2.493-2.885 3.321-2.943 1.501-9.602 2.594-12.969 2.128z"/></svg>