<svg xmlns="http://www.w3.org/2000/svg" xmlns:xlink="http://www.w3.org/1999/xlink" viewBox="0 0 500 500" xmlns:v="https://vecta.io/nano"><style><![CDATA[.B{fill:#b7e0a3}.C{opacity:.5}.D{fill:#fff}.E{opacity:.2}.F{opacity:.3}.G{opacity:.4}.H{fill:#263238}]]></style><use xlink:href="#B" class="B"/><use xlink:href="#B" class="C D"/><g class="B"><path d="M69.75 334.12c1.77-1.12 4.66-5.45 11.28-4.77 5.46.57 12.65-1.59 14.71-.54s1.71 2 3.18 3.26c2.42 2.12.29 8.8.46 10.88s-1 8.07-2.77 9.52-1.38 6.87-3.88 9c-1.08.91-3.46 1.43-6 1.67a5.55 5.55 0 0 0 2.07-.93c2.12-1.8 1.79-6.39 3.28-7.62s2.49-6.28 2.35-8 1.66-7.42-.39-9.22c-1.25-1.09-1-1.86-2.69-2.76s-7.83.94-12.46.46c-5.6-.58-8 3.08-9.55 4s-4.23 3.61-4.89 5.63a4.93 4.93 0 0 0-.21 1.13 8.42 8.42 0 0 1-.28-5.05c.79-2.41 4.04-5.54 5.79-6.66z" class="E"/><use xlink:href="#C"/></g><use xlink:href="#C" class="C D"/><g class="B"><path d="M390.08 251.64c-.54-1.76-3.57-5.22-1.46-10.7 1.74-4.51 1.56-11.13 2.93-12.64s2.07-1 3.5-2c2.36-1.57 7.56 1.77 9.37 2.11s6.64 2.72 7.47 4.56 5.53 2.75 6.76 5.37c.53 1.13.42 3.27 0 5.48a4.65 4.65 0 0 0-.31-2c-1-2.22-5-3-5.73-4.55s-4.77-3.57-6.31-3.86-5.93-3.12-7.94-1.78c-1.21.81-1.8.37-3 1.65s-1 6.88-2.48 10.71c-1.79 4.63.77 7.56 1.23 9.06s2.09 4.43 3.67 5.45a3.85 3.85 0 0 0 .91.44 7.37 7.37 0 0 1-4.36-.92c-1.78-1.15-3.7-4.61-4.25-6.38z" class="E"/><use xlink:href="#D"/></g><g class="C D"><use xlink:href="#D"/></g><g class="E B"><path d="M261.34 113.15c3.61-.82 5 3.37 4.85 4.43s-1.4 6.27-.52 11.41 2.57 11.63.73 16.35c-2 4.81-19.84 17.74-27 14.46a4.63 4.63 0 0 1-2.38-2.15 4.36 4.36 0 0 0 1.11.78c5.67 2.87 20.42-7 22.19-10.77s.49-9-.06-13.17.69-8.35.79-9.16-.83-4.26-3.76-3.73c-1.19.21-4.19 4.91-6.56 5.78s-5.15.53-7.47 2-8.57 6.85-8.93 10.29a14 14 0 0 0 .05 2.88 22.3 22.3 0 0 1-.63-5.84c.29-4.3 7.77-11.31 10.58-13.22s6.32-1.66 9.18-2.83 6.37-7.2 7.83-7.51z"/></g><use xlink:href="#E" class="B"/><g class="C D"><use xlink:href="#E"/></g><g class="E B"><path d="M353.55 444.47c0 2.32-2.76 2.57-3.39 2.34a22.41 22.41 0 0 0-6.89-1.92c-3.26-.18-7.45-.07-10.07-1.85s-8-14.6-5-18.52a2.94 2.94 0 0 1 1.65-1.15 2.76 2.76 0 0 0-.63.57c-2.55 3.05 1.38 13.43 3.45 15.05s5.43 1.57 8 1.82a17.84 17.84 0 0 1 5.48 1.76c.5.21 2.72.1 2.8-1.77 0-.75-2.4-3.24-2.6-4.81s.4-3.22-.16-4.84-3-6.19-5-6.89a9.55 9.55 0 0 0-1.77-.38 14.69 14.69 0 0 1 3.66.44c2.58.78 5.8 6.33 6.58 8.31s.12 4.09.43 6 3.47 4.91 3.46 5.84z"/></g><use xlink:href="#F" class="B"/><g class="C D"><use xlink:href="#F"/></g><g class="E B"><path d="M92.24 285c2.49 2.43 2.67 8.31 5.76 10s8.84 4.84 9.69 7.59c1.46 4.69-2.57 10.39-5.73 12.45 2.12-2.27 4-5.86 3-8.93-.72-2.33-5.59-4.95-8.19-6.42s-2.76-6.42-4.87-8.47c-.79-.76-4.2-1.31-5 .58s-1.56 5.54-2.45 7.76-2.12 10-1.58 13.74a9.06 9.06 0 0 0 1 3.14 10.3 10.3 0 0 1-2.31-5.35c-.64-4.43.78-13.63 1.86-16.25s1.93-6.93 2.91-9.17 4.97-1.59 5.91-.67z"/></g><use xlink:href="#G" class="B"/><g class="C D"><use xlink:href="#G"/></g><g class="E B"><path d="M406.24 402c.86-3.37 5.87-6.45 5.82-10s-.2-10.07 1.76-12.18c3.34-3.6 10.3-2.95 13.65-1.23-3-.7-7-.51-9.23 1.85-1.66 1.78-1.51 7.32-1.49 10.3s-4.2 5.59-4.92 8.44c-.27 1.07.95 4.29 3 4.07s5.57-1.4 8-1.73 9.72-3.14 12.7-5.47a9.39 9.39 0 0 0 2.22-2.44 10.32 10.32 0 0 1-3.49 4.67c-3.52 2.76-12.21 6.1-15 6.47s-7 1.78-9.41 2.05-3.92-3.59-3.61-4.8z"/></g><g class="B"><use xlink:href="#H"/><use xlink:href="#I"/><use xlink:href="#J"/><use xlink:href="#K"/><use xlink:href="#L"/></g><g class="C"><use xlink:href="#H"/><use xlink:href="#I"/><use xlink:href="#J"/><use xlink:href="#K"/><use xlink:href="#L"/></g><g opacity=".1"><path d="M5.62 89.92C24 98.68 42.5 107.35 59.13 119.18c2.9 2.25 5.09 5.4 7.09 8.38 2.62 4.05 5 8.21 7.25 12.44 4.53 8.44 8.53 17.11 12.32 25.9l-13.68-25.14c-2.4-4.12-4.8-8.23-7.46-12.14-2-2.88-4-5.78-6.76-7.9-14.6-10.51-36.53-21.65-52.27-30.8zM126 198c9.16 16 17.32 32.53 25.87 48.83 3.32 6 6.63 12.13 10.71 17.63 4.61 5.06 10.27 9.16 15.68 13.37 3.65 2.8 7.37 5.52 11.09 8.23A270.65 270.65 0 0 1 167 269.77a36.17 36.17 0 0 1-9-10.53A252.49 252.49 0 0 1 144.72 235l-18.71-37zM79.09 84a1.85 1.85 0 0 0-.59-.13c-.06 0 0 0 0 0a18.92 18.92 0 0 0 5 4.24 1 1 0 0 0 .66.14c-.41-1.25-1.55-2.18-2.38-3.25 1 .61 4 2.42 3.06 3.88-1.73 1.57-5.38-2.69-6.24-4.07-.48-.69-.6-1.66.49-.79zM29.14 54.31c6.8 3.91 13.2 8.41 19.62 12.86 3.15 2.23 6.56 4.35 9.61 6.68 2.72 1.88 6.69 5.28 9.54 6.75-5.56-1.84-10.35-5.6-15.36-8.6a187.29 187.29 0 0 1-23.41-17.69zm64.4 44.17c5.64 1.65 11 4 16.67 5.71 4.09 1.1 8.68 2.2 12.82 3.23 1.43.37 2.85.72 4.29 1a110.81 110.81 0 0 1-19.51-3.95c-4.84-1.84-9.56-3.87-14.27-6zm26.95 13.4c3.85.29 7.63 1.39 11.48.82 4.35-.64 10.94-1.88 15.3-2.58l3.84-.6a102.14 102.14 0 0 1-21 4.24 53.16 53.16 0 0 1-9.59-1.88zm17.51-3.09a78 78 0 0 1 17.74-2 77.93 77.93 0 0 1-17.74 2zm-51.36 49.29c2.86 4.22 4.85 8.94 6.94 13.56 3 7 5.77 14.09 8.52 21.18 2.78 6.77 5.79 14.39 8.33 21.25l-3.14-6.93c-3-6.77-6.22-14.2-8.85-21-3.78-9.39-7-19.07-11.8-28zm73.93 127.16c8.22 6.91 17.39 12.63 26.24 18.68 3.28 2.34 7 4.2 10 6.93 4.75 4.11 9.72 10 14.67 13.82-3.92-2.51-8.71-7.38-12.23-10.51-3.86-3.84-8.43-6.48-13-9.41-8.8-6.14-18-12-25.68-19.51zm44.95 27.01c9.67 7 17.63 16.23 26.83 23.78 3.49 2.24 8.63 5.31 12.22 7.52l6.1 3.79c-6.38-3.34-12.7-6.75-18.82-10.56-9.43-7.48-17.19-16.72-26.33-24.53zm-29.83-27.01c7.59 5.18 16.5 8 24.13 13.19 3.11 2.2 5.59 5.19 8.09 8 2.81 3.28 5.51 6.65 8.06 10.13l-4.3-4.83c-4-4.27-7.66-9.05-12.41-12.53-7.54-5.11-16.47-8.16-23.57-14zM148 310.49c-5.26-7.53-12.58-13.34-17.88-20.89-4.17-6.86-6.31-15.07-8.65-22.71l2.31 6c2.22 5.42 4 11.18 7.15 16.12 5.24 7.45 12.5 13.48 17.07 21.44zm75.05 4.32l20 17.74a59.32 59.32 0 0 0 7.85 6.06c3 1.45 6.12 2.63 9.23 3.8l6.27 2.37a120.3 120.3 0 0 1-15.89-5.39 60.12 60.12 0 0 1-8.11-6.07 256.55 256.55 0 0 1-19.38-18.51zm24.27 35.69c3.72 2.05 7.9 3.06 11.95 4.24s8.21 2.17 12.35 3.09l18.63 4.3 6.18 1.58-6.28-1.1c-10.39-2-21-4-31.09-7.13-4-1.35-8.22-2.56-11.74-5zm19.11 0l24.27 4.9c2.68.54 5.23 1.66 7.94 2.15 4.35.92 9 1.45 13 3.48 5.52 3.55 10.38 8 15.3 12.34l-6.53-5.05c-3.27-2.4-6.42-5.21-10.07-7-3.8-1.56-7.89-2-11.93-2.84-10.53-3.15-21.38-5.17-32-8zm48.57 4.2a5.51 5.51 0 0 0-1.16.09c-.1 0 0 0 0-.12s0 0 .07 0a29.57 29.57 0 0 0 4.45 1.53 6.12 6.12 0 0 0 2.36.34.23.23 0 0 0-.05.17 5.09 5.09 0 0 0-1.09-1l-1.33-.93a11 11 0 0 1 1.57.5c.55.25 2.23.93 1.45 1.84a2.17 2.17 0 0 1-1.51.31 13.15 13.15 0 0 1-6.17-2.44.72.72 0 0 1-.18-.29.31.31 0 0 1 .3-.36 3.52 3.52 0 0 1 1.25.29zm-38.7-7.36c8.54 2 17.53 3.88 25.63 7.24-8.61-2.08-17.4-3.9-25.63-7.24zm46.92 18.34c6.77 4.37 11.93 10.76 17.36 16.59 3.94 4.26 7.93 9.28 11.64 13.77 1.26 1.55 2.53 3.1 3.93 4.53-6-5.34-10.77-11.86-16.31-17.63-5.38-5.92-10.35-12.25-16.62-17.26zm13.41 6.32c12.37 12.25 23.65 25.1 36.4 37.09 1.77 1.73 3.51 3.5 5.4 5.1-15.59-12.31-28.75-27.3-41.8-42.19zm29.97 36.86c5.12 3.7 12 9.49 17.54 12.39 6.62 2.65 13.9 3.56 20.7 5.74l-5.31-1c-5.19-1.06-10.92-1.81-15.82-3.88-6.42-3.53-11.72-8.45-17.11-13.29zm26.81 11.85a77.6 77.6 0 0 1 18.53 4.11 100.6 100.6 0 0 1-18.53-4.11zM411 427l10.71 1.87a127.65 127.65 0 0 1 16.16 2.48c5.42 1 10.2 4.1 14.72 7.09-4.82-2.47-9.5-5.28-14.93-6.16-8.92-1.95-17.92-2.36-26.66-5.28zm20.75 5.71c3.81.43 7.78.81 11.14 2.76-3.72-.62-7.73-1-11.14-2.76zm-95.12-44.96c3.41 6.24 4.71 13.35 6.7 20.12-3.3-6.3-4.57-13.39-6.7-20.12zm7.49 12.82l2.59 8.56c1.56 4.44 2.56 9.36 5.31 13.19l5.73 5.3c1.07 1 2.16 2.05 3.21 3.12-1.2-.89-2.35-1.84-3.53-2.75-1.66-1.4-4.48-3.58-6-5a16.07 16.07 0 0 1-2.76-5.05 94.38 94.38 0 0 1-4.51-17.35zM0 36.83L28.84 60C34.6 64.58 41 68.18 47.29 72c6.76 4.18 17.21 10.19 23.56 14.76 4.43 3.62 7.31 8.69 10.2 13.4 2.45 4.3 4.79 8.65 6.84 13.14-2.46-4.28-5-8.53-7.67-12.63-3-4.46-6-9.27-10.32-12.59-6.4-4.29-17-10.29-23.64-14.37-4.21-2.57-8.44-5.13-12.55-7.91-12-8.75-22.74-19-33.71-29zm90.26 72.69c6.64 13.07 13.25 26.14 19 39.63l11.23 32.26c-4.11-10.29-8.3-21.54-12.13-31.94-5.79-13.41-12.25-26.56-18.1-39.95z"/><path d="M78.37,109.52c5.52,11.27,13,21.54,19.77,32.06,5.33,8.24,8.74,17.59,12.29,26.69-3.41-7.38-7-15.57-10.86-22.65-7.39-11.77-15.94-23.13-21.2-36.1Z"/><path d="M12.19 62.33C22 67.79 31.65 73.54 41.24 79.41c6.38 3.94 13.28 6.86 19.61 11a21.27 21.27 0 0 1 7.84 8.4 215.72 215.72 0 0 1 9.68 20.32l-5.45-9.83c-8-14.53-7.83-15-22.84-22.71-13.24-7-25.51-15.81-37.89-24.24zM0 70c13.41 8 27.66 14.38 40.84 22.73 6.6 4.28 13.27 8.39 18.91 14 5.32 5.88 8.92 12.92 12.11 20.07-3.85-6.67-7.82-13.45-13.22-19-5.64-5.19-12.4-9.3-18.86-13.42C26.68 86 12.52 79.24 0 70zm81.49 60.68c7.52 10 14.44 20.85 18.23 32.85l-1-2.15c-4.9-10.45-11.36-20.78-17.28-30.7zm22.7 44.68a82.38 82.38 0 0 1 6.81 13.81c4.89 11.85 8.55 24.19 13 36.22a167.23 167.23 0 0 0 19.32 33c2.52 3.43 7.52 7.94 10.57 11.11l10.8 11-11.19-10.61c-3.24-3.28-8.06-7.38-10.83-11a155.35 155.35 0 0 1-19.59-33.16c-4.13-11.27-8.18-25.24-12.53-36.4a88.47 88.47 0 0 0-6.36-14zM115.76 224c5.1 9.92 10.1 19.9 15.76 29.5 2.82 4.8 5.77 9.51 9.72 13.44a128.84 128.84 0 0 0 12.37 11.21c-6.79-4.84-13.5-10.23-18.4-17.08-7.89-11.55-13.86-24.29-19.45-37.07zm-2.37-36.81c6.06 10.71 13.09 21 17.54 32.51 3.17 8.13 6.2 16.52 9.73 24.48a47.6 47.6 0 0 0 5 9.19 86 86 0 0 0 6.4 8.36A60.79 60.79 0 0 1 140 244.5c-3.68-7.94-6.81-16.28-9.92-24.45-4.37-11.51-11.21-21.84-16.65-32.86zM188.87 296a53.78 53.78 0 0 0 7.32 7.9 43 43 0 0 0 9.33 5.31 23.93 23.93 0 0 1-10-4.54 27.07 27.07 0 0 1-6.69-8.67zm-65.63-47.09c3.12 11.39 5.69 25 10.23 35.81 1.69 2.81 5.11 7.45 7 10.26l3.95 5.94-4.35-5.65c-2-2.83-5.6-7.22-7.35-10.14a57.9 57.9 0 0 1-3.14-8.41 252.35 252.35 0 0 1-6.3-27.81zM148.78 306a171.14 171.14 0 0 1 11.33 19.83c2.14 5.1 4 10.89 5.8 16.13l1.74 5.43c-.76-1.74-1.47-3.51-2.2-5.26-2.13-5.08-4.09-10.87-6.25-15.88-2.76-6-7.34-14.31-10.42-20.25z"/></g><use xlink:href="#M" class="B"/><use xlink:href="#M" class="C D"/><g class="B"><path d="M359.93 294.77c1.21-2.32 5.85-6.45 8.12-7.48s8.77.84 11.83 2a6.64 6.64 0 0 1 1.41.72c-2.79-1.17-7.28-2.68-9.07-2-2 .75-6.29 4-7.47 5.94s.27 7.14-.19 9.2-2.17 3.65-2 5.21 1.8 3.59 3.68 3.37 3.32-2.26 5.54-1.72 5.32 2.61 8 1.78 4.45-3.45 6.66-5.89l.36-.41a10.36 10.36 0 0 1-.86 1.25c-2.34 3-4.2 6.18-7.18 7.36s-6.74-.94-9.34-1.39-4.17 2.06-6.23 2.45-4.2-1.79-4.53-3.58 1.51-3.75 1.86-6.17-1.79-8.33-.59-10.64z" class="E"/><use xlink:href="#N"/></g><use xlink:href="#N" class="C"/><use xlink:href="#O" class="B"/><use xlink:href="#O" class="C D"/><g class="B"><path d="M38.5 136.2c3.09 1 11.27.41 16.8 8.48 4.56 6.67 14.2 12.85 14.87 16.11s-.8 3.68-1 6.48c-.29 4.61-10.65 8.14-13.08 10.19s-11 6-14.51 5.32-9.86 4.55-14.92 3.62c-2.18-.41-5.12-2.64-7.85-5.27a9.07 9.07 0 0 0 3.19 1.52c4.28.79 9.67-3.66 12.64-3.07s10.22-2.77 12.28-4.5 10.83-4.72 11.08-8.63c.15-2.37 1.4-2.72.83-5.48s-8.73-8-12.59-13.65c-4.68-6.83-11.6-6.34-14.23-7.19s-8.56-1.57-11.71-.5a7.81 7.81 0 0 0-1.61.76 13.08 13.08 0 0 1 6-4.8c3.7-1.25 10.7-.39 13.81.61z" class="E"/><use xlink:href="#P"/></g><use xlink:href="#P" class="C D"/><g class="B"><path d="M73.4 169.06c3 2.82 3.38 8.52 4.72 11s4.53 5.55 4.21 12 3.83 13.11 3.33 18.41c-.26 2.65-2.41 4.48-4.85 6a4.6 4.6 0 0 0 .9-2.33c.43-4.53-3.11-10.22-2.83-15.7s-2.44-8.11-3.59-10.2-1.44-7-4-9.36c-2.83-2.63-5.7.08-10.08 1.91s-8.88 5.91-10.44 8.82-7.19 7.87-8 12.9 2.83 8.92 4 12c.67 1.74 1.1 5.16 2.84 8.15-3.44-3.89-4-9.29-4.94-11.8-1.39-3.57-5.6-8.15-4.7-14s7.52-11.7 9.34-15.11 7.11-8.21 12.25-10.36 8.52-5.39 11.84-2.33z" class="E"/><use xlink:href="#Q"/></g><use xlink:href="#Q" class="C D"/><g class="B"><path d="M104.31,155.91c4.6.88,14,6.77,17,10.15s3,15.49,2.56,21.34a11.45,11.45,0,0,1-.52,2.78c.6-5.39.92-13.86-1.12-16.61-2.31-3.09-10.09-8.77-14-9.83s-12.13,4.08-15.9,4.35-7.36-1.89-10-.8-5.27,4.91-3.94,8S84,179.87,84.17,184s-1.8,10.46,1,14.6,8.19,5.91,13.5,8.46c.3.15.6.28.9.4a18.46,18.46,0,0,1-2.59-.83c-6.34-2.5-12.74-4.08-16.28-8.61s-1.79-12.05-2.34-16.74-5.65-6.13-7.37-9.48,1-8.12,3.86-9.59,7.21.7,11.53.08S99.72,155,104.31,155.91Z" class="E"/><use xlink:href="#R"/></g><use xlink:href="#R" class="C D"/><g class="B"><path d="M108.77 118.27a8.28 8.28 0 0 0-3.5-.85c-4.5.09-11 7.34-14.29 10.65s-3.29 9.75-3.8 14.65-5.44 9.05-5.89 9.92 1 5 4.53 6c1.46.38 7.15-3.31 10.25-3.06s8.14 2.28 11.47 1.87 12.87-2.67 14.66-6.31l.1-.21a10.59 10.59 0 0 1-.83 4.86c-2.17 4.38-13.67 7.1-17.69 7.6s-10.1-1.99-13.78-2.3-10.59 4.14-12.36 3.68c-4.21-1.1-6-6.13-5.46-7.18s6.49-6.05 7.1-12S79.85 132 83.82 128s11.8-12.73 17.22-12.83c2.46-.08 5.15 1.2 7.73 3.1z" class="E"/><use xlink:href="#S"/></g><use xlink:href="#S" class="C D"/><g class="B"><path d="M78.65 102a4.2 4.2 0 0 1 1 .25c6.07 2.29 9.47 11.22 9.6 18.46s-3.93 21.9-6.16 26-4.33 11-6.28 14.59-8.7 2-10.17.38c-3.92-4.32-13.39-15.41-18.3-18.85s-5-11.53-4.74-16.41a13.27 13.27 0 0 1 2.07-5.3 1.49 1.49 0 0 0 0 .28c-.21 4.19-.15 11.09 4 14S62 147.83 65.32 151.52c1.25 1.38 7 2.73 8.69-.32s3.48-8.94 5.37-12.48 5.37-16 5.27-22.24c-.09-5.25-2.19-11.55-6-14.48z" class="E"/><path d="M79.62 102.2c5.23 2 8.48 8.86 9.36 15.36-1.27-4-5-7.77-6.6-8.54-3.08-1.49-4.93-3.58-7.54-3.76s-7 .95-10.21 2c4.9-2.57 10.75-6.65 14.99-5.06z"/></g><g class="C"><g class="B"><use xlink:href="#T"/><use xlink:href="#U"/></g><g class="D"><use xlink:href="#T" class="C"/><use xlink:href="#U" class="C"/></g><g class="B"><use xlink:href="#V"/><path d="M69.07 168c-1.19 4.28-10.65 7.56-13 9.5a28.68 28.68 0 0 1-6.36 3.48 29 29 0 0 1 11.83-9.64c3.02-1.27 5.46-2.87 7.53-3.34z"/><use xlink:href="#W"/></g><g class="D"><use xlink:href="#V" class="C"/><use xlink:href="#W" class="C"/></g><g class="B"><path d="M78 179.72l.16.31c1.35 2.47 4.53 5.55 4.21 12a27.09 27.09 0 0 0 1.52 8.88 14.05 14.05 0 0 1-3.22-2.91c-3.54-4.54-1.79-12.05-2.34-16.74a6.3 6.3 0 0 0-.33-1.54z"/><use xlink:href="#W"/><use xlink:href="#X"/><use xlink:href="#Y"/></g><g class="D"><use xlink:href="#X" class="C"/><use xlink:href="#Y" class="C"/></g><g class="B"><use xlink:href="#Y"/><path d="M89.16 122.59c-.46 7.65-4.06 20.3-6.1 24.09-2.21 4.12-4.33 11-6.28 14.59a4.38 4.38 0 0 1-.28.42c2.3-.26 5.14.65 8.07.67-3 1.17-5.91 2.69-7 2.41a7 7 0 0 1-3-1.72 5.1 5.1 0 0 1-.46-.47c-1.7-1.88-2.35-4.3-2-5 .55-1 6.49-6.05 7.1-12S79.85 132 83.82 128c1.39-1.43 3.26-3.42 5.34-5.41zm-18.88 40.65a7.32 7.32 0 0 1-3.67-1.59c-3.92-4.32-13.39-15.41-18.3-18.85a10.25 10.25 0 0 1-3.72-5.4 17.45 17.45 0 0 1 10.71 7.28c4.56 6.67 14.2 12.85 14.87 16.11a6.39 6.39 0 0 1 .11 2.45z"/><path d="M89.16 122.59c-.46 7.65-4.06 20.3-6.1 24.09-2.21 4.12-4.33 11-6.28 14.59a4.38 4.38 0 0 1-.28.42 4 4 0 0 1-1.92 1.36 6.62 6.62 0 0 1-1.43.32 7.81 7.81 0 0 1 1-.79c-1.7-1.88-2.35-4.3-2-5 .55-1 6.49-6.05 7.1-12s.6-13.58 4.57-17.58c1.39-1.43 3.26-3.42 5.34-5.41z"/></g></g><use xlink:href="#Z" class="B"/><use xlink:href="#Z" opacity=".1"/><use xlink:href="#a" class="B"/><use xlink:href="#a" class="E"/><g class="H"><path d="M68.93 143.63a16.37 16.37 0 0 0 0 4.84 24.87 24.87 0 0 0 1.21 4.71 23.19 23.19 0 0 1 1.23 4.55 15 15 0 0 1 .08 4.73 11.16 11.16 0 0 0 .54-4.81 18.28 18.28 0 0 0-1.11-4.74 36.1 36.1 0 0 1-1.34-4.56 26.43 26.43 0 0 1-.61-4.72z"/><path d="M70.35 142.52c-.95-.49-1.69-1-2.07 0s-.85 1.25-.34 1.89.24 1 1.09.91 2.05-2.42 1.32-2.8zm1.15 19.94l4.25 1.43c1.41.43 2.84.93 4.17 1.51a9.67 9.67 0 0 1 1 .47 5 5 0 0 1 .81.64c.54.48 1 1 1.55 1.57l3 3.3a33.5 33.5 0 0 0-2.56-3.71 21.86 21.86 0 0 0-1.51-1.7 4.73 4.73 0 0 0-.93-.76 9.26 9.26 0 0 0-1-.53 28.16 28.16 0 0 0-4.32-1.38 41.48 41.48 0 0 0-4.46-.84z"/><path d="M86.06 169.79c-.8.72-1.53 1.24-.75 1.94s.86 1.23 1.64 1 1 .12 1.24-.69-1.52-2.8-2.13-2.25zm-17.42 11.66a4.83 4.83 0 0 1 1.51-2.08l1.93-1.83a10.22 10.22 0 0 0 1.58-2.21 6.34 6.34 0 0 0 .51-2.75 21.14 21.14 0 0 0-.89-5.27 33.7 33.7 0 0 0-1.82-5l.64 2.56.59 2.56a28.44 28.44 0 0 1 .69 5.14A5.88 5.88 0 0 1 73 175a11.57 11.57 0 0 1-1.38 2.15c-.53.68-1.15 1.3-1.74 2a4.6 4.6 0 0 0-1.24 2.3z"/><path d="M70.28 179.93c-1-.49-1.69-1-2.07 0s-.85 1.25-.34 1.88.24 1 1.09.92 2.04-2.42 1.32-2.8zm1.29-17.38a16.14 16.14 0 0 0 2.75 5.82 11.34 11.34 0 0 0 3.68 3.25 13.81 13.81 0 0 1 1.3.85 33.64 33.64 0 0 1 4.53 4.41 30.61 30.61 0 0 0 2.25 2.31 6.48 6.48 0 0 0 2.79 1.6 7 7 0 0 1-2.53-1.87c-.73-.77-1.4-1.59-2.07-2.42a25.74 25.74 0 0 0-4.5-4.66 10.59 10.59 0 0 0-1.39-.89 12.61 12.61 0 0 1-1.31-.83 13.44 13.44 0 0 1-2.26-2.12 16.14 16.14 0 0 1-1.81-2.6 20 20 0 0 1-1.43-2.85z"/><path d="M89.61 179.41c1.2-.45.61.4 1.24.57s0 .82-.38 1.38-.86 1.42-1.38 1.32-.85.23-1.1-.32-1 0-.34-1.19.59-1.34 1.28-1.55zM73.52 145l.48 4.46.37 4.42v1.07a5.13 5.13 0 0 1-.25 1c-.21.69-.5 1.37-.77 2.06l-1.74 4.14a33.55 33.55 0 0 0 2.3-3.88 20.48 20.48 0 0 0 .92-2.08 5.19 5.19 0 0 0 .3-1.16 9.32 9.32 0 0 0 0-1.17 29.12 29.12 0 0 0-.55-4.5 38.22 38.22 0 0 0-1.06-4.36z"/><path d="M72.62 145.33c.53-1.17.71-.15 1.28-.48s.58.56.71 1.24.4 1.61 0 1.91-.44.77-1 .56-.68.71-1.08-.6-.53-1.37-.2-2zM53.7 163.72a15.69 15.69 0 0 0 4.3 2.08 7.94 7.94 0 0 0 4.83.18l4.4-1.65 4.32-1.86-4.53 1.28-4.45 1.48a5.77 5.77 0 0 1-2.16.29 10.9 10.9 0 0 1-2.25-.32 25.4 25.4 0 0 1-4.46-1.48z"/><path d="M54.63 165a1.75 1.75 0 0 1-2.07 0c-.56-.32-1.54-1.57-.74-2.05s1.34-1.77 2.12-1.12 1.11.71 1.14 1.18.1 1.68-.45 1.99zm16.89-2.54a19.61 19.61 0 0 0-3.32 5.31 20.63 20.63 0 0 0-1.66 6.08 59.7 59.7 0 0 0-.1 6.26l-.1 3.1a10.48 10.48 0 0 1-.52 3 5.1 5.1 0 0 0 .57-1.46c.14-.51.24-1 .33-1.54.16-1 .25-2.08.33-3.12l.27-6.19a25.09 25.09 0 0 1 1.44-5.9 27.82 27.82 0 0 1 2.76-5.53z"/><path d="M66.32 185.24a1.74 1.74 0 0 1 1.24 1.66c.07.63-.34 2.17-1.2 1.81s-2.22 0-2.16-1-.1-1.3.25-1.61 1.27-1.1 1.87-.86zm24.93-34.41a16.87 16.87 0 0 0-5.89.75 11.09 11.09 0 0 0-2.75 1.28 25.68 25.68 0 0 0-2.31 1.9l-4.31 4-2.18 2a11.29 11.29 0 0 1-2.37 1.7 9.55 9.55 0 0 0 2.61-1.4l2.34-1.82 4.43-3.9 2.21-1.88a13.2 13.2 0 0 1 2.53-1.32 19.05 19.05 0 0 1 2.79-.83 23.4 23.4 0 0 1 2.9-.48z"/><path d="M91.48 152.89a1.5 1.5 0 0 1-1.64-1c-.28-.54-.45-2.07.43-2.12s1.92-.91 2.22 0 .53 1.12.32 1.55-.72 1.53-1.33 1.57zm-27.2-6.97a12 12 0 0 0 .5 4.68 8.65 8.65 0 0 0 1 2.16 8.34 8.34 0 0 0 .72.94 9.85 9.85 0 0 1 .67.89 24.31 24.31 0 0 1 2 4.09l1 2.12a4.61 4.61 0 0 0 1.5 1.74 5 5 0 0 1-1.26-1.87c-.31-.7-.57-1.43-.83-2.16a18.61 18.61 0 0 0-2-4.26 9.36 9.36 0 0 0-.72-.94 8.23 8.23 0 0 1-.69-.87 9.42 9.42 0 0 1-1-2 11.87 11.87 0 0 1-.62-2.21 14.74 14.74 0 0 1-.27-2.31z"/><path d="M66 146.09a2.72 2.72 0 0 1-.84 2.53c-.4.22-1.45-.52-1.49-1.24s-.25-1.6.2-1.8.82-.37 1.22-.13.73.22.91.64zm5.44 16.37a16.66 16.66 0 0 0-5 3.14 10.89 10.89 0 0 0-2 2.3 26.85 26.85 0 0 0-1.32 2.7l-2.24 5.46-1.15 2.7a11.43 11.43 0 0 1-1.45 2.54 9.67 9.67 0 0 0 1.79-2.37l1.37-2.63 2.4-5.39 1.23-2.62a12.72 12.72 0 0 1 1.75-2.29 16.57 16.57 0 0 1 2.18-1.88 22.76 22.76 0 0 1 2.44-1.66z"/><path d="M59.2 180.2c.39.73-.4 2.3-.81 2.64s-1.56 0-1.62-.65-.32-1.41.15-1.74.86-.62 1.29-.53.79-.06.99.28zm12.32-17.74a4.78 4.78 0 0 1-2.08-1.52l-1.82-1.93a9.59 9.59 0 0 0-2.19-1.59 6.41 6.41 0 0 0-2.75-.53 21.19 21.19 0 0 0-5.28.86 33.21 33.21 0 0 0-5 1.8l2.56-.63 2.56-.58a29.29 29.29 0 0 1 5.14-.66 5.72 5.72 0 0 1 2.4.4 11.39 11.39 0 0 1 2.15 1.38l2 1.76a4.53 4.53 0 0 0 2.31 1.24z"/><path d="M54.87 158.76c-.17.81-1.77 1.51-2.31 1.51s-1.2-1-.83-1.53.66-1.29 1.23-1.25 1.06.07 1.34.42.7.47.57.85z"/></g><use xlink:href="#b" class="B"/><use xlink:href="#b" class="C D"/><path d="M364.73 329.14c-.58 5.38-7 13.19-7.81 16.52S350 353.83 345 352.3c-5.58-1.69-8-3.13-11.72-3.32s-15-5.86-18.76-10.36-3.71-21.09 0-25.39a13.21 13.21 0 0 1 2.53-2.19 8.32 8.32 0 0 0-1.08 1c-3 3.5-3 17 0 20.69s12.25 8.27 15.27 8.44 5 1.31 9.56 2.7c4.09 1.25 9.07-2.7 9.7-5.42s5.89-9.07 6.37-13.45-2.39-11.21-6.37-15.35a8.59 8.59 0 0 0-4.68-2.63c3.12-.42 7.28-.74 11.1 3.22 4.89 5.14 8.4 13.5 7.81 18.9z" class="B E"/><g class="D"><path d="M317.06 311c3.13-2.57 8.87-4.52 12.21-4.81a34.68 34.68 0 0 0-12.21 4.81zm28.76-3.93l-2.38.29a15.91 15.91 0 0 1-3-.14 15.71 15.71 0 0 1 5.38-.15z" class="C"/></g><use xlink:href="#c" class="B"/><use xlink:href="#c" class="C D"/><g class="B"><path d="M395 381.42c-.2.69-.49 1.5-.84 2.37-.39-4.15-3.18-9.41-5.54-11.22-2.94-2.25-11.59-3.46-17.13-3.46s-6.9-3.11-9.84-3.11-4.68.18-7.1 1.9c-2 1.43-1.73 9.69-3.45 11.77s-5.53 2.24-7.35 6.22-5.63 10.38-2 15.74a13.43 13.43 0 0 0 3.05 3.23 16.26 16.26 0 0 1-8.8-6.45c-4.11-6.05.2-13.28 2.25-17.78s6.35-4.69 8.3-7 1.65-11.68 3.9-13.29c2.74-1.95 4.69-2.15 8-2.15s4.89 3.52 11.14 3.52 16 1.37 19.34 3.91 7.46 11.11 6.07 15.8z" class="E"/><path d="M395 381.42a39.33 39.33 0 0 1-3.89 8.48c1.15-1.82 1.22-6.27.44-8.16s-2.29-2.67-3.59-4.91-.37-5.83-.63-7.55-4.12-5.07-6.86-6.58c3.6.67 6.83 1.63 8.47 2.89 3.35 2.54 7.45 11.14 6.06 15.83z"/><use xlink:href="#d"/></g><use xlink:href="#d" class="C D"/><g class="B"><path d="M346.27 360.64c-.1 3.71-4.5 8.3-4.39 13.28s-4 15.24-8 17.78-18.27 3.91-22.26 2.54c-1.37-.46-2.39-1.88-3.15-3.69 4.05.8 14.6-.32 17.71-2.29 3.32-2.11 6.72-10.59 6.64-14.72s3.54-7.92 3.64-11c.07-2.84-2.75-5.59-5.25-6.56s-9.16-9.05-15.14-9.63-12.94 1.79-16.5 3.08a5.52 5.52 0 0 0-2.55 2.78c1.13-3.55 2.73-6.68 4.73-7.41 4.3-1.56 12.7-4.39 19.93-3.71s15.25 10.45 18.27 11.62 6.42 4.51 6.32 7.93z" class="E"/><use xlink:href="#e"/></g><use xlink:href="#e" class="C D"/><path d="M404.79 364.74c-4.3 4.7-13.29 3-19.83 2s-13.09-2.44-15.63-4.79-8.11-3.71-10.75-5.37-3.12-5.83-2.25-7.72 3.72-6 4.4-7.61.58-7.23.29-10.43 1.56-14.78 10.75-15c6.68-.14 12.58 1.16 16.8 3.7a29.73 29.73 0 0 0-10.16-1.38c-7.51.16-9 9.63-8.79 12.25s.33 7.16-.23 8.52-2.88 4.67-3.6 6.23-.32 5 1.83 6.31 6.71 2.48 8.79 4.39 7.44 3 12.79 3.92 12.7 2.24 16.22-1.6c2.84-3.1 5.74-8.27 5.38-13.9 2.2 8.19-1.94 16.04-6.01 20.48z" class="B E"/><g class="C"><g class="B"><use xlink:href="#f"/><use xlink:href="#g"/></g><g class="D"><use xlink:href="#f" class="C"/><use xlink:href="#g" class="C"/></g><g class="B"><use xlink:href="#h"/><use xlink:href="#i"/></g><g class="D"><use xlink:href="#h" class="C"/><use xlink:href="#i" class="C"/></g><g class="B"><use xlink:href="#f"/><use xlink:href="#h"/><path d="M363.43 321a18.85 18.85 0 0 1 1.3 8.1c-.28 2.52-1.84 5.59-3.51 8.48a57.69 57.69 0 0 0-.2-6.84 19.13 19.13 0 0 1 2.41-9.74z"/><use xlink:href="#i"/></g></g><use xlink:href="#j" class="B"/><use xlink:href="#j" opacity=".1"/><use xlink:href="#k" class="B"/><use xlink:href="#k" class="E"/><g class="H"><path d="M363.62 340a16.66 16.66 0 0 0-3.37 3.59 25.42 25.42 0 0 0-2.44 4.31 24 24 0 0 1-2.31 4.22 15 15 0 0 1-3.28 3.52 11 11 0 0 0 3.78-3.15 18.46 18.46 0 0 0 2.54-4.27 38.62 38.62 0 0 1 2.23-4.28 28 28 0 0 1 2.85-3.94z"/><path d="M365.45 340.19c-.36-1-.55-1.93-1.51-1.48s-1.51.32-1.58 1.14-.51.89.15 1.44 3.21-.29 2.94-1.1zm-13.23 15.44l2.11 4.05 2 4.05.38 1a5.45 5.45 0 0 1 .14 1v2.25l-.1 4.57a34.89 34.89 0 0 0 .73-4.54 19.65 19.65 0 0 0 .1-2.31 5.35 5.35 0 0 0-.15-1.22 9.85 9.85 0 0 0-.39-1.12 29.35 29.35 0 0 0-2.2-4.06 40.74 40.74 0 0 0-2.62-3.67z"/><path d="M357.73 371.29c-1.09 0-2-.17-1.92.89s-.23 1.52.52 1.88.65.79 1.4.37.84-3.11 0-3.14zm-21.01-3.73a4.88 4.88 0 0 1 2.58-.47h2.7a10.53 10.53 0 0 0 2.72-.5A6.43 6.43 0 0 0 347 365a21.63 21.63 0 0 0 3.08-4.5 34.93 34.93 0 0 0 2.17-4.94l-1.34 2.33-1.37 2.3a29 29 0 0 1-3.12 4.26 6 6 0 0 1-2 1.49 12 12 0 0 1-2.53.61c-.86.12-1.75.13-2.66.2a4.68 4.68 0 0 0-2.51.81z"/><path d="M339 367.6c-.35-1-.54-1.92-1.51-1.48s-1.5.32-1.57 1.15-.51.89.15 1.44 3.19-.32 2.93-1.11zm13.21-11.86a16.37 16.37 0 0 0-2.09 6.22 12.53 12.53 0 0 0 0 3.35 11.47 11.47 0 0 0 .38 1.64 15.64 15.64 0 0 1 .35 1.54 33.53 33.53 0 0 1 .21 6.43v3.29a6.65 6.65 0 0 0 .91 3.14 7.15 7.15 0 0 1-.53-3.16c0-1.07.1-2.15.19-3.24a26.92 26.92 0 0 0 0-6.59 11.5 11.5 0 0 0-.39-1.64 12.15 12.15 0 0 1-.37-1.53 14 14 0 0 1-.16-3.17 17.13 17.13 0 0 1 .49-3.17 21.52 21.52 0 0 1 1.01-3.11z"/><path d="M353.55 380.86c1.2.52.16.72.51 1.3s-.56.6-1.25.74-1.63.43-1.95 0-.79-.43-.58-1-.74-.69.59-1.11 1.38-.57 2-.24zM366 344.25q-1.42 1.8-2.79 3.61l-2.85 3.51a9.43 9.43 0 0 1-.78.77 5 5 0 0 1-.89.56l-2 1-4.19 1.81a32.17 32.17 0 0 0 4.42-1.23 19.74 19.74 0 0 0 2.15-.87 5.51 5.51 0 0 0 1-.64 9.7 9.7 0 0 0 .86-.83 29.7 29.7 0 0 0 2.78-3.69 40 40 0 0 0 2.29-4z"/><path d="M365.13 343.84c1.21-.48.63.4 1.28.56s0 .82-.36 1.41-.84 1.46-1.37 1.38-.87.25-1.13-.3-1 0-.38-1.21.58-1.38 1.27-1.61zm-26.87.16a15.83 15.83 0 0 0 1.66 4.53 8.09 8.09 0 0 0 3.41 3.54l4.4 1.9 4.48 1.68-4.23-2.25-4.31-2.06a5.69 5.69 0 0 1-1.79-1.32 12.12 12.12 0 0 1-1.43-1.81 26.62 26.62 0 0 1-2.19-4.21z"/><path d="M338 345.61a1.76 1.76 0 0 1-1.52-1.46c-.18-.63 0-2.23.91-2s2.23-.36 2.34.67.31 1.3 0 1.67-1.06 1.26-1.73 1.12zm14.23 10.03a20.14 20.14 0 0 0-6.18 1.56 21.24 21.24 0 0 0-5.51 3.29 61.8 61.8 0 0 0-4.49 4.53l-2.26 2.2a10.46 10.46 0 0 1-2.53 1.86 4.88 4.88 0 0 0 1.45-.66l1.33-.9 2.44-2 4.57-4.36a25.71 25.71 0 0 1 5.25-3.35 23.67 23.67 0 0 1 2.9-1.21 24 24 0 0 1 3.03-.96z"/><path d="M332.34 368.7a1.76 1.76 0 0 1-.26 2.09c-.4.52-1.78 1.36-2.17.49s-1.61-1.58-.86-2.28.86-1 1.34-1 1.67.1 1.95.7zm42.58-7.7a17 17 0 0 0-4.85-3.61 11.67 11.67 0 0 0-2.91-1 26.92 26.92 0 0 0-3.05-.23l-6-.09c-1 0-2 0-3-.08a11.8 11.8 0 0 1-2.95-.42 10.08 10.08 0 0 0 2.91.81l3 .31 6 .27c1 0 2 .05 2.95.18a13.29 13.29 0 0 1 2.79.82 18.2 18.2 0 0 1 2.63 1.36 24 24 0 0 1 2.48 1.68z"/><path d="M373.64 362.71a1.52 1.52 0 0 1-.52-1.86c.17-.59 1.13-1.84 1.8-1.26s2.06.69 1.62 1.58-.4 1.2-.85 1.37-1.58.57-2.05.17zm-15.05-24.32a12.29 12.29 0 0 0-2.94 3.8 9.62 9.62 0 0 0-.79 2.28 10 10 0 0 0-.13 1.2 8.69 8.69 0 0 1-.13 1.13 24.48 24.48 0 0 1-1.41 4.43l-.77 2.24a4.67 4.67 0 0 0-.13 2.34 5 5 0 0 1 .39-2.26c.27-.74.59-1.45.92-2.17a19.52 19.52 0 0 0 1.57-4.5 8.15 8.15 0 0 0 .13-1.2 8.49 8.49 0 0 1 .12-1.13 9.67 9.67 0 0 1 .66-2.19 12.39 12.39 0 0 1 1.1-2.06 15.16 15.16 0 0 1 1.41-1.91z"/><path d="M359.72 339.72a2.77 2.77 0 0 1-2.4 1.26c-.45-.12-.7-1.4-.22-2s.95-1.36 1.42-1.19.86.31 1 .77.38.73.2 1.16zm-7.55 15.87a17.22 17.22 0 0 0-5.91-1.26 11.39 11.39 0 0 0-3.07.3 27 27 0 0 0-2.87 1.06l-5.5 2.42-2.75 1.17a11.34 11.34 0 0 1-2.86.84 9.77 9.77 0 0 0 3-.47c1-.28 1.92-.62 2.87-1l5.57-2.25a29.25 29.25 0 0 1 2.75-1.06 12.6 12.6 0 0 1 2.88-.42 17.32 17.32 0 0 1 3 .14 23 23 0 0 1 2.89.53z"/><path d="M330.67 360c-.23.8-1.91 1.4-2.46 1.36s-1.15-1.1-.73-1.62.76-1.26 1.34-1.17 1.07.15 1.32.52.63.51.53.91zm21.56-4.36a5 5 0 0 1-.45-2.57v-2.71a10.25 10.25 0 0 0-.49-2.72 6.41 6.41 0 0 0-1.65-2.32 21.55 21.55 0 0 0-4.48-3.09 34.47 34.47 0 0 0-4.93-2.2l2.33 1.35 2.29 1.38a29.44 29.44 0 0 1 4.24 3.14 6 6 0 0 1 1.48 2 11.38 11.38 0 0 1 .6 2.53c.11.87.12 1.76.19 2.66a4.63 4.63 0 0 0 .87 2.55z"/><path d="M342.62 341.18c-.69.47-2.37-.14-2.76-.52s-.18-1.58.47-1.72 1.4-.47 1.79 0 .72.8.68 1.25.2.81-.18.99z"/></g><use xlink:href="#l" class="B"/><use xlink:href="#l" class="D F"/><g class="B"><path d="M165.41 94.33c-.11-1.91.73-8.52.43-12s-1.28-9.57.46-13A9.21 9.21 0 0 1 169 66c-1.15 2.91-.4 7.54-.17 10.27s-.45 8.33-.36 9.9c.17 2.95 8.08.46 11.09-2.38a78.14 78.14 0 0 0 10-12.43c1.65-2.89 3.38-8.84 2.15-12.34a7.77 7.77 0 0 0-.88-1.78 10.3 10.3 0 0 1 2.74 4.21c1.49 4.23-.62 11.43-2.61 14.95s-8.5 11.6-12.13 15.04-13.22 6.45-13.42 2.89z" class="G"/><use xlink:href="#m"/></g><use xlink:href="#m" class="D F"/><g class="B"><path d="M176.89 106.09c-2.19 1.63 5.64 9.22 6.94 11.23s3.17 3.26 6.41 5.56c1.37 1 2.49 2.07 3.63 3-3-.69-5-3.34-8-5.48-3.83-2.72-6.06-4.19-7.59-6.57s-10.81-11.37-8.21-13.29c1.71-1.27 7.51.25 10.63 1.06s11.5 6.11 16.25 8.21 10.76 2.77 13.74 3.76c2.27.76 3.89 3 2.24 4.65a4.53 4.53 0 0 0-1.75-1.09c-2.51-.84-7.58-1.39-11.61-3.17s-11.12-6.26-13.74-6.94-7.49-2.02-8.94-.93z" class="G"/><use xlink:href="#n"/></g><use xlink:href="#n" class="C D"/><path d="M193.89 113.84c-5.33-1-12.68-7.93-15.94-8.94s-7.67-7.45-5.8-12.35c2.07-5.45 3.67-7.78 4.12-11.47s6.89-14.6 11.64-18 21.3-2.24 25.33 1.76a13.37 13.37 0 0 1 2 2.67 9.42 9.42 0 0 0-1-1.15c-3.29-3.25-16.78-4.19-20.65-1.43s-9.1 11.65-9.47 14.65-1.66 4.9-3.36 9.34c-1.53 4 2.07 9.24 4.73 10.06s8.64 6.5 13 7.29 11.35-1.62 15.75-5.29a8.64 8.64 0 0 0 3-4.5c.21 3.15.24 7.32-4 10.86-5.42 4.53-14.01 7.46-19.35 6.5z" class="B E"/><g class="D"><path d="M215.26 67.53c2.35 3.3 3.89 9.17 3.94 12.52a34.49 34.49 0 0 0-3.94-12.52zm1.95 28.96l-.13-2.38a15.8 15.8 0 0 1 .36-3 15.84 15.84 0 0 1-.23 5.38z" class="C"/></g><use xlink:href="#o" class="B"/><use xlink:href="#o" class="C"/><use xlink:href="#p" class="B"/><use xlink:href="#p" class="D F"/><g class="B"><path d="M192.25 371.07c1.81-.59 8.42-1.45 11.72-2.63s8.93-3.67 12.72-2.86a9.16 9.16 0 0 1 3.89 1.77c-3.11-.38-7.4 1.53-10 2.44s-8.17 1.68-9.67 2.17c-2.81.91 1.61 7.92 5.12 10.11a77.48 77.48 0 0 0 14.57 6.54c3.21.86 9.4 1 12.48-1.05a8.1 8.1 0 0 0 1.5-1.3 10.46 10.46 0 0 1-3.38 3.72c-3.71 2.51-11.21 2.29-15.12 1.27a94.65 94.65 0 0 1-17.65-7.93c-4.22-2.65-9.58-11.15-6.18-12.25z" class="G"/><use xlink:href="#q"/></g><use xlink:href="#q" class="D F"/><g class="B"><path d="M183.79 385.16c-2.14-1.71-7.49 7.79-9.11 9.56s-2.34 3.89-3.75 7.61c-.59 1.57-1.36 2.94-1.94 4.27-.09-3 2-5.66 3.27-9.09 1.66-4.4 2.52-6.92 4.43-9s8.25-13.34 10.77-11.32c1.67 1.34 1.66 7.33 1.67 10.55s-3 12.68-3.82 17.81.06 11.11-.14 14.24c-.16 2.39-1.88 4.52-3.93 3.35a4.38 4.38 0 0 0 .6-2c.18-2.65-.57-7.69.13-12s3.23-12.34 3.22-15.05.01-7.81-1.4-8.93z" class="G"/><use xlink:href="#r"/></g><use xlink:href="#r" class="C D"/><path d="M180.6,403.57c-.42-5.4,4.45-14.28,4.61-17.69s5.25-9.31,10.47-8.74c5.8.62,8.45,1.58,12.14,1.07s15.87,3,20.35,6.69,7.58,20,4.73,25a13.55,13.55,0,0,1-2.07,2.62,8.9,8.9,0,0,0,.86-1.23c2.32-4-.2-17.29-3.85-20.33s-13.58-5.85-16.58-5.45-5.16-.36-9.89-.88c-4.25-.46-8.41,4.35-8.53,7.13s-4.09,10-3.75,14.41,4.44,10.57,9.11,13.89a8.67,8.67,0,0,0,5.1,1.72c-3,1-7,2.08-11.51-1.1C186,416.54,181,409,180.6,403.57Z" class="B E"/><g class="D"><path d="M230.82 412.48c-2.6 3.11-7.88 6.1-11.1 7a34.8 34.8 0 0 0 11.1-7zm-27.52 9.25l2.28-.74a16.29 16.29 0 0 1 3-.42 16 16 0 0 1-5.28 1.16z" class="C"/></g><use xlink:href="#s" class="B"/><use xlink:href="#s" class="C"/><use xlink:href="#t" class="B"/><use xlink:href="#t" class="D F"/><g class="B"><path d="M436.68 428.63c.79-1 4.17-4 5.57-5.94s3.6-5.47 6-6.46a6.14 6.14 0 0 1 2.85-.49c-1.88 1-3.56 3.68-4.66 5.17s-3.94 4.07-4.59 4.91c-1.23 1.58 3.93 3.83 6.72 3.72a53.14 53.14 0 0 0 10.67-1.9c2.13-.74 5.66-3 6.59-5.35a5.93 5.93 0 0 0 .34-1.3 7 7 0 0 1-.47 3.37c-1.13 2.82-5.41 5.57-8 6.48a63.88 63.88 0 0 1-12.92 2.29c-3.33.14-9.58-2.58-8.1-4.5z" class="G"/><use xlink:href="#u"/></g><use xlink:href="#u" class="D F"/><g class="B"><path d="M437.32 439.76c-1.85-.15-1.23 7.22-1.46 8.83s.17 3.08.8 5.7c.27 1.1.36 2.16.54 3.13-1.2-1.66-1.06-3.92-1.63-6.34-.75-3.1-1.23-4.84-1-6.74s-.46-10.63 1.72-10.45c1.44.11 3.73 3.47 5 5.27s3.16 8.25 4.66 11.44 4.27 6.2 5.35 8c.82 1.4.67 3.25-.93 3.38a2.94 2.94 0 0 0-.41-1.34c-.91-1.55-3.25-4.08-4.52-6.79s-2.9-8.15-3.94-9.66-2.97-4.34-4.18-4.43z" class="G"/><use xlink:href="#v"/></g><use xlink:href="#v" class="C D"/><path d="M442.56 451.29c-2.3-2.86-3-9.7-4.17-11.67s-.61-7.22 2.53-8.89c3.49-1.87 5.34-2.35 7.21-4s10-4.4 14-4S474 431 474.26 434.86a9.5 9.5 0 0 1-.16 2.26 5.83 5.83 0 0 0 0-1c-.23-3.13-6.71-9.62-9.91-9.93s-9.85 1.91-11.37 3.28-3 1.76-5.88 3.28c-2.56 1.36-3.05 5.64-2.06 7.25s1.53 7.17 3.39 9.5 6.53 4.23 10.41 4.31a5.87 5.87 0 0 0 3.51-1c-1.29 1.7-3.14 3.84-6.87 3.77-4.77-.09-10.46-2.42-12.76-5.29z" class="B E"/><g class="D"><path d="M474.1 437.13a17.84 17.84 0 0 1-3.56 8.15 23.3 23.3 0 0 0 3.56-8.15zm-11.9 15.68l1-1.28a10.35 10.35 0 0 1 1.53-1.39 10.94 10.94 0 0 1-2.53 2.67z" class="C"/></g><use xlink:href="#w" class="B"/><use xlink:href="#w" class="C"/><use xlink:href="#x" class="B"/><use xlink:href="#x" class="C D"/><g class="B"><path d="M118.67 77.06c.65-2.2 4-6.51 5.75-7.76s7.67-.72 10.5-.23a5.47 5.47 0 0 1 1.33.38c-2.6-.55-6.7-1.1-8.13-.24a18.53 18.53 0 0 0-5.45 6.33c-.7 1.85 1.4 6.09 1.35 7.94s-1.26 3.49-.86 4.8 2.14 2.79 3.72 2.3 2.48-2.5 4.47-2.39 5 1.37 7.14.22 3.27-3.7 4.76-6.16a4.36 4.36 0 0 0 .24-.41 8.41 8.41 0 0 1-.53 1.21c-1.52 3-2.59 6-5 7.51s-5.95.3-8.25.34-3.25 2.45-5 3.13-3.91-.85-4.48-2.33.68-3.48.59-5.61-2.82-6.84-2.15-9.03z" class="E"/><use xlink:href="#y"/></g><use xlink:href="#y" class="C"/><use xlink:href="#z" class="B"/><use xlink:href="#z" class="C D"/><g class="B"><path d="M401.63 444.93c2.5 1 7.21 5.38 8.49 7.62s0 9.1-.88 12.37a7.08 7.08 0 0 1-.6 1.52c.93-3 2-7.76 1.18-9.53-1-2-4.75-6.09-6.85-7.11s-7.32 1-9.49.71-4-1.87-5.56-1.54-3.52 2.2-3.11 4.12 2.66 3.19 2.32 5.52-2.17 5.74-1.05 8.39 4 4.25 6.72 6.28l.46.32a12.44 12.44 0 0 1-1.37-.75c-3.32-2.12-6.78-3.72-8.28-6.68s.3-7 .5-9.74-2.52-4.1-3.13-6.18 1.43-4.5 3.24-5 4 1.18 6.53 1.31 8.37-2.65 10.88-1.63z" class="E"/><use xlink:href="#AA"/></g><use xlink:href="#AA" class="C"/><use xlink:href="#AB" class="B"/><use xlink:href="#AB" class="C D"/><g class="B"><path d="M276.18 329.25a18.94 18.94 0 0 1 6.92-4.86c1.83-.55 6.57 1.53 8.78 2.72a4.74 4.74 0 0 1 1 .68c-2-1.17-5.26-2.77-6.69-2.45a16.41 16.41 0 0 0-6.27 3.76c-1.09 1.34-.52 5.44-1.07 7s-2 2.54-2 3.74 1 2.92 2.45 2.94 2.75-1.39 4.37-.75 3.78 2.52 5.87 2.16 3.74-2.17 5.66-3.8l.31-.28a8.59 8.59 0 0 1-.77.87c-2.08 2-3.82 4.26-6.2 4.86s-5-1.4-6.95-2-3.37 1.14-5 1.23-3-1.79-3.08-3.18 1.53-2.69 2-4.49-.51-6.51.67-8.15z" class="E"/><use xlink:href="#AC"/></g><use xlink:href="#AC" class="C"/><use xlink:href="#AD" class="B"/><use xlink:href="#AD" class="C D"/><g class="B"><path d="M164 376.62c-1.32 2.86-6.71 8.09-9.39 9.45s-10.62-.55-14.38-1.78a7.56 7.56 0 0 1-1.74-.79c3.43 1.27 8.93 2.85 11.05 2 2.4-1 7.38-5.18 8.7-7.57s-.7-8.59-.26-11.11 2.42-4.51 2.13-6.38-2.36-4.25-4.62-3.88-3.88 2.91-6.58 2.37-6.56-2.87-9.71-1.73-5.2 4.41-7.73 7.47a6.68 6.68 0 0 0-.41.52 12.05 12.05 0 0 1 1-1.56c2.66-3.75 4.73-7.68 8.27-9.26s8.18.78 11.34 1.18 4.93-2.7 7.39-3.29 5.17 1.94 5.65 4.08-1.62 4.6-1.92 7.54 2.56 9.88 1.21 12.74z" class="E"/><use xlink:href="#AE"/></g><use xlink:href="#AE" class="C"/><use xlink:href="#AF" class="B"/><use xlink:href="#AF" class="C D"/><g class="B"><path d="M234.11 200.22c5.55-4.33 20.49-9.78 26.47-10.14s16.6 9.81 21.27 15.23a11.93 11.93 0 0 1 1.89 2.93c-4.09-5.23-11.15-12.75-15.65-12.82-5.1-.07-18.13 3.72-23.11 7.14s-9 16.85-12.72 21.25-9.28 6.54-11 10.32-1.18 10 2.92 11.16c3.94 1.11 9.76-2.31 13.51.94s7.27 10.84 13.74 11.28 13.66-4 21.4-7.75a17.04 17.04 0 0 0 1.28-.65 32.54 32.54 0 0 1-3.41 2.16c-8.76 4.89-16.79 10.62-24.42 10.7s-12.37-8.23-17-11.59-11.21 1-15.91.12c-4.9-1-6.09-7.94-4.36-12.38s8.09-7.38 12-12.69 7.55-20.89 13.1-25.21z" class="E"/><use xlink:href="#AG"/></g><use xlink:href="#AG" class="C D"/><g class="B"><path d="M157 288.13c2.38-3.85 3.89-15 17.42-20 11.17-4.07 23.1-15.12 28.11-15s5.2 2.22 9.28 3.31c6.73 1.82 8.93 16.84 11.24 20.74s5.7 16.65 3.64 21.16 3.85 14.67 1 21.19c-1.23 2.8-5.38 6.07-10.06 8.93a12.09 12.09 0 0 0 3.16-3.77c2.41-5.51-2.59-14.13-.85-17.95s-1.12-14.59-3.08-17.91-3.81-16-9.52-17.56c-3.46-.93-3.61-2.72-7.85-2.81s-14.35 9.27-23.81 12.72c-11.45 4.19-12.74 13.65-14.76 16.93s-4.81 11-4.15 15.58a10.28 10.28 0 0 0 .66 2.4c-3-3.13-4.91-6.5-5.34-9.56-.81-5.37 2.49-14.53 4.91-18.4z" class="E"/><use xlink:href="#AH"/></g><use xlink:href="#AH" class="C D"/><g class="B"><path d="M211.07 249.09c6.12-2.86 17.19-.48 22.27-.25s12.74-1.32 24 5.48c10.93 6.63 24.86 11.77 32.11 20.46 3.57 4.26 3.93 8.8 3.49 13a12.09 12.09 0 0 0-2.08-4.28c-5.55-7.5-16.75-12.45-25.14-18.82-8.64-6.5-15.05-6-19.18-6.6s-12.86-3.88-18.18-2.24c-5.73 1.77-1.92 6.47-1 12.34a45.91 45.91 0 0 0 7.36 16.68c3 3.61 5.16 12.73 9.39 17.4s10.75 5.29 14.59 7.62c2.16 1.29 5.41 4.62 9.43 7.11-6.37-2.51-11.37-7.5-14.55-9.09-4.56-2.37-11.95-2.42-17.21-7.23s-8.73-15.1-12.76-18.84a60.34 60.34 0 0 1-11.38-18.2c-2.13-6.7-7.7-11.45-1.16-14.54z" class="E"/><use xlink:href="#AI"/></g><g class="C D"><use xlink:href="#AI"/></g><g class="E B"><path d="M213.7 244.65c-3.88 5.44-10.77 1.45-11.85-.14s-5.65-10.12-13-16-17.43-12.58-20.62-21.14c-3-8.9 5.41-47.71 19-51.93a8.34 8.34 0 0 1 5.78.05 7.61 7.61 0 0 0-2.42.28c-11.08 2.94-19.13 33.89-17 41.16 2.28 7 10.16 12.71 15.91 17.66s9.09 12.07 9.94 13.28 6.22 4.74 9.53.5c1.35-1.71-.25-11.63 1.9-15.65s6.29-6.91 7.69-11.64 3.3-19.52-.34-24.59a26.08 26.08 0 0 0-3.53-3.82 40.56 40.56 0 0 1 7.86 7.12c4.78 6.13 3.12 24.55 1.64 30.5s-6.52 9.83-9 14.84.1 17.36-1.49 19.52z"/></g><use xlink:href="#AJ" class="B"/><g class="C D"><use xlink:href="#AJ"/></g><g class="E B"><path d="M201.5 259.45c-8.15 3.64-22.34-1.49-29.35 4.25s-19.91 16.49-27.28 15.93c-12.55-1-22.36-16-24.26-25.45 3.4 7.19 10.23 15 18.46 15.59 6.23.47 17.1-8.67 23.06-13.47s17.93-.5 24.81-3.6c2.56-1.16 7.1-8.76 3.36-12.53s-11.71-9-16.17-13.2-21.84-14.51-31.28-16.76a23.36 23.36 0 0 0-8.44-.56 26.42 26.42 0 0 1 15-.46c11.17 2.66 31.76 14.76 37 19.82s14.71 11.16 19.14 15.61-1.03 13.43-4.05 14.83z"/></g><use xlink:href="#AK" class="B"/><use xlink:href="#AK" opacity=".1"/><use xlink:href="#AL" class="B"/><use xlink:href="#AL" class="E"/><g class="H"><path d="M179.94 248.86a24.42 24.42 0 0 0 6.84 2.55 36.48 36.48 0 0 0 7.28.87 35.67 35.67 0 0 1 7.08.74 22.53 22.53 0 0 1 6.71 2.47 16.69 16.69 0 0 0-6.48-3.37 27.23 27.23 0 0 0-7.28-1 53.43 53.43 0 0 1-7.14-.59 41 41 0 0 1-7.01-1.67z"/><path d="M179.16 246.25c-1.21 1.08-2.32 1.85-1.15 2.92s1.29 1.87 2.46 1.49 1.51.19 1.88-1-2.26-4.23-3.19-3.41zm28.69 9.24q2.19-2.6 4.32-5.21l4.39-5.05a15.09 15.09 0 0 1 1.18-1.1 7.61 7.61 0 0 1 1.35-.79l3-1.34 6.3-2.47a50.49 50.49 0 0 0-6.61 1.6 27.74 27.74 0 0 0-3.22 1.19 7.62 7.62 0 0 0-1.58.89 15 15 0 0 0-1.31 1.18 44.29 44.29 0 0 0-4.29 5.33 59 59 0 0 0-3.53 5.77z"/><path d="M226.08 239c.58 1.52.91 2.83 2.32 2.12s2.2-.55 2.27-1.78.71-1.34-.3-2.12-4.73.61-4.29 1.78zm6.92 30.83a7.35 7.35 0 0 1-2.11-3.25l-1.52-3.7a14.94 14.94 0 0 0-2.25-3.43 9.62 9.62 0 0 0-3.59-2.22 32.35 32.35 0 0 0-7.9-1.61 49.74 49.74 0 0 0-8-.14l4 .48 3.92.56a43.43 43.43 0 0 1 7.6 1.83 8.72 8.72 0 0 1 3.18 1.85 17.39 17.39 0 0 1 2.27 3.1c.67 1.12 1.2 2.33 1.81 3.52a6.88 6.88 0 0 0 2.59 3.01z"/><path d="M231.77 266.7c-1.21 1.08-2.32 1.85-1.16 2.92s1.3 1.87 2.47 1.49 1.51.19 1.88-1-2.26-4.23-3.19-3.41zM208 255.44a24.34 24.34 0 0 0 9.7-.71 19.22 19.22 0 0 0 4.55-1.95 20 20 0 0 0 2-1.46 18.35 18.35 0 0 1 1.91-1.36 50.89 50.89 0 0 1 8.66-4l4.48-1.91a10 10 0 0 0 3.77-3 10.37 10.37 0 0 1-4 2.53c-1.47.61-3 1.1-4.53 1.59a39.22 39.22 0 0 0-9 3.82 15.93 15.93 0 0 0-2 1.46 19 19 0 0 1-1.88 1.39 20.14 20.14 0 0 1-4.24 2 25 25 0 0 1-4.62 1.15 31.72 31.72 0 0 1-4.8.45z"/><path d="M241.55 239.22c0-1.93.9-.63 1.48-1.44s1.15.42 1.74 1.29 1.52 2 1.1 2.66-.14 1.33-1.05 1.38-.52 1.4-1.86-.17-1.57-1.56-1.49-2.64zm-57.17 3.92q3.28.92 6.54 1.76l6.42 1.88a13.46 13.46 0 0 1 1.5.62 7.6 7.6 0 0 1 1.28.89c.86.68 1.67 1.46 2.49 2.22l4.87 4.69a50.41 50.41 0 0 0-4.21-5.34 29.2 29.2 0 0 0-2.42-2.43 8.26 8.26 0 0 0-1.47-1.06 13.56 13.56 0 0 0-1.63-.7 44.11 44.11 0 0 0-6.63-1.68 60.54 60.54 0 0 0-6.74-.85z"/><path d="M184.34 244.59c-1.36-1.38.18-1.08 0-2.06s1.11-.52 2.13-.32 2.48.31 2.67 1.09.84 1 .24 1.72.62 1.35-1.43 1.2-2.22 0-2.93-.81zm15.59 36.63a23.19 23.19 0 0 0 5.24-4.85 12 12 0 0 0 2.88-6.7l.08-7.09-.27-7.08-.66 7.06-.33 7.07a8.56 8.56 0 0 1-.79 3.2 16.56 16.56 0 0 1-1.66 3 38.86 38.86 0 0 1-4.49 5.39z"/><path d="M202.28 280.63a2.62 2.62 0 0 1-1.12 2.91c-.76.6-3 1.31-3.29-.08s-1.76-2.85-.42-3.59 1.6-1.17 2.28-1 2.37.79 2.55 1.76zm5.57-25.17a30 30 0 0 0 5.66 7.56 31.7 31.7 0 0 0 7.66 5.65 92.15 92.15 0 0 0 8.76 3.53l4.3 1.84a15.57 15.57 0 0 1 4 2.38 7.37 7.37 0 0 0-1.74-1.6 24.47 24.47 0 0 0-2-1.3l-4.21-2.16-8.56-3.74a38.1 38.1 0 0 1-7.59-5.26 35.33 35.33 0 0 1-3.32-3.27 37.26 37.26 0 0 1-2.96-3.63z"/><path d="M237.09 275.17a2.61 2.61 0 0 1 3-.85c.94.25 2.87 1.65 1.9 2.68s-1.22 3.12-2.62 2.49-1.89-.58-2.14-1.25-.81-2.35-.14-3.07zm-34.86-53.8a25.35 25.35 0 0 0-2.15 8.69 16.68 16.68 0 0 0 .29 4.56 41.65 41.65 0 0 0 1.42 4.3l3.33 8.26 1.6 4.13a17.56 17.56 0 0 1 1.11 4.27 14.59 14.59 0 0 0-.56-4.44l-1.29-4.28-3.08-8.36-1.43-4.13a18.48 18.48 0 0 1-.48-4.28 26.72 26.72 0 0 1 .34-4.37 36.11 36.11 0 0 1 .9-4.35z"/><path d="M205.24 222.16A2.25 2.25 0 0 1 203 224c-.91.1-3.17-.5-2.76-1.75s-.24-3.21 1.23-3.12 1.87-.13 2.36.38 1.69 1.78 1.41 2.65zm-24.6 34.49a18.18 18.18 0 0 0 6.86 1.84 13.44 13.44 0 0 0 3.58-.23 12 12 0 0 0 1.71-.5 15 15 0 0 1 1.62-.47 36 36 0 0 1 6.86-.61l3.51-.23a7 7 0 0 0 3.27-1.16 7.58 7.58 0 0 1-3.32.76h-3.49a28.34 28.34 0 0 0-7.05.42 13 13 0 0 0-1.72.51 11.35 11.35 0 0 1-1.6.49 14.5 14.5 0 0 1-3.37.36 19.28 19.28 0 0 1-3.45-.33 21.49 21.49 0 0 1-3.41-.85z"/><path d="M181.81 254.35a4.09 4.09 0 0 1 3.09 2.56c.1.68-1.52 1.75-2.54 1.42s-2.4-.52-2.43-1.26-.08-1.35.48-1.79.71-.93 1.4-.93zm26 1.23a25.44 25.44 0 0 0 1.67 8.8 17 17 0 0 0 2.17 4 40.82 40.82 0 0 0 3.08 3.31l6.47 6.13 3.17 3.09a17.32 17.32 0 0 1 2.79 3.42 14.39 14.39 0 0 0-2.36-3.8l-3-3.36-6.27-6.32a42.59 42.59 0 0 1-3-3.16 19 19 0 0 1-2.22-3.69 26.68 26.68 0 0 1-1.51-4.12 37.08 37.08 0 0 1-.99-4.3z"/><path d="M226.12 282.45c1.24-.15 3 1.8 3.27 2.58s-.84 2.19-1.79 1.92-2.16-.32-2.37-1.16-.41-1.55 0-2.11.31-1.16.89-1.23zm-18.27-26.99a7.22 7.22 0 0 1-3.26 2.09l-3.71 1.52a15.09 15.09 0 0 0-3.44 2.22 9.56 9.56 0 0 0-2.23 3.58 32 32 0 0 0-1.66 7.9 50.78 50.78 0 0 0-.18 8l.51-3.95.58-3.92a42.61 42.61 0 0 1 1.86-7.6 8.67 8.67 0 0 1 1.87-3.16 17.41 17.41 0 0 1 3.11-2.26c1.12-.66 2.33-1.18 3.53-1.79a6.88 6.88 0 0 0 3.02-2.63z"/><path d="M193.59 276.88c1 .67 1.17 3.31.87 4.07s-2.05 1.15-2.61.33-1.45-1.63-1.08-2.41.67-1.45 1.31-1.65 1.02-.66 1.51-.34z"/></g><defs ><path id="B" d="M98.91 332.07c2.43 2.12.31 8.8.47 10.88s-1 8.07-2.77 9.52-1.38 6.87-3.88 9-12.06 2.09-13.94 1.38-8.27-2.82-9.69-5.16-.06-4.05-2.53-7.44-3.36-7.1-2.59-9.49 4-5.52 5.77-6.64 4.66-5.45 11.28-4.76c5.46.56 12.65-1.6 14.71-.55s1.71 1.98 3.17 3.26z"/><path id="C" d="M395.05 226.34c2.37-1.57 7.56 1.77 9.37 2.11s6.64 2.72 7.47 4.56 5.53 2.75 6.76 5.37-1 10.74-2 12.18-4.3 6.39-6.62 7.06-3.46-.88-6.91.44-6.82 1.23-8.67 0-3.78-4.67-4.33-6.44-3.57-5.23-1.46-10.69c1.75-4.52 1.56-11.14 2.93-12.65s2.03-.98 3.46-1.94z"/><path id="D" d="M261.34 113.15c-1.46.31-4.95 6.29-7.85 7.49s-6.37.91-9.18 2.83-10.29 8.92-10.58 13.21 1.68 9.81 2.59 13-1.63 8 3.06 10.11c7.18 3.28 25-9.65 27-14.46 1.84-4.72.15-11.21-.73-16.35s.44-10.39.52-11.41-1.17-5.24-4.83-4.42z"/><path id="E" d="M353.55 444.47c0-.93-3.14-3.9-3.47-5.84s.34-4-.43-6-4-7.53-6.58-8.3-6.22-.36-8.3-.25-4.63-2.12-6.6.44c-3 3.92 2.38 16.61 5 18.52s6.82 1.67 10.07 1.85a22.41 22.41 0 0 1 6.89 1.92c.66.19 3.41-.02 3.42-2.34z"/><path id="F" d="M92.24,285c-.94-.89-5-1.55-5.94.7s-1.86,6.54-2.91,9.17-2.5,11.82-1.86,16.25a9.51,9.51,0,0,0,7.23,8.33c3.73.87,8.28-3.35,11.32-3.59s9.38-7.53,7.61-13.24c-.85-2.75-6.62-5.85-9.69-7.59S94.73,287.4,92.24,285Z"/><path id="G" d="M406.24 402c-.31 1.26 1.12 5.07 3.56 4.81s6.59-1.65 9.4-2.05 11.5-3.71 15-6.47a9.51 9.51 0 0 0 3.62-10.42c-1.1-3.67-7-5.51-8.75-8s-11.19-4.39-15.27 0c-2 2.11-1.78 8.65-1.76 12.18s-4.94 6.53-5.8 9.95z"/><path id="H" d="M0 93.08S51 121.66 60.42 130s60.14 129.11 78.47 144.22c13.24 10.92 106.72 81 114.08 83.59s46.79 9.47 57.83 11 53.63 47.47 67.82 53.78 59.57 12.76 65.8 15 13.46 7.21 14.05 7 1.38-3.36 0-4.54-10.35-7.69-14.05-8.67l-60.28-15.61c-2.76-1.23-56-54-59.34-57.72s-10.05-5.92-12.62-6.11-4.73.59-5.91.59-45.15-12.42-48.89-14.4-85-69.79-89.12-74.52-42.13-71-42.09-75.07-11.55-32-12.23-36.71c-.48-3.32-14.83-29.76-22.24-48.23-.91-2.28-2-13.17-4.6-15.77-.93-.94-5-5.78-10.25-7.62-3-1.06-6 .2-9.49-2.51L0 27.23z"/><path id="I" d="M82.13,89.92c7,5.53,34.83,16,47.18,16.84s35-2.63,36-2.63,1.05,1.55-1.84,2.74-28.65,8.5-34.17,8.14-35.41-5.69-35.41-5.69Z"/><path id="J" d="M94.4,99.38c3.8,1,17,.33,22.11-1.53s13.7-7.26,14.13-7.44.7.44-.26,1.43-10.11,8.52-12.41,9.35-15.36,4-15.36,4Z"/><path id="K" d="M333.43,384.93s9.31,32,15.23,39.5,35,26.47,35.83,27.4,2.81,4.54,3.15,4.64a.7.7,0,0,0,.84-.74,30.71,30.71,0,0,0-3.75-6.06c-1.38-1.68-29.24-24.85-30.82-27.61s-10-29-10-29Z"/><path id="L" d="M113.91 234.64s8 47.34 11 53.26 19.13 19.78 22.78 24.35 19.81 43.07 22.77 46a25.82 25.82 0 0 0 9.8 5.43h4.1s-10.25-6-10.94-7.89-16.13-44-19.79-48.33-16.42-21.18-18-23.91-2-25.74-2-25.74z"/><path id="M" d="M363.16 315.13c2.06-.4 3.63-2.89 6.23-2.45s6.35 2.57 9.34 1.39 4.84-4.36 7.18-7.36 2.63-6 .06-10-3-6.27-6.08-7.42-9.57-3-11.84-2-6.92 5.16-8.12 7.48.92 8.2.57 10.62-2.2 4.38-1.87 6.16 2.37 4 4.53 3.58z"/><path id="N" d="M356.62 320.52s-2.17-6.82-1.15-9.64 2.73-5.92 2.9-9.5.71-10.75 2.42-11.95 5.12-2.18 6.85-1.17 3.12 6.72 3.05 9.12-4.64 9.53-4.37 9.59 5-4.63 6.83-5.64a10.33 10.33 0 0 1 7-.3c1.34.65-.95 8.79-1.25 9.19s2.23-.85 5.32-1.24a23.59 23.59 0 0 0 4.9-1.09s-3.44 5.26-5.8 6.67-9.62 1.63-11.11 2.6-8.61 4.92-11.65 4.62-3.94-1.26-3.94-1.26z"/><path id="O" d="M69.19 167.26c-.29 4.63-10.64 8.16-13.08 10.2s-11 6-14.51 5.32-9.87 4.54-14.92 3.61-14.23-11.74-15.17-14.49S7 160.07 8.57 156.39s5-3.66 6.81-9.45 5.57-10.1 9.29-11.35 10.72-.4 13.82.6 11.29.42 16.81 8.49c4.56 6.67 14.19 12.86 14.87 16.12s-.8 3.67-.98 6.46z"/><path id="P" d="M73.4 169.06c3 2.82 3.38 8.52 4.72 11s4.53 5.55 4.21 12 3.83 13.1 3.33 18.42S77 217.72 74.2 221a17.26 17.26 0 0 1-18.34 5.42c-9.3-2.59-9.79-12.05-11.17-15.62s-5.6-8.16-4.7-14 7.51-11.71 9.34-15.12 7.12-8.21 12.25-10.35 8.5-5.33 11.82-2.27z"/><path id="Q" d="M71 171.75c1.73 3.35 6.81 4.78 7.36 9.47s-1.23 12.21 2.31 16.78 9.94 6.12 16.28 8.62 11.64 1.47 17.22-5 9.25-8.35 9.67-14.21.36-18-2.57-21.34-12.37-9.27-17-10.16-13.63 5.73-18 6.35-8.64-1.56-11.54-.09-5.57 6.1-3.73 9.58z"/><path id="R" d="M77.6 164.77c1.76.47 8.62-4 12.35-3.68s9.81 2.75 13.83 2.25 15.52-3.22 17.69-7.61-.56-12.21-.66-16.08.22-7.6-3.75-12.93S106.47 115 101 115.14 87.78 124 83.82 128s-4 11.75-4.59 17.66-6.55 10.91-7.1 12 1.25 6 5.47 7.11z"/><path id="S" d="M66.61 161.64c1.47 1.62 8.2 3.19 10.16-.37s4.08-10.47 6.3-14.59 6.28-18.77 6.15-26-3.52-16.18-9.6-18.47-15.49 7.11-20.62 6.88-15.15 12.41-15.39 17.3-.17 13 4.74 16.41 14.34 14.53 18.26 18.84z"/><path id="T" d="M61.58 171.3c3-1.23 5.37-2.83 7.49-3.34-1.19 4.28-10.65 7.56-13 9.5a28.68 28.68 0 0 1-6.36 3.48 29 29 0 0 1 11.87-9.64z"/><path id="U" d="M44.59 137.4a17.45 17.45 0 0 1 10.71 7.28c4.56 6.67 14.2 12.85 14.87 16.11a6.39 6.39 0 0 1 .11 2.45 7.32 7.32 0 0 1-3.67-1.59c-3.92-4.32-13.39-15.41-18.3-18.85a10.25 10.25 0 0 1-3.72-5.4z"/><path id="V" d="M78.33 181.23a6.3 6.3 0 0 0-.37-1.51l.16.31c1.35 2.47 4.53 5.55 4.21 12a27.09 27.09 0 0 0 1.52 8.88 14.05 14.05 0 0 1-3.18-2.91c-3.54-4.57-1.79-12.08-2.34-16.77z"/><path id="W" d="M70.58 167.79a4.25 4.25 0 0 1 2.82 1.27c2.72 2.53 3.28 7.38 4.34 10.12-1.53-3.17-5.34-4.63-6.78-7.43a5.65 5.65 0 0 1-.38-3.96z"/><path id="X" d="M84.57 162.36c-3 1.17-5.91 2.69-7 2.41a7 7 0 0 1-3-1.72 6.62 6.62 0 0 1-1.43.32 7.81 7.81 0 0 1 1-.79l.7-.42a4.93 4.93 0 0 1 1.68-.47c2.28-.26 5.12.65 8.05.67z"/><path id="Y" d="M104.31 155.91c2.51.48 6.47 2.46 10 4.71a51.36 51.36 0 0 1-10.56 2.72c-4 .5-10.1-1.94-13.83-2.25h-.09c4.66-2.09 10.91-5.88 14.48-5.18z"/><path id="Z" d="M72.18 177.83c1.48-.16 7.32-2.94 7.74-4.5s3.27-4.18 3.83-7.67.86-8.58-.37-10.19-3.63-2.91-4.48-4-4.64-2.82-7.51-2.45-4.87 3.64-6.82 4.84a6.77 6.77 0 0 0-3.18 4.93c-.1 1.6 1.49 4.38 1.3 6.41s-1.65 4.5-1.29 6.94a6 6 0 0 0 4 4.39c1.25.33 5.09 1.47 6.78 1.3z"/><path id="a" d="M73.12 152.39c-1.12.12-5.57 2.24-5.89 3.43s-2.48 3.18-2.91 5.83-.66 6.53.28 7.75 2.76 2.22 3.4 3a8 8 0 0 0 5.72 1.86c2.18-.28 3.71-2.77 5.19-3.69a5.14 5.14 0 0 0 2.42-3.74c.08-1.22-1.14-3.33-1-4.88s1.25-3.42 1-5.28a4.54 4.54 0 0 0-3-3.34c-1-.2-3.93-1.08-5.21-.94z"/><path id="b" d="M345,352.3c-5.57-1.7-8-3.13-11.72-3.32s-15-5.86-18.76-10.36-3.71-21.1,0-25.4,14.07-7.62,18-7.22,7.81,1.56,10.94,1.36,8.6-2.15,13.48,2.93,8.4,13.45,7.82,18.84-7,13.21-7.82,16.53S350,353.83,345,352.3Z"/><path id="c" d="M350.47 360.31c-2.25 1.61-2 10.94-3.9 13.29s-6.24 2.54-8.3 7-6.36 11.72-2.26 17.78 11.53 8.4 19.54 7 20.32-1.56 26.77-5.66 11.33-13.68 12.7-18.37-2.74-13.28-6.06-15.82-13.09-3.91-19.34-3.91-7.82-3.52-11.14-3.52-5.27.26-8.01 2.21z"/><path id="d" d="M346.27 360.64c-.1 3.71-4.49 8.3-4.39 13.28s-4 15.24-8 17.78-18.27 3.91-22.28 2.54-5.08-11-5.37-14.65S295 367.08 295 363.08s2.45-16.71 6.75-18.27 12.69-4.4 19.92-3.71 15.26 10.45 18.28 11.62 6.42 4.5 6.32 7.92z"/><path id="e" d="M356.33 348.82c-.86 1.89-.39 6.06 2.25 7.72s8.21 3 10.75 5.38 9.08 3.71 15.63 4.78 15.53 2.74 19.83-1.95 8.69-13.19 5.57-21.88-13.88-15.34-17.78-20-11.63-7.23-20.81-7-11 11.78-10.75 15 .39 8.76-.29 10.42-3.52 5.62-4.4 7.53z"/><path id="f" d="M335.31 349.22a16.34 16.34 0 0 0-2-.24c-3.06-.16-11.26-4-16.15-7.9a27.38 27.38 0 0 1 4.53 0c4.72.47 9.82 4.85 13.62 8.14z"/><path id="g" d="M364.73 329.14c-.28 2.52-1.84 5.59-3.51 8.48a57.69 57.69 0 0 0-.2-6.84 19.13 19.13 0 0 1 2.41-9.74 18.85 18.85 0 0 1 1.3 8.1z"/><path id="h" d="M341.59 376.83c-.94 5.05-4 12-7.21 14.49.44-4 2.61-7.88 3.89-10.69a8.91 8.91 0 0 1 3.32-3.8z"/><path id="i" d="M390.87 367.59l-5.91-.89c-6.55-1.08-13.09-2.44-15.63-4.79l-.28-.25a5.24 5.24 0 0 0 .57 0c6.25 0 16 1.37 19.34 3.91a10.55 10.55 0 0 1 1.91 2.02z"/><path id="j" d="M341.87 367.4c1.2.92 7.45 3 8.86 2.16s5.35-.77 8.23-2.93 6.68-5.69 6.92-7.75-.62-4.7-.47-6.09-1.41-5.35-3.78-7.1-6.15-.77-8.43-1.26a6.88 6.88 0 0 0-5.81 1.37c-1.21 1.11-2 4.27-3.57 5.63s-4.39 2.13-5.85 4.18a6.09 6.09 0 0 0-.16 6.05c.68 1.12 2.69 4.68 4.06 5.74z"/><path id="k" d="M360.51 349.38c-.91-.7-5.66-2.28-6.74-1.64s-4.06.58-6.26 2.23-5.08 4.33-5.26 5.89.47 3.58.35 4.64a8.14 8.14 0 0 0 2.89 5.4c1.8 1.33 4.67.58 6.41 1a5.2 5.2 0 0 0 4.42-1c.92-.84 1.51-3.25 2.71-4.28s3.34-1.62 4.45-3.18a4.63 4.63 0 0 0 .12-4.6c-.52-.94-2.04-3.65-3.09-4.46z"/><path id="l" d="M165.4 94.32c-.1-1.91.74-8.51.44-12s-1.29-9.57.46-13 3.91-3.8 5.9-5.73 6.31-7.51 11.06-8.55 8.84 2.18 10.33 6.42-.59 11.4-2.59 14.92a93.6 93.6 0 0 1-12.15 15.05c-3.65 3.44-13.24 6.46-13.45 2.89z"/><path id="m" d="M170.11 100.5c-2.6 1.93 6.67 10.92 8.21 13.3s3.75 3.85 7.59 6.58 6.08 6.33 10.73 5.51 8.56-4.77 13.75-6.32 3.32-5 .34-6-9-1.65-13.73-3.76-13.16-7.4-16.27-8.21-8.91-2.37-10.62-1.1z"/><path id="n" d="M172.15 92.55c2.08-5.45 3.67-7.78 4.12-11.47s6.89-14.6 11.63-18 21.31-2.24 25.34 1.76 6.63 14.56 6 18.43-2.1 7.69-2.13 10.82 1.55 8.73-3.85 13.25-14 7.45-19.34 6.49-12.68-7.93-15.94-8.94-7.71-7.44-5.83-12.34z"/><path id="o" d="M153 105.28c-1-1.9 2.49-7.27 4-8.66s-2-4.94.86-10.33S165 78.36 166 75.4s2.92 1.34 1.88 5.74.23 11.19.23 11.19 8.21-2.2 13.42-.54 10.65 5.5 11.66 6.21-1.48 4.56-2.82 6.14-9.88 6.14-9.88 6.14 2 1.86 3.71 3.14 2.77 7.14 2.42 7.1-6-3.61-8.29-4.67-6.38-4.8-8.44-4.28-6.24 1.89-10.07.13-6.82-6.42-6.82-6.42z"/><path id="p" d="M192.25 371.06c1.82-.59 8.42-1.45 11.72-2.62s8.93-3.68 12.72-2.86 4.67 2.81 7 4.25 8.87 4.2 11.08 8.52.13 9.11-3.59 11.62-11.22 2.31-15.12 1.27-13.41-5.28-17.65-7.92-9.56-11.16-6.16-12.26z"/><path id="q" d="M187.47 377.18c-2.53-2-8.87 9.23-10.78 11.32s-2.77 4.61-4.44 9-4.57 7.49-2.61 11.78 6.79 7.07 9.61 11.7 5.71 1.92 5.92-1.21-.69-9.1.14-14.23 3.83-14.61 3.82-17.82 0-9.2-1.66-10.54z"/><path id="r" d="M195.68 377.13c5.79.63 8.45 1.58 12.14 1.08s15.87 3 20.35 6.69 7.58 20 4.73 25-12.4 10.1-16.31 10.4-8-.08-11 .69-8 3.72-13.79-.37S181 409 180.6 403.57s4.46-14.28 4.61-17.69 5.25-9.31 10.47-8.75z"/><path id="s" d="M178.51 361.87c1.59-1.41 7.66.56 9.38 1.65s4.27-3.2 10.21-1.79 9.49 4.91 12.6 5.12-.55 3.16-5.07 3.27-10.77 3.06-10.77 3.06 4.22 7.38 3.94 12.85-2.62 11.69-3.05 12.85-4.79-.27-6.66-1.16-8.44-8-8.44-8-1.3 2.39-2.1 4.38-6.2 4.49-6.25 4.14 2-6.69 2.41-9.2 3-7.39 2-9.26-3.41-5.55-2.69-9.7 4.49-8.21 4.49-8.21z"/><path id="t" d="M436.68 428.63c.8-1 4.17-4 5.57-5.94s3.6-5.47 6-6.46 3.69-.2 5.58-.3 6.56-1 9.45.55 3.55 5 2.43 7.88-5.41 5.57-8 6.48a63.88 63.88 0 0 1-12.92 2.29c-3.34.14-9.59-2.59-8.11-4.5z"/><path id="u" d="M436.33 433.88c-2.18-.17-1.44 8.56-1.72 10.46s.21 3.64.95 6.74.3 5.95 3 7.6 6.5 1.37 9.84 2.89 3.94-1.1 2.86-2.93-3.86-4.84-5.35-8-3.43-9.64-4.66-11.44-3.47-5.2-4.92-5.32z"/><path id="v" d="M440.92 430.72c3.49-1.85 5.34-2.34 7.21-4s10-4.4 14-4S474 431 474.26 434.86s-3.09 10.39-5.15 12.08-4.5 3-5.91 4.59-3.09 5.15-7.87 5.05-10.47-2.42-12.77-5.29-3-9.7-4.17-11.67-.61-7.22 2.53-8.9z"/><path id="w" d="M425.47 428.72c.36-1.4 4.51-2.61 5.89-2.66s1.17-3.42 5-4.9 7.19-.86 9-1.93.9 2-1.59 3.77-4.87 5.82-4.87 5.82 5.18 2.53 7.11 5.7a33.11 33.11 0 0 1 3.2 8.37c.2.81-2.79 1.67-4.18 1.88s-7.78-1.26-7.78-1.26.18 1.83.49 3.26-1.76 4.88-1.92 4.7-1.45-4.5-2.16-6.07-1.13-5.3-2.41-5.95-4-1.81-5.21-4.41-.57-6.32-.57-6.32z"/><path id="x" d="M124.79 94c1.71-.68 2.64-3.08 5-3.13s5.88 1.16 8.26-.34 3.44-4.54 5-7.5 1.27-5.6-1.59-8.61-3.62-4.9-6.45-5.38-8.72-1-10.5.22-5.1 5.58-5.75 7.77 2.14 6.9 2.23 9-1.17 4.13-.59 5.61 2.6 3.1 4.39 2.36z"/><path id="y" d="M123.24 89.46l-.72-4c-.29-1.18-3-4.63-3-4.63s.36 0-.9 4.29 1.52 8.44 2 9.12.38 1.26 1.53 1.76 7 .94 9.64-1.34 4.36-4.25 4.21-4.66a14.09 14.09 0 0 0-6.71-2.68c-2.52-.03-6.05 2.14-6.05 2.14z"/><path id="z" d="M381 450.25c.61 2.08 3.33 3.45 3.13 6.17s-2 6.79-.51 9.75 5 4.56 8.29 6.68 6.44 2.11 10.3-.93 6.17-3.72 7.05-7 2.17-10.14.89-12.38-6-6.61-8.5-7.62-8.36 1.75-10.88 1.63-4.73-1.83-6.53-1.32-3.9 2.85-3.24 5.02z"/><path id="AA" d="M386.52 448.93l4.86-.4c1.49-.21 5.78-3.06 5.78-3.06s0 .44-5-1.53-10.1.87-10.95 1.29-1.59.34-2.33 1.7-1.88 8.17.51 11.48 4.55 5.61 5 5.48 3.57-4.65 3.9-7.61-1.77-7.35-1.77-7.35z"/><path id="AB" d="M276.57 345c1.61-.09 3.05-1.83 5-1.23s4.56 2.59 6.95 2 4.12-2.82 6.2-4.86 2.6-4.3 1.05-7.59-1.65-5.07-3.87-6.26-6.95-3.26-8.78-2.71a18.94 18.94 0 0 0-6.92 4.86c-1.15 1.64-.14 6.32-.65 8.12s-2.11 3.11-2 4.49 1.35 3.32 3.02 3.18z"/><path id="AC" d="M276.54 340.82l.53-3.57c.1-1.1-1.24-4.68-1.24-4.68s.31.07-1.94 3.31-1.06 7.43-.89 8.12 0 1.2.83 2 5.58 2.73 8.37 1.55 4.81-2.34 4.79-2.7a12.44 12.44 0 0 0-4.83-4.09c-2.08-.76-5.62.06-5.62.06z"/><path id="AD" d="M159.05 352.22c-2.46.59-4.22 3.68-7.39 3.29s-7.79-2.76-11.34-1.18-5.61 5.51-8.27 9.26-2.85 7.38.46 12.07 4 7.41 7.73 8.63 11.71 3.15 14.39 1.78 8.07-6.59 9.39-9.45-1.53-9.85-1.24-12.78 2.42-5.41 1.93-7.54-3.09-4.69-5.66-4.08z"/><path id="AE" d="M166.82 345.38s2.47 6.72 1.57 9.58-2.46 6-2.47 9.61-.24 10.78-1.9 12.05-5 2.4-6.78 1.47-3.41-6.57-3.46-9 4.22-9.74 3.95-9.78-4.8 4.85-6.58 5.93a10.26 10.26 0 0 1-7 .61c-1.37-.59.56-8.82.85-9.23s-2.19 1-5.26 1.47a23 23 0 0 0-4.85 1.31s3.21-5.41 5.5-6.92 9.54-2.06 11-3.09 8.39-5.29 11.45-5.13 3.98 1.12 3.98 1.12z"/><path id="AF" d="M213.31 250.5c4.7.92 11.23-3.48 15.9-.12s9.41 11.65 17 11.58 15.65-5.81 24.42-10.69S284 239.64 284.21 228s2.32-17.29-2.36-22.72-15.29-15.61-21.27-15.24-20.93 5.82-26.47 10.14S225 220.13 221 225.44s-10.33 8.23-12.06 12.68-.54 11.42 4.37 12.38z"/><path id="AG" d="M211.76 256.45c6.74 1.82 9 16.83 11.25 20.73s5.7 16.66 3.64 21.16 3.84 14.68 1 21.19-21.48 15.47-25.82 15.92-18.76 2.37-23.75-.83-4-7.83-12-12.08-13.3-10.61-14.07-16 2.54-14.54 4.92-18.4 3.9-15.05 17.42-20c11.17-4.08 23.11-15.12 28.12-15s5.22 2.21 9.29 3.31z"/><path id="AH" d="M211.08 249.1c6.1-2.88 17.18-.49 22.27-.26s12.74-1.31 24 5.48c10.92 6.63 24.85 11.77 32.12 20.47s1.44 17.71 2.1 24.51c.84 7.19-2.23 17.49-14.09 18.79-11.48 1.44-19.16-8.09-23.88-10.24-4.56-2.37-11.95-2.42-17.21-7.23s-8.73-15.1-12.76-18.84a60.13 60.13 0 0 1-11.37-18.2c-2.16-6.65-7.73-11.41-1.18-14.48z"/><path id="AI" d="M213.7 244.66c1.6-2.18-.88-14.42 1.59-19.52s7.47-8.88 9-14.83 3.13-24.38-1.64-30.5-14-11.2-19.1-14.42-7.37-12.68-16.26-9.93c-13.61 4.2-22.08 43-19 51.92 3.18 8.56 13.25 15.28 20.61 21.14s11.88 14.52 13 16 7.92 5.57 11.8.14z"/><path id="AJ" d="M201.5 259.44c3-1.38 8.39-10.36 4-14.82S191.62 234 186.34 229s-25.82-17.16-37-19.82-21.06 1.28-26.7 9.37.15 22.9-2.14 30.38 9.06 29.51 24.36 30.68c7.37.57 20.22-10.24 27.28-15.92s21.21-.59 29.36-4.25z"/><path id="AK" d="M229.85 262.88c.57-2.16-.16-11.89-2.13-13.34s-4.11-6.86-8.71-9.56-11.61-5.88-14.55-5-6.07 3.52-8.06 4.11-6.5 5-7.53 9.25 2.47 8.83 3.11 12.23a10.21 10.21 0 0 0 5.19 7.16c2.21 1 7 .27 9.74 1.65s5.43 4.77 9.06 5.6 7.23-1.69 8.36-3.25 4.86-6.36 5.52-8.85z"/><path id="AL" d="M194.55 247.73c-.43 1.65.12 9 1.62 10.15s3.13 5.23 6.63 7.28 8.83 4.47 11.06 3.81 4.62-2.68 6.14-3.13 4.94-3.81 5.73-7-1.88-6.72-2.37-9.31a7.74 7.74 0 0 0-4-5.44c-1.68-.78-5.31-.21-7.41-1.26s-4.13-3.63-6.89-4.26a6.86 6.86 0 0 0-6.36 2.47c-.82 1.17-3.65 4.81-4.15 6.69z"/></defs></svg>