<svg xmlns="http://www.w3.org/2000/svg" xmlns:xlink="http://www.w3.org/1999/xlink" viewBox="0 0 750 500" xmlns:v="https://vecta.io/nano"><style><![CDATA[.B{fill:#263238}.C{fill:#b7e0a3}.D{fill:#e0e0e0}.E{fill:#455a64}.F{opacity:.3}.G{fill:#fff}.H{opacity:.4}.I{fill:#fafafa}.J{opacity:.6}.K{fill:#ebebeb}.L{fill:#ffbe9d}.M{fill:#eb996e}.N{fill:#f5f5f5}]]></style><path d="M657.28 40.28h60.64v63.21h-60.64z" class="D"/><path d="M653.17 40.28h60.64v63.21h-60.64z" class="I"/><path d="M713.83,103.51H653.15V40.26h60.68Zm-60.64,0h60.6V40.3h-60.6Z" class="D"/><path d="M661.32 48.77h44.34v46.22h-44.34z" class="I"/><g class="D"><path d="M661.32 95.3a6.93 6.93 0 0 1-1.09 1.27l-2.82 2.86-2.9 2.77a7.63 7.63 0 0 1-1.28 1.07 6.93 6.93 0 0 1 1.09-1.27l2.82-2.86 2.91-2.78a6.72 6.72 0 0 1 1.27-1.06zm44.34-.12a7.91 7.91 0 0 1 1.27 1.1l2.86 2.82 2.77 2.89a8 8 0 0 1 1.07 1.28 7.08 7.08 0 0 1-1.27-1.08l-2.86-2.83-2.78-2.9a7.07 7.07 0 0 1-1.06-1.28zm-.12-46.28a6.56 6.56 0 0 1 1.09-1.27l2.82-2.86 2.9-2.77a6.55 6.55 0 0 1 1.28-1.07 7.48 7.48 0 0 1-1.09 1.27l-2.83 2.86-2.9 2.78a7.26 7.26 0 0 1-1.27 1.06zm-44.34.1a7.48 7.48 0 0 1-1.27-1.09l-2.86-2.82-2.77-2.89a6.55 6.55 0 0 1-1.07-1.28A6.93 6.93 0 0 1 654.5 42l2.86 2.82 2.78 2.91A7.26 7.26 0 0 1 661.2 49z"/><path d="M705.54 95a.77.77 0 0 1 0-.22v-.65-2.49-9.42l-.08-33.44.17.17h-44.21 0l.2-.2v46.22l-.17-.17 32 .09h9 2.38 0-2.34-9l-32.12.09h-.17V95 48.78v-.19h.2 44.21.17v.17l-.09 33.55v9.38 2.46.62c-.15.15-.15.23-.15.23z"/></g><path d="M676.09 64.48h14.79v14.79h-14.79zM660.81 218.8s-9-.65-8.18 19.55 2.89 31 2.89 31-.26 4.47-3.73 3.59-10-5.23-13.22-2-2.15 8.56 2.28 14.66 13.66 19.84 14.49 21.08 1.14 3.52-1.32 3.3-19.06-5.85-21.25 2.19 12.94 23 14.57 24.68 1.71 2.72 1 3.73-6.06-1.41-10.84-2.81-10.59-2.2-11.47 2.54 5.8 18.62 30.78 33.2l12 6 11.38-7.26c23.4-17 28.65-31.49 27.3-36.12s-7-3.26-11.66-1.38-9.75 4.82-10.51 3.88-.78-2 .67-3.82 15-18.24 12-26-18.94-.52-21.36-.05-2.33-1.85-1.64-3.15l12.3-22.42c3.8-6.51 4.46-11.8.8-14.82s-9.59 2.07-12.95 3.29-4.08-3.21-4.08-3.21 1-10.91-.22-31.09-10.3-18.55-10.3-18.55" class="K"/><g class="D"><path d="M661.52 236.89s0 .14.05.42 0 .71.09 1.24l.33 4.77 1 17.55 2.77 57.94 2.64 58 .9 17.55.23 4.78v1.24.42a3.39 3.39 0 0 1 0-.42c0-.3-.06-.71-.1-1.24l-.32-4.77-1-17.55-2.78-57.95-2.64-57.94-.89-17.56-.24-4.78-.05-1.24s.01-.46.01-.46z"/><path d="M647.46 277.39a4.38 4.38 0 0 1 .74.62l1.91 1.83 6 6.3 5.87 6.44 1.79 1.94a3.82 3.82 0 0 1 .63.74 4.16 4.16 0 0 1-.75-.62l-1.9-1.84-6-6.34-5.92-6.39-1.8-1.93a3.66 3.66 0 0 1-.57-.75zm18.16 17.47c-.09-.09 4.31-4.69 9.82-10.28s10-10 10.14-9.95-4.3 4.69-9.81 10.28-10.06 10.09-10.15 9.95zm-.05 34.83a4.15 4.15 0 0 1 .84-.53l2.35-1.32 7.67-4.48 7.48-4.81 2.24-1.5a3.89 3.89 0 0 1 .85-.5 3.82 3.82 0 0 1-.74.65l-2.17 1.62-7.42 4.93-7.76 4.37-2.42 1.19a4 4 0 0 1-.92.38zm-19.91-12.19a3.2 3.2 0 0 1 .83.39l2.18 1.21 7.1 4.15 7 4.26 2.11 1.33a3.85 3.85 0 0 1 .74.55 4.39 4.39 0 0 1-.83-.39l-2.18-1.21-7.1-4.15-7-4.26-2.11-1.33a3.85 3.85 0 0 1-.74-.55zm-3.95 30.74a5.53 5.53 0 0 1 1.06.51l2.8 1.54 9.14 5.25 9.07 5.35 2.73 1.67a5.83 5.83 0 0 1 1 .67 6 6 0 0 1-1.05-.51l-2.8-1.55-9.14-5.24-9.08-5.35-2.72-1.67a6.32 6.32 0 0 1-1.01-.67zM667 362.7a6 6 0 0 1 1-.7l2.92-1.78 9.56-6c3.69-2.41 7-4.66 9.34-6.31l2.81-2a6 6 0 0 1 1.06-.67 7.48 7.48 0 0 1-1 .82l-2.73 2.07c-2.32 1.72-5.58 4-9.28 6.43a180.81 180.81 0 0 1-9.64 5.89l-3 1.65a7.62 7.62 0 0 1-1.04.6zm18.02 20.74h-33.25l10.85 82.14h11.55l10.85-82.14z"/></g><path d="M653.5 393.53s0 .12.18.3a2.11 2.11 0 0 0 .8.57 4 4 0 0 0 3.52-.4c1.34-.74 2.51-2.2 4.31-2.84a9.44 9.44 0 0 1 6.11.12 26.47 26.47 0 0 1 5.7 2.76 40.31 40.31 0 0 0 4.63 2.49 12.58 12.58 0 0 0 3.41 1 6.69 6.69 0 0 0 1 .07q.33 0 .33 0a17.43 17.43 0 0 1-4.56-1.37 47.67 47.67 0 0 1-4.53-2.57 25.19 25.19 0 0 0-5.79-2.85 9.78 9.78 0 0 0-6.45-.07 8.64 8.64 0 0 0-2.43 1.51 18.18 18.18 0 0 1-1.9 1.47 3.88 3.88 0 0 1-3.24.56 3.06 3.06 0 0 1-1.09-.75zm1.21 15.13s.26-.33.78-.88a7.43 7.43 0 0 1 2.66-1.68 11.77 11.77 0 0 1 4.62-.7 47.74 47.74 0 0 1 5.79.79 20 20 0 0 0 5.92.25 16.19 16.19 0 0 0 4.66-1.34 15.13 15.13 0 0 0 2.81-1.66 4 4 0 0 0 .88-.8 28.73 28.73 0 0 1-3.84 2.11 16.87 16.87 0 0 1-4.57 1.19 20.18 20.18 0 0 1-5.78-.29 44.23 44.23 0 0 0-5.85-.75 11.82 11.82 0 0 0-4.78.84 7 7 0 0 0-2.67 1.9 4.76 4.76 0 0 0-.51.74c-.09.18-.14.27-.12.28zm26.54 8.1a2.73 2.73 0 0 0-.91-.47 9.5 9.5 0 0 0-2.76-.59 17.51 17.51 0 0 0-4.16.23l-5 1.05a20.65 20.65 0 0 1-5 .56 10.57 10.57 0 0 1-3.93-.85 9.22 9.22 0 0 1-3-2.22 2.43 2.43 0 0 0 .57.87 7 7 0 0 0 2.25 1.7 10.58 10.58 0 0 0 4.07 1 19.88 19.88 0 0 0 5.09-.52l4.93-1.09a19.18 19.18 0 0 1 4.06-.35 15.52 15.52 0 0 1 3.79.68zm-23.6 11.4a5.34 5.34 0 0 1 3.23-.33 15.49 15.49 0 0 1 3.37 1.26 12.94 12.94 0 0 0 12.34-.64 11.27 11.27 0 0 0 2-1.52 3.8 3.8 0 0 0 .59-.7 31.27 31.27 0 0 1-2.76 1.89 13.61 13.61 0 0 1-7.71 1.64c-3.15-.18-5.57-2.06-7.75-2.31a4.89 4.89 0 0 0-2.51.22c-.58.22-.82.47-.8.49zm1.85 15.76a6.31 6.31 0 0 0 2.77-.55c1.67-.56 3.74-1.84 6.16-2.8a10.2 10.2 0 0 1 3.53-.74 6.61 6.61 0 0 1 2.84.65 6.43 6.43 0 0 1 2.06 1.77 1.66 1.66 0 0 0-.32-.7 4.58 4.58 0 0 0-1.56-1.41 6.63 6.63 0 0 0-3-.81 10.13 10.13 0 0 0-3.73.73c-2.51 1-4.51 2.32-6.11 2.95l-2.64.91zm1.63 7.34a7.78 7.78 0 0 0 2.11.68 38.34 38.34 0 0 0 5.26.89 37.61 37.61 0 0 0 5.33.15 7.6 7.6 0 0 0 2.2-.26c0-.16-3.37 0-7.48-.43l-7.42-1.03z" class="N"/><path d="M159.152 71.037l8.6-.047.231 42.769-8.6.047z" class="D"/><path d="M84.684 71.21l22.26-.12.128 23.61-22.26.12z" class="K"/><path d="M106.843 71.101l22.26-.12.128 23.61-22.26.12z" class="N"/><path d="M84.72 77.74l44.41-.2a.24.24 0 0 0 0-.47c-14.79-.08-29.62 0-44.41.27a.2.2 0 0 0 0 .4z" class="D"/><path d="M70.8 94.535l40.439-.219.104 19.24-40.439.219z" class="K"/><path d="M111.058 94.308l40.439-.219.104 19.24-40.439.219z" class="N"/><g class="D"><path d="M70.83 99.89c26.87.3 53.82 0 80.69-.4a.24.24 0 0 0 0-.47c-26.86-.14-53.82-.13-80.68.46a.21.21 0 0 0 0 .41zm-15.12 13.89h156.67v6.89H55.71z"/><path d="M81.36 117.09h6.36v23.52h-6.36zm94.94 0h6.36v23.52h-6.36z"/></g><path d="M167.791 54.313l8.59-.086.588 58.82-8.59.086z" class="K"/><path d="M176.205 66.055l13.36-.072.258 47.669-13.36.072z" class="N"/><g class="D"><use xlink:href="#B"/><path d="M189.46 73.18a50 50 0 0 1-6.67.23 50.07 50.07 0 0 1-6.68-.23 47.13 47.13 0 0 1 6.68-.24 47 47 0 0 1 6.67.24z"/><use xlink:href="#B" y="31.31"/><use xlink:href="#B" y="29.31"/><path d="M183 100.12c-.13 0-.23-4.81-.23-10.74s.1-10.74.23-10.74.23 4.81.23 10.74-.1 10.74-.23 10.74z"/></g><path d="M189.61 77.7h14.54v35.98h-14.54z" class="K"/><g class="D"><circle cx="171.7" cy="65.09" r="2.47"/><path d="M170.94 71.88h1.53v34.99h-1.53zM61.43 180.26h60.64v63.21H61.43z"/></g><path d="M57.33 180.26h60.64v63.21H57.33z" class="I"/><path d="M118,243.49H57.31V180.24H118Zm-60.64,0H118V180.28H57.35Z" class="D"/><path d="M65.48 188.76h44.34v46.22H65.48z" class="I"/><g class="D"><path d="M65.48 235.28a7.24 7.24 0 0 1-1.1 1.28l-2.81 2.85-2.9 2.78a7.07 7.07 0 0 1-1.28 1.06 6.72 6.72 0 0 1 1.09-1.25l2.82-2.87 2.9-2.77a6.92 6.92 0 0 1 1.28-1.08zm44.33-.11a7.41 7.41 0 0 1 1.28 1.09l2.85 2.82 2.78 2.9a7.07 7.07 0 0 1 1.06 1.28 7.11 7.11 0 0 1-1.26-1.09l-2.87-2.82-2.77-2.9a6.92 6.92 0 0 1-1.07-1.28zm-.12-46.29a7.91 7.91 0 0 1 1.1-1.27l2.82-2.86 2.89-2.77a8.72 8.72 0 0 1 1.28-1.07 7.08 7.08 0 0 1-1.08 1.27l-2.83 2.86-2.9 2.78a6.12 6.12 0 0 1-1.28 1.06zm-44.33.12a7.43 7.43 0 0 1-1.27-1.1l-2.86-2.82-2.77-2.89a6.92 6.92 0 0 1-1.07-1.28 6.93 6.93 0 0 1 1.27 1.09l2.86 2.82 2.78 2.9a7.07 7.07 0 0 1 1.06 1.28z"/><path d="M109.69 235v-.23-.64-2.5-9.42l-.09-33.43.17.17H65.56h0l.2-.2v46.22l-.17-.17 32 .08 9 .05h2.37 0-2.35-9l-32.12.09h-.17V235v-46.22-.2h.2 44.21.18v.17l-.08 33.54v9.38 2.46.63a.67.67 0 0 1-.14.24z"/></g><path d="M80.25 204.47h14.79v14.79H80.25z" class="K"/><path d="M408.33 99.27h32.51v69.58h-32.51zm33.86 74.45h39.94v67.23h-39.94zM487 98.07h37.92V36.34h1.35v61.73h35.11v-63.1H487v63.1zm-78.67 75.65h32.51v67.23h-32.51zm117.94 0h35.1v67.23h-35.1zm-84.08-74.45h39.94v69.58h-39.94zm84.08 0h35.1v69.58h-35.1zM408.33 242.15h32.51v60.59h-32.51zm32.51-144.08V36.34h1.35v61.73h39.94v-63.1h-73.8v63.1h32.51zm1.35 144.08h39.94v60.59h-39.94zm84.08 0h35.1v60.59h-35.1zM487 99.27h37.93v69.58H487zm0 142.88h37.93v60.59H487zm0-68.43h37.93v67.23H487zM249.91 99.27h32.51v69.58h-32.51zm33.85 74.45h39.94v67.23h-39.94zm44.81-75.65h37.93V36.34h1.35v61.73h35.1v-63.1h-74.38v63.1zm-78.66 75.65h32.51v67.23h-32.51zm117.94 0h35.1v67.23h-35.1zm-84.09-74.45h39.94v69.58h-39.94zm84.09 0h35.1v69.58h-35.1zM249.91 242.15h32.51v60.59h-32.51zm32.5-144.08V36.34h1.35v61.73h39.95v-63.1h-73.8v63.1h32.5zm1.35 144.08h39.94v60.59h-39.94zm84.09 0h35.1v60.59h-35.1zM328.57 99.27h37.93v69.58h-37.93zm0 142.88h37.93v60.59h-37.93zm0-68.43h37.93v67.23h-37.93z" class="N"/><path d="M713.19 466.14c0 .14-150.08.26-335.17.26s-335.21-.12-335.21-.26 150.05-.26 335.21-.26l335.17.26zm-108.45-68.7v68.16h8.08l3.01-68.35-11.09.19zm-132.88-.19l3.86 68.35h7.65l.09-68.16-11.6-.19z" class="B"/><g class="E"><rect x="459.18" y="353.13" width="151.39" height="49.33" rx="6.54"/><path d="M617.46,331.07c1.81-13.65,3.29-28.36-3.27-40.46-6.82-12.58-21.85-19.71-36.1-18.43s-27.24,10.3-34.74,22.48-9.78,27.17-7.78,41.33"/></g><path d="M548.29 385.09c0 .14-17.25.26-38.53.26s-38.54-.12-38.54-.26 17.25-.27 38.54-.27l38.53.27z" class="B"/><path d="M548.84 384.8l-7.4 6.18-7.54 6c-.04-.06 3.28-2.81 7.41-6.18l7.53-6zm-14.72-15.93c0 .05-10.28 7.39-23 16.4l-23.18 16.23c-.06-.05 10.27-7.39 23-16.4l23.18-16.23zm-35.12-.75c0 .05-6.73 5-15.11 11.05l-15.24 10.88c-.03-.04 6.73-5 15.12-11.05L499 368.12zm-15.68-10.62l-.16.11-.48.28-1.76 1-5.67 3.58-5.37 4-1.58 1.28-.43.35-.16.11a.54.54 0 0 1 .13-.14l.41-.38 1.53-1.34 5.36-4.06 5.7-3.54 1.8-.95.5-.25zm133.24-62.2s-.1.1-.3.27l-.89.75-3.34 2.68c-2.85 2.23-6.86 5.21-11.44 8.3s-8.85 5.69-12 7.49l-3.73 2.1-1 .54a3.57 3.57 0 0 1-.37.18l.35-.21 1-.59 3.7-2.15c3.11-1.83 7.37-4.45 11.94-7.53s8.6-6.05 11.47-8.25l3.38-2.62.91-.72z" class="I"/><path d="M592.87 279.82a2.1 2.1 0 0 1 .42.21 11.76 11.76 0 0 1 1.15.69 21.33 21.33 0 0 1 3.74 3.22 30.46 30.46 0 0 1 7.17 14.46 57.61 57.61 0 0 1 .71 16.21l-.51 4.89-.18 1.32a1.54 1.54 0 0 1-.1.46 12.13 12.13 0 0 1 .08-1.8l.34-4.9a61.87 61.87 0 0 0-.85-16.08 31.23 31.23 0 0 0-6.93-14.32 30.65 30.65 0 0 0-5.04-4.36z" class="B"/><path d="M607.57 281.51l-.14.14-.43.35-1.62 1.28-5.56 3.9-5.85 3.46-1.83.94-.51.24a1 1 0 0 1-.18.08s0-.05.16-.11l.49-.28 1.8-1 5.81-3.51 5.58-3.84L607 282l.45-.33z" class="I"/><path d="M442.56 427.1l1 24.75s-24.83 9.34-25.09 13.93l48.07-.22v-38.64z" class="C"/><g class="J G"><path d="M458.42,449.7a2,2,0,0,1,1.37,2.24,1.89,1.89,0,0,1-2.2,1.37,2.06,2.06,0,0,1-1.44-2.37,2,2,0,0,1,2.45-1.18"/></g><g class="J G"><path d="M466.55,465.56l-.15-3.9-46,1.67s-2.14.95-1.89,2.45Z"/></g><path d="M442.79 451.61c0 .24 1.18.34 2.34 1.09s1.78 1.73 2 1.64-.14-1.45-1.56-2.33-2.84-.61-2.78-.4zm-5.04 2.11c-.05.23 1 .62 1.77 1.61s1 2 1.27 2 .38-1.34-.64-2.55-2.39-1.28-2.4-1.06zm-2.83 6.05c.21.05.53-1.13-.08-2.41s-1.71-1.79-1.8-1.59.58.88 1.06 1.94.58 2.04.82 2.06zm8.26-13.77c.1.21 1.18-.12 2.5 0s2.37.5 2.49.3-.88-1-2.44-1.11-2.66.57-2.55.81z" class="B"/><g class="F"><path d="M442.77 432l.17 4.41 23.62-.32.02-3.98-23.81-.11z"/></g><g class="B"><path d="M443.07 441a4.69 4.69 0 0 0 2.41 0 10.81 10.81 0 0 0 2.52-.78 12.32 12.32 0 0 0 1.37-.74 3.17 3.17 0 0 0 .73-.57 1 1 0 0 0 .1-1.25 1.26 1.26 0 0 0-1-.53 3 3 0 0 0-.9.13 8.27 8.27 0 0 0-1.5.52 8.56 8.56 0 0 0-2.21 1.46c-1.11 1-1.49 1.92-1.41 2s.65-.66 1.78-1.52a9.27 9.27 0 0 1 2.14-1.22 8.24 8.24 0 0 1 1.38-.43c.51-.14.94-.15 1.07.08s.06.12 0 .27a2.51 2.51 0 0 1-.53.42 13.76 13.76 0 0 1-1.27.73 12.86 12.86 0 0 1-2.32.9 15.78 15.78 0 0 0-2.36.53z"/><path d="M443.38 441.28A3.88 3.88 0 0 0 444 439a7.79 7.79 0 0 0-1-4.09 2 2 0 0 0-1.54-1.21 1.13 1.13 0 0 0-1 .68 2.91 2.91 0 0 0-.24.88 5.18 5.18 0 0 0 0 1.62 5.58 5.58 0 0 0 1 2.49c.95 1.24 1.93 1.51 1.95 1.43s-.75-.56-1.47-1.76a5.39 5.39 0 0 1-.77-2.26 4.67 4.67 0 0 1 0-1.39c.07-.51.26-.92.45-.87s.65.38.85.78a9 9 0 0 1 .6 1.31 8.86 8.86 0 0 1 .48 2.4c.19 1.36-.06 2.24.07 2.27zm67.2-120.75L455 311.77a19.34 19.34 0 0 0-15.3 4.23h0a19.32 19.32 0 0 0-7 15.6l3.95 101.09H471v-78.53l32.9.61 26.09-23 18.82-3.34 14-8.54z"/></g><path d="M471 334.32a1 1 0 0 1 0 .25c0 .2 0 .44.05.74l.11 2.87.21 10.54.24 34.77-.15 34.79-.23 10.54a25.99 25.99 0 0 1-.16 2.86c0 .3-.05.55-.07.74s0 .26 0 .25a.93.93 0 0 1 0-.25v-.75l.05-2.86.07-10.54v-34.78l-.12-49.17z" class="E"/><path d="M521.89,436.19l13.34,20.88s-16.75,20.57-14.66,24.67L562,457.34,542.54,424Z" class="C"/><g class="J G"><path d="M547,447.73a2,2,0,0,1,2.3,1.25,1.87,1.87,0,0,1-1.21,2.29,2.06,2.06,0,0,1-2.43-1.32,2,2,0,0,1,1.52-2.25"/></g><g class="J G"><path d="M562,457.34l-2.09-3.29L521,478.68s-1.37,1.89-.4,3.06Z"/></g><path d="M534.43 457.26c.13.2 1.19-.31 2.57-.24s2.41.6 2.55.41-.85-1.18-2.52-1.23-2.75.9-2.6 1.06zm-3.28 4.36c.07.22 1.15.05 2.34.5s1.92 1.24 2.11 1.11-.34-1.35-1.84-1.88-2.76.07-2.61.27zm.59 6.65c.21-.07-.1-1.24-1.27-2s-2.38-.69-2.37-.47.95.47 1.9 1.14 1.53 1.43 1.74 1.33zm.18-16.11c.19.14 1-.69 2.15-1.28s2.29-.76 2.29-1-1.28-.45-2.67.27-1.96 1.91-1.77 2.01z" class="B"/><g class="F"><path d="M524.54 440.33l2.37 3.72 20.25-12.18-2-3.44-20.62 11.9z"/></g><g class="B"><path d="M529.31 447.9c.05.09.92-.26 2.07-1.23a11.12 11.12 0 0 0 1.77-1.95 10.71 10.71 0 0 0 .82-1.33 3 3 0 0 0 .34-.86 1 1 0 0 0-.54-1.13 1.3 1.3 0 0 0-1.16.06 3 3 0 0 0-.71.57 8.11 8.11 0 0 0-1 1.2 8.6 8.6 0 0 0-1.18 2.38 4.08 4.08 0 0 0-.22 2.41c.13 0 .22-.9.77-2.21a9.55 9.55 0 0 1 1.23-2.13 8.87 8.87 0 0 1 1-1.07c.37-.38.74-.6 1-.47s.11.08.09.26a2.63 2.63 0 0 1-.25.63 12.8 12.8 0 0 1-.73 1.27 14.12 14.12 0 0 1-1.55 1.95c-1.06 1.03-1.82 1.54-1.75 1.65z"/><path d="M529.74 448a3.8 3.8 0 0 0-.63-2.33 7.83 7.83 0 0 0-2.89-3 2 2 0 0 0-1.94-.27 1.14 1.14 0 0 0-.53 1.09 3.12 3.12 0 0 0 .24.89 5.31 5.31 0 0 0 .82 1.39 5.41 5.41 0 0 0 2.15 1.62 3.14 3.14 0 0 0 2.4.27 22.18 22.18 0 0 1-2.15-.79 5.62 5.62 0 0 1-1.81-1.56 4.93 4.93 0 0 1-.66-1.22c-.2-.48-.24-.93 0-1a1.35 1.35 0 0 1 1.12.25 8.18 8.18 0 0 1 1.18.82 8.8 8.8 0 0 1 1.62 1.83c.72 1.2.95 2.08 1.08 2.01z"/></g><path d="M445,262.55l-16.08-8.19c-4.19-1.81-5.79-2.85-5.4-3.61.52-1,.28-.65,8.36,1.56,0,0-11.51-3.26-8.46-4.51.53-.22,2.38.06,4.4.48-2.92-1-4-2-3.84-2.77.3-1.32,7.19.29,10.39,1.11-2.64-.71-7.67-2.12-8.72-2.77-1.43-.89.5-1.54,2.25-1.62,2-.1,13.46,1,16.8,1.14a2,2,0,0,0,2.28-1.94c-.69-4.79,1.33-8.89,2.4-9.75s2.6.33,2.18,1.79a17.88,17.88,0,0,0-.22,4.9,11.54,11.54,0,0,0,.86,3.81c.58,1.41,1.13,2.58,1.62,3.56l13.15,13.06-10.56,13.39Z" class="L"/><path d="M436.07 253.93c-.05.2-2.56-.37-5.6-1.28s-5.45-1.82-5.38-2 2.57.38 5.6 1.29 5.43 1.79 5.38 1.99zm2.11-3.39c-.05.21-2.75-.26-6-1s-5.92-1.57-5.87-1.78 2.75.26 6 1 5.92 1.58 5.87 1.78zm1.64-2.91c-.05.21-2.61-.19-5.74-.88s-5.61-1.42-5.57-1.63 2.62.19 5.74.89 5.61 1.42 5.57 1.62z" class="M"/><path d="M516.07,151.43c4.1-1.25,8.36,2.41,12.56,1.59,2.55-.5,4.48-2.54,6.75-3.8a13.07,13.07,0,0,1,11.65-.45c3.47,1.76,5.7,3.64,6.17,7.5,3.15-1.81,8.42,2.16,10.21,6s1.34,7.79.32,11.89a55.67,55.67,0,0,1-9.23,19.65c-.38.52-1,1.09-1.57.82a1.4,1.4,0,0,1-.61-1.14c-.6-3.75-.13-7.58.2-11.37s.48-7.69-.71-11.3-4-6.9-7.75-7.64A12.05,12.05,0,0,0,536,164.9c-2.45,1.37-4.6,3.21-6.93,4.78a15.54,15.54,0,0,1-7.76,3c-2.81.13-5.81-1.2-7-3.74s.15-6.15,2.89-6.73a5.52,5.52,0,0,1-1.11-10.78Z" class="B"/><path d="M557.83 175.31l-4.06 42.44c-.69 7.22-8.26 17.92-15.44 16.87h0c-6.69-1-10.46-12.57-9.81-19.31l.57-6.19s-10.7-2.05-10.46-12.82c.12-5.2 1.23-15.9 2.36-25.57A20 20 0 0 1 541.62 153h1c11.22 1.09 16.57 11.17 15.21 22.31z" class="L"/><path d="M529.08,209a25,25,0,0,0,14.17-3.5s-3.59,7.63-14.29,6.28Z" class="M"/><path d="M523.87 178.05a1.54 1.54 0 0 0 1.43 1.61 1.48 1.48 0 0 0 1.63-1.34 1.54 1.54 0 0 0-1.43-1.6 1.48 1.48 0 0 0-1.63 1.33zm-.76-1.95c.19.2 1.38-.62 3-.55s2.83.93 3 .73-.09-.45-.61-.86a4.19 4.19 0 0 0-2.41-.83 4.05 4.05 0 0 0-2.42.68c-.46.38-.67.73-.56.83zm16.96 3.08a1.54 1.54 0 0 0 1.43 1.61 1.48 1.48 0 0 0 1.63-1.33 1.54 1.54 0 0 0-1.42-1.61 1.48 1.48 0 0 0-1.64 1.33zm-.71-2.18c.18.2 1.38-.62 3-.56s2.84.94 3 .74-.09-.45-.61-.86a4.3 4.3 0 0 0-2.41-.84 4.05 4.05 0 0 0-2.42.69c-.46.36-.65.71-.56.83zm-6.43 12a11.06 11.06 0 0 0-2.67-.58c-.42-.06-.82-.15-.88-.44a2.12 2.12 0 0 1 .33-1.25l1.36-3.17 3.1-8.31c-.18-.07-1.87 3.52-3.76 8l-1.31 3.2a2.38 2.38 0 0 0-.28 1.65 1 1 0 0 0 .67.64 3 3 0 0 0 .71.12 10.44 10.44 0 0 0 2.73.14zm4.83 1.35c-.27 0-.34 1.77-1.92 3s-3.49.95-3.51 1.2.41.37 1.22.42a4.51 4.51 0 0 0 2.93-.91 3.94 3.94 0 0 0 1.49-2.51c.09-.76-.09-1.21-.21-1.2zm1.4-19.87c.15.45 1.81.3 3.74.6s3.48.89 3.75.49c.13-.19-.13-.62-.75-1.08a6.62 6.62 0 0 0-5.71-.83c-.72.26-1.09.6-1.03.82zm-15.27.85c.28.39 1.43 0 2.8.07s2.52.34 2.8-.05c.13-.18 0-.57-.54-.94a4.08 4.08 0 0 0-4.51 0c-.5.35-.67.73-.55.92z" class="B"/><path d="M556.68 183.25c.18-.07 7.47-1.93 7 5.42s-7.78 5.34-7.77 5.13.77-10.55.77-10.55z" class="L"/><path d="M558.32 191.16a2.5 2.5 0 0 0 .33.22 1.28 1.28 0 0 0 1 .08 3.16 3.16 0 0 0 1.65-2.74 4.17 4.17 0 0 0-.23-1.86 1.5 1.5 0 0 0-.9-1.05.65.65 0 0 0-.78.3c-.11.2-.07.35-.11.36s-.15-.13-.07-.43a.76.76 0 0 1 .32-.44.92.92 0 0 1 .72-.14 1.79 1.79 0 0 1 1.26 1.23 4.25 4.25 0 0 1 .3 2.07c-.14 1.48-1 2.82-2.08 3.05a1.39 1.39 0 0 1-1.16-.27c-.25-.2-.28-.36-.25-.38z" class="M"/><path d="M518.79,168.42a15.54,15.54,0,0,0,13.91-2.63c2.7-2.13,4.83-5.25,8.15-6.14a8.74,8.74,0,0,1,6.65,1.15,16.86,16.86,0,0,1,4.91,4.83c-2.27,5.4-1.09,11.56.13,17.28a2.87,2.87,0,0,0,.79,1.73c.85.7,2.17.22,3-.54a9.09,9.09,0,0,0,2.16-4.73,30.21,30.21,0,0,0,.35-11.94,20.61,20.61,0,0,0-5.3-10.6A19.52,19.52,0,0,0,540,151.17a24,24,0,0,0-14.08,4.49,14,14,0,0,0-4.7,5.05" class="B"/><path d="M512.89 153.92a1.56 1.56 0 0 0 .05.64 3 3 0 0 0 1 1.55 4.71 4.71 0 0 0 2.72 1 7.58 7.58 0 0 0 1.83-.05 3.82 3.82 0 0 0 1.9-.8 2.61 2.61 0 0 0 1-2 2.31 2.31 0 0 0-1.5-1.94 2.81 2.81 0 0 0-1.32-.21 2.41 2.41 0 0 0-1.28.52 3.36 3.36 0 0 0-1.19 2.53 3.93 3.93 0 0 0 1.07 2.75 5.92 5.92 0 0 0 2.61 1.6 9.69 9.69 0 0 0 6.31-.46 27.63 27.63 0 0 0 5.56-3.09 35.44 35.44 0 0 1 5-3 11 11 0 0 1 5.1-1 10.36 10.36 0 0 1 4.36 1.29 13 13 0 0 1 4.72 4.6 17.8 17.8 0 0 1 .88 1.6 6.2 6.2 0 0 0 .29.57v-.16c0-.1-.09-.25-.18-.44a13.61 13.61 0 0 0-.82-1.64 13 13 0 0 0-4.73-4.76 10.58 10.58 0 0 0-4.47-1.36 11.08 11.08 0 0 0-5.25 1.05 34.38 34.38 0 0 0-5.11 3 27.05 27.05 0 0 1-5.49 3.05 9.32 9.32 0 0 1-6.07.46 5.51 5.51 0 0 1-2.46-1.5 3.53 3.53 0 0 1-1-2.5 3 3 0 0 1 1.05-2.29 2.2 2.2 0 0 1 2.28-.28 2 2 0 0 1 1.34 1.67 2.34 2.34 0 0 1-.88 1.83 3.69 3.69 0 0 1-1.78.78 8.31 8.31 0 0 1-1.78.07 4.61 4.61 0 0 1-2.65-1 3 3 0 0 1-1-1.46 4.92 4.92 0 0 1-.11-.62zm51.61 14.72a12.84 12.84 0 0 1-2.27.51 6.44 6.44 0 0 1-2.46-.35 10.4 10.4 0 0 1-2.71-1.42 8.62 8.62 0 0 1-3.13-4.5 16.27 16.27 0 0 1-.4-2.3 1.68 1.68 0 0 0-.07.64 7.26 7.26 0 0 0 .23 1.73 8.37 8.37 0 0 0 3.15 4.73 10.38 10.38 0 0 0 2.83 1.44 6 6 0 0 0 2.58.28 5.6 5.6 0 0 0 1.69-.45 2 2 0 0 0 .56-.31zM564 174c0-.07-.87.09-2.26 0a10.13 10.13 0 0 1-8.39-6c-.57-1.27-.7-2.14-.77-2.13a1.93 1.93 0 0 0 .06.62 8.64 8.64 0 0 0 .47 1.61 9.92 9.92 0 0 0 3.41 4.33 9.82 9.82 0 0 0 5.2 1.8 8.05 8.05 0 0 0 1.68-.08 2 2 0 0 0 .6-.15z" class="E"/><path d="M544.61 184.2a.18.18 0 0 0 .22-.15.181.181 0 1 0-.35-.09.19.19 0 0 0 .13.24zm-3.14-.83a.19.19 0 0 0 .23-.18.2.2 0 0 0-.12-.26c-.1 0-.2 0-.23.18a.21.21 0 0 0 .12.26zm-2.12-.12c.1 0 .2-.11.23-.27s0-.31-.14-.32-.2.1-.22.26.03.31.13.33zm3.65 2.88c.1 0 .18 0 .18-.11s-.07-.12-.18-.12-.18 0-.18.11.07.12.18.12zm-2.89-.77a.21.21 0 0 0 .21-.19.21.21 0 0 0-.16-.23.19.19 0 0 0-.2.19.2.2 0 0 0 .15.23zM525.09 183a.21.21 0 0 0 .23-.16.22.22 0 0 0-.13-.25.21.21 0 0 0-.23.16.21.21 0 0 0 .13.25zm-2.09-.25c.1 0 .19-.07.21-.2s0-.24-.15-.25-.2.08-.22.2a.21.21 0 0 0 .16.25zm4 .4a.18.18 0 0 0 .22-.12.19.19 0 0 0-.14-.2.17.17 0 1 0-.08.32zm-1.68 2.09a.19.19 0 0 0 .26-.11.21.21 0 0 0-.08-.27.21.21 0 0 0-.18.38zm-1.83-.43a.17.17 0 0 0 .15-.19.18.18 0 0 0-.22-.11.16.16 0 1 0 .07.3z" class="M"/><g class="B"><path d="M561.2 193.27a4.85 4.85 0 0 1 .14 1.67 2.45 2.45 0 0 1-.86 1.52 2.21 2.21 0 0 1-2 .45 2 2 0 0 1-1.38-1.48 2.58 2.58 0 0 1 .36-1.7 3.78 3.78 0 0 1 1.12-1.26c0-.05-.75.15-1.34 1.12a2.78 2.78 0 0 0-.47 1.9 2.31 2.31 0 0 0 1.6 1.77 2.53 2.53 0 0 0 2.33-.55 2.61 2.61 0 0 0 .89-1.73 2.82 2.82 0 0 0-.16-1.3 1 1 0 0 0-.23-.41z"/><path d="M561.22 192s-.28.08-.43.49a1.08 1.08 0 0 0 .68 1.38 1 1 0 0 0 .92-.19.8.8 0 0 0 .3-.7c-.05-.46-.35-.59-.36-.54s.13.21.1.54a.57.57 0 0 1-.24.44.69.69 0 0 1-.61.1.81.81 0 0 1-.47-.42.9.9 0 0 1-.07-.55c.06-.31.22-.49.18-.55zM548.5 327.64c-.9.08-58 6.84-66.94 11.87-4.95 2.78-4.51 7.64-5.28 9.71-3 8.12-.45 16.34 3.76 23.91l41.85 73 26.54-17.85L521.76 370l40.83-4a22.2 22.2 0 0 0 18.62-17.31l4.86-22.52z"/></g><path d="M548.43 428.25c-.13.06-7.76-16.37-17-36.69l-16.56-36.92c.13-.06 7.76 16.37 17 36.7l16.56 36.91zm.07-97.11a.84.84 0 0 1-.27.05l-.78.07-3 .25-11.05.89-36.42 3.1-5.26.56-2.54.36a12.7 12.7 0 0 0-2.4.71 17.91 17.91 0 0 0-7.78 5.38 18.86 18.86 0 0 0-2.37 3.77 16.66 16.66 0 0 0-1.2 4 26.54 26.54 0 0 0-.18 7.56 45.32 45.32 0 0 0 2.7 10.68 44.98 44.98 0 0 0 1.18 2.77l.34.7a1.23 1.23 0 0 1 .1.25s-.06-.07-.15-.22a12.68 12.68 0 0 1-.38-.69 28.18 28.18 0 0 1-1.28-2.73 43.5 43.5 0 0 1-2.87-10.71 27 27 0 0 1 .11-7.69 17.31 17.31 0 0 1 1.21-4.13 18.69 18.69 0 0 1 2.42-3.88 18.41 18.41 0 0 1 8-5.56 13.64 13.64 0 0 1 2.48-.73c.87-.18 1.71-.25 2.58-.37l5.27-.56 36.44-2.95 11.06-.73 3-.15h.79z" class="E"/><path d="M576.52 290.4l2.15-68.78L557 217l-2.34-3.81-14.56 9.36-2.92 6.57-3.53-7.5-5.25-4-2.4 4.68-16.29 6.7a6.81 6.81 0 0 0-3.49 3.24l-18.31 36.54-32.46-22.48L445.4 264l37.6 32a15.55 15.55 0 0 0 21.08-4.16l9.64-13.69 4 23 .66 23.37 28.3 5.27 39.63-3.68z" class="C"/><g class="F"><path d="M545.26,329.49a58.56,58.56,0,0,0,39.22-10.08l-2.16-7.88Z"/></g><path d="M578.67 221.62s-13.48 4.14-14.53 17.79-1.56 52.76-1.56 52.76-2.1 1.57-1.58 3.15-38.85 23.62-38.85 23.62l7.85 13.72s25.09-3 53.22-17.73c14.38-7.53 8.72-66.56 8.45-67.35s-3.77-25.99-13-25.96z" class="C"/><g class="B"><path d="M517.74 301.21a2.5 2.5 0 0 1-.15-.58l-.35-1.68-1.17-6.19-1.67-9.2-1-5.43c-.37-1.88-.51-3.87-.78-5.88l-2.64-20.63-.75-6.25-.17-1.71a2.27 2.27 0 0 1 0-.6 2.66 2.66 0 0 1 .13.59l.27 1.69.91 6.23 2.8 20.6q.39 3 .77 5.88l.93 5.44 1.56 9.21 1 6.22.25 1.69a2.46 2.46 0 0 1 .06.6zM530 332.66s-.06-.07-.15-.22l-.42-.68-1.58-2.67L522 319l-.1-.16.19-.07a95.05 95.05 0 0 0 17.49-9.52c6.47-4.2 13.46-9.39 21.66-13.74l-.11.36a3.47 3.47 0 0 1 2.54-4.95l-.23.22.41-3.17a165 165 0 0 0 1.09-27.4c-.17-4.21-.58-8.2-.82-12a52.17 52.17 0 0 1 .21-10.47 25.81 25.81 0 0 1 2.53-8.26 19.53 19.53 0 0 1 3.85-5.27 14.71 14.71 0 0 1 3.33-2.42c.41-.23.75-.35 1-.46l.34-.13a17.23 17.23 0 0 0-4.5 3.16 19.38 19.38 0 0 0-3.73 5.25 25.74 25.74 0 0 0-2.42 8.18 52.32 52.32 0 0 0-.15 10.39l.87 12a162.72 162.72 0 0 1-1 27.49l-.42 3.18v.2h-.2a3 3 0 0 0-2.14 4.17l.14.23-.24.13c-8.15 4.31-15.15 9.48-21.65 13.65a93.25 93.25 0 0 1-17.63 9.46l.08-.24L528 329l1.51 2.71.38.71a1.12 1.12 0 0 1 .11.24z"/><path d="M568.34 302.59a13.31 13.31 0 0 0-7.17-7.34 3.36 3.36 0 0 1 1.54.4 10 10 0 0 1 5.26 5.4 3.4 3.4 0 0 1 .37 1.54zm2.01-3.41a23.26 23.26 0 0 0-2.82-4.47 22.13 22.13 0 0 0-4.13-3.28 8.73 8.73 0 0 1 4.51 2.94 8.91 8.91 0 0 1 2.44 4.81zm12.9 15.75a2.16 2.16 0 0 1-.49.29l-1.45.71-5.4 2.47c-4.59 2-11 4.71-18.19 7.31a149.52 149.52 0 0 1-18.78 5.63 58.78 58.78 0 0 1-5.86 1l-1.61.17a2.26 2.26 0 0 1-.57 0 2.42 2.42 0 0 1 .56-.13l1.59-.26c1.39-.17 3.36-.62 5.81-1.15a174.25 174.25 0 0 0 18.68-5.76c7.19-2.59 13.6-5.21 18.22-7.16l5.47-2.31 1.48-.63a2.19 2.19 0 0 1 .54-.18zm-50.58-93.18s-.12.18-.29.51a9.37 9.37 0 0 0-.59 1.47 28.13 28.13 0 0 0-1.06 5.18l-.08.76-.4-.64-.11-.18-2.78-4.72-1.34-1.83a5.59 5.59 0 0 1 1.63 1.61 51.4 51.4 0 0 1 2.93 4.66l.11.18-.48.11a21.24 21.24 0 0 1 1.24-5.25 6.42 6.42 0 0 1 .76-1.46c.24-.31.45-.42.46-.4zm22.19-2.65c0 .07-1.17.86-3 2.36a39.59 39.59 0 0 0-6.29 6.55 41.12 41.12 0 0 0-2.33 3.45l-.27.45-.17-.5-2-5.95a13.5 13.5 0 0 1-.68-2.38 16.69 16.69 0 0 1 1 2.27l2.2 5.9h-.44a34 34 0 0 1 2.34-3.52 34.59 34.59 0 0 1 6.47-6.52 27.37 27.37 0 0 1 2.29-1.59 3.72 3.72 0 0 1 .88-.52zm-14.76 75.05a3.13 3.13 0 0 1-.11-.62l-.22-1.8-.68-6.62c-.53-5.59-1.15-13.33-1.67-21.89a630.32 630.32 0 0 1-.95-21.94l-.12-6.65v-1.81a3.34 3.34 0 0 1 0-.63 2.79 2.79 0 0 1 .07.63l.1 1.8.28 6.65 1.1 21.92 1.52 21.89.51 6.63c0 .74.09 1.34.12 1.81a2.33 2.33 0 0 1 .05.63zm19.9-16.99a8.09 8.09 0 0 1-.9 1.14l-2.65 2.95a114.55 114.55 0 0 1-9.52 9 116.16 116.16 0 0 1-10.47 7.86l-3.36 2.11a7.31 7.31 0 0 1-1.28.69A8.32 8.32 0 0 1 533 300l3.26-2.25c2.74-1.91 6.45-4.66 10.35-7.94s7.23-6.48 9.58-8.85l2.77-2.83a6.65 6.65 0 0 1 1.04-.97z"/><path d="M536.78 310.41a40.82 40.82 0 0 1-.16-6.4 38.52 38.52 0 0 1 .37-6.39 40.09 40.09 0 0 1 .15 6.4 38.06 38.06 0 0 1-.36 6.39z"/></g><g class="F"><path d="M513.4,278.71a157.85,157.85,0,0,0-2.68-21.32,214.17,214.17,0,0,1-4.89,32Z"/></g><g class="F"><path d="M537.21,229.12c1-.84,2.23-.15,2.84,1a8.78,8.78,0,0,1,.54,3.87,4.69,4.69,0,0,0,.41,2.13,1.94,1.94,0,0,0,1.72,1.12,2.93,2.93,0,0,0,2-1.5q6-8.23,11.14-17c-5.57,2.15-9.31,7.44-12.91,13-.15.05-2.92-9-2.92-9-.77,1.95-2,4.34-2.8,6.28"/></g><g class="F"><path d="M525.73 222.52a55.21 55.21 0 0 0 8.14 13.15 35.06 35.06 0 0 0-.72-9.69l4.06 3.14-3.11-6.5c-.24-.46-.61-1-1.13-1s-.88.73-1 1.31q-.74 2.84-1.46 5.68a15.66 15.66 0 0 0-4.51-6.41"/></g><g class="F"><path d="M532.81,300.15a8.86,8.86,0,0,1,3.31-8.29c1.94-1.46,4.43-2.06,6.36-3.54,3.34-2.54,4.63-7.34,8.34-9.29,1.39-.73,3.5-.75,4.14.69.57,1.28-.46,2.68-1.43,3.69A102.23,102.23,0,0,1,532.8,300"/></g><g class="F"><path d="M561.58,295.82a10.06,10.06,0,0,1,2.94,6.95,10.86,10.86,0,0,0,.1,2.28,2.12,2.12,0,0,0,1.42,1.64,2,2,0,0,0,2.18-1.74,5.33,5.33,0,0,0-.63-3c-1.22-2.77-2.94-5.58-5.73-6.74"/></g><g opacity=".2"><path d="M487.59,268.56c1.59,1.81,2.78,6.54,2.62,8.94s-.75,3-.53,5.42c.05.44-.71.6-.36.87a1.24,1.24,0,0,0,1.78-.71,3.58,3.58,0,0,0-.11-2.19,1.53,1.53,0,0,0,1.89,1.42,2.47,2.47,0,0,0,1.68-2,6.83,6.83,0,0,0-.19-2.73,18.67,18.67,0,0,0-2-5.94,7.12,7.12,0,0,0-5-3.53"/></g><path d="M489.58 283.37a33.28 33.28 0 0 0 .2-7.65 32.68 32.68 0 0 0-2.09-7.38 6.63 6.63 0 0 1 1.14 2 18.71 18.71 0 0 1 1.47 5.32 18.9 18.9 0 0 1-.11 5.52 7.33 7.33 0 0 1-.61 2.19z" class="B"/><path d="M549.62,402.46c-4.19-18.72,3-50.86,16.29-64.65a59.3,59.3,0,0,1,52.62-16.76v82.33Z" class="E"/><path d="M618.22 367.76c0 .05-13.07 7.85-29.27 17.44l-29.37 17.26c-.03-.05 13.07-7.86 29.27-17.44l29.37-17.26zm0-28.02l-.69.44-2 1.23-7.37 4.49-24.42 14.64-24.59 14.34-7.53 4.21-2.06 1.12-.73.38s.24-.15.71-.41l2-1.16 7.49-4.27 24.57-14.39 24.44-14.58 7.41-4.44 2-1.19.77-.41zm-8.88-18.2l-.49.29-1.44.8-5.3 2.91-17.6 9.36-24.93 13.19s.16-.11.49-.29l1.43-.81 5.3-2.9 17.61-9.37z" class="I"/><path d="M616.81 321.61h-.32l-.94-.09-3.6-.32a66 66 0 0 0-13.24.48l-2.12.3-2.2.45c-1.51.25-3 .75-4.62 1.15a56.76 56.76 0 0 0-9.73 3.92 49.66 49.66 0 0 0-18 15.56 66.74 66.74 0 0 0-6.17 10.81 77 77 0 0 0-4.06 10.87 89.88 89.88 0 0 0-2.38 10.26l-1 9.1a83.13 83.13 0 0 0 .18 13.27l.41 3.59.11.93a1.54 1.54 0 0 1 0 .32 1.28 1.28 0 0 1-.07-.31c0-.24-.09-.54-.16-.93l-.51-3.58a77.86 77.86 0 0 1-.35-13.31c.14-2.81.49-5.87 1-9.15a90.89 90.89 0 0 1 2.34-10.3 76.24 76.24 0 0 1 4.06-11 67 67 0 0 1 6.2-10.9 49.9 49.9 0 0 1 18.22-15.69 56.21 56.21 0 0 1 9.83-3.9l4.65-1.14 2.22-.43 2.14-.29A63.67 63.67 0 0 1 612 321c1.57.1 2.77.33 3.6.42l.93.13z" class="B"/><path d="M523,320.36a32,32,0,0,1-6.63-.87,22.81,22.81,0,0,0-8-1c-1.86.29-6.64,2.17-9.69,3s-5.5.14-5.65,1.59,1.45,3.25,4.49,3.25c0,0-3.33,1.1-2.75,1.82s1.59,2.47,3,2.47a3.09,3.09,0,0,0,2.61,2.9s.87,2.17,5.07,3.18c0,0-.32,1.89,2.88,2.47s21.17-7.54,21.17-7.54Z" class="L"/><g class="B"><path d="M187.21 217.83c-2.42-2.35-6.56-.31-8.59 2.38s-3.47 6.14-6.56 7.5-7.09.18-9.68 2.34c-3.57 3-1.57 9.84-5.43 12.41-1.53 1-3.55 1-5.19 1.84-3.86 2-3.82 7.43-3.22 11.73.84 6 1.75 12.3 5.09 17.4s9.81 8.7 15.58 6.73c5.54-1.89 8.39-7.88 10.64-13.28l9.36-22.44c1.81-4.33 3.63-8.72 4.22-13.37s-.21-9.67-3.16-13.31m-9.63-44.09c-.07-2.48 2.22-4.39 4.52-5.3s4.87-1.25 6.93-2.63c1.82-1.23 3-3.14 4.58-4.7a15.25 15.25 0 0 1 25.65 7c.88 3.53.28 7.69-2.5 10-3.23 2.72-8 2.11-12.15 1.27s-8.81-1.68-12.26.74c-2.08 1.47-3.28 3.85-4.55 6s-2.87 4.46-5.27 5.29-5.68-.6-5.77-3.15"/><path d="M180.81,175c.27,2.07-1.23,3.93-2.73,5.4s-3.18,3-3.45,5.09c-.3,2.43,1.47,4.82,1,7.21-.32,1.51-1.5,2.68-2.22,4.06a8.63,8.63,0,0,0-.44,6.36c.62,2.09,1.6,6.76,3.05,8.39a33.5,33.5,0,0,0,16.29,9.71,63,63,0,0,0,18,1c4.93-.3,10.59-.07,14.69-6.85,2.13-3.51,3.18-8.17,4.31-12.12,1-3.39,1.81-7,.8-10.41-.59-2-1.77-3.73-2.35-5.7-.73-2.47-.47-5.11-.76-7.66a17.57,17.57,0,0,0-25-13.88"/></g><path d="M224.59 183.54c-.46-7.07-5.17-15.73-12.21-15l-22 5.61a4.14 4.14 0 0 0-3.7 4.21l2.47 53H189s5 15 19.54 10.39c2.88-.91 4.2-4.06 4.77-7.3h.15v-1.11a34.76 34.76 0 0 0 .09-7.28h0v-6s9-1.52 10.87-13.31c.99-5.75.68-15.36.17-23.21z" class="L"/><path d="M223.45 190.61a1.51 1.51 0 0 1-1.45 1.53 1.45 1.45 0 0 1-1.56-1.36 1.51 1.51 0 0 1 1.45-1.53 1.44 1.44 0 0 1 1.56 1.36zm-.94-2.07c-.18.2-1.33-.65-3-.64s-2.81.82-3 .62.11-.44.62-.82a4.1 4.1 0 0 1 2.4-.74 4 4 0 0 1 2.36.75c.55.38.72.74.62.83zM207 191.17a1.52 1.52 0 0 1-1.46 1.53 1.45 1.45 0 0 1-1.56-1.36 1.51 1.51 0 0 1 1.45-1.53 1.45 1.45 0 0 1 1.57 1.36zm-.47-2.29c-.18.19-1.33-.65-3-.64s-2.81.82-3 .62.1-.44.62-.82a4.1 4.1 0 0 1 2.4-.74 4 4 0 0 1 2.35.75c.55.38.72.74.63.83zm5.93 12.04a10.74 10.74 0 0 1 2.64-.48c.42 0 .81-.13.88-.41a2.19 2.19 0 0 0-.28-1.23l-1.24-3.16-2.77-8.26c.23-.06 1.72 3.52 3.43 8l1.18 3.17a2.41 2.41 0 0 1 .22 1.63 1 1 0 0 1-.68.61 2.74 2.74 0 0 1-.7.1 10.92 10.92 0 0 1-2.68.03z" class="B"/><path d="M213.63 220.16a29.93 29.93 0 0 1-15.79-4.16s3.84 8.09 15.63 7zm-1.85-15.32a2.93 2.93 0 0 0-2.63-1.08 2.71 2.71 0 0 0-1.84 1 1.7 1.7 0 0 0-.13 1.94 2 2 0 0 0 2.14.54 6.3 6.3 0 0 0 2.07-1.25 1.61 1.61 0 0 0 .46-.48.54.54 0 0 0 0-.61" class="M"/><g class="B"><path d="M207.68 202.06c.26 0 .27 1.75 1.78 3s3.39 1.06 3.41 1.3-.42.35-1.21.37a4.43 4.43 0 0 1-2.85-1 3.83 3.83 0 0 1-1.38-2.52c-.07-.73.13-1.16.25-1.15zm-.42-16.06c-.16.44-1.78.24-3.69.47s-3.45.76-3.7.36c-.12-.19.15-.6.77-1a6.46 6.46 0 0 1 5.63-.64c.73.28 1.06.63.99.81zm14.65-2.17c-.29.37-1.41 0-2.76 0s-2.48.25-2.75-.13c-.11-.19.07-.56.56-.91a4 4 0 0 1 4.44.13c.47.35.6.73.51.91z"/><path d="M182.18,212.94a10.46,10.46,0,0,0,12.44-11.57c-.36-2.9-1.92-5.84-.92-8.58,1.33-3.62,6.4-4.73,7.75-8.35.78-2.1.08-4.55,1-6.61s2.87-3.05,4.85-3.77,4.11-1.21,5.77-2.5,2.7-3.74,1.63-5.55a111.45,111.45,0,0,0-25.75,6.26c-1.92.71-3.94,1.58-5.07,3.29s-1.15,4.14-1,6.31q.75,15.87,1.48,31.73"/></g><path d="M182.92 217l-.19-.13-.53-.39-1.95-1.62a20.4 20.4 0 0 1-2.77-2.92 10.83 10.83 0 0 1-2.2-4.85 7.37 7.37 0 0 1 1.52-6.19 23.87 23.87 0 0 1 2.74-2.35 6.24 6.24 0 0 0 2.14-2.92c.88-2.4.49-5.18.82-8a16.1 16.1 0 0 1 3.34-8.12 11 11 0 0 1 3.5-2.85 20.62 20.62 0 0 1 4.12-1.39 9.76 9.76 0 0 0 3.62-1.79 14.32 14.32 0 0 0 2.62-2.89l4-6.21a13.68 13.68 0 0 1 2.32-2.47 9.17 9.17 0 0 1 2.75-1.5 5.87 5.87 0 0 1 5.23.53 4.78 4.78 0 0 1 1.86 3.52 3.45 3.45 0 0 1-.71 2.43 2 2 0 0 1-.48.46l-.18.12s0-.06.15-.16a3.22 3.22 0 0 0 .43-.48 3.51 3.51 0 0 0 .59-2.35 4.61 4.61 0 0 0-1.82-3.31 5.6 5.6 0 0 0-5-.41 8.52 8.52 0 0 0-2.62 1.46 14 14 0 0 0-2.22 2.38c-1.36 1.84-2.44 4.08-3.94 6.23a14.7 14.7 0 0 1-2.7 3 10.22 10.22 0 0 1-3.79 1.88 21.75 21.75 0 0 0-4 1.37 10.59 10.59 0 0 0-3.33 2.72 15.63 15.63 0 0 0-3.23 7.85c-.35 2.75.05 5.57-.88 8.13a6.88 6.88 0 0 1-2.3 3.11 24.07 24.07 0 0 0-2.71 2.27 7 7 0 0 0-1.48 5.86 10.75 10.75 0 0 0 2.07 4.73 21.15 21.15 0 0 0 2.68 2.94l1.88 1.69a4.9 4.9 0 0 1 .65.62z" class="E"/><g class="C"><path d="M255.94 298.95l17.36-33.03-8.52-9.15-21.91 21.07 6.15 16.92 6.92 4.19z"/><path d="M216.06,235.52h0a29,29,0,0,1,16.42,14.95l22.38,47.62,19.28,7.81-17,4.9L242,299.71Z"/></g><path d="M257.16 310.8l-8.16 6.26-40.52-41.68-23.16-41.84 2.68-7.78 18 7.46 5.17 6.51 2.67-9.06 1.15 1.63 1.87 5.06s17.58 14.63 21.38 26.23c3.16 9.69 2.17 29.69 4.1 35.12z" class="I"/><path d="M181,233c-.27.81-17.32,7.66-18.13,13.63s12.25,52.13,12.25,52.13l20.71,18.3H249l-16.87-31.59a80.47,80.47,0,0,0-13.65-18.56c-5-5.06-11-11.32-14.15-15.05-3.37-4.05-17.66-23-17.66-23Z" class="C"/><path d="M191.69 234.89a19.77 19.77 0 0 1 3 1.35l7.1 3.59 3.14 1.64-.36.24a22.72 22.72 0 0 1 .33-5.58 7.67 7.67 0 0 1 .59-2.11 21.73 21.73 0 0 1-.28 2.16 27.34 27.34 0 0 0-.15 5.49v.44l-.39-.2-3.15-1.61-7-3.73a21.85 21.85 0 0 1-2.83-1.68zm24.62 2.49a6.76 6.76 0 0 1-1 1.62l-.21.3-.11-.37-1.22-4.49c0-.14-.07-.27-.11-.4l.49.06-2.72 5.5a21 21 0 0 1 2.26-5.74l.31-.6.17.65c0 .13.07.27.1.4l1.07 4.53-.32-.06a6.9 6.9 0 0 1 1.29-1.4zM232.69 277a10.07 10.07 0 0 1-.85-1.35l-2.17-3.77-7.22-12.39-7.46-12.24-2.28-3.7a9.27 9.27 0 0 1-.79-1.39 8.86 8.86 0 0 1 1 1.28l2.42 3.61a378.14 378.14 0 0 1 7.6 12.18 330.93 330.93 0 0 1 7.09 12.47l2 3.85a8.57 8.57 0 0 1 .66 1.45z" class="B"/><g class="F"><path d="M224.5,309.16c3.09.53,6.26,1,9.34.47s6.1-2.53,7.06-5.51a5.82,5.82,0,0,1,1.16-2.67c1.18-1.1,3.08-.42,4.69-.57a5.87,5.87,0,0,0,4.28-3,17.33,17.33,0,0,0,1.79-5.09,7.72,7.72,0,0,0,.32-2.65,2.66,2.66,0,0,0-1.38-2.15c-1.22-.55-2.59.25-3.68,1-8.77,6.32-16.76,13.63-24.73,20.93"/></g><path d="M362.11,372.76l15.45,19.37s24.88-9.21,28.08-5.91l-36.47,31.32-25.32-29.18Z" class="E"/><g class="J G"><path d="M364.93,400.23a2,2,0,0,0,.43,2.59,1.88,1.88,0,0,0,2.56-.41,2.06,2.06,0,0,0-.46-2.73,2,2,0,0,0-2.63.71"/></g><g class="J G"><path d="M369.17,417.54l-2.43-3,35.87-28.89s2.23-.69,3,.61Z"/></g><path d="M378 391.43c.14.19-.68 1-1.06 2.36s-.21 2.47-.44 2.54-.84-1.18-.34-2.78 1.73-2.31 1.84-2.12zm5.18-1.7c.19.14-.32 1.1-.28 2.38s.55 2.22.37 2.36-1.17-.76-1.19-2.35.92-2.55 1.1-2.39zm6.1 2.71c-.13.18-1.14-.5-1.52-1.86s.12-2.48.32-2.39.14 1.05.47 2.16.9 1.92.73 2.09zM374 387.41c.07.23-1 .68-1.91 1.62s-1.46 1.92-1.68 1.85 0-1.36 1.12-2.44 2.47-1.24 2.47-1.03z" class="B"/><g class="F"><path d="M365.16 376.6l2.76 3.45-18.06 15.23-2.61-3 17.91-15.68z"/></g><g class="B"><path d="M370.79 383.56c.07.08-.54.79-1.83 1.56a10.56 10.56 0 0 1-2.42 1.06 11.29 11.29 0 0 1-1.52.34 2.71 2.71 0 0 1-.92 0 1 1 0 0 1-.9-.87 1.3 1.3 0 0 1 .43-1.08 3.07 3.07 0 0 1 .77-.49 8.52 8.52 0 0 1 1.47-.59 8.4 8.4 0 0 1 2.63-.34 4 4 0 0 1 2.35.56c0 .13-.92-.07-2.34 0a9.22 9.22 0 0 0-2.42.48 8.85 8.85 0 0 0-1.32.58c-.47.23-.81.51-.76.76s0 .13.22.17a2.25 2.25 0 0 0 .67 0 11.85 11.85 0 0 0 1.44-.28 13.5 13.5 0 0 0 2.35-.84 17.35 17.35 0 0 1 2.1-1.02z"/><path d="M370.78 384c0 .08-.94-.26-2-1.35a7.84 7.84 0 0 1-1.46-2.22 6.94 6.94 0 0 1-.49-1.5 2 2 0 0 1 .37-1.93 1.12 1.12 0 0 1 1.2-.14 3 3 0 0 1 .76.51 5 5 0 0 1 1.06 1.22 5.58 5.58 0 0 1 .84 2.56c.1 1.56-.46 2.41-.53 2.36a18.45 18.45 0 0 0 0-2.29 5.65 5.65 0 0 0-.9-2.21 4.77 4.77 0 0 0-.94-1c-.39-.34-.8-.53-.91-.36a1.38 1.38 0 0 0-.13 1.15 8.09 8.09 0 0 0 .4 1.37 8.65 8.65 0 0 0 1.21 2.13c.83 1.1 1.59 1.61 1.52 1.7z"/></g><path d="M345.2,428.1l-.93,24.76s24.85,9.27,25.12,13.86l-48.07-.09L321.2,428Z" class="E"/><g class="J G"><path d="M329.41,450.75A2,2,0,0,0,328,453a1.9,1.9,0,0,0,2.21,1.37,2.07,2.07,0,0,0,1.43-2.38,2,2,0,0,0-2.45-1.17"/></g><g class="J G"><path d="M321.32,466.63l.14-3.9,46,1.55s2.13.94,1.89,2.44Z"/></g><path d="M345.05 452.62c0 .23-1.19.34-2.34 1.09s-1.78 1.74-2 1.64.13-1.44 1.55-2.33 2.84-.62 2.79-.4zm5.03 2.09c.06.23-1 .63-1.76 1.62s-1 2-1.26 2-.39-1.34.63-2.55 2.39-1.29 2.39-1.07zm2.86 6.04c-.22.05-.54-1.12.06-2.4s1.71-1.8 1.81-1.6-.59.88-1.07 1.94-.57 2.04-.8 2.06zM344.63 447c-.09.22-1.17-.11-2.5 0s-2.36.5-2.48.3.87-1 2.44-1.12 2.66.59 2.54.82z" class="B"/><g class="F"><path d="M345.01 433.01l-.16 4.41-23.62-.26-.03-3.98 23.81-.17z"/></g><g class="B"><path d="M344.73 442a4.52 4.52 0 0 1-2.41 0 11.25 11.25 0 0 1-2.51-.78 11.6 11.6 0 0 1-1.38-.74 2.75 2.75 0 0 1-.73-.57 1 1 0 0 1-.11-1.25 1.33 1.33 0 0 1 1-.53 3 3 0 0 1 .91.13 9.31 9.31 0 0 1 1.49.51 8.46 8.46 0 0 1 2.22 1.46c1.11 1 1.49 1.92 1.41 2s-.65-.66-1.78-1.51a9.49 9.49 0 0 0-2.14-1.22 8.34 8.34 0 0 0-1.39-.42c-.5-.14-.94-.14-1.07.08s0 .12.05.27a2.6 2.6 0 0 0 .54.42 13.76 13.76 0 0 0 1.27.73 13.54 13.54 0 0 0 2.32.89 18.17 18.17 0 0 1 2.31.53z"/><path d="M344.42 442.29a3.93 3.93 0 0 1-.63-2.33 8.09 8.09 0 0 1 .34-2.63 8.24 8.24 0 0 1 .61-1.46 2 2 0 0 1 1.54-1.22 1.15 1.15 0 0 1 1 .68 3.23 3.23 0 0 1 .24.88 5.18 5.18 0 0 1 0 1.62 5.47 5.47 0 0 1-1 2.49c-.95 1.24-1.92 1.52-1.94 1.44s.74-.57 1.46-1.77a5.48 5.48 0 0 0 .76-2.26 4.67 4.67 0 0 0 0-1.39c-.07-.51-.26-.92-.45-.87s-.65.38-.85.79a8.37 8.37 0 0 0-.6 1.3 9 9 0 0 0-.47 2.4c-.13 1.41.12 2.29-.01 2.33z"/></g><path d="M266.46,283.38,292.17,224s-14.91,18.67-22.71,18.5c0,0-8.62,19-14.17,34.08l-8.46,21.84Z" class="G"/><path d="M266.46 283.38a1.92 1.92 0 0 1-.32.28l-1 .79-3.87 3-14.35 11.1-.5.39.23-.59 9.68-25.24c3.68-9.52 8-19.9 12.88-30.73l.07-.15h.17a9.65 9.65 0 0 0 4.36-1.34 48.32 48.32 0 0 0 10-8c3-3 5.69-6 8.17-9l1.14-1.4-.72 1.66-18.53 42.57-5.41 12.31-1.47 3.28-.38.84c-.09.21-.14.28-.15.27l.11-.3.35-.87 1.4-3.32 5.28-12.39 18.34-42.59.43.25a119.83 119.83 0 0 1-8.2 9.1 48.22 48.22 0 0 1-10.1 8.1 10 10 0 0 1-4.62 1.41l.24-.16c-4.84 10.82-9.24 21.18-12.91 30.69l-9.79 25.19-.27-.2 14.42-11 3.93-2.95 1-.76.39-.24zM164.47 416.25l7.72 50.47h7.65l-3.77-50.28-11.6-.19zm135.79.19v50.28h8.08l3.01-50.47-11.09.19z" class="B"/><path d="M244.93,272.73s3.26-7.49,5-8.53,12.37-5.88,12.37-5.88l-1.09,2.38,10.59-6.32a5,5,0,0,1-.82,4.45c-1.65,2.26-1.1,2.06-1.1,2.06s1.79,1.07.89,2.67a35.1,35.1,0,0,1-2.42,3.55s1.65,2,1,3.9a8.07,8.07,0,0,1,.24,3.92c-.39,2.28-4.51,6.62-4.51,6.62l-20.57,9.79-8.29-14.08Z" class="L"/><path d="M199.56 260.77l12.34 26.34 27.36-11.89s11.35 6.63 9.78 13.87l-24.65 20.25a22.06 22.06 0 0 1-16.69 4.85h0a22.08 22.08 0 0 1-15.77-9.79l-17.84-27.15-10-16.31a15.24 15.24 0 0 1 .42-16.88 12.53 12.53 0 0 1 3.52-3.3c4.48-2.71 17.71-3.89 31.53 20.01z" class="C"/><g class="M"><path d="M249.55 289.12l.27-.16.79-.42 3.09-1.54 11.27-5.6h-.05a32.27 32.27 0 0 0 3.5-4.46 5.55 5.55 0 0 0 1-2.77 8.08 8.08 0 0 0-.32-3.09v-.09-.07a4.19 4.19 0 0 0-.95-3.66l-.12-.16.12-.15 2.06-3a2.14 2.14 0 0 0 .52-1.56 2.2 2.2 0 0 0-1-1.31h.23a.34.34 0 0 1-.4-.14.4.4 0 0 1 0-.25 1.28 1.28 0 0 1 .06-.23l.17-.34.39-.62.82-1.18a4.84 4.84 0 0 0 .76-2.65 3.88 3.88 0 0 0-.19-1.24l.38.13-10.59 6.31-.69.41.33-.73 1.1-2.39.32.33-12.27 5.78a6.84 6.84 0 0 0-1.78 2.11l-1.31 2.29-2 4.06h0 0l-4.48 2.26-1.17.58a2.3 2.3 0 0 1-.42.17 3.44 3.44 0 0 1 .38-.24l1.15-.63 4.42-2.37-.06.06a69.7 69.7 0 0 1 1.93-4.1l1.29-2.33a12.39 12.39 0 0 1 .8-1.19 3.88 3.88 0 0 1 1.1-1.07c3.56-1.89 7.73-3.77 12.27-5.89l.6-.27-.28.6-1.09 2.39-.35-.32 10.58-6.33.28-.17.1.3a5 5 0 0 1 .23 1.42 5.4 5.4 0 0 1-.85 2.94c-.29.44-.57.79-.83 1.19-.13.19-.25.39-.36.58a2.7 2.7 0 0 0-.15.29.61.61 0 0 0 0 .11H270h-.11c-.04 0 0 0 0 0h0 0c0 .14-.06-.2-.05-.16h0 .22a2.7 2.7 0 0 1 1.23 1.66 1.94 1.94 0 0 1-.11 1.07 8.52 8.52 0 0 1-.47.86c-.67 1.07-1.38 2.06-2.11 3V267a6.54 6.54 0 0 1 1 2 3.62 3.62 0 0 1 0 2.16v-.17a8.33 8.33 0 0 1 .34 3.3 4.84 4.84 0 0 1-.36 1.58 9.2 9.2 0 0 1-.74 1.39 32.07 32.07 0 0 1-3.59 4.5h0 0l-11.35 5.44-3.13 1.47-.83.37a1.21 1.21 0 0 1-.39.08z"/><path d="M261.91 260.28a25.93 25.93 0 0 1-4.3 3 26.73 26.73 0 0 1-4.57 2.52 25.93 25.93 0 0 1 4.3-3 26.73 26.73 0 0 1 4.57-2.52zm8.24-.28a30.88 30.88 0 0 1-3.84 4.14 30.21 30.21 0 0 1-4.21 3.86 31.28 31.28 0 0 1 3.84-4.15 30.23 30.23 0 0 1 4.21-3.85zm-1.1 6.37a9.54 9.54 0 0 1-1.8 2.52 9.72 9.72 0 0 1-2.2 2.18 9.37 9.37 0 0 1 1.8-2.52 9.26 9.26 0 0 1 2.2-2.18zm.37 4.28c.11.09-.34.79-.92 1.62s-1.08 1.49-1.2 1.42.18-.87.77-1.72 1.25-1.42 1.35-1.32z"/></g><g class="B"><path d="M220.19 312s0-.05.12-.12l.39-.33 1.55-1.25 5.92-4.69L249.26 289l-.09.17a10.43 10.43 0 0 0-.77-4 16.59 16.59 0 0 0-2.27-3.7 29 29 0 0 0-7-6h.23l-14.17 6.16-13.19 5.71-.22.1-.11-.21c-3.63-7.15-7-13.87-10.38-19.71-1.69-2.93-3.36-5.64-4.94-8.17s-3-4.87-4.49-6.89a25.45 25.45 0 0 0-8.52-7.9c-.59-.35-1.14-.62-1.61-.85s-.88-.42-1.21-.56l-.75-.33a1.85 1.85 0 0 1-.25-.12 24.43 24.43 0 0 1 8.08 4.56 29 29 0 0 1 4.53 5c1.5 2 3 4.36 4.56 6.87l5 8.16c3.44 5.84 6.82 12.56 10.46 19.7l-.33-.12 13.18-5.73 14.16-6.14.12-.05.11.07a29.25 29.25 0 0 1 7.12 6.14 17.84 17.84 0 0 1 2.33 3.83 11.18 11.18 0 0 1 .79 4.24v.1l-.09.07-21.2 16.39-6 4.58-1.59 1.2-.41.3z"/><path d="M210.24 295.39c-.15-.06.61-1.94 1-4.37l.56-4.47a13.6 13.6 0 0 1-1.6 8.84z"/></g><g class="C"><path d="M322.08 317.06l45.12 59.96-21.1 18.13-21.73-28.41-2.29-49.68z"/><path d="M226.54 319.92s72.6-22.11 79.25-21.83 19.27 24.29 19.27 24.29l-20.38-.74L278.91 361l-41.67-2z"/></g><path d="M285.88 302.45c0 .14-7.42 2.48-16.66 5.23s-16.77 4.86-16.81 4.72 7.42-2.48 16.66-5.22l16.81-4.73z" class="B"/><path d="M302.75,321.25h20.38a24,24,0,0,1,22.62,16h0a37.05,37.05,0,0,1,2.05,14.08l-1.58,82.92H318.78l-.5-26.5-3.47-50.37-23.75,1-13.46-.84Z" class="C"/><g class="B"><path d="M303.36 320.84a13.48 13.48 0 0 1-.39 1.75 43.71 43.71 0 0 1-1.44 4.68 48.17 48.17 0 0 1-3 6.6 53.76 53.76 0 0 1-5 7.39A132.63 132.63 0 0 1 282.46 353l-3.52 3.39a11 11 0 0 1-1.34 1.19 13.46 13.46 0 0 1 1.19-1.34l3.41-3.5c2.88-2.95 7-6.9 10.94-11.78a54 54 0 0 0 8.05-13.79c.72-1.92 1.28-3.5 1.59-4.6a11.15 11.15 0 0 1 .58-1.73z"/><path d="M328.29 321.81a36.47 36.47 0 0 1-3.71-.18l-8.92-.15-8.93.43a29.25 29.25 0 0 1-3.7.19 3.45 3.45 0 0 1 1-.21l2.69-.35 8.95-.58a77.6 77.6 0 0 1 9 .31l2.7.33a4.11 4.11 0 0 1 .92.21zm-9.63 97.3a3.47 3.47 0 0 1-.07-.69c0-.51-.07-1.17-.11-2l-.33-7.3-1.23-24.06-1.8-24-.59-7.28-.14-2a2.79 2.79 0 0 1 0-.69 3.13 3.13 0 0 1 .12.68l.23 2 .76 7.26a731.48 731.48 0 0 1 1.95 24c.6 9.37.9 17.92 1.08 24.09l.16 7.3v2a3.08 3.08 0 0 1-.03.69zm29.19-70.96c.14 0 0 19-.22 42.43l-.74 42.42c-.11 0-.05-19 .22-42.44l.74-42.41z"/><path d="M325.46 345.05a47.93 47.93 0 0 0-5.86 2.76 46.91 46.91 0 0 0-5.11 4 5.5 5.5 0 0 1 1.2-1.51 19 19 0 0 1 7.88-4.83 5.65 5.65 0 0 1 1.89-.42z"/></g><g class="F"><path d="M277.6,357.55c5.54,1.05,11.61-.69,16.35-3.73a22.57,22.57,0,0,0,9.6-13.42c.61-2.45.79-5,1.4-7.46a11.29,11.29,0,0,1,3.71-6.45c2.32-1.78,8-2.91,9.74-5.29,0-.36-6.78.45-9,.57-2.48.14-6.63.79-6.54.49a65.87,65.87,0,0,1-2.39,7.27c-4.95,8.73-15.8,21.56-22.82,28"/></g><path d="M163.1 260.27s-10.8.43-14.12 5c-5.83 8-2.55 14.92-2.88 17.28s18.37 133.73 18.37 133.73h7.7l139.18 1.29L318 401.3l-3.22-43.91-37.21.16s-15.2-43.74-28.57-46.66c-9-2-30.21-1.28-42.95-.62a17.8 17.8 0 0 1-15.88-8.11z" class="E"/><g class="B"><path d="M286.46 411.09s-.77.1-2.25.17l-6.48.14-24 .09c-20.41 0-48.86-.18-81-.45h-.2l-.05-.2-1.77-8.45-1.76-8.76a936.26 936.26 0 0 1-13.28-91.93l-2.19-28.07-.42-7.64c0-.86-.07-1.52-.1-2s0-.68 0-.68 0 .23.07.68.08 1.12.14 2l.52 7.63 2.35 28.05c2.3 23.65 6.45 56.26 13.43 91.86q.89 4.43 1.76 8.75.87 4.32 1.77 8.45l-.25-.2 81 .63 24 .06h6.48c.74 0 1.29-.06 1.67-.07z"/><path d="M285 417.3a2.47 2.47 0 0 1 .06-.63l.26-1.77.4-2.81.42-3.73.32-4.53.14-5.21a104.1 104.1 0 0 0-2.76-23.68l-2.61-9.41-1.2-3.55-1-2.66-.62-1.68a2.39 2.39 0 0 1-.18-.6 3.13 3.13 0 0 1 .28.56l.71 1.64 1.06 2.64 1.27 3.54c.91 2.63 1.86 5.82 2.73 9.41a109.62 109.62 0 0 1 2.11 11.81 104.37 104.37 0 0 1 .66 12l-.19 5.24-.39 4.54-.49 3.73-.49 2.8-.36 1.76a3 3 0 0 1-.13.59zm-102-94.12a3.37 3.37 0 0 1 .56-.48l1.68-1.28 1.23-.92 1.55-.94a34.37 34.37 0 0 1 3.87-2.16l2.32-1.13c.8-.4 1.69-.69 2.58-1.06l2.8-1.06 3-1a87.19 87.19 0 0 1 13.82-2.87 100.59 100.59 0 0 1 14.09-.86l6.16.21c1.93.07 3.71.3 5.34.53a71.37 71.37 0 0 1 7.64 1.41l2 .56a3.58 3.58 0 0 1 .7.23 3.78 3.78 0 0 1-.73-.13l-2.06-.47-7.64-1.23-5.32-.47c-1.91-.16-4-.21-6.13-.16a106.34 106.34 0 0 0-14 .89 90 90 0 0 0-13.74 2.82l-3 .93c-1 .3-1.89.7-2.79 1l-2.58 1-2.32 1.09a35.9 35.9 0 0 0-3.88 2.08l-1.57.9-1.24.88-1.73 1.2a4.28 4.28 0 0 1-.61.49zM70.69 408.9h67.19v9.23H70.69z"/><path d="M138,418.25H70.58v-9.46H138ZM70.81,418h67v-9h-67Z"/><path d="M76.92 415.06l9.67 47.71h35.79l9.34-44.64-54.8-3.07z"/></g><path d="M76.92 458.26l5.16 7.09h43.5l6.14-7.09h-54.8z" class="E"/><path d="M101.76 416.46c-.13 0-.3-22.11-.37-49.37l.1-49.36c.1 0 .3 22.09.37 49.36l-.1 49.37zm14.97-55.32a2.11 2.11 0 0 1-.18.52l-.6 1.43-.44 1-.45 1.25-.51 1.44-.5 1.64a67.08 67.08 0 0 0-1.88 8.23 98.51 98.51 0 0 0-1 10.29 138.75 138.75 0 0 0 .53 18.79l.59 5.67.17 1.55a1.84 1.84 0 0 1 0 .54 2 2 0 0 1-.12-.53l-.26-1.53-.75-5.67a123.53 123.53 0 0 1-.67-18.85 93.66 93.66 0 0 1 1.09-10.33 61.3 61.3 0 0 1 2-8.26l.53-1.64.55-1.43.49-1.25.48-1 .68-1.39a3 3 0 0 1 .25-.47zM115 343.27a4.7 4.7 0 0 1-.21.73l-.7 2.05-.51 1.48-.54 1.79-1.26 4.36-.67 2.56-.63 2.79-1.24 6.2c-.74 4.39-1.4 9.24-1.85 14.36s-.6 10-.67 14.47 0 8.47.23 11.84c.06 1.68.16 3.2.25 4.54l.25 3.42c.09.94.12 1.63.16 2.17a7 7 0 0 1 0 .75 3.48 3.48 0 0 1-.12-.74l-.26-2.16c-.11-.9-.22-2.09-.33-3.42l-.32-4.55c-.23-3.36-.32-7.38-.33-11.85s.21-9.37.64-14.51 1.12-10 1.88-14.4c.45-2.18.8-4.28 1.29-6.2l.66-2.8.71-2.56c.42-1.63.9-3.08 1.32-4.35l.58-1.78.55-1.47.79-2a4.52 4.52 0 0 1 .33-.72zm-17.49 77.1a1.83 1.83 0 0 1 0-.26c0-.2 0-.45-.07-.76 0-.71-.11-1.69-.19-2.93l-.68-10.77c-.58-9.08-1.42-21.64-3-35.45-.79-6.9-1.69-13.46-2.63-19.41l-1.47-8.41c-.47-2.62-1-5.08-1.46-7.31l-1.33-6-1.08-4.51c-.32-1.23-.53-2.17-.69-2.85l-.17-.75-.05-.25s0 .08.09.24l.22.73.78 2.83a108.1 108.1 0 0 1 1.17 4.49l1.4 6 1.51 7.3 1.51 8.42c1 5.95 1.89 12.52 2.67 19.43 1.53 13.82 2.32 26.39 2.82 35.48l.52 10.78c0 1.25.08 2.23.11 2.93v.76a.8.8 0 0 1 .02.27z" class="B"/><g class="C"><path d="M101.22,328.35c-.3-3.13-3.46-5.49-6.61-5.52a10.35,10.35,0,0,0-8,4.34,24.91,24.91,0,0,0-3.86,8.55c-2.11,7.37-3.27,15.12-2.37,22.75s4,15.12,9.47,20.51c.89.87,2,1.75,3.26,1.49a3.94,3.94,0,0,0,1.72-1.07,50.9,50.9,0,0,0,16.53-38.71c-.09-2.9-.47-5.91-2.08-8.33s-5.34-5-8.07-4"/><use xlink:href="#C"/></g><g opacity=".2"><use xlink:href="#C"/></g><path d="M101.49,317.73,61.54,294.15a1.82,1.82,0,0,1-1-1c-.16-.59.28-1.16.71-1.6a27.5,27.5,0,0,1,21.35-8.38,24.38,24.38,0,0,1,19.3,12c3.85,6.89,4,16-.44,22.54" class="C"/><g class="B"><path d="M67.3 286.63a1.81 1.81 0 0 1 .52-.06c.35 0 .85-.08 1.51-.08a30.76 30.76 0 0 1 5.54.44 32.77 32.77 0 0 1 16.37 7.9 32.68 32.68 0 0 1 9.49 15.5 30.59 30.59 0 0 1 1 5.47c.07.65 0 .82.06 1.16a1.85 1.85 0 0 1-.31.87 6.56 6.56 0 0 0 .06-2 32.76 32.76 0 0 0-26.72-28.55 33 33 0 0 0-5.48-.59l-2.04-.06z"/><path d="M96.08 301.46a10.07 10.07 0 0 1-2 .91l-5 1.78-5.14 1.46a9.21 9.21 0 0 1-2.18.41 11.7 11.7 0 0 1 2.09-.74l5.09-1.59 5.06-1.63a10.33 10.33 0 0 1 2.08-.6zm-6.29-16.9a16.91 16.91 0 0 1 .47 4.46 17.25 17.25 0 0 1-.24 4.47 27.38 27.38 0 0 1-.24-4.46 27 27 0 0 1 .01-4.47zm-28.6 9.15a18.33 18.33 0 0 1 2.9-1l7.16-1.95 7.27-1.53a17.9 17.9 0 0 1 3-.41 20.48 20.48 0 0 1-3 .74l-7.21 1.66-7.12 1.78a22.2 22.2 0 0 1-3 .71z"/></g><path d="M84.64,321.56c-3.44-2.61-7.07-3.12-11.38-2.95a34.73,34.73,0,0,0-12.45,3.21c-6.74,2.95-13.07,7.3-17.09,13.45s-5.43,14.31-2.41,21a3,3,0,0,0,1.36,1.66,3.29,3.29,0,0,0,2.26-.17c7.66-2.5,15.37-5,22.41-8.94s13.46-9.35,17.24-16.47a14,14,0,0,0,1.81-5.46,6.79,6.79,0,0,0-1.75-5.34" class="C"/><g class="B"><path d="M84.71 320.75a3.92 3.92 0 0 1-.56.22l-1.6.55-1.16.39-1.36.53-3.28 1.36-1.88.86-2 1c-1.39.68-2.79 1.55-4.29 2.43a75.3 75.3 0 0 0-9.07 6.73 75.65 75.65 0 0 0-7.82 8.18l-3 3.95-1.27 1.84-1.09 1.76c-.72 1.1-1.25 2.16-1.76 3.07l-.7 1.28-.49 1.1-.75 1.52a2.56 2.56 0 0 1-.3.52 3.41 3.41 0 0 1 .21-.56l.67-1.56.49-1.13c.17-.41.43-.83.67-1.3l1.71-3.13 1.07-1.78 1.25-1.87c.85-1.31 1.88-2.61 3-4a71.08 71.08 0 0 1 7.85-8.23 72.24 72.24 0 0 1 9.16-6.74l4.34-2.42 2-1 1.9-.83c1.2-.56 2.34-.93 3.33-1.3l1.37-.49 1.18-.35 1.64-.47a2.38 2.38 0 0 1 .54-.13zm-26.84 14.53a81.29 81.29 0 0 1-8.36 2.72 84.44 84.44 0 0 1-8.51 2.21 80.91 80.91 0 0 1 8.35-2.7 79.44 79.44 0 0 1 8.52-2.23z"/><path d="M57.52 353.72a13.62 13.62 0 0 1-.18-2.6v-6.29l.33-6.29A12.62 12.62 0 0 1 58 336a15.51 15.51 0 0 1 0 2.61l-.2 6.28-.15 6.28a15 15 0 0 1-.13 2.55zm15.8-8.05c-.13 0-.55-4.51-.94-10.09s-.59-10.13-.46-10.14.55 4.52.94 10.1.59 10.13.46 10.13z"/><path d="M53.65 325a14.07 14.07 0 0 1 2.68-.09l6.45.15 6.45.28a14.23 14.23 0 0 1 2.66.26 15.7 15.7 0 0 1-2.67.08c-1.65 0-3.93-.06-6.45-.14l-6.45-.29a16.6 16.6 0 0 1-2.67-.25zm37.92 55a3.37 3.37 0 0 1 0-.54l-.07-1.54v-5.65l.5-8.38c.29-3.15.76-6.59 1.4-10.19s1.46-7 2.28-10 1.69-5.78 2.49-8 1.49-4.06 2-5.3l.61-1.41a3.88 3.88 0 0 1 .24-.49 1.65 1.65 0 0 1-.15.52c-.13.38-.31.86-.52 1.45a143.62 143.62 0 0 0-1.87 5.34c-.75 2.27-1.57 5-2.39 8s-1.57 6.44-2.23 10-1.1 7-1.43 10.15-.51 6-.6 8.35l-.13 5.64v1.54a2.1 2.1 0 0 1-.13.51z"/><path d="M93.68 353.87a10.5 10.5 0 0 1-1.59 1.75l-4.18 3.88-4.39 3.63a11.44 11.44 0 0 1-2 1.36 12.14 12.14 0 0 1 1.73-1.62l4.3-3.73 4.26-3.77a12.43 12.43 0 0 1 1.87-1.5zm12.64 10.19a21.12 21.12 0 0 1-1.69-2.35l-3.95-5.76-4-5.71a16.81 16.81 0 0 1-1.68-2.41 16.72 16.72 0 0 1 1.92 2.17l4.15 5.63 3.84 5.85a14.69 14.69 0 0 1 1.41 2.58zM99.7 332c.07.11-4.13 2.94-9.38 6.31s-9.57 6-9.64 5.91 4.13-2.93 9.38-6.31 9.57-5.99 9.64-5.91zm11.84 12.81a82.42 82.42 0 0 1-6.35-5.87 80.11 80.11 0 0 1-6-6.21 75 75 0 0 1 6.36 5.87 74.88 74.88 0 0 1 5.99 6.21z"/></g><path d="M114.52,344.55l3.61-.3a17.81,17.81,0,0,0,7.28-2.23,29,29,0,0,1,3.39-1.7c4.46-1.79,9.43-1.47,14.23-1.71a58.72,58.72,0,0,0,22.63-5.79,2.19,2.19,0,0,0,1-.89c.74-1.35-.63-2.55-1.82-3.28-6.07-3.74-12.25-7.54-19.14-9.39s-14.71-1.55-20.59,2.5c-6.9,4.75-9.41,14.5-10.58,22.79" class="C"/><g class="B"><path d="M166.73 331.48a2.77 2.77 0 0 1-.61-.28l-1.71-.89-6.31-3.23a58.86 58.86 0 0 0-9.77-3.76 32.06 32.06 0 0 0-12.66-1 21.67 21.67 0 0 0-11.55 5 25.7 25.7 0 0 0-6 8.44 66.38 66.38 0 0 0-2.61 6.58l-.65 1.81a3.45 3.45 0 0 1-.25.63 4.3 4.3 0 0 1 .16-.66l.56-1.84a59.67 59.67 0 0 1 2.48-6.66 25.6 25.6 0 0 1 6-8.63 21.84 21.84 0 0 1 11.77-5.1 32.17 32.17 0 0 1 12.85 1.07 57.42 57.42 0 0 1 9.8 3.89l6.25 3.36 1.67 1a3.26 3.26 0 0 1 .58.27z"/><path d="M158.07 336.14c-.07.11-4.79-2.94-10.53-6.82s-10.34-7.1-10.26-7.21 4.79 2.94 10.53 6.82 10.34 7.07 10.26 7.21zM153 321.87a11.44 11.44 0 0 1-3.43.61 12.09 12.09 0 0 1-3.5 0 21.29 21.29 0 0 1 3.46-.36 21.6 21.6 0 0 1 3.47-.25zm-20.6-2.69a9 9 0 0 1-1.55 2.41 10.54 10.54 0 0 1-1.95 2.23 8.74 8.74 0 0 1 1.54-2.42 10.22 10.22 0 0 1 1.96-2.22zm4.23 19.73a11.44 11.44 0 0 1-2.27-1.23l-5.17-3.46-5-3.77a13.92 13.92 0 0 1-2-1.68 13.62 13.62 0 0 1 2.16 1.41l5 3.65 5.07 3.57a18.26 18.26 0 0 1 2.21 1.51z"/></g><path d="M119.83,359.87c-3.44-.91-7.54,2.44-8.25,5.92s.6,7,2.13,10.26a52.48,52.48,0,0,0,14.22,18.61,35.16,35.16,0,0,0,21.75,8c-1.46-6.76.38-13.81-.43-20.67a26.89,26.89,0,0,0-23.81-23.58c-2.19-.23-4.73-.58-5.61,1.45" class="C"/><g class="B"><path d="M149.68 402.67a2.87 2.87 0 0 1-.49-.23 8.52 8.52 0 0 1-1.29-.87 13.23 13.23 0 0 1-3.39-4.54l-1.76-3.5-1.85-4.09a39.81 39.81 0 0 0-2.28-4.37 33.81 33.81 0 0 0-3.13-4.25c-2.35-2.77-4.88-5.16-7.07-7.45a48.32 48.32 0 0 1-5.42-6.47 23.46 23.46 0 0 1-2.63-5c-.22-.63-.38-1.13-.46-1.47a1.93 1.93 0 0 1-.11-.53s.24.7.74 1.94a26.46 26.46 0 0 0 2.74 4.9 50.73 50.73 0 0 0 5.43 6.36c2.2 2.26 4.74 4.64 7.12 7.44a32.63 32.63 0 0 1 3.16 4.32 38.89 38.89 0 0 1 2.28 4.43l1.81 4.11c.57 1.27 1.17 2.44 1.7 3.51a13.8 13.8 0 0 0 3.21 4.55c1.01.84 1.72 1.16 1.69 1.21z"/><path d="M131.9 397.05a9.55 9.55 0 0 1 .31-2.31l1.31-5.48 1.74-5.36a10.09 10.09 0 0 1 .94-2.13 11.66 11.66 0 0 1-.62 2.24l-1.6 5.38-1.44 5.42a12.77 12.77 0 0 1-.64 2.24zm17.1-16.57a15.09 15.09 0 0 1-2.43-.56l-5.8-1.43-5.86-1.19a14.83 14.83 0 0 1-2.43-.54 12 12 0 0 1 2.49.2l5.9 1.06 5.8 1.58a11.73 11.73 0 0 1 2.33.88zm-29.87 4.81a14 14 0 0 1 .38-2.67l1.42-6.37 1.87-6.25a14.5 14.5 0 0 1 1-2.52 15 15 0 0 1-.66 2.62l-1.72 6.27-1.56 6.32a15.45 15.45 0 0 1-.73 2.6zM141.14 366a96 96 0 0 1-9.59-.77l-9.54-1.25a92.53 92.53 0 0 1 9.59.77l9.54 1.25z"/></g><path d="M138 418.1c0 .13-15.09.24-33.7.24s-33.71-.11-33.71-.24 15.09-.24 33.71-.24l33.7.24zm-10.51 19.42c0 .13-10.17.24-22.71.24s-22.71-.11-22.71-.24 10.17-.24 22.71-.24l22.71.24zm-.39 2.77c0 .14-10 .24-22.31.24s-22.32-.1-22.32-.24 10-.24 22.32-.24l22.31.24zm.79-5.06c0 .13-10.52.24-23.49.24s-23.49-.11-23.49-.24 10.51-.23 23.49-.23l23.49.23zm465.12-267.69h115.61v5.95H593.01z" class="E"/><g class="D"><path d="M687.33 107.32s0-.07-.08-.18-.16-.31-.28-.52a22 22 0 0 0-1.22-1.91 20.43 20.43 0 0 0-6-5.69 15 15 0 0 0-5.41-2 13.44 13.44 0 0 0-6.57.69 10.67 10.67 0 0 0-5.62 4.6c-1.29 2.26-1.71 4.91-2.47 7.44a13.43 13.43 0 0 1-1.56 3.54 10.93 10.93 0 0 1-2.67 2.63l-3 2.19a12.76 12.76 0 0 0-2.45 2.65 16.2 16.2 0 0 0-2.5 6.12 22.06 22.06 0 0 0-.34 5.75 43.81 43.81 0 0 0 1.47 8.17l.61 2.18a6.22 6.22 0 0 0 .24.75 4.65 4.65 0 0 0-.15-.77l-.52-2.2a47.37 47.37 0 0 1-1.33-8.15 21.91 21.91 0 0 1 .39-5.66 16 16 0 0 1 2.48-5.95 12.41 12.41 0 0 1 2.37-2.55c.93-.76 2-1.42 3-2.17a11 11 0 0 0 2.78-2.74 13.69 13.69 0 0 0 1.63-3.66c.77-2.58 1.18-5.19 2.42-7.34a10.26 10.26 0 0 1 5.38-4.44 13.1 13.1 0 0 1 6.37-.7 14.33 14.33 0 0 1 5.29 1.89 20.83 20.83 0 0 1 6.05 5.52l1.28 1.85a6.75 6.75 0 0 0 .41.66z"/><path d="M654.25 116.6c.69-.65 1-.2 2 0a5.92 5.92 0 0 1 2.53 1.26A10.67 10.67 0 0 1 662.2 129a8.32 8.32 0 0 1-7.64-12.5m28.31-12.93c.35-.89.85-.62 1.77-.87a5.73 5.73 0 0 1 2.82 0 10.65 10.65 0 0 1 7.93 8.61 8.32 8.32 0 0 1-12.27-8m-35.18 30.92A9.6 9.6 0 0 1 663 135a11.94 11.94 0 0 1-7.83 3.08 12.11 12.11 0 0 1-7.88-3.19"/><path d="M650.29 121.06a9.73 9.73 0 0 1-9.82-11.6A8.72 8.72 0 0 1 650.61 121m9.76-15.42a9.73 9.73 0 0 1-13.13-7.68 8.73 8.73 0 0 1 13.4 7.49m3.1-4.86a9.72 9.72 0 0 1 13.12 7.68 8.73 8.73 0 0 1-13.39-7.48m4.3-2.92a9.73 9.73 0 0 1-5.18-14.3 8.72 8.72 0 0 1 5.51 14.32m9.98.47a9.73 9.73 0 0 1 7.95-13 8.74 8.74 0 0 1-7.75 13.25"/></g><path d="M636.5 168.04l-5.5-34.5 42.12.51-4.15 33.54" class="B"/><g class="C"><path d="M654.67 127.24a7.21 7.21 0 0 0 7 .59 7.58 7.58 0 0 0 3.83-6 8.09 8.09 0 0 0-11.62 4.84m20.05 8a7.21 7.21 0 0 0 7 .59 7.59 7.59 0 0 0 3.82-6 8.09 8.09 0 0 0-11.62 4.84m-10.01-16.03a7.17 7.17 0 0 0 5.51 4.34 7.58 7.58 0 0 0 6.52-2.94 8.59 8.59 0 0 0-5.63-4.14 8.47 8.47 0 0 0-6.73 1.79m7.36 9.55a7.17 7.17 0 0 0-6.29 3.11 7.57 7.57 0 0 0-.15 7.15 8.58 8.58 0 0 0 6.16-3.3 8.47 8.47 0 0 0 1.28-6.85m5.78 13.47a7.16 7.16 0 0 0 .17 7 7.56 7.56 0 0 0 6.42 3.15 8.57 8.57 0 0 0-.4-7c-1.11-2-3.1-3-5.6-3.58"/><use xlink:href="#D"/><use xlink:href="#D"/><path d="M607.72,145.38a10.66,10.66,0,0,0-14.42-10.5,17.78,17.78,0,0,0,14,10.37"/><use xlink:href="#E"/><use xlink:href="#F"/><use xlink:href="#G"/><use xlink:href="#H"/><path d="M614.38,124.41a8.89,8.89,0,0,1,14.08-.82,7.68,7.68,0,0,1-13.86.35"/><use xlink:href="#I"/><use xlink:href="#J"/></g><g class="H"><path d="M607.72,145.38a10.66,10.66,0,0,0-14.42-10.5,17.78,17.78,0,0,0,14,10.37"/></g><g class="H"><use xlink:href="#E"/></g><g class="H"><use xlink:href="#F"/></g><g class="H"><use xlink:href="#G"/></g><g class="H"><use xlink:href="#H"/></g><g class="H"><path d="M614.38,124.41a8.89,8.89,0,0,1,14.08-.82,7.68,7.68,0,0,1-13.86.35"/></g><g class="H"><use xlink:href="#I"/></g><g class="H"><use xlink:href="#J"/></g><use xlink:href="#K" class="C"/><g class="H"><use xlink:href="#K"/></g><g class="C"><path d="M697.49 127.12a8.68 8.68 0 0 0 .63-3.09 7.72 7.72 0 0 0-.82-3.56 7.59 7.59 0 0 0-6.14-4 8.89 8.89 0 0 0-3 .36c-2.06.54-4.1 1.71-6.54 2.2a7.78 7.78 0 0 1-3.8-.1 5.66 5.66 0 0 1-3.09-2.47c-1.47-2.28-1.89-5.14-3.66-7.24a7.24 7.24 0 0 0-3.33-2.18 9.22 9.22 0 0 0-3.89-.39 10 10 0 0 0-6.47 3.36 15.3 15.3 0 0 0-3.2 5.94 17.9 17.9 0 0 0-.72 5.88 64.33 64.33 0 0 0 1.09 8.61l.4 2.33c0 .24.07.44.09.61s0 .21 0 .21a.63.63 0 0 1-.06-.2c0-.17-.08-.36-.14-.6l-.48-2.32a56.93 56.93 0 0 1-1.24-8.63 18 18 0 0 1 .67-6 15.56 15.56 0 0 1 3.26-6.11 11.7 11.7 0 0 1 3-2.37 9.94 9.94 0 0 1 3.77-1.16 9.8 9.8 0 0 1 4.08.41 7.6 7.6 0 0 1 3.53 2.31c1.88 2.25 2.28 5.14 3.69 7.3a5.3 5.3 0 0 0 2.85 2.3 7.28 7.28 0 0 0 3.59.09c2.35-.45 4.4-1.6 6.52-2.15a9.3 9.3 0 0 1 3.16-.34 7.87 7.87 0 0 1 2.82.79 7.64 7.64 0 0 1 3.52 3.5 7.73 7.73 0 0 1 .77 3.68 7.12 7.12 0 0 1-.46 2.33 3.33 3.33 0 0 1-.4.7z"/><path d="M672.86 111.83a8.15 8.15 0 0 0 7.51.5 7.57 7.57 0 0 0 3.82-6 8.09 8.09 0 0 0-11.62 4.83m8.27 7.92a8.21 8.21 0 0 0 3.49 6.67 7.57 7.57 0 0 0 7.15.12 8.1 8.1 0 0 0-10.18-7.41m13.4-.99a8.17 8.17 0 0 0 7.52-.31 7.57 7.57 0 0 0 3.16-6.41 8.59 8.59 0 0 0-7 .38 8.5 8.5 0 0 0-4.06 5.66m-33.1-9.79c-2-1.74-3.37-4.8-3-7.09a7.56 7.56 0 0 1 4.64-5.44 8.6 8.6 0 0 1 2.41 6.56 8.51 8.51 0 0 1-3.59 6m-54.54-9.91s0-.07.08-.18.16-.31.28-.52a22 22 0 0 1 1.22-1.91 20.43 20.43 0 0 1 6-5.69 15 15 0 0 1 5.41-2 13.44 13.44 0 0 1 6.57.69 10.67 10.67 0 0 1 5.62 4.6c1.29 2.26 1.71 4.91 2.47 7.44a13.43 13.43 0 0 0 1.56 3.54 10.93 10.93 0 0 0 2.67 2.63l3 2.19a12.76 12.76 0 0 1 2.45 2.65 16.2 16.2 0 0 1 2.5 6.12 21.64 21.64 0 0 1 .34 5.75 43.81 43.81 0 0 1-1.47 8.17l-.61 2.18a6.22 6.22 0 0 1-.24.75 4.65 4.65 0 0 1 .15-.77l.52-2.2a47.37 47.37 0 0 0 1.33-8.15 21.91 21.91 0 0 0-.39-5.66 16 16 0 0 0-2.48-6 12.41 12.41 0 0 0-2.37-2.55c-.93-.76-2-1.42-3-2.17a11 11 0 0 1-2.78-2.74 13.69 13.69 0 0 1-1.63-3.66c-.77-2.58-1.18-5.19-2.42-7.34a10.2 10.2 0 0 0-5.38-4.43 13 13 0 0 0-6.37-.71 14.33 14.33 0 0 0-5.29 1.89 21 21 0 0 0-6 5.52l-1.29 1.85a5.93 5.93 0 0 1-.45.71z"/><path d="M640.22 106.4c-.69-.65-1-.2-2 0a5.92 5.92 0 0 0-2.53 1.26 10.67 10.67 0 0 0-3.45 11.19 8.32 8.32 0 0 0 7.64-12.49M611.6 93.37c-.35-.89-.85-.62-1.77-.87a5.73 5.73 0 0 0-2.82 0 10.65 10.65 0 0 0-7.93 8.61 8.32 8.32 0 0 0 12.27-8M646.53 124a9.6 9.6 0 0 0-15.09.74 11.94 11.94 0 0 0 7.83 3.08 12.11 12.11 0 0 0 7.88-3.19"/><path d="M644.18 110.86a9.72 9.72 0 0 0 9.82-11.6 8.72 8.72 0 0 0-10.14 11.51m-9.76-15.39a9.73 9.73 0 0 0 13.13-7.68 8.73 8.73 0 0 0-13.4 7.49m-3.1-4.86A9.72 9.72 0 0 0 617.61 98 8.73 8.73 0 0 0 631 90.53m-4.3-2.92a9.73 9.73 0 0 0 5.18-14.3 8.72 8.72 0 0 0-5.51 14.32m-9.98.47a9.73 9.73 0 0 0-7.95-13 8.74 8.74 0 0 0 7.75 13.25"/></g><path d="M630.46 164.04l3.23 4h39.64l2.7-4h-45.57z" class="B"/><path d="M675.16 164c0 .13-9.74.23-21.76.23s-21.75-.1-21.75-.23 9.74-.23 21.75-.23l21.76.23zm-4.46-15a1.41 1.41 0 0 1-.25.33 10.35 10.35 0 0 1-.8.85 14.93 14.93 0 0 1-3.54 2.45 15.66 15.66 0 0 1-6.19 1.59 14.61 14.61 0 0 1-3.79-.32 22.1 22.1 0 0 1-3.86-1.28l-7.14-3a12.23 12.23 0 0 0-6.16-.6 8.11 8.11 0 0 0-3.79 1.76c-.75.66-1 1.15-1.08 1.12a1.79 1.79 0 0 1 .2-.36 6.49 6.49 0 0 1 .76-.89 7.8 7.8 0 0 1 3.84-1.94 12.31 12.31 0 0 1 6.36.51c2.32.71 4.67 2 7.19 3a21.83 21.83 0 0 0 3.78 1.27 15 15 0 0 0 3.67.33 15.66 15.66 0 0 0 6.07-1.46 18.55 18.55 0 0 0 4.73-3.36zm.39-3.14s-.08.11-.27.3a8.28 8.28 0 0 1-.86.79 16.52 16.52 0 0 1-3.67 2.28 17.18 17.18 0 0 1-6.23 1.49 16.51 16.51 0 0 1-3.8-.26 25.3 25.3 0 0 1-3.92-1.1l-7.31-2.69a14.71 14.71 0 0 0-6.22-.56 9.27 9.27 0 0 0-3.93 1.5c-.82.58-1.18 1-1.21 1a1.28 1.28 0 0 1 .24-.33 7.52 7.52 0 0 1 .87-.8 9 9 0 0 1 4-1.68 14.5 14.5 0 0 1 6.38.48c2.34.63 4.77 1.72 7.35 2.66a28 28 0 0 0 3.85 1.1 16.82 16.82 0 0 0 3.7.27 17.77 17.77 0 0 0 6.12-1.36 21.57 21.57 0 0 0 4.91-3.09zm-46.77 26.07h3.47v9.68h-3.47zm49.52 0h3.47v9.68h-3.47z" class="E"/><defs ><path id="B" d="M189.46 75.18a48 48 0 0 1-6.67.23 48.13 48.13 0 0 1-6.68-.23 48.13 48.13 0 0 1 6.68-.23 48 48 0 0 1 6.67.23z"/><path id="C" d="M77.73,303.27l-4.43,8c-.1.19-.24.4-.45.42s-.4-.2-.53-.4q-5.86-9-11.71-18l2.7-1.53Z"/><path id="D" d="M688.13 141.85a5 5 0 0 0-1.67-1.06 7.07 7.07 0 0 0-2.28-.4 25.74 25.74 0 0 0-3.11.18 9 9 0 0 1-3.83-.33 5.88 5.88 0 0 1-3.16-3.05 17.71 17.71 0 0 1-1.36-4.66 13.48 13.48 0 0 0-1.62-4.78 16.75 16.75 0 0 0-3.56-3.62 17.43 17.43 0 0 1-3.41-3.46 11.38 11.38 0 0 1-1.7-7.93 11.1 11.1 0 0 1 2.07-5.1 8 8 0 0 1 1-1.11 2 2 0 0 1 .4-.34 2.8 2.8 0 0 1-.33.4 10.76 10.76 0 0 0-.94 1.16 11.34 11.34 0 0 0-1.89 5 11.14 11.14 0 0 0 1.73 7.65 17.07 17.07 0 0 0 3.34 3.35 17.25 17.25 0 0 1 3.66 3.72 13.61 13.61 0 0 1 1.68 4.94 17.28 17.28 0 0 0 1.3 4.56 5.49 5.49 0 0 0 2.91 2.88 9.06 9.06 0 0 0 3.68.37 24.92 24.92 0 0 1 3.14-.12 7.29 7.29 0 0 1 2.34.49 3.84 3.84 0 0 1 1.26.82 2.5 2.5 0 0 1 .26.29.34.34 0 0 1 .09.15z"/><path id="E" d="M604.94,146.85c-2.06,2.26-1.93,5.9-.46,8.58s4,4.59,6.56,6.29a13.84,13.84,0,0,0-6-15.69"/><path id="F" d="M614.92,136.24a12.3,12.3,0,0,0,14,11c-.8-3.31-2.13-6.65-4.68-8.9s-6.59-3.08-9.43-1.19"/><path id="G" d="M614.85,132.86c-.52-3-3.49-5.19-6.53-5.48a12.58,12.58,0,0,0-8.5,2.86,11,11,0,0,0,15.06,1.49"/><path id="H" d="M599.16,158.5c-2.89,2.47-3.62,6.87-2.42,10.48s4,6.48,7.18,8.59a22.83,22.83,0,0,0,1.34-11.13c-.64-3.73-2.88-7.32-6.34-8.84"/><path id="I" d="M617.93,115.72a11.57,11.57,0,0,1-14.74-9,26.57,26.57,0,0,1,7,.11,11.28,11.28,0,0,1,6.16,3,6.12,6.12,0,0,1,1.62,5.9"/><path id="J" d="M624.61,113.47a9.43,9.43,0,0,1-.06-14.57,19.81,19.81,0,0,1,4.13,8.8,7.51,7.51,0,0,1,0,3.65,3.37,3.37,0,0,1-2.55,2.38"/><path id="K" d="M636.16 134.65a.73.73 0 0 1 0-.24v-.69l.12-2.67a23.74 23.74 0 0 0-1.57-9.57 14.59 14.59 0 0 0-3.84-5.42 10.34 10.34 0 0 0-7-2.57 8.66 8.66 0 0 0-3.95 1 7.81 7.81 0 0 0-3.05 2.91 15.62 15.62 0 0 0-1.77 8.8c.11 3.14.55 6.24.21 9.26a14.26 14.26 0 0 1-1.16 4.3 8.89 8.89 0 0 1-2.59 3.39A13.15 13.15 0 0 1 608 145a18.21 18.21 0 0 0-3.4 1.54 12.37 12.37 0 0 0-4.47 4.87 11.92 11.92 0 0 0-1.29 5.32 12.51 12.51 0 0 0 .68 4.12 15.74 15.74 0 0 0 1.59 3.2 1.84 1.84 0 0 1-.15-.18 5.91 5.91 0 0 1-.41-.57 11.06 11.06 0 0 1-1.2-2.39 12.39 12.39 0 0 1-.76-4.18 11.88 11.88 0 0 1 1.26-5.47 12.56 12.56 0 0 1 4.55-5c2.08-1.39 4.83-1.73 7-3.4s3.24-4.51 3.56-7.41-.11-6-.22-9.19a16 16 0 0 1 1.85-9 8.28 8.28 0 0 1 3.23-3.07 9.14 9.14 0 0 1 4.14-1 10.58 10.58 0 0 1 7.26 2.71 14.79 14.79 0 0 1 3.9 5.58 19.84 19.84 0 0 1 1.33 5.46 30.36 30.36 0 0 1 .12 4.24c0 1.16-.14 2.06-.2 2.66l-.09.69a.68.68 0 0 1-.12.12z"/></defs></svg>